<?xml version="1.0" encoding="utf-8"?>
<!-- Generator: Adobe Illustrator 16.0.0, SVG Export Plug-In . SVG Version: 6.00 Build 0)  -->
<!DOCTYPE svg PUBLIC "-//W3C//DTD SVG 1.1//EN" "http://www.w3.org/Graphics/SVG/1.1/DTD/svg11.dtd">
<svg version="1.1" id="Layer_1" xmlns="http://www.w3.org/2000/svg" xmlns:xlink="http://www.w3.org/1999/xlink" x="0px" y="0px"
	 width="85px" height="84.5px" viewBox="0 0 85 84.5" enable-background="new 0 0 85 84.5" xml:space="preserve">
<g>
	<path fill="#FFFFFF" d="M45.053,22.02c1.4,13.441,0.56,33.394-3.15,40.955c-1.681,3.57-5.461,6.09-9.451,6.511
		C18.661,70.815,17.4,51.073,17.4,36.021c0-13.791,2.73-27.163,9.591-29.543c2.31-0.84,4.97-1.19,6.931-1.05
		C41.553,5.918,44.144,13.059,45.053,22.02z M33.712,65.705c3.29-11.481,6.721-52.646-0.42-57.056c-1.19-0.7-3.57-1.4-4.69,3.01
		c-0.7,2.59-4.97,44.875,1.19,54.956C30.702,68.155,33.152,67.735,33.712,65.705z"/>
	<path fill="#FFFFFF" d="M51.35,18.24c-0.771-1.33-2.03-2.17-0.91-2.94c3.22-2.1,6.791-9.311,8.751-9.521
		c0.14-0.07,0.28-0.07,0.35-0.07c8.121,0,7.141,0.35,7.211,10.221c0.07,4.34-1.89,38.364-0.7,49.635c2.73,0.14,4.201,0.07,4.13,0.49
		c0,0.91,0.49,1.68-0.98,2.17c-4.55,0.28-8.961,0.84-14.771,1.05c-1.68,0-1.61-3.851-0.14-3.851c1.26-0.07,2.521-0.07,3.71-0.07
		c-0.35-12.251,0.91-30.383-0.28-40.324c-0.14-1.12-0.28-4.69-0.21-8.471c0.07-2.87,0.21-5.11,0.561-7.211
		C58.07,9.349,55.27,16.77,51.35,18.24z"/>
</g>
</svg>
