<?xml version="1.0" encoding="utf-8"?>
<!-- Generator: Adobe Illustrator 16.0.0, SVG Export Plug-In . SVG Version: 6.00 Build 0)  -->
<!DOCTYPE svg PUBLIC "-//W3C//DTD SVG 1.1//EN" "http://www.w3.org/Graphics/SVG/1.1/DTD/svg11.dtd">
<svg version="1.1" id="Layer_1" xmlns="http://www.w3.org/2000/svg" xmlns:xlink="http://www.w3.org/1999/xlink" x="0px" y="0px"
	 width="85px" height="84.5px" viewBox="0 0 85 84.5" enable-background="new 0 0 85 84.5" xml:space="preserve">
<g>
	<path fill="#FFFFFF" d="M45.053,22.02c1.4,13.441,0.56,33.394-3.15,40.955c-1.681,3.57-5.461,6.09-9.451,6.511
		C18.661,70.815,17.4,51.073,17.4,36.021c0-13.791,2.73-27.163,9.591-29.543c2.31-0.84,4.97-1.19,6.931-1.05
		C41.553,5.918,44.144,13.059,45.053,22.02z M33.712,65.705c3.29-11.481,6.721-52.646-0.42-57.056c-1.19-0.7-3.57-1.4-4.69,3.01
		c-0.7,2.59-4.97,44.875,1.19,54.956C30.702,68.155,33.152,67.735,33.712,65.705z"/>
	<path fill="#FFFFFF" d="M50.021,65.845c0.14-11.831,3.29-19.742,10.641-29.123c3.71-4.76,6.931-9.241,6.65-16.102
		c-0.84-17.642-10.011-15.682-10.921-5.181c-0.07,0.91-3.22,2.311-3.431,0.28c-1.4-10.151,10.641-13.372,18.132-7.211
		c6.23,5.181,5.601,17.922,1.47,25.833c-6.021,11.622-15.961,12.812-18.412,31.224c1.96-1.75,16.802-1.68,18.482,1.68
		c0.28,0.56,0,2.52-1.68,2.17c-3.71-0.63-13.091-2.87-16.662-0.77C50.65,70.675,49.95,68.995,50.021,65.845z"/>
</g>
</svg>
