<?xml version="1.0" encoding="utf-8"?>
<!-- Generator: Adobe Illustrator 16.0.0, SVG Export Plug-In . SVG Version: 6.00 Build 0)  -->
<!DOCTYPE svg PUBLIC "-//W3C//DTD SVG 1.1//EN" "http://www.w3.org/Graphics/SVG/1.1/DTD/svg11.dtd">
<svg version="1.1" id="Layer_1" xmlns="http://www.w3.org/2000/svg" xmlns:xlink="http://www.w3.org/1999/xlink" x="0px" y="0px"
	 width="85px" height="84.5px" viewBox="0 0 85 84.5" enable-background="new 0 0 85 84.5" xml:space="preserve">
<g>
	<path fill="#FFFFFF" d="M45.053,22.02c1.4,13.441,0.56,33.394-3.15,40.955c-1.681,3.57-5.461,6.09-9.451,6.511
		C18.661,70.815,17.4,51.073,17.4,36.021c0-13.791,2.73-27.163,9.591-29.543c2.31-0.84,4.97-1.19,6.931-1.05
		C41.553,5.918,44.144,13.059,45.053,22.02z M33.712,65.705c3.29-11.481,6.721-52.646-0.42-57.056c-1.19-0.7-3.57-1.4-4.69,3.01
		c-0.7,2.59-4.97,44.875,1.19,54.956C30.702,68.155,33.152,67.735,33.712,65.705z"/>
	<path fill="#FFFFFF" d="M58.701,35.182c3.851-0.49,6.441-5.041,7.421-10.221c0.77-3.99,0.21-4.97-0.28-8.751
		c-0.28-1.89-0.77-3.57-1.47-4.831c-1.19-2.1-3.011-3.57-4.901-3.64c-2.38-0.14-5.18,0.77-5.041,7.631c0,1.05-3.64,1.05-3.64,0.14
		c0-7.421,3.43-8.891,8.471-9.871c5.601-1.12,10.221,0.91,12.742,3.71c2.17,2.451,2.66,5.251,2.8,9.591
		c0.07,0.91-0.07,1.89-0.14,2.87c-0.14,4.621-1.82,9.451-5.181,12.392c-1.33,1.19-5.46,2.45-8.961,2.8
		c9.031-0.84,13.511,7.07,13.441,15.261c-0.07,4.761-1.61,9.591-4.621,12.881c-7.771,8.611-18.202,2.73-20.722-0.49
		c-1.19-1.61,0.56-4.831,1.61-3.5c5.67,7.281,11.271,8.611,13.721-2.03c1.12-4.69,2.17-9.661,0.98-14.352
		c-0.98-3.57-3.01-6.301-6.511-6.511C56.531,38.122,56.601,35.461,58.701,35.182z"/>
</g>
</svg>
