<?xml version="1.0" encoding="utf-8"?>
<!-- Generator: Adobe Illustrator 16.0.0, SVG Export Plug-In . SVG Version: 6.00 Build 0)  -->
<!DOCTYPE svg PUBLIC "-//W3C//DTD SVG 1.1//EN" "http://www.w3.org/Graphics/SVG/1.1/DTD/svg11.dtd">
<svg version="1.1" id="Layer_1" xmlns="http://www.w3.org/2000/svg" xmlns:xlink="http://www.w3.org/1999/xlink" x="0px" y="0px"
	 width="85px" height="84.5px" viewBox="0 0 85 84.5" enable-background="new 0 0 85 84.5" xml:space="preserve">
<g>
	<path fill="#FFFFFF" d="M45.053,22.02c1.4,13.441,0.56,33.394-3.15,40.955c-1.681,3.57-5.461,6.09-9.451,6.511
		C18.661,70.815,17.4,51.073,17.4,36.021c0-13.791,2.73-27.163,9.591-29.543c2.31-0.84,4.97-1.19,6.931-1.05
		C41.553,5.918,44.144,13.059,45.053,22.02z M33.712,65.705c3.29-11.481,6.721-52.646-0.42-57.056c-1.19-0.7-3.57-1.4-4.69,3.01
		c-0.7,2.59-4.97,44.875,1.19,54.956C30.702,68.155,33.152,67.735,33.712,65.705z"/>
	<path fill="#FFFFFF" d="M78.582,47.013c0.14,0,2.59,2.521-0.14,2.45c-0.7-0.07-1.47-0.07-2.31-0.07
		c-0.07,6.581,0,12.531,0.35,16.172c2.66,0.14,4.13,0.07,4.13,0.49c0,0.91,0.49,1.68-0.98,2.17c-4.551,0.28-8.961,0.84-14.771,1.05
		c-1.68,0-1.61-3.851-0.14-3.851c1.26-0.07,2.52-0.07,3.71-0.07c-0.14-4.69-0.07-10.221,0.07-15.821
		c-4.69,0.14-9.871,0.35-13.792,0.56c-0.98,0.07-2.8-0.98-2.59-2.1c1.47-6.091,15.542-42.005,17.502-42.215
		c0.14-0.07,0.28-0.07,0.35-0.07c8.121,0,7.141,0.35,7.211,10.221c0,2.73-0.77,17.572-0.98,30.943
		C77.182,46.873,78.022,46.943,78.582,47.013z M68.571,46.803c0-3.64,0.07-7.281,0.07-10.641c0-7.841-0.56-19.882-0.14-23.242
		c0,0-10.151,24.572-13.582,34.374C59.4,47.013,64.301,46.873,68.571,46.803z"/>
</g>
</svg>
