<?xml version="1.0" encoding="utf-8"?>
<!-- Generator: Adobe Illustrator 16.0.0, SVG Export Plug-In . SVG Version: 6.00 Build 0)  -->
<!DOCTYPE svg PUBLIC "-//W3C//DTD SVG 1.1//EN" "http://www.w3.org/Graphics/SVG/1.1/DTD/svg11.dtd">
<svg version="1.1" id="Layer_1" xmlns="http://www.w3.org/2000/svg" xmlns:xlink="http://www.w3.org/1999/xlink" x="0px" y="0px"
	 width="85px" height="84.5px" viewBox="0 0 85 84.5" enable-background="new 0 0 85 84.5" xml:space="preserve">
<g>
	<path fill="#FFFFFF" d="M45.053,22.02c1.4,13.441,0.56,33.394-3.15,40.955c-1.681,3.57-5.461,6.09-9.451,6.511
		C18.661,70.815,17.4,51.073,17.4,36.021c0-13.791,2.73-27.163,9.591-29.543c2.31-0.84,4.97-1.19,6.931-1.05
		C41.553,5.918,44.144,13.059,45.053,22.02z M33.712,65.705c3.29-11.481,6.721-52.646-0.42-57.056c-1.19-0.7-3.57-1.4-4.69,3.01
		c-0.7,2.59-4.97,44.875,1.19,54.956C30.702,68.155,33.152,67.735,33.712,65.705z"/>
	<path fill="#FFFFFF" d="M59.96,38.192c0.21,2.24-6.65,2.38-6.86-3.15C52.82,24.75,52.05,18.17,52.05,16
		c0.07-6.161-0.35-8.611,1.4-9.591c2.1-1.26,18.271,1.61,22.122-0.21c1.12,0.7,1.12,1.68,0.28,3.01
		c-5.251,1.4-15.122,0.21-15.122,0.21c1.331,7.281,0.14,15.262-0.07,22.612c4.34-1.47,11.551,0.49,14.282,3.92
		c5.391,6.721,5.67,22.893-0.56,28.983c-8.051,7.841-18.342,1.96-20.722-0.63c-1.47-1.61,0.84-4.551,1.75-2.87
		c2.03,3.78,5.531,4.83,8.681,3.99c6.301-1.75,6.931-19.392,5.881-24.363c-0.63-2.87-3.08-6.371-7.141-6.09
		C60.381,35.111,59.891,36.722,59.96,38.192z"/>
</g>
</svg>
