<?xml version="1.0" encoding="utf-8"?>
<!-- Generator: Adobe Illustrator 16.0.0, SVG Export Plug-In . SVG Version: 6.00 Build 0)  -->
<!DOCTYPE svg PUBLIC "-//W3C//DTD SVG 1.1//EN" "http://www.w3.org/Graphics/SVG/1.1/DTD/svg11.dtd">
<svg version="1.1" id="Layer_1" xmlns="http://www.w3.org/2000/svg" xmlns:xlink="http://www.w3.org/1999/xlink" x="0px" y="0px"
	 width="85px" height="84.5px" viewBox="0 0 85 84.5" enable-background="new 0 0 85 84.5" xml:space="preserve">
<g>
	<path fill="#FFFFFF" d="M45.053,22.02c1.4,13.441,0.56,33.394-3.15,40.955c-1.681,3.57-5.461,6.09-9.451,6.511
		C18.661,70.815,17.4,51.073,17.4,36.021c0-13.791,2.73-27.163,9.591-29.543c2.31-0.84,4.97-1.19,6.931-1.05
		C41.553,5.918,44.144,13.059,45.053,22.02z M33.712,65.705c3.29-11.481,6.721-52.646-0.42-57.056c-1.19-0.7-3.57-1.4-4.69,3.01
		c-0.7,2.59-4.97,44.875,1.19,54.956C30.702,68.155,33.152,67.735,33.712,65.705z"/>
	<path fill="#FFFFFF" d="M61.641,33.642c3.99-3.5,8.261-3.081,11.551-0.28c5.811,4.971,7.491,17.432,2.59,29.473
		c-1.541,3.71-5.671,6.161-9.661,6.511C55.34,70.396,53.38,58.494,52.89,46.103c-0.14-3.5-0.07-6.931,0-10.221
		C53.31,22.16,55.55,8.719,62.48,6.338c7.281-2.52,13.302,0.91,13.162,8.331c-0.07,2.52-3.71,2.17-4.201-0.35
		c-0.56-2.87-1.47-4.971-2.73-5.741c-1.12-0.7-3.57-1.47-4.831,2.94C63.111,14.25,61.15,34.131,61.641,33.642z M67.941,34.901
		c-1.12-0.49-4.621-0.21-5.741,2.311c-2.31,5.53-1.96,23.592,1.33,29.263c0.91,1.541,2.66,0.84,3.99-0.91
		C70.812,61.364,72.912,37.352,67.941,34.901z"/>
</g>
</svg>
