<?xml version="1.0" encoding="utf-8"?>
<!-- Generator: Adobe Illustrator 16.0.0, SVG Export Plug-In . SVG Version: 6.00 Build 0)  -->
<!DOCTYPE svg PUBLIC "-//W3C//DTD SVG 1.1//EN" "http://www.w3.org/Graphics/SVG/1.1/DTD/svg11.dtd">
<svg version="1.1" id="Layer_1" xmlns="http://www.w3.org/2000/svg" xmlns:xlink="http://www.w3.org/1999/xlink" x="0px" y="0px"
	 width="85px" height="84.5px" viewBox="0 0 85 84.5" enable-background="new 0 0 85 84.5" xml:space="preserve">
<g>
	<path fill="#FFFFFF" d="M45.053,22.02c1.4,13.441,0.56,33.394-3.15,40.955c-1.681,3.57-5.461,6.09-9.451,6.511
		C18.661,70.815,17.4,51.073,17.4,36.021c0-13.791,2.73-27.163,9.591-29.543c2.31-0.84,4.97-1.19,6.931-1.05
		C41.553,5.918,44.144,13.059,45.053,22.02z M33.712,65.705c3.29-11.481,6.721-52.646-0.42-57.056c-1.19-0.7-3.57-1.4-4.69,3.01
		c-0.7,2.59-4.97,44.875,1.19,54.956C30.702,68.155,33.152,67.735,33.712,65.705z"/>
	<path fill="#FFFFFF" d="M49.18,10.119c-0.56-1.33-1.12-3.781,0.14-4.48c5.041,5.25,15.052,0.98,17.082,0.77
		c0.14-0.07,0.28-0.07,0.35-0.07c8.121,0,7.07,0.35,5.39,10.221c-0.7,4.34-8.75,38.364-9.591,49.635c2.66,0.14,4.201,0,4.061,0.49
		c-0.14,0.91,0.7,2.1-0.91,2.59c-4.621,0.28-9.311-0.7-15.192-0.49c-1.68,0-1.19-2.73,0.28-2.73c1.33-0.07,2.59-0.07,3.78-0.07
		c1.75-12.251,6.301-30.383,6.931-40.324c0-1.12,0.56-4.69,1.26-8.471c0.56-2.87,1.12-5.11,1.89-7.21
		C64.651,9.979,54.92,13.409,49.18,10.119z"/>
</g>
</svg>
