<?xml version="1.0" encoding="utf-8"?>
<!-- Generator: Adobe Illustrator 16.0.0, SVG Export Plug-In . SVG Version: 6.00 Build 0)  -->
<!DOCTYPE svg PUBLIC "-//W3C//DTD SVG 1.1//EN" "http://www.w3.org/Graphics/SVG/1.1/DTD/svg11.dtd">
<svg version="1.1" id="Layer_1" xmlns="http://www.w3.org/2000/svg" xmlns:xlink="http://www.w3.org/1999/xlink" x="0px" y="0px"
	 width="85px" height="84.5px" viewBox="0 0 85 84.5" enable-background="new 0 0 85 84.5" xml:space="preserve">
<g>
	<path fill="#FFFFFF" d="M45.053,22.02c1.4,13.441,0.56,33.394-3.15,40.955c-1.681,3.57-5.461,6.09-9.451,6.511
		C18.661,70.815,17.4,51.073,17.4,36.021c0-13.791,2.73-27.163,9.591-29.543c2.31-0.84,4.97-1.19,6.931-1.05
		C41.553,5.918,44.144,13.059,45.053,22.02z M33.712,65.705c3.29-11.481,6.721-52.646-0.42-57.056c-1.19-0.7-3.57-1.4-4.69,3.01
		c-0.7,2.59-4.97,44.875,1.19,54.956C30.702,68.155,33.152,67.735,33.712,65.705z"/>
	<path fill="#FFFFFF" d="M79.003,14.109c1.4,6.721-0.49,16.452-4.13,20.162c-1.19,1.26-2.38,2.521-4.9,3.08
		c12.251,1.61,11.061,23.243,5.881,28.633c-1.681,1.75-5.461,3.01-9.451,3.22c-13.792,0.7-15.052-9.241-15.052-16.731
		c0-7.071,4.761-14.072,10.361-14.912c-6.791-1.12-9.241-9.941-9.241-16.452c0-6.861,3.081-14.002,9.871-15.192
		c2.38-0.42,3.57-0.21,5.531-0.14C75.503,6.059,78.094,9.629,79.003,14.109z M67.663,34.691c3.29-5.74,6.721-23.873-0.42-26.042
		c-1.19-0.35-3.57-0.77-4.69,1.47c-0.7,1.33-4.97,19.952,1.19,24.992C64.652,35.882,67.103,35.672,67.663,34.691z M67.663,66.475
		c3.29-5.74,6.721-24.152-0.42-26.393c-1.19-0.35-3.57-0.7-4.69,1.47c-0.7,1.33-4.97,20.302,1.19,25.343
		C64.652,67.735,67.103,67.525,67.663,66.475z"/>
</g>
</svg>
