<?xml version="1.0" encoding="utf-8"?>
<!-- Generator: Adobe Illustrator 16.0.0, SVG Export Plug-In . SVG Version: 6.00 Build 0)  -->
<!DOCTYPE svg PUBLIC "-//W3C//DTD SVG 1.1//EN" "http://www.w3.org/Graphics/SVG/1.1/DTD/svg11.dtd">
<svg version="1.1" id="Layer_1" xmlns="http://www.w3.org/2000/svg" xmlns:xlink="http://www.w3.org/1999/xlink" x="0px" y="0px"
	 width="166.25px" height="186.25px" viewBox="0 0 166.25 186.25" enable-background="new 0 0 166.25 186.25" xml:space="preserve">
<g>
	<path fill="#E9F6F6" d="M111.828,180.753c-13.273,0.679-26.453-13.373-26.453-13.373l-0.074-67.831l68.023-68.026H10.879
		l68.026,68.026v67.831c0,0-13.179,14.052-26.454,13.373H111.828z"/>
	<g opacity="0.4">
		<path fill="#D3E0E0" d="M52.451,180.753c0.564,0.027,1.127,0.022,1.689,0H52.451z"/>
		<path fill="#D3E0E0" d="M82.174,31.523H10.879l68.026,68.026v67.831c0,0-12.084,12.874-24.765,13.373h28.034V31.523z"/>
	</g>
	<polygon fill="#B6D29A" points="84.552,90.627 136.66,38.521 27.546,38.521 79.654,90.627 	"/>
	<polygon fill="#F4F0DF" points="86.482,78.066 79.758,86.434 85.941,77.66 136.225,10.559 136.768,10.965 	"/>
	<g>
		
			<ellipse transform="matrix(0.7731 -0.6343 0.6343 0.7731 -18.3753 75.636)" fill="#9AA958" cx="96.532" cy="63.502" rx="6.587" ry="9.109"/>
		
			<ellipse transform="matrix(0.7729 -0.6346 0.6346 0.7729 -20.5596 78.8839)" fill="#C53E3C" cx="99.915" cy="68.162" rx="2.083" ry="1.608"/>
	</g>
</g>
<g>
	<path fill="#E9F6F6" d="M111.828,180.753c-13.273,0.679-26.453-13.373-26.453-13.373l-0.074-67.831l68.023-68.026H10.879
		l68.026,68.026v67.831c0,0-13.179,14.052-26.454,13.373H111.828z"/>
	<g opacity="0.4">
		<path fill="#D3E0E0" d="M52.451,180.753c0.564,0.027,1.127,0.022,1.689,0H52.451z"/>
		<path fill="#D3E0E0" d="M82.174,31.523H10.879l68.026,68.026v67.831c0,0-12.084,12.874-24.765,13.373h28.034V31.523z"/>
	</g>
	<polygon fill="#B6D29A" points="84.552,90.627 136.66,38.521 27.546,38.521 79.654,90.627 	"/>
	<polygon fill="#F4F0DF" points="86.482,78.066 79.758,86.434 85.941,77.66 136.225,10.559 136.768,10.965 	"/>
	<g>
		
			<ellipse transform="matrix(0.7731 -0.6343 0.6343 0.7731 -18.3753 75.636)" fill="#9AA958" cx="96.532" cy="63.502" rx="6.587" ry="9.109"/>
		
			<ellipse transform="matrix(0.7729 -0.6346 0.6346 0.7729 -20.5596 78.8839)" fill="#C53E3C" cx="99.915" cy="68.162" rx="2.083" ry="1.608"/>
	</g>
</g>
</svg>
