<?xml version="1.0" encoding="utf-8"?>
<!-- Generator: Adobe Illustrator 16.0.0, SVG Export Plug-In . SVG Version: 6.00 Build 0)  -->
<!DOCTYPE svg PUBLIC "-//W3C//DTD SVG 1.1//EN" "http://www.w3.org/Graphics/SVG/1.1/DTD/svg11.dtd">
<svg version="1.1" id="Layer_1" xmlns="http://www.w3.org/2000/svg" xmlns:xlink="http://www.w3.org/1999/xlink" x="0px" y="0px"
	 width="166.25px" height="186.25px" viewBox="0 0 166.25 186.25" enable-background="new 0 0 166.25 186.25" xml:space="preserve">
<g>
	<polygon fill="#E9F6F6" points="124.507,36.342 114.079,173.303 45.047,173.303 34.617,36.342 	"/>
</g>
<g>
	<polygon fill="#ECBB57" points="40.6,70.937 49.619,164.229 109.505,164.229 118.734,70.937 	"/>
</g>
<g>
	<path fill="#FFFFFF" d="M82.123,75.603c0.91,1.076,0.776,2.685-0.299,3.595L68.253,90.676c-1.077,0.91-2.685,0.775-3.595-0.3
		L53.18,76.803c-0.91-1.075-0.776-2.684,0.3-3.592l13.57-11.479c1.076-0.91,2.687-0.775,3.594,0.299L82.123,75.603z"/>
</g>
<g>
	<path fill="#FFFFFF" d="M104.775,88.988c-0.575,1.285-2.082,1.861-3.369,1.285l-16.224-7.261c-1.287-0.576-1.861-2.083-1.287-3.37
		l7.263-16.224c0.575-1.286,2.083-1.86,3.368-1.286l16.224,7.262c1.287,0.576,1.863,2.083,1.287,3.369L104.775,88.988z"/>
</g>
<g opacity="0.5">
	<polygon fill="#ECBB57" points="40.6,70.937 49.619,164.229 109.505,164.229 118.734,70.937 	"/>
</g>
<g>
	<circle fill="#73903C" cx="125.216" cy="36.058" r="23.11"/>
</g>
<g>
	<circle fill="#FFFFFF" cx="125.216" cy="36.058" r="21.551"/>
</g>
<g>
	<circle fill="#C4D22E" cx="125.216" cy="36.058" r="20.133"/>
</g>
<g>
	<rect x="124.648" y="15.57" fill="#FFFFFF" width="1.135" height="41.543"/>
</g>
<g>
	<rect x="104.445" y="35.775" fill="#FFFFFF" width="41.542" height="1.133"/>
</g>
<g>
	
		<rect x="124.64" y="15.572" transform="matrix(-0.7071 -0.7071 0.7071 -0.7071 188.0444 150.5761)" fill="#FFFFFF" width="1.135" height="41.542"/>
</g>
<g>
	
		<rect x="104.441" y="35.773" transform="matrix(-0.7071 -0.7071 0.7071 -0.7071 188.0533 150.5759)" fill="#FFFFFF" width="41.543" height="1.135"/>
</g>
<g opacity="0.7">
	<polygon fill="#E9F6F6" points="122.769,59.168 124.507,36.342 34.617,36.342 36.355,59.168 	"/>
</g>
</svg>
