<?xml version="1.0" encoding="utf-8"?>
<!-- Generator: Adobe Illustrator 16.0.0, SVG Export Plug-In . SVG Version: 6.00 Build 0)  -->
<!DOCTYPE svg PUBLIC "-//W3C//DTD SVG 1.1//EN" "http://www.w3.org/Graphics/SVG/1.1/DTD/svg11.dtd">
<svg version="1.1" id="Layer_1" xmlns="http://www.w3.org/2000/svg" xmlns:xlink="http://www.w3.org/1999/xlink" x="0px" y="0px"
	 width="166.25px" height="186.25px" viewBox="0 0 166.25 186.25" enable-background="new 0 0 166.25 186.25" xml:space="preserve">
<path fill="#E9F6F6" d="M86.25,154.879l-0.072-66.303c19.695-2.034,35.197-23.544,35.197-49.802c0-7.416-1.246-14.446-3.465-20.775
	H48.338c-2.218,6.329-3.464,13.359-3.464,20.775c0,26.128,15.348,47.558,34.905,49.772v66.333c0,0-12.087,12.877-24.769,13.373
	h56.007C98.336,167.756,86.25,154.879,86.25,154.879z"/>
<path opacity="0.4" fill="#D3E0E0" enable-background="new    " d="M55.012,168.252h28.113V17.999H48.338
	c-2.218,6.329-3.464,13.359-3.464,20.775c0,26.128,15.348,47.558,34.905,49.772v66.333
	C79.779,154.879,67.692,167.756,55.012,168.252z"/>
<path fill="#78133C" d="M49.875,43.477c0.926,22.944,15.457,41.178,33.25,41.178c17.793,0,32.323-18.232,33.25-41.178H49.875z"/>
<g>
	<g>
		<path fill="#813458" d="M54.223,49.63c2.998,13.367,9.284,26.585,23.06,31.321c3.059,1.051,4.36-3.78,1.33-4.821
			C66.598,72,61.619,59.777,59.045,48.301C58.338,45.156,53.519,46.491,54.223,49.63L54.223,49.63z"/>
	</g>
</g>
</svg>
