<?xml version="1.0" encoding="utf-8"?>
<!-- Generator: Adobe Illustrator 16.0.0, SVG Export Plug-In . SVG Version: 6.00 Build 0)  -->
<!DOCTYPE svg PUBLIC "-//W3C//DTD SVG 1.1//EN" "http://www.w3.org/Graphics/SVG/1.1/DTD/svg11.dtd">
<svg version="1.1" id="Layer_1" xmlns="http://www.w3.org/2000/svg" xmlns:xlink="http://www.w3.org/1999/xlink" x="0px" y="0px"
	 width="192.667px" height="101.333px" viewBox="0 0 192.667 101.333" enable-background="new 0 0 192.667 101.333"
	 xml:space="preserve">
<g>
	<path fill="#E9BBAD" d="M134.805,73.078c0,0,0.364,0.114,1.047,0.327c0.341,0.106,0.762,0.238,1.257,0.394
		c0.44,0.076,0.946,0.163,1.514,0.261c0.141,0.026,0.285,0.053,0.435,0.079c0.154,0.005,0.313,0.01,0.477,0.014
		c0.327,0.01,0.669,0.02,1.025,0.029c0.36,0.041,0.72-0.043,1.1-0.084c0.374-0.064,0.779-0.059,1.17-0.178
		c1.598-0.343,3.304-1.176,4.97-2.461c1.668-1.289,3.265-3.051,4.773-5.098c1.515-2.045,2.945-4.372,4.422-6.816
		c0.73-1.211,1.498-2.518,2.458-3.75c0.935-1.219,1.971-2.371,3.095-3.445c2.251-2.144,4.841-4.02,7.74-5.349
		c2.877-1.321,6.166-2.081,9.369-1.548c3.207,0.492,6.028,2.336,7.9,4.653c1.939,2.621,2.104,5.929,1.028,8.526
		c-1.052,2.639-3.382,4.462-5.751,4.985c-1.161,0.298-2.313,0.404-3.416,0.321c-1.089-0.104-2.197-0.393-2.981-1.175
		c-0.202-0.192-0.338-0.396-0.493-0.663c-0.091-0.211-0.195-0.389-0.271-0.618c-0.162-0.495-0.221-0.958-0.22-1.396
		c0.017-0.884,0.275-1.669,0.658-2.29c0.386-0.612,0.899-1.116,1.556-1.27c0.16-0.033,0.335-0.018,0.489-0.018
		c0.153,0.027,0.296,0.098,0.43,0.15c0.227,0.146,0.432,0.319,0.537,0.488c0.243,0.342,0.342,0.621,0.402,0.811
		c0.067,0.188,0.103,0.284,0.103,0.284l-0.576,0.166c0,0-0.032-0.081-0.096-0.239c-0.055-0.164-0.149-0.398-0.332-0.639
		c-0.187-0.221-0.448-0.459-0.813-0.354c-0.367,0.088-0.786,0.466-1.086,0.986c-0.592,1.036-0.84,2.757,0.307,3.996
		c0.561,0.543,1.483,0.793,2.452,0.853c0.978,0.046,2.037-0.078,3.082-0.38c2.087-0.521,4.038-2.156,4.879-4.445
		c0.898-2.241,0.562-5.158-0.984-7.129c-1.768-2.066-4.283-3.582-7.055-3.928c-2.773-0.387-5.683,0.346-8.286,1.631
		c-2.619,1.289-4.993,3.104-7.03,5.156c-1.019,1.028-1.949,2.125-2.774,3.266c-0.823,1.115-1.502,2.34-2.213,3.597
		c-1.412,2.489-2.812,4.923-4.357,7.138c-1.541,2.213-3.237,4.218-5.147,5.785c-1.904,1.562-4.015,2.682-6.05,3.18
		c-0.497,0.156-1.006,0.184-1.484,0.273c-0.481,0.066-0.946,0.17-1.394,0.145c-0.448,0-0.878,0-1.288,0
		c-0.206-0.002-0.406-0.005-0.603-0.007c-0.198-0.028-0.392-0.056-0.58-0.081c-0.749-0.111-1.44-0.208-2.002-0.316
		c-0.499-0.141-0.923-0.261-1.268-0.357c-0.688-0.194-1.055-0.299-1.055-0.299L134.805,73.078z"/>
</g>
<g>
	<g>
		<path fill="#9D9D9D" d="M33.765,47.326c-1.122-1.578-4.095-3.205-5.75-4.928C19.131,33.14,11.609,10.29,29.178,5.91
			c7.938-1.98,16.066-0.525,21.088,6.222c4.4,5.913,6.174,13.956,5.107,21.245c-0.547,3.73-2.063,7.398-3.696,10.773"/>
	</g>
	<g>
		<path fill="#E9BBAD" d="M37.137,46.688c-0.784-1.101-5.182-8.05-6.337-9.253c-6.203-6.463-11.454-22.415,0.812-25.474
			c5.542-1.382,11.217-0.366,14.723,4.345c3.071,4.128,4.31,9.742,3.565,14.832c-0.382,2.604-0.709,11.232-1.85,13.588"/>
	</g>
</g>
<g>
	<path fill="#C4C6C6" d="M141.834,75.46c0,25.268-32.333,22.25-69.75,22.25c-37.417,0-65.75,3.018-65.75-22.25
		c0-25.267,30.333-45.75,67.75-45.75C111.501,29.71,141.834,50.194,141.834,75.46z"/>
</g>
<g>
	<g>
		<path fill="#9D9D9D" d="M37.981,39.181c0.259-1.919-0.798-5.139-0.828-7.527c-0.157-12.83,9.972-34.65,25.79-25.839
			c7.147,3.981,12.087,10.599,11.14,18.956c-0.831,7.324-5.034,14.406-10.795,18.998c-2.949,2.349-6.562,3.99-10.061,5.338"/>
	</g>
	<g>
		<path fill="#E9BBAD" d="M40.878,41.021c0.181-1.34,1.72-9.418,1.699-11.086c-0.11-8.957,6.961-24.191,18.005-18.039
			c4.989,2.78,8.438,7.4,7.776,13.234c-0.58,5.113-3.513,10.059-7.536,13.264c-2.058,1.639-8.195,7.714-10.638,8.654"/>
	</g>
</g>
<g>
	<path fill="#E9BBAD" d="M6.617,71.289l7.55,1.006l-6.667,5.5C7.501,77.794,6.164,73.873,6.617,71.289z"/>
</g>
<g>
	<circle cx="22.334" cy="60.96" r="1.667"/>
</g>
<g>
	<g opacity="0.3">
		<rect x="27.168" y="57.716" transform="matrix(0.2737 0.9618 -0.9618 0.2737 85.8591 23.0501)" width="0.999" height="21.318"/>
	</g>
	<g opacity="0.3">
		<rect x="17.223" y="74.097" transform="matrix(0.9973 0.0733 -0.0733 0.9973 5.5463 -1.8285)" width="20.889" height="1.001"/>
	</g>
	<g opacity="0.3">
		<rect x="16.963" y="79.097" transform="matrix(0.9545 0.2983 -0.2983 0.9545 25.0012 -4.6292)" width="21.409" height="1"/>
	</g>
</g>
<g>
	<path fill="#6D4D1E" d="M127.667,93.655c0,0.553-0.431,1-0.963,1H76.162c-0.532,0-0.963-0.447-0.963-1V75.417
		c0-0.553,0.431-1,0.963-1h50.542c0.532,0,0.963,0.447,0.963,1V93.655z"/>
</g>
<g>
	<path fill="#593D16" d="M127.667,58.167H75.199c-0.552,0-1,0.447-1,1v0.375h1v18.863l26.234,4.949l26.234-4.949V58.167z"/>
</g>
<g>
	<path fill="#6D4D1E" d="M110.938,72.917H93.375c-1.379,0-2.5-1.121-2.5-2.5V52.854c0-1.379,1.121-2.5,2.5-2.5h17.562
		c1.379,0,2.5,1.121,2.5,2.5v17.562C113.438,71.795,112.316,72.917,110.938,72.917z M93.875,69.917h16.562V53.354H93.875V69.917z"/>
</g>
<g>
	<path fill="#6D4D1E" d="M128.667,75.405c0,0.553-0.447,1-1,1l-26.234,4.949l-26.234-4.949c-0.552,0-1-0.447-1-1V57.167
		c0-0.553,0.448-1,1-1h52.468c0.553,0,1,0.447,1,1V75.405z"/>
</g>
<g opacity="0.3">
	<path fill="#C5A678" d="M100.521,80.372c-0.007,0-0.014-0.001-0.021-0.002l-1.968-0.356c-0.065-0.012-0.108-0.074-0.097-0.14
		c0.012-0.064,0.065-0.104,0.14-0.097l1.968,0.356c0.065,0.012,0.108,0.074,0.097,0.14
		C100.629,80.331,100.578,80.372,100.521,80.372z M102.489,80.344c-0.057,0-0.107-0.041-0.118-0.099
		c-0.012-0.065,0.031-0.128,0.097-0.14l1.968-0.357c0.063-0.011,0.127,0.032,0.14,0.097c0.012,0.065-0.031,0.128-0.097,0.14
		l-1.968,0.357C102.504,80.343,102.496,80.344,102.489,80.344z M96.585,79.66c-0.007,0-0.014-0.001-0.021-0.002l-1.968-0.356
		c-0.065-0.012-0.108-0.074-0.097-0.14c0.012-0.064,0.066-0.104,0.14-0.097l1.968,0.356c0.065,0.012,0.108,0.074,0.097,0.14
		C96.692,79.619,96.642,79.66,96.585,79.66z M106.425,79.629c-0.057,0-0.107-0.041-0.118-0.099c-0.012-0.065,0.031-0.128,0.097-0.14
		l1.968-0.357c0.063-0.008,0.127,0.032,0.14,0.097c0.012,0.065-0.031,0.128-0.097,0.14l-1.968,0.357
		C106.439,79.628,106.432,79.629,106.425,79.629z M92.649,78.947c-0.007,0-0.014-0.001-0.021-0.002l-1.968-0.356
		c-0.065-0.012-0.108-0.074-0.097-0.14c0.012-0.064,0.066-0.107,0.14-0.097l1.968,0.356c0.065,0.012,0.108,0.074,0.097,0.14
		C92.757,78.906,92.706,78.947,92.649,78.947z M110.36,78.915c-0.057,0-0.107-0.041-0.118-0.099
		c-0.012-0.065,0.031-0.128,0.097-0.14l1.968-0.358c0.063-0.009,0.127,0.032,0.14,0.097c0.012,0.065-0.031,0.128-0.097,0.14
		l-1.968,0.358C110.375,78.914,110.367,78.915,110.36,78.915z M88.713,78.234c-0.007,0-0.014-0.001-0.021-0.002l-1.968-0.355
		c-0.065-0.012-0.108-0.074-0.097-0.14c0.012-0.064,0.07-0.104,0.14-0.097l1.968,0.355c0.065,0.012,0.108,0.074,0.097,0.14
		C88.821,78.193,88.771,78.234,88.713,78.234z M114.296,78.199c-0.057,0-0.107-0.041-0.118-0.099
		c-0.012-0.065,0.031-0.128,0.097-0.14l1.968-0.357c0.063-0.011,0.127,0.032,0.14,0.097c0.012,0.065-0.031,0.128-0.097,0.14
		l-1.968,0.357C114.311,78.198,114.303,78.199,114.296,78.199z M84.777,77.522c-0.007,0-0.014-0.001-0.021-0.002l-1.968-0.356
		c-0.065-0.012-0.108-0.074-0.097-0.14c0.012-0.064,0.072-0.104,0.14-0.097l1.968,0.356c0.065,0.012,0.108,0.074,0.097,0.14
		C84.885,77.481,84.834,77.522,84.777,77.522z M118.231,77.484c-0.057,0-0.107-0.041-0.118-0.099
		c-0.012-0.065,0.031-0.128,0.097-0.14l1.968-0.357c0.063-0.012,0.127,0.032,0.14,0.097c0.012,0.065-0.031,0.128-0.097,0.14
		l-1.968,0.357C118.246,77.483,118.238,77.484,118.231,77.484z M80.841,76.809c-0.007,0-0.014-0.001-0.021-0.002l-1.968-0.356
		c-0.065-0.012-0.108-0.074-0.097-0.14c0.012-0.064,0.07-0.104,0.14-0.097l1.968,0.356c0.065,0.012,0.108,0.074,0.097,0.14
		C80.949,76.768,80.898,76.809,80.841,76.809z M122.167,76.768c-0.057,0-0.107-0.041-0.118-0.099
		c-0.012-0.065,0.031-0.128,0.097-0.14l1.968-0.357c0.063-0.008,0.127,0.032,0.14,0.097c0.012,0.065-0.031,0.128-0.097,0.14
		l-1.968,0.357C122.182,76.767,122.174,76.768,122.167,76.768z M76.905,76.097c-0.007,0-0.014-0.001-0.021-0.002l-0.781-0.142
		c-0.439,0.003-0.864-0.313-0.988-0.766c-0.018-0.064,0.02-0.131,0.084-0.148c0.065-0.01,0.13,0.021,0.147,0.084
		c0.096,0.349,0.416,0.592,0.778,0.592l0.802,0.144c0.065,0.012,0.108,0.074,0.097,0.14C77.013,76.056,76.962,76.097,76.905,76.097z
		 M126.103,76.053c-0.057,0-0.107-0.041-0.118-0.099c-0.012-0.065,0.031-0.128,0.097-0.14l0.537-0.098
		c0.466-0.002,0.827-0.363,0.827-0.807v-1.435c0-0.066,0.054-0.12,0.12-0.12s0.12,0.054,0.12,0.12v1.435
		c0,0.576-0.47,1.045-1.046,1.045l-0.516,0.096C126.117,76.052,126.109,76.053,126.103,76.053z M75.199,73.278
		c-0.066,0-0.12-0.054-0.12-0.12v-2c0-0.066,0.054-0.12,0.12-0.12s0.12,0.054,0.12,0.12v2
		C75.319,73.224,75.265,73.278,75.199,73.278z M127.565,71.596c-0.066,0-0.12-0.054-0.12-0.12v-2c0-0.066,0.054-0.12,0.12-0.12
		s0.12,0.054,0.12,0.12v2C127.686,71.542,127.632,71.596,127.565,71.596z M75.199,69.278c-0.066,0-0.12-0.054-0.12-0.12v-2
		c0-0.066,0.054-0.12,0.12-0.12s0.12,0.054,0.12,0.12v2C75.319,69.224,75.265,69.278,75.199,69.278z M127.565,67.596
		c-0.066,0-0.12-0.054-0.12-0.12v-2c0-0.066,0.054-0.12,0.12-0.12s0.12,0.054,0.12,0.12v2
		C127.686,67.542,127.632,67.596,127.565,67.596z M75.199,65.278c-0.066,0-0.12-0.054-0.12-0.12v-2c0-0.066,0.054-0.12,0.12-0.12
		s0.12,0.054,0.12,0.12v2C75.319,65.224,75.265,65.278,75.199,65.278z M127.565,63.596c-0.066,0-0.12-0.054-0.12-0.12v-2
		c0-0.066,0.054-0.12,0.12-0.12s0.12,0.054,0.12,0.12v2C127.686,63.542,127.632,63.596,127.565,63.596z M75.199,61.278
		c-0.066,0-0.12-0.054-0.12-0.12v-2c0-0.066,0.054-0.12,0.12-0.12s0.12,0.054,0.12,0.12v2
		C75.319,61.224,75.265,61.278,75.199,61.278z M127.565,59.596c-0.066,0-0.12-0.054-0.12-0.12V58.03
		c-0.001-0.163-0.049-0.319-0.14-0.453c-0.037-0.055-0.022-0.13,0.032-0.167c0.054-0.037,0.128-0.023,0.167,0.032
		c0.117,0.173,0.18,0.376,0.181,0.587v1.447C127.686,59.542,127.632,59.596,127.565,59.596z M75.579,57.401
		c-0.037,0-0.074-0.018-0.097-0.05c-0.039-0.054-0.027-0.128,0.026-0.167c0.18-0.131,0.393-0.2,0.616-0.2h1.417
		c0.066,0,0.12,0.054,0.12,0.12s-0.054,0.12-0.12,0.12h-1.417c-0.172,0-0.337,0.053-0.475,0.153
		C75.628,57.393,75.604,57.401,75.579,57.401z M125.541,57.224h-2c-0.066,0-0.12-0.054-0.12-0.12s0.054-0.12,0.12-0.12h2
		c0.066,0,0.12,0.054,0.12,0.12S125.607,57.224,125.541,57.224z M121.541,57.224h-2c-0.066,0-0.12-0.054-0.12-0.12
		s0.054-0.12,0.12-0.12h2c0.066,0,0.12,0.054,0.12,0.12S121.607,57.224,121.541,57.224z M117.541,57.224h-2
		c-0.066,0-0.12-0.054-0.12-0.12s0.054-0.12,0.12-0.12h2c0.066,0,0.12,0.054,0.12,0.12S117.607,57.224,117.541,57.224z
		 M113.541,57.224h-2c-0.066,0-0.12-0.054-0.12-0.12s0.054-0.12,0.12-0.12h2c0.066,0,0.12,0.054,0.12,0.12
		S113.607,57.224,113.541,57.224z M109.541,57.224h-2c-0.066,0-0.12-0.054-0.12-0.12s0.054-0.12,0.12-0.12h2
		c0.066,0,0.12,0.054,0.12,0.12S109.607,57.224,109.541,57.224z M105.541,57.224h-2c-0.066,0-0.12-0.054-0.12-0.12
		s0.054-0.12,0.12-0.12h2c0.066,0,0.12,0.054,0.12,0.12S105.607,57.224,105.541,57.224z M101.541,57.224h-2
		c-0.066,0-0.12-0.054-0.12-0.12s0.054-0.12,0.12-0.12h2c0.066,0,0.12,0.054,0.12,0.12S101.607,57.224,101.541,57.224z
		 M97.541,57.224h-2c-0.066,0-0.12-0.054-0.12-0.12s0.054-0.12,0.12-0.12h2c0.066,0,0.12,0.054,0.12,0.12
		S97.607,57.224,97.541,57.224z M93.541,57.224h-2c-0.066,0-0.12-0.054-0.12-0.12s0.054-0.12,0.12-0.12h2
		c0.066,0,0.12,0.054,0.12,0.12S93.607,57.224,93.541,57.224z M89.542,57.224h-2c-0.066,0-0.12-0.054-0.12-0.12
		s0.054-0.12,0.12-0.12h2c0.066,0,0.12,0.054,0.12,0.12S89.608,57.224,89.542,57.224z M85.542,57.224h-2
		c-0.066,0-0.12-0.054-0.12-0.12s0.054-0.12,0.12-0.12h2c0.066,0,0.12,0.054,0.12,0.12S85.608,57.224,85.542,57.224z M81.542,57.224
		h-2c-0.066,0-0.12-0.054-0.12-0.12s0.054-0.12,0.12-0.12h2c0.066,0,0.12,0.054,0.12,0.12S81.608,57.224,81.542,57.224z"/>
</g>
<g>
	<circle fill="#C4B42F" cx="101.688" cy="81.854" r="3.25"/>
</g>
<g>
	<circle fill="#84702C" cx="101.688" cy="81.854" r="2.325"/>
</g>
</svg>
