<?xml version="1.0" encoding="utf-8"?>
<!-- Generator: Adobe Illustrator 16.0.0, SVG Export Plug-In . SVG Version: 6.00 Build 0)  -->
<!DOCTYPE svg PUBLIC "-//W3C//DTD SVG 1.1//EN" "http://www.w3.org/Graphics/SVG/1.1/DTD/svg11.dtd">
<svg version="1.1" id="Layer_1" xmlns="http://www.w3.org/2000/svg" xmlns:xlink="http://www.w3.org/1999/xlink" x="0px" y="0px"
	 width="174.667px" height="101.333px" viewBox="0 0 174.667 101.333" enable-background="new 0 0 174.667 101.333"
	 xml:space="preserve">
<g>
	<path fill="#E9BBAD" d="M60.774,73.078c0,0-0.364,0.114-1.047,0.327c-0.341,0.106-0.762,0.238-1.257,0.394
		c-0.44,0.076-0.946,0.163-1.514,0.261c-0.141,0.026-0.285,0.053-0.435,0.079c-0.154,0.005-0.313,0.01-0.477,0.014
		c-0.327,0.01-0.669,0.02-1.025,0.029c-0.36,0.041-0.72-0.043-1.1-0.084c-0.374-0.064-0.779-0.059-1.17-0.178
		c-1.598-0.343-3.304-1.176-4.97-2.461c-1.668-1.289-3.265-3.051-4.773-5.098c-1.515-2.045-2.945-4.372-4.422-6.816
		c-0.73-1.211-1.498-2.518-2.458-3.75c-0.935-1.219-1.971-2.371-3.095-3.445c-2.251-2.144-4.841-4.02-7.74-5.349
		c-2.877-1.321-6.166-2.081-9.369-1.548c-3.207,0.492-6.028,2.336-7.9,4.653c-1.939,2.621-2.104,5.929-1.028,8.526
		c1.052,2.639,3.382,4.462,5.751,4.985c1.161,0.298,2.313,0.404,3.416,0.321c1.089-0.104,2.197-0.393,2.981-1.175
		c0.202-0.192,0.338-0.396,0.493-0.663c0.091-0.211,0.195-0.389,0.271-0.618c0.162-0.495,0.221-0.958,0.22-1.396
		c-0.017-0.884-0.275-1.669-0.658-2.29c-0.386-0.612-0.899-1.116-1.556-1.27c-0.16-0.033-0.335-0.018-0.489-0.018
		c-0.153,0.027-0.296,0.098-0.43,0.15c-0.227,0.146-0.432,0.319-0.537,0.488c-0.243,0.342-0.342,0.621-0.402,0.811
		c-0.067,0.188-0.103,0.284-0.103,0.284l0.576,0.166c0,0,0.032-0.081,0.096-0.239c0.055-0.164,0.149-0.398,0.332-0.639
		c0.187-0.221,0.448-0.459,0.813-0.354c0.367,0.088,0.786,0.466,1.086,0.986c0.592,1.036,0.84,2.757-0.307,3.996
		c-0.561,0.543-1.483,0.793-2.452,0.853c-0.978,0.046-2.037-0.078-3.082-0.38c-2.087-0.521-4.038-2.156-4.879-4.445
		c-0.898-2.241-0.562-5.158,0.984-7.129c1.768-2.066,4.283-3.582,7.055-3.928c2.773-0.387,5.683,0.346,8.286,1.631
		c2.619,1.289,4.993,3.104,7.03,5.156c1.019,1.028,1.949,2.125,2.774,3.266c0.823,1.115,1.502,2.34,2.213,3.597
		c1.412,2.489,2.812,4.923,4.357,7.138c1.541,2.213,3.237,4.218,5.147,5.785c1.904,1.562,4.015,2.682,6.05,3.18
		c0.497,0.156,1.006,0.184,1.484,0.273c0.481,0.066,0.946,0.17,1.394,0.145c0.448,0,0.878,0,1.288,0
		c0.206-0.002,0.406-0.005,0.603-0.007c0.198-0.028,0.392-0.056,0.58-0.081c0.749-0.111,1.44-0.208,2.002-0.316
		c0.499-0.141,0.923-0.261,1.268-0.357c0.688-0.194,1.055-0.299,1.055-0.299L60.774,73.078z"/>
</g>
<g>
	<g>
		<path fill="#9D9D9D" d="M141.814,47.326c1.121-1.578,4.094-3.205,5.749-4.928C156.447,33.14,163.97,10.29,146.4,5.91
			c-7.938-1.98-16.066-0.525-21.088,6.222c-4.399,5.913-6.174,13.956-5.106,21.245c0.548,3.73,2.063,7.398,3.696,10.773"/>
	</g>
	<g>
		<path fill="#E9BBAD" d="M138.442,46.688c0.784-1.101,5.182-8.05,6.337-9.253c6.203-6.463,11.453-22.415-0.812-25.474
			c-5.542-1.382-11.217-0.366-14.723,4.345c-3.071,4.128-4.31,9.742-3.565,14.832c0.383,2.604,0.709,11.232,1.85,13.588"/>
	</g>
</g>
<g>
	<path fill="#C4C6C6" d="M33.745,75.46c0,25.268,32.333,22.25,69.75,22.25s65.75,3.018,65.75-22.25
		c0-25.267-30.333-45.75-67.75-45.75S33.745,50.194,33.745,75.46z"/>
</g>
<g>
	<g>
		<path fill="#9D9D9D" d="M137.598,39.181c-0.259-1.919,0.799-5.139,0.828-7.527c0.157-12.83-9.972-34.65-25.789-25.839
			c-7.148,3.981-12.088,10.599-11.141,18.956c0.832,7.324,5.034,14.406,10.795,18.998c2.949,2.349,6.562,3.99,10.062,5.338"/>
	</g>
	<g>
		<path fill="#E9BBAD" d="M134.701,41.021c-0.182-1.34-1.72-9.418-1.699-11.086c0.11-8.957-6.961-24.191-18.005-18.039
			c-4.989,2.78-8.438,7.4-7.776,13.234c0.58,5.113,3.514,10.059,7.536,13.264c2.058,1.639,8.195,7.714,10.638,8.654"/>
	</g>
</g>
<g>
	<path fill="#E9BBAD" d="M168.962,71.289l-7.55,1.006l6.666,5.5C168.078,77.794,169.415,73.873,168.962,71.289z"/>
</g>
<g>
	<circle cx="153.245" cy="60.96" r="1.667"/>
</g>
<g>
	<g opacity="0.3">
		
			<rect x="147.412" y="57.716" transform="matrix(-0.2737 0.9618 -0.9618 -0.2737 254.1565 -55.1758)" width="0.999" height="21.318"/>
	</g>
	<g opacity="0.3">
		
			<rect x="137.466" y="74.097" transform="matrix(-0.9973 0.0733 -0.0733 -0.9973 300.8953 138.1456)" width="20.89" height="1.001"/>
	</g>
	<g opacity="0.3">
		<rect x="137.208" y="79.098" transform="matrix(-0.9545 0.2983 -0.2983 -0.9545 312.8336 111.4518)" width="21.408" height="1"/>
	</g>
</g>
<g>
	<path fill="#6D4D1E" d="M47.912,93.655c0,0.553,0.431,1,0.963,1h50.542c0.532,0,0.964-0.447,0.964-1V75.417
		c0-0.553-0.432-1-0.964-1H48.875c-0.532,0-0.963,0.447-0.963,1V93.655z"/>
</g>
<g>
	<path fill="#593D16" d="M47.912,58.167h52.469c0.552,0,1,0.447,1,1v0.375h-1v18.863l-26.234,4.949l-26.234-4.949V58.167z"/>
</g>
<g>
	<path fill="#6D4D1E" d="M62.142,70.417V52.854c0-1.379,1.121-2.5,2.5-2.5h17.562c1.379,0,2.5,1.121,2.5,2.5v17.562
		c0,1.379-1.121,2.5-2.5,2.5H64.642C63.263,72.917,62.142,71.795,62.142,70.417z M81.704,53.354H65.142v16.562h16.562V53.354z"/>
</g>
<g>
	<path fill="#6D4D1E" d="M46.912,75.405c0,0.553,0.447,1,1,1l26.234,4.949l26.234-4.949c0.552,0,1-0.447,1-1V57.167
		c0-0.553-0.448-1-1-1H47.912c-0.553,0-1,0.447-1,1V75.405z"/>
</g>
<g opacity="0.3">
	<path fill="#C5A678" d="M74.939,80.273c-0.012-0.065,0.031-0.128,0.097-0.14l1.968-0.356c0.074-0.007,0.128,0.032,0.14,0.097
		c0.012,0.065-0.031,0.128-0.097,0.14l-1.968,0.356c-0.008,0.001-0.015,0.002-0.021,0.002C75.001,80.372,74.95,80.331,74.939,80.273
		z M73.068,80.342l-1.968-0.357c-0.065-0.012-0.108-0.074-0.097-0.14c0.013-0.064,0.076-0.107,0.14-0.097l1.968,0.357
		c0.065,0.012,0.108,0.074,0.097,0.14c-0.011,0.058-0.062,0.099-0.118,0.099C73.083,80.344,73.075,80.343,73.068,80.342z
		 M78.876,79.561c-0.012-0.065,0.031-0.128,0.097-0.14l1.968-0.356c0.073-0.007,0.128,0.032,0.14,0.097
		c0.012,0.065-0.031,0.128-0.097,0.14l-1.968,0.356c-0.008,0.001-0.015,0.002-0.021,0.002C78.938,79.66,78.887,79.619,78.876,79.561
		z M69.133,79.627l-1.968-0.357c-0.065-0.012-0.108-0.074-0.097-0.14c0.013-0.064,0.076-0.104,0.14-0.097l1.968,0.357
		c0.065,0.012,0.108,0.074,0.097,0.14c-0.011,0.058-0.062,0.099-0.118,0.099C69.147,79.629,69.14,79.628,69.133,79.627z
		 M82.812,78.848c-0.012-0.065,0.031-0.128,0.097-0.14l1.968-0.356c0.073-0.011,0.128,0.032,0.14,0.097
		c0.012,0.065-0.031,0.128-0.097,0.14l-1.968,0.356c-0.008,0.001-0.015,0.002-0.021,0.002
		C82.873,78.947,82.822,78.906,82.812,78.848z M65.197,78.913l-1.968-0.358c-0.065-0.012-0.108-0.074-0.097-0.14
		c0.013-0.064,0.076-0.105,0.14-0.097l1.968,0.358c0.065,0.012,0.108,0.074,0.097,0.14c-0.011,0.058-0.062,0.099-0.118,0.099
		C65.212,78.915,65.204,78.914,65.197,78.913z M86.748,78.135c-0.012-0.065,0.032-0.128,0.097-0.14l1.968-0.355
		c0.069-0.008,0.128,0.032,0.14,0.097c0.012,0.065-0.032,0.128-0.097,0.14l-1.968,0.355c-0.007,0.001-0.015,0.002-0.021,0.002
		C86.809,78.234,86.758,78.193,86.748,78.135z M61.262,78.197l-1.968-0.357c-0.065-0.012-0.108-0.074-0.097-0.14
		c0.013-0.064,0.076-0.107,0.14-0.097l1.968,0.357c0.065,0.012,0.108,0.074,0.097,0.14c-0.011,0.058-0.062,0.099-0.118,0.099
		C61.276,78.199,61.269,78.198,61.262,78.197z M90.684,77.423c-0.012-0.065,0.031-0.128,0.097-0.14l1.968-0.356
		c0.068-0.008,0.128,0.032,0.141,0.097c0.012,0.065-0.032,0.128-0.098,0.14l-1.968,0.356c-0.007,0.001-0.015,0.002-0.021,0.002
		C90.744,77.522,90.694,77.481,90.684,77.423z M57.326,77.482l-1.968-0.357c-0.065-0.012-0.108-0.074-0.097-0.14
		c0.013-0.064,0.076-0.108,0.14-0.097l1.968,0.357c0.065,0.012,0.108,0.074,0.097,0.14c-0.011,0.058-0.062,0.099-0.118,0.099
		C57.341,77.484,57.333,77.483,57.326,77.482z M94.619,76.71c-0.012-0.065,0.032-0.128,0.098-0.14l1.968-0.356
		c0.069-0.008,0.128,0.032,0.14,0.097c0.012,0.065-0.031,0.128-0.097,0.14l-1.968,0.356c-0.008,0.001-0.016,0.002-0.021,0.002
		C94.681,76.809,94.631,76.768,94.619,76.71z M53.391,76.766l-1.968-0.357c-0.065-0.012-0.108-0.074-0.097-0.14
		c0.013-0.064,0.076-0.104,0.14-0.097l1.968,0.357c0.065,0.012,0.108,0.074,0.097,0.14c-0.011,0.058-0.062,0.099-0.118,0.099
		C53.405,76.768,53.397,76.767,53.391,76.766z M98.556,75.999c-0.012-0.065,0.032-0.128,0.097-0.14l0.803-0.144
		c0.361,0,0.682-0.243,0.777-0.592c0.018-0.062,0.082-0.094,0.147-0.084c0.063,0.018,0.102,0.084,0.084,0.148
		c-0.124,0.452-0.549,0.769-0.987,0.766l-0.781,0.142c-0.008,0.001-0.015,0.002-0.021,0.002
		C98.617,76.097,98.566,76.056,98.556,75.999z M49.455,76.051l-0.516-0.096c-0.576,0-1.046-0.469-1.046-1.045v-1.435
		c0-0.066,0.054-0.12,0.12-0.12s0.12,0.054,0.12,0.12v1.435c0,0.443,0.361,0.805,0.827,0.807l0.537,0.098
		c0.065,0.012,0.108,0.074,0.097,0.14c-0.011,0.058-0.062,0.099-0.118,0.099C49.47,76.053,49.462,76.052,49.455,76.051z
		 M100.26,73.158v-2c0-0.066,0.055-0.12,0.121-0.12s0.119,0.054,0.119,0.12v2c0,0.066-0.053,0.12-0.119,0.12
		S100.26,73.224,100.26,73.158z M47.894,71.476v-2c0-0.066,0.054-0.12,0.12-0.12s0.12,0.054,0.12,0.12v2
		c0,0.066-0.054,0.12-0.12,0.12S47.894,71.542,47.894,71.476z M100.26,69.158v-2c0-0.066,0.055-0.12,0.121-0.12
		s0.119,0.054,0.119,0.12v2c0,0.066-0.053,0.12-0.119,0.12S100.26,69.224,100.26,69.158z M47.894,67.476v-2
		c0-0.066,0.054-0.12,0.12-0.12s0.12,0.054,0.12,0.12v2c0,0.066-0.054,0.12-0.12,0.12S47.894,67.542,47.894,67.476z M100.26,65.158
		v-2c0-0.066,0.055-0.12,0.121-0.12s0.119,0.054,0.119,0.12v2c0,0.066-0.053,0.12-0.119,0.12S100.26,65.224,100.26,65.158z
		 M47.894,63.476v-2c0-0.066,0.054-0.12,0.12-0.12s0.12,0.054,0.12,0.12v2c0,0.066-0.054,0.12-0.12,0.12
		S47.894,63.542,47.894,63.476z M100.26,61.158v-2c0-0.066,0.055-0.12,0.121-0.12s0.119,0.054,0.119,0.12v2
		c0,0.066-0.053,0.12-0.119,0.12S100.26,61.224,100.26,61.158z M47.894,59.476v-1.447c0.001-0.211,0.063-0.414,0.181-0.587
		c0.039-0.056,0.113-0.069,0.167-0.032c0.055,0.037,0.069,0.112,0.032,0.167c-0.091,0.134-0.139,0.29-0.14,0.453v1.446
		c0,0.066-0.054,0.12-0.12,0.12S47.894,59.542,47.894,59.476z M99.93,57.377c-0.139-0.101-0.303-0.153-0.475-0.153h-1.418
		c-0.066,0-0.119-0.054-0.119-0.12s0.053-0.12,0.119-0.12h1.418c0.223,0,0.436,0.069,0.615,0.2c0.054,0.039,0.066,0.113,0.027,0.167
		c-0.023,0.032-0.061,0.05-0.098,0.05C99.976,57.401,99.951,57.393,99.93,57.377z M49.918,57.104c0-0.066,0.054-0.12,0.12-0.12h2
		c0.066,0,0.12,0.054,0.12,0.12s-0.054,0.12-0.12,0.12h-2C49.972,57.224,49.918,57.17,49.918,57.104z M53.918,57.104
		c0-0.066,0.054-0.12,0.12-0.12h2c0.066,0,0.12,0.054,0.12,0.12s-0.054,0.12-0.12,0.12h-2C53.972,57.224,53.918,57.17,53.918,57.104
		z M57.918,57.104c0-0.066,0.054-0.12,0.12-0.12h2c0.066,0,0.12,0.054,0.12,0.12s-0.054,0.12-0.12,0.12h-2
		C57.972,57.224,57.918,57.17,57.918,57.104z M61.918,57.104c0-0.066,0.054-0.12,0.12-0.12h2c0.066,0,0.12,0.054,0.12,0.12
		s-0.054,0.12-0.12,0.12h-2C61.972,57.224,61.918,57.17,61.918,57.104z M65.918,57.104c0-0.066,0.054-0.12,0.12-0.12h2
		c0.066,0,0.12,0.054,0.12,0.12s-0.054,0.12-0.12,0.12h-2C65.972,57.224,65.918,57.17,65.918,57.104z M69.918,57.104
		c0-0.066,0.054-0.12,0.12-0.12h2c0.066,0,0.12,0.054,0.12,0.12s-0.054,0.12-0.12,0.12h-2C69.972,57.224,69.918,57.17,69.918,57.104
		z M73.918,57.104c0-0.066,0.054-0.12,0.12-0.12h2c0.066,0,0.12,0.054,0.12,0.12s-0.054,0.12-0.12,0.12h-2
		C73.972,57.224,73.918,57.17,73.918,57.104z M77.918,57.104c0-0.066,0.054-0.12,0.12-0.12h2c0.066,0,0.12,0.054,0.12,0.12
		s-0.054,0.12-0.12,0.12h-2C77.972,57.224,77.918,57.17,77.918,57.104z M81.918,57.104c0-0.066,0.054-0.12,0.12-0.12h2
		c0.066,0,0.12,0.054,0.12,0.12s-0.054,0.12-0.12,0.12h-2C81.972,57.224,81.918,57.17,81.918,57.104z M85.917,57.104
		c0-0.066,0.054-0.12,0.12-0.12h2c0.066,0,0.12,0.054,0.12,0.12s-0.054,0.12-0.12,0.12h-2C85.971,57.224,85.917,57.17,85.917,57.104
		z M89.917,57.104c0-0.066,0.054-0.12,0.12-0.12h2c0.066,0,0.121,0.054,0.121,0.12s-0.055,0.12-0.121,0.12h-2
		C89.971,57.224,89.917,57.17,89.917,57.104z M93.918,57.104c0-0.066,0.053-0.12,0.119-0.12h2c0.066,0,0.121,0.054,0.121,0.12
		s-0.055,0.12-0.121,0.12h-2C93.971,57.224,93.918,57.17,93.918,57.104z"/>
</g>
<g>
	<circle fill="#C4B42F" cx="73.892" cy="81.854" r="3.25"/>
</g>
<g>
	<circle fill="#84702C" cx="73.892" cy="81.854" r="2.325"/>
</g>
<path fill="none" stroke="#000000" stroke-linecap="round" stroke-linejoin="round" stroke-miterlimit="10" d="M155.562,88.167
	c1.434-0.426,2.994-0.521,4.361,0.205c1.098,0.583,1.969,1.521,2.889,2.295"/>
<path fill="none" stroke="#000000" stroke-linecap="round" stroke-linejoin="round" stroke-miterlimit="10" d="M150.745,60.401
	c1.65-1.025,3.029-1.375,5-1.375"/>
<path fill="#3AC0C9" d="M152.531,66.151c0,0.526-0.427,0.953-0.953,0.953s-0.953-0.427-0.953-0.953s0.953-2.578,0.953-2.578
	S152.531,65.625,152.531,66.151z"/>
</svg>
