<?xml version="1.0" encoding="utf-8"?>
<!-- Generator: Adobe Illustrator 16.0.0, SVG Export Plug-In . SVG Version: 6.00 Build 0)  -->
<!DOCTYPE svg PUBLIC "-//W3C//DTD SVG 1.1//EN" "http://www.w3.org/Graphics/SVG/1.1/DTD/svg11.dtd">
<svg version="1.1" id="Layer_1" xmlns="http://www.w3.org/2000/svg" xmlns:xlink="http://www.w3.org/1999/xlink" x="0px" y="0px"
	 width="338px" height="178px" viewBox="0 0 338 178" enable-background="new 0 0 338 178" xml:space="preserve">
<g>
	<g>
		<polygon fill="#EAF6F6" points="107.507,31.143 97.079,168.104 28.047,168.104 17.617,31.143 		"/>
	</g>
</g>
<g>
	<g>
		<polygon fill="#EBBB57" points="23.6,65.738 32.619,159.029 92.505,159.029 101.734,65.738 		"/>
	</g>
</g>
<g>
	<g>
		<path fill="#FFFFFF" d="M65.123,70.404c0.91,1.076,0.776,2.685-0.299,3.595L51.253,85.477c-1.077,0.91-2.685,0.775-3.595-0.3
			L36.18,71.604c-0.91-1.075-0.776-2.684,0.3-3.592l13.57-11.479c1.076-0.91,2.687-0.775,3.594,0.299L65.123,70.404z"/>
	</g>
</g>
<g>
	<g>
		<path fill="#FFFFFF" d="M87.775,83.789c-0.575,1.285-2.082,1.861-3.369,1.285l-16.225-7.261c-1.287-0.576-1.861-2.083-1.287-3.37
			l7.264-16.224c0.574-1.286,2.083-1.86,3.367-1.286l16.225,7.262c1.287,0.576,1.863,2.083,1.287,3.369L87.775,83.789z"/>
	</g>
</g>
<g opacity="0.5">
	<g>
		<polygon fill="#EBBB57" points="23.6,65.738 32.619,159.029 92.505,159.029 101.734,65.738 		"/>
	</g>
</g>
<g>
	<g>
		<circle fill="#73903C" cx="108.216" cy="30.859" r="23.11"/>
	</g>
</g>
<g>
	<g>
		<circle fill="#FFFFFF" cx="108.216" cy="30.859" r="21.551"/>
	</g>
</g>
<g>
	<g>
		<circle fill="#C4D12E" cx="108.216" cy="30.859" r="20.133"/>
	</g>
</g>
<g>
	<g>
		<rect x="107.648" y="10.371" fill="#FFFFFF" width="1.135" height="41.543"/>
	</g>
</g>
<g>
	<g>
		<rect x="87.445" y="30.576" fill="#FFFFFF" width="41.541" height="1.133"/>
	</g>
</g>
<g>
	<g>
		
			<rect x="107.641" y="10.373" transform="matrix(0.7073 0.7069 -0.7069 0.7073 53.6859 -67.376)" fill="#FFFFFF" width="1.135" height="41.542"/>
	</g>
</g>
<g>
	<g>
		
			<rect x="87.441" y="30.575" transform="matrix(0.7071 0.7071 -0.7071 0.7071 53.7157 -67.3959)" fill="#FFFFFF" width="41.543" height="1.135"/>
	</g>
</g>
<g opacity="0.7">
	<g>
		<polygon fill="#EAF6F6" points="105.77,53.969 107.507,31.143 17.617,31.143 19.355,53.969 		"/>
	</g>
</g>
<g>
	<path d="M165.291,50.907l-3.521,4.17c-1.572-1.914-3.896-3.11-6.016-3.11c-3.794,0-6.665,3.008-6.665,6.938
		c0,3.999,2.871,7.041,6.665,7.041c2.017,0,4.341-1.094,6.016-2.803l3.555,3.76c-2.563,2.632-6.357,4.375-9.878,4.375
		c-7.212,0-12.578-5.298-12.578-12.305c0-6.904,5.503-12.1,12.783-12.1C159.207,46.874,162.898,48.446,165.291,50.907z"/>
	<path d="M184.326,65.912v5.093h-16.235V47.079h6.084v18.833H184.326z"/>
	<path d="M187.229,71.005V47.079h6.084v23.926H187.229z"/>
	<path d="M218.947,50.907l-3.521,4.17c-1.572-1.914-3.896-3.11-6.016-3.11c-3.794,0-6.665,3.008-6.665,6.938
		c0,3.999,2.871,7.041,6.665,7.041c2.017,0,4.341-1.094,6.016-2.803l3.555,3.76c-2.563,2.632-6.357,4.375-9.878,4.375
		c-7.212,0-12.578-5.298-12.578-12.305c0-6.904,5.503-12.1,12.783-12.1C212.863,46.874,216.555,48.446,218.947,50.907z"/>
	<path d="M231.01,61.605l-3.179,3.521v5.879h-6.084V47.079h6.084v10.356l9.16-10.356h7.041l-8.887,9.912l9.468,14.014h-7.28
		L231.01,61.605z"/>
	<path d="M276.124,71.005l-0.034-15.552l-5.742,13.159h-3.965l-5.742-13.159v15.552h-5.435v-23.96h6.665l6.494,14.253l6.494-14.253
		h6.631v23.96H276.124z"/>
	<path d="M292.39,51.864v4.751h11.416V61.4H292.39v4.819h13.022v4.785h-19.106V47.079h18.73v4.785H292.39z"/>
</g>
<g id="tAWDN8.tif">
	<g>
		<path fill-rule="evenodd" clip-rule="evenodd" d="M200.1,81.616c-0.01,0.063-0.016,0.127-0.026,0.19
			c-0.958,6.079-2.199,12.093-4.916,17.682c-2.53,5.205-6.115,9.497-11.13,12.489c-3.271,1.951-6.84,3.112-10.557,3.853
			c-4.713,0.94-9.479,1.135-14.263,0.911c-4.853-0.228-9.656-0.866-14.487-1.979c0.424-3.45,0.848-6.903,1.283-10.442
			c-0.181,0.102-0.298,0.157-0.404,0.228c-6.511,4.358-13.021,8.717-19.532,13.075c-0.139,0.093-0.292,0.164-0.438,0.245v0.093
			c3.869,4.424,7.738,8.848,11.606,13.272c1.506,1.723,3.012,3.447,4.516,5.173c0.06,0.068,0.095,0.159,0.142,0.239
			c0.041-0.02,0.083-0.04,0.124-0.06c0.354-2.854,0.709-5.709,1.064-8.571c1.116,0.155,2.194,0.317,3.276,0.455
			c3.196,0.406,6.406,0.544,9.625,0.478c3.498-0.071,6.971-0.398,10.408-1.059c8.344-1.605,15.884-4.878,22.166-10.738
			c3.806-3.551,6.655-7.783,8.813-12.497c1.969-4.301,3.281-8.808,4.197-13.439c0.605-3.057,1.011-6.139,1.292-9.238
			C201.937,81.868,201.015,81.755,200.1,81.616z"/>
	</g>
</g>
</svg>
