<?xml version="1.0" encoding="utf-8"?>
<!-- Generator: Adobe Illustrator 16.0.0, SVG Export Plug-In . SVG Version: 6.00 Build 0)  -->
<!DOCTYPE svg PUBLIC "-//W3C//DTD SVG 1.1//EN" "http://www.w3.org/Graphics/SVG/1.1/DTD/svg11.dtd">
<svg version="1.1" id="Layer_1" xmlns="http://www.w3.org/2000/svg" xmlns:xlink="http://www.w3.org/1999/xlink" x="0px" y="0px"
	 width="425px" height="247px" viewBox="0 0 425 247" enable-background="new 0 0 425 247" xml:space="preserve">
<g>
	<path fill="#E8F5F6" d="M121.578,229.253c-13.274,0.678-26.453-13.373-26.453-13.373l-0.074-67.831l68.023-68.026H20.629
		l68.026,68.026v67.831c0,0-13.179,14.051-26.454,13.373H121.578z"/>
	<g opacity="0.4">
		<path fill="#D3E0E0" d="M62.201,229.253c0.564,0.027,1.127,0.022,1.689,0H62.201z"/>
		<path fill="#D3E0E0" d="M91.924,80.023H20.629l68.026,68.026v67.831c0,0-12.084,12.874-24.765,13.373h28.034V80.023z"/>
	</g>
	<polygon fill="#B7D29A" points="94.302,139.127 146.41,87.021 37.296,87.021 89.404,139.127 	"/>
	<polygon fill="#F4F1DF" points="96.233,126.566 89.508,134.934 95.692,126.16 145.974,59.059 146.517,59.465 	"/>
	<g>
		
			<ellipse transform="matrix(0.6343 0.7731 -0.7731 0.6343 125.4575 -41.2032)" fill="#99A959" cx="106.278" cy="112" rx="9.109" ry="6.587"/>
		
			<ellipse transform="matrix(0.6345 0.7729 -0.7729 0.6345 130.2505 -42.1256)" fill="#C43C3B" cx="109.669" cy="116.666" rx="1.608" ry="2.083"/>
	</g>
</g>
<g>
	<path fill="#460A37" d="M244.595,118.337c0-17.189-1.677-32.027-16.827-37.826l-2.595-60.138c0.765-0.604,1.252-1.461,1.252-2.42
		c0-0.833-0.373-1.583-0.968-2.165c0.595-0.836,0.968-1.917,0.968-3.115c0-2.627-1.736-4.757-3.88-4.757h-18.169
		c-2.145,0-3.881,2.13-3.881,4.757c0,1.198,0.373,2.279,0.968,3.115c-0.595,0.582-0.968,1.333-0.968,2.165
		c0,1.007,0.54,1.898,1.373,2.505l-2.405,59.855C184.048,85.979,181,100.946,181,118.325v108.452c0,0,0,0.93,0,1.419
		c0,3.293,10.1,5.804,32.365,5.804s31.229-2.499,31.229-5.791c0-0.489,0-1.42,0-1.42V118.337z"/>
	<path fill="#EAE3D6" d="M244.595,132.375c0,0-8.964,5.338-31.229,5.338S181,132.362,181,132.362v56.782c0,0,0,0.929,0,1.419
		c0,3.292,10.1,5.804,32.365,5.804s31.229-2.5,31.229-5.791c0-0.49,0-1.42,0-1.42V132.375z"/>
	<g opacity="0.3">
		<path fill="#7D4274" d="M204.739,85.621c-15.306,8.234-16.162,24.949-16.169,40.496c-0.001,3.662,5.677,3.661,5.678,0
			c0.006-13.42-0.02-28.396,13.357-35.593C210.83,88.789,207.963,83.887,204.739,85.621L204.739,85.621z"/>
	</g>
	<g opacity="0.3">
		<path fill="#F4F4F4" d="M193.775,187.724c0-15.142,0-30.282,0-45.425c0-3.661-5.678-3.661-5.678,0c0,15.143,0,30.284,0,45.425
			C188.098,191.386,193.775,191.386,193.775,187.724L193.775,187.724z"/>
	</g>
	<g opacity="0.3">
		<path fill="#7D4274" d="M186.962,201.919c0.996,8.315,0.345,16.638,0.284,24.983c-0.026,3.663,5.651,3.66,5.678,0
			c0.062-8.346,0.712-16.668-0.284-24.983C192.21,198.33,186.527,198.288,186.962,201.919L186.962,201.919z"/>
	</g>
	<g opacity="0.3">
		<path fill="#7D4274" d="M211.945,72.174c-0.112-15.314,2.964-30.408,3.123-45.708c0.038-3.663-5.641-3.659-5.678,0
			c-0.16,15.301-3.236,30.395-3.123,45.708C206.294,75.834,211.973,75.836,211.945,72.174L211.945,72.174z"/>
	</g>
</g>
<g>
	<polygon fill="#E8F5F6" points="381.39,89.039 370.962,226 301.93,226 291.5,89.039 	"/>
</g>
<g>
	<polygon fill="#EDBB57" points="297.482,123.634 306.502,216.927 366.388,216.927 375.617,123.634 	"/>
</g>
<g>
	<path fill="#FFFFFF" d="M339.006,128.3c0.91,1.076,0.776,2.684-0.299,3.594l-13.571,11.479c-1.077,0.91-2.685,0.776-3.595-0.3
		L310.062,129.5c-0.91-1.075-0.776-2.683,0.3-3.592l13.571-11.479c1.076-0.91,2.686-0.775,3.593,0.3L339.006,128.3z"/>
</g>
<g>
	<path fill="#FFFFFF" d="M361.658,141.686c-0.575,1.285-2.082,1.861-3.369,1.285l-16.224-7.261c-1.287-0.576-1.861-2.083-1.287-3.37
		l7.263-16.224c0.575-1.286,2.083-1.86,3.368-1.286l16.224,7.262c1.287,0.576,1.863,2.083,1.287,3.369L361.658,141.686z"/>
</g>
<g opacity="0.5">
	<polygon fill="#EDBB57" points="297.482,123.634 306.502,216.927 366.388,216.927 375.617,123.634 	"/>
</g>
<g>
	<circle fill="#728F3B" cx="382.099" cy="88.755" r="23.11"/>
</g>
<g>
	<circle fill="#FFFFFF" cx="382.099" cy="88.755" r="21.551"/>
</g>
<g>
	<circle fill="#C4D32F" cx="382.099" cy="88.755" r="20.133"/>
</g>
<g>
	<rect x="381.531" y="68.268" fill="#FFFFFF" width="1.135" height="41.542"/>
</g>
<g>
	<rect x="361.328" y="88.472" fill="#FFFFFF" width="41.542" height="1.134"/>
</g>
<g>
	
		<rect x="381.532" y="68.267" transform="matrix(0.7073 0.7069 -0.7069 0.7073 174.7725 -244.0431)" fill="#FFFFFF" width="1.135" height="41.542"/>
</g>
<g>
	
		<rect x="361.329" y="88.472" transform="matrix(0.7071 0.7071 -0.7071 0.7071 174.8716 -244.1046)" fill="#FFFFFF" width="41.542" height="1.135"/>
</g>
<g opacity="0.7">
	<polygon fill="#E8F5F6" points="379.651,111.865 381.39,89.039 291.5,89.039 293.238,111.865 	"/>
</g>
</svg>
