<?xml version="1.0" encoding="utf-8"?>
<!-- Generator: Adobe Illustrator 16.0.0, SVG Export Plug-In . SVG Version: 6.00 Build 0)  -->
<!DOCTYPE svg PUBLIC "-//W3C//DTD SVG 1.1//EN" "http://www.w3.org/Graphics/SVG/1.1/DTD/svg11.dtd">
<svg version="1.1" id="Layer_1" xmlns="http://www.w3.org/2000/svg" xmlns:xlink="http://www.w3.org/1999/xlink" x="0px" y="0px"
	 width="425px" height="247px" viewBox="0 0 425 247" enable-background="new 0 0 425 247" xml:space="preserve">
<g>
	<path fill="#E8F5F6" d="M121.578,229.253c-13.274,0.678-26.453-13.373-26.453-13.373l-0.074-67.831l68.023-68.026H20.629
		l68.026,68.026v67.831c0,0-13.179,14.051-26.454,13.373H121.578z"/>
	<g opacity="0.4">
		<path fill="#D3E0E0" d="M62.201,229.253c0.564,0.027,1.127,0.022,1.689,0H62.201z"/>
		<path fill="#D3E0E0" d="M91.924,80.023H20.629l68.026,68.026v67.831c0,0-12.084,12.874-24.765,13.373h28.034V80.023z"/>
	</g>
	<polygon fill="#B7D29A" points="94.302,139.127 146.41,87.021 37.296,87.021 89.404,139.127 	"/>
	<polygon fill="#F4F1DF" points="96.233,126.566 89.508,134.934 95.692,126.16 145.974,59.059 146.517,59.465 	"/>
	<g>
		
			<ellipse transform="matrix(0.6343 0.7731 -0.7731 0.6343 125.4575 -41.2032)" fill="#99A959" cx="106.278" cy="112" rx="9.109" ry="6.587"/>
		
			<ellipse transform="matrix(0.6345 0.7729 -0.7729 0.6345 130.2505 -42.1256)" fill="#C43C3B" cx="109.669" cy="116.666" rx="1.608" ry="2.083"/>
	</g>
</g>
<g>
	<path fill="#E8F5F6" d="M121.578,229.253c-13.274,0.678-26.453-13.373-26.453-13.373l-0.074-67.831l68.023-68.026H20.629
		l68.026,68.026v67.831c0,0-13.179,14.051-26.454,13.373H121.578z"/>
	<g opacity="0.4">
		<path fill="#D3E0E0" d="M62.201,229.253c0.564,0.027,1.127,0.022,1.689,0H62.201z"/>
		<path fill="#D3E0E0" d="M91.924,80.023H20.629l68.026,68.026v67.831c0,0-12.084,12.874-24.765,13.373h28.034V80.023z"/>
	</g>
	<polygon fill="#F4F1DF" points="96.233,126.566 89.508,134.934 95.692,126.16 145.974,59.059 146.517,59.465 	"/>
	<g>
		
			<ellipse transform="matrix(0.6343 0.7731 -0.7731 0.6343 133.6783 -24.7782)" fill="#99A959" cx="93.028" cy="128.901" rx="9.109" ry="6.587"/>
		
			<ellipse transform="matrix(0.6345 0.7729 -0.7729 0.6345 138.4711 -25.7079)" fill="#C43C3B" cx="96.419" cy="133.567" rx="1.608" ry="2.083"/>
	</g>
</g>
<g>
	<polygon fill="#E8F5F6" points="381.39,89.039 370.962,226 301.93,226 291.5,89.039 	"/>
</g>
<g>
	<path fill="#FFFFFF" d="M335.84,204.05c0.91,1.075,0.776,2.684-0.299,3.594l-13.571,11.479c-1.077,0.91-2.685,0.776-3.595-0.3
		l-11.479-13.572c-0.91-1.074-0.776-2.682,0.3-3.592l13.571-11.479c1.076-0.91,2.686-0.775,3.593,0.3L335.84,204.05z"/>
</g>
<g>
	<path fill="#FFFFFF" d="M357.547,220.186c-0.575,1.285-2.082,1.861-3.369,1.285l-16.224-7.261c-1.287-0.575-1.861-2.083-1.287-3.37
		l7.263-16.224c0.575-1.286,2.083-1.86,3.368-1.286l16.224,7.262c1.287,0.576,1.863,2.084,1.287,3.369L357.547,220.186z"/>
</g>
<g>
	<circle fill="#728F3B" cx="382.099" cy="88.755" r="23.11"/>
</g>
<g>
	<circle fill="#FFFFFF" cx="382.099" cy="88.755" r="21.551"/>
</g>
<g>
	<circle fill="#C4D32F" cx="382.099" cy="88.755" r="20.133"/>
</g>
<g>
	<rect x="381.531" y="68.268" fill="#FFFFFF" width="1.135" height="41.542"/>
</g>
<g>
	<rect x="361.328" y="88.472" fill="#FFFFFF" width="41.542" height="1.134"/>
</g>
<g>
	
		<rect x="381.532" y="68.267" transform="matrix(0.7073 0.7069 -0.7069 0.7073 174.7725 -244.0431)" fill="#FFFFFF" width="1.135" height="41.542"/>
</g>
<g>
	
		<rect x="361.329" y="88.472" transform="matrix(0.7071 0.7071 -0.7071 0.7071 174.8716 -244.1046)" fill="#FFFFFF" width="41.542" height="1.135"/>
</g>
<g opacity="0.7">
	<polygon fill="#E8F5F6" points="379.651,111.865 381.39,89.039 291.5,89.039 293.238,111.865 	"/>
</g>
<path fill="#E8F5F6" d="M215.625,216.382l-0.072-66.303c19.696-2.034,35.197-23.544,35.197-49.801
	c0-7.416-1.246-14.447-3.464-20.776h-69.572c-2.218,6.329-3.464,13.36-3.464,20.776c0,26.127,15.348,47.557,34.905,49.772v66.332
	c0,0-12.087,12.877-24.769,13.373h56.007C227.711,229.259,215.625,216.382,215.625,216.382z"/>
<path opacity="0.4" fill="#D3E0E0" d="M184.387,229.755H212.5V79.502h-34.786c-2.218,6.329-3.464,13.36-3.464,20.776
	c0,26.127,15.348,47.557,34.905,49.772v66.332C209.155,216.382,197.068,229.259,184.387,229.755z"/>
<path fill="#77133C" d="M200.418,143.194c3.747,1.907,7.818,2.964,12.082,2.964s8.335-1.057,12.082-2.964H200.418z"/>
</svg>
