<?xml version="1.0" encoding="utf-8"?>
<!-- Generator: Adobe Illustrator 16.0.0, SVG Export Plug-In . SVG Version: 6.00 Build 0)  -->
<!DOCTYPE svg PUBLIC "-//W3C//DTD SVG 1.1//EN" "http://www.w3.org/Graphics/SVG/1.1/DTD/svg11.dtd">
<svg version="1.1" id="Layer_1" xmlns="http://www.w3.org/2000/svg" xmlns:xlink="http://www.w3.org/1999/xlink" x="0px" y="0px"
	 width="699px" height="295px" viewBox="0 0 699 295" enable-background="new 0 0 699 295" xml:space="preserve">
<path fill="none" stroke="#7A3A19" stroke-width="8" stroke-linecap="round" stroke-linejoin="round" stroke-miterlimit="10" d="
	M147.681,93.542c-1.826,5.612-6.549,10.548-9.481,15.666c-5.06,8.831-10.714,17.229-15.643,26.14
	c-6.266,11.326-10.212,23.591-15.434,35.401C99.21,188.646,88.46,209.221,85.9,228.787c-1.641,12.542,7.874,16.274,18.066,18.784
	c13.786,3.395,0.042-10.049-5.142-12.688c-2.815-1.433-10.594-3.275-10.856-6.136"/>
<path fill="none" stroke="#7A3A19" stroke-width="8" stroke-linecap="round" stroke-linejoin="round" stroke-miterlimit="10" d="
	M158.697,87.896c-0.445,5.885-3.865,11.799-5.502,17.466c-2.824,9.777-6.33,19.276-9.009,29.1
	c-3.406,12.488-4.337,25.338-6.612,38.05c-3.45,19.261-9.023,41.796-6.877,61.412c1.375,12.574,11.504,13.947,22,13.973
	c14.197,0.034-2.338-9.773-8-11.109c-3.074-0.726-11.068-0.674-12-3.391"/>
<path fill="#F2C7C7" d="M131.373,140.24c-3.329,6.117-7.51,11.499-9.013,18.507c-1.249,5.82-1.468,11.576-1.774,17.454
	c-2.606-0.472-5.497-0.556-8.212-0.962c-2.103-0.314-4.924-1.699-6.964-1.038c-0.291-5.13-1.108-10.72,0.275-15.656
	c2.084-7.441,5.379-15.333,9.876-21.562c1.273-1.765,2.494-4.418,4-5.993c1.784-1.866,3.302-0.431,5.755,0.312
	c1.865,0.565,3.848,1.372,4.869,3.119c0.941,1.613,0.332,3.421,0.938,5.068"/>
<path fill="#CE6363" d="M61.726,133.585c0,16.845,15.67,30.5,35,30.5s28-13.655,28-30.5s-8.67-30.5-28-30.5
	S61.726,116.74,61.726,133.585z"/>
<path fill="#F3B8B8" d="M41.276,75.037C42.24,61.385,54.089,51.1,67.742,52.062c1.004,0.072,1.988,0.208,2.953,0.393
	C74.8,41.932,85.39,34.827,97.251,35.664c4.779,0.338,9.167,1.929,12.878,4.42c5.294-9.961,16.097-16.408,28.073-15.562
	c9.146,0.646,17.021,5.406,21.942,12.344c5.202-3.266,11.446-4.973,18.041-4.508c11.1,0.784,20.354,7.517,24.886,16.857
	c18.275,2.336,31.76,18.566,30.445,37.175c-1.239,17.553-15.218,31.159-32.26,32.434c-4.217,13.494-16.785,23.055-31.301,23.123
	c-7.242,7.516-17.638,11.891-28.864,11.098c-9.45-0.666-17.804-4.877-23.858-11.237c-4.932,3.726-11.176,5.757-17.826,5.286
	c-7.824-0.552-14.611-4.449-19.07-10.194c-3.103,0.958-6.429,1.377-9.863,1.134c-14.875-1.05-26.081-13.96-25.031-28.834
	c0.353-4.983,2.041-9.552,4.682-13.388C44.226,90.881,40.693,83.291,41.276,75.037z"/>
<path fill="none" stroke="#CE6363" stroke-width="7" stroke-linecap="round" stroke-linejoin="round" stroke-miterlimit="10" d="
	M200.337,116.395c-3.068-5.189-4.145-12.493-12.524-15.237c-6.884-2.255-12.819-0.905-18.725,2.521"/>
<path fill="none" stroke="#CE6363" stroke-width="7" stroke-linecap="round" stroke-linejoin="round" stroke-miterlimit="10" d="
	M163.097,83.473c1.22,9.454,8.064,17.32,6.701,27.675c-0.996,7.559-7.471,11.968-13.389,14.51"/>
<path fill="none" stroke="#CE6363" stroke-width="7" stroke-linecap="round" stroke-linejoin="round" stroke-miterlimit="10" d="
	M77.093,61.205c7.595,9.557,10.46,20.165,2.275,31.615c-5.383,7.526-19.248,11.765-26.961,5.295"/>
<path fill="none" stroke="#CE6363" stroke-width="7" stroke-linecap="round" stroke-linejoin="round" stroke-miterlimit="10" d="
	M92.669,121.489c0.521-7.375,1.735-13.109-2.652-19.234c-3.141-4.386-7.01-5.542-11.523-7.163"/>
<path fill="none" stroke="#CE6363" stroke-width="7" stroke-linecap="round" stroke-linejoin="round" stroke-miterlimit="10" d="
	M202.158,51.344c-0.053,4.362-3.342,6.008-6.125,8.577c-3.444,3.179-6.477,4.795-11.145,5.296
	c-3.803,0.408-7.465,0.293-11.238-0.543c-4.593-1.017-6.959-3.085-10.618-5.818"/>
<path fill="none" stroke="#CE6363" stroke-width="7" stroke-linecap="round" stroke-linejoin="round" stroke-miterlimit="10" d="
	M143.597,99.839c-8.224-2.797-16.113-3.581-21.604,4.238c-1.614,2.301-3.027,5.006-3.307,7.788
	c-0.375,3.756,1.266,5.446,2.661,8.457"/>
<path fill="none" stroke="#CE6363" stroke-width="7" stroke-linecap="round" stroke-linejoin="round" stroke-miterlimit="10" d="
	M110.917,40.891c0.158,1.971,2.895,3.098,4.196,4.477c1.719,1.816,2.725,3.485,4.929,4.744c2.717,1.553,5.914,2.52,8.822,2.817
	c4.473,0.459,13.377-0.089,15.152-5.189"/>
<path fill="none" stroke="#CE6363" stroke-width="7" stroke-linecap="round" stroke-linejoin="round" stroke-miterlimit="10" d="
	M108.772,74.824c7.083,3.037,18.217,2.613,22.346-4.994c2.157-3.977,4.358-10.461,0.812-14.173"/>
<path fill="none" stroke="#7A3A19" stroke-width="8" stroke-linecap="round" stroke-linejoin="round" stroke-miterlimit="10" d="
	M55.697,90.896c-3.547,12.335-12.969,24.322-14.581,37.249c23.419-6.144,45.141-13.249,69.899-13.249
	c10.299,0,76.573,8.064,73.239,25.883c-4.624,0.623-10.969,2.128-15.265-0.55c-2.862-1.783-5.144-6.44-7.968-8.683l-4.611-7.025"/>
<path fill="none" stroke="#7A3A19" stroke-width="8" stroke-linecap="round" stroke-linejoin="round" stroke-miterlimit="10" d="
	M233.03,87.562c5.615,5.303,18.016,10.512,19.912,18.535c-18.076,5.33-39.587,10.613-58.43,10.798
	c-10.801,0.105-58.62,8.935-68.955,11.554c-3.229,0.818-8.983,2.616-9.885,6.649c-0.933,4.172,4.353,9.281,8.534,9.367
	c5.246,0.108,5.826-5.034,9.335-8.034c3.56-3.043,5.275-5.595,7.989-8.869l5.26-1.905"/>
<g>
	<path fill="#E9F6F6" d="M402.559,216.334c-13.275,0.679-26.454-13.373-26.454-13.373l-0.074-67.831l68.024-68.026H301.609
		l68.026,68.026v67.831c0,0-13.18,14.052-26.454,13.373H402.559z"/>
	<g opacity="0.4">
		<path fill="#D3E0E0" d="M343.181,216.334c0.563,0.026,1.127,0.022,1.688,0H343.181z"/>
		<path fill="#D3E0E0" d="M372.904,67.104h-71.295l68.026,68.026v67.831c0,0-12.084,12.874-24.766,13.373h28.034V67.104z"/>
	</g>
	<polygon fill="#B6D29A" points="375.282,126.208 427.391,74.102 318.276,74.102 370.383,126.208 	"/>
	<polygon fill="#F4F0DF" points="377.213,113.647 370.488,122.015 376.672,113.241 426.953,46.141 427.496,46.546 	"/>
	<g>
		
			<ellipse transform="matrix(0.773 -0.6344 0.6344 0.773 25.0387 268.1498)" fill="#9AA958" cx="387.263" cy="99.083" rx="6.587" ry="9.108"/>
		
			<ellipse transform="matrix(0.7731 -0.6343 0.6343 0.7731 22.84 271.3307)" fill="#C53E3C" cx="390.644" cy="103.743" rx="2.083" ry="1.608"/>
	</g>
</g>
<g>
	<path fill="#E9F6F6" d="M402.559,216.334c-13.275,0.679-26.454-13.373-26.454-13.373l-0.074-67.831l68.024-68.026H301.609
		l68.026,68.026v67.831c0,0-13.18,14.052-26.454,13.373H402.559z"/>
	<g opacity="0.4">
		<path fill="#D3E0E0" d="M343.181,216.334c0.563,0.026,1.127,0.022,1.688,0H343.181z"/>
		<path fill="#D3E0E0" d="M372.904,67.104h-71.295l68.026,68.026v67.831c0,0-12.084,12.874-24.766,13.373h28.034V67.104z"/>
	</g>
	<polygon fill="#B6D29A" points="375.282,126.208 427.391,74.102 318.276,74.102 370.383,126.208 	"/>
	<polygon fill="#F4F0DF" points="377.213,113.647 370.488,122.015 376.672,113.241 426.953,46.141 427.496,46.546 	"/>
	<g>
		
			<ellipse transform="matrix(0.773 -0.6344 0.6344 0.773 25.0387 268.1498)" fill="#9AA958" cx="387.263" cy="99.083" rx="6.587" ry="9.108"/>
		
			<ellipse transform="matrix(0.7731 -0.6343 0.6343 0.7731 22.84 271.3307)" fill="#C53E3C" cx="390.644" cy="103.743" rx="2.083" ry="1.608"/>
	</g>
</g>
<g>
	<polygon fill="#E9F6F6" points="655.643,86.397 645.213,223.358 576.182,223.358 565.752,86.397 	"/>
</g>
<g>
	<polygon fill="#ECBB57" points="571.734,120.992 580.754,214.285 640.641,214.285 649.869,120.992 	"/>
</g>
<g>
	<path fill="#FFFFFF" d="M613.258,125.658c0.91,1.076,0.775,2.685-0.299,3.595l-13.572,11.479c-1.076,0.91-2.684,0.775-3.594-0.3
		l-11.479-13.573c-0.91-1.075-0.777-2.684,0.299-3.592l13.572-11.479c1.074-0.91,2.686-0.775,3.592,0.301L613.258,125.658z"/>
</g>
<g>
	<path fill="#FFFFFF" d="M635.91,139.044c-0.576,1.285-2.082,1.861-3.369,1.285l-16.225-7.261c-1.287-0.576-1.861-2.083-1.287-3.37
		l7.264-16.224c0.574-1.286,2.082-1.86,3.367-1.286l16.225,7.262c1.287,0.576,1.863,2.083,1.287,3.369L635.91,139.044z"/>
</g>
<g opacity="0.5">
	<polygon fill="#ECBB57" points="571.734,120.992 580.754,214.285 640.641,214.285 649.869,120.992 	"/>
</g>
<g>
	<circle fill="#73903C" cx="656.352" cy="86.114" r="23.11"/>
</g>
<g>
	<circle fill="#FFFFFF" cx="656.352" cy="86.113" r="21.551"/>
</g>
<g>
	<circle fill="#C4D22E" cx="656.352" cy="86.113" r="20.133"/>
</g>
<g>
	<rect x="655.783" y="65.627" fill="#FFFFFF" width="1.135" height="41.541"/>
</g>
<g>
	<rect x="635.58" y="85.83" fill="#FFFFFF" width="41.541" height="1.135"/>
</g>
<g>
	
		<rect x="655.775" y="65.627" transform="matrix(-0.7075 -0.7067 0.7067 -0.7075 1059.6726 611.3489)" fill="#FFFFFF" width="1.135" height="41.541"/>
</g>
<g>
	
		<rect x="635.576" y="85.829" transform="matrix(-0.7071 -0.7071 0.7071 -0.7071 1059.3711 611.5885)" fill="#FFFFFF" width="41.542" height="1.135"/>
</g>
<g opacity="0.7">
	<polygon fill="#E9F6F6" points="653.902,109.224 655.643,86.397 565.752,86.397 567.49,109.224 	"/>
</g>
<path fill="#E9F6F6" d="M489.877,263.74l-0.072-66.303c19.695-2.034,35.197-23.544,35.197-49.801c0-7.416-1.246-14.447-3.465-20.776
	h-69.572c-2.217,6.329-3.463,13.36-3.463,20.776c0,26.127,15.348,47.557,34.904,49.771v66.332c0,0-12.088,12.877-24.77,13.373
	h56.008C501.963,276.617,489.877,263.74,489.877,263.74z"/>
<path opacity="0.4" fill="#D3E0E0" enable-background="new    " d="M458.639,277.113h28.113V126.86h-34.787
	c-2.217,6.329-3.463,13.36-3.463,20.776c0,26.126,15.348,47.557,34.904,49.771v66.332
	C483.406,263.74,471.318,276.617,458.639,277.113z"/>
<path fill="#78133C" d="M453.502,152.338c0.926,22.945,15.457,41.179,33.25,41.179s32.322-18.232,33.25-41.179H453.502z"/>
<g>
	<g>
		<path fill="#813458" d="M457.85,158.492c2.998,13.367,9.283,26.585,23.061,31.321c3.059,1.051,4.359-3.78,1.33-4.821
			c-12.016-4.13-16.994-16.354-19.568-27.828C461.965,154.018,457.145,155.353,457.85,158.492L457.85,158.492z"/>
	</g>
</g>
</svg>
