<?xml version="1.0" encoding="utf-8"?>
<!-- Generator: Adobe Illustrator 16.0.0, SVG Export Plug-In . SVG Version: 6.00 Build 0)  -->
<!DOCTYPE svg PUBLIC "-//W3C//DTD SVG 1.1//EN" "http://www.w3.org/Graphics/SVG/1.1/DTD/svg11.dtd">
<svg version="1.1" id="Layer_1" xmlns="http://www.w3.org/2000/svg" xmlns:xlink="http://www.w3.org/1999/xlink" x="0px" y="0px"
	 width="351px" height="431px" viewBox="0 0 351 431" enable-background="new 0 0 351 431" xml:space="preserve">
<path fill="#BD7150" d="M189.874,362.317c0,0,44.914,16.604,41.008-168.911h11.959c-3.905,185.515,41.008,168.911,41.008,168.911"/>
<path fill="#F2C7C7" d="M246.085,378.799c3.329,6.117,7.51,11.498,9.013,18.506c1.249,5.82,1.468,11.576,1.774,17.455
	c2.607-0.473,5.498-0.557,8.212-0.963c2.102-0.314,4.924-1.699,6.963-1.037c0.291-5.131,1.109-10.721-0.275-15.656
	c-2.084-7.441-5.379-15.334-9.875-21.562c-1.273-1.764-2.494-4.417-4-5.993c-1.784-1.865-3.302-0.43-5.755,0.312
	c-1.865,0.566-3.848,1.373-4.869,3.12c-0.941,1.613-0.332,3.42-0.938,5.068"/>
<path fill="#CE6363" d="M315.731,372.143c0,16.846-15.67,30.5-35,30.5s-28-13.654-28-30.5c0-16.845,8.669-30.499,28-30.499
	S315.731,355.298,315.731,372.143z"/>
<path fill="#F3B8B8" d="M336.183,313.597c-0.965-13.654-12.815-23.939-26.467-22.975c-1.004,0.07-1.988,0.207-2.953,0.393
	c-4.105-10.525-14.695-17.629-26.557-16.791c-4.779,0.336-9.166,1.928-12.877,4.418c-5.295-9.959-16.097-16.408-28.073-15.562
	c-9.147,0.646-17.021,5.408-21.943,12.345c-5.202-3.266-11.446-4.975-18.041-4.508c-11.1,0.783-20.354,7.516-24.886,16.855
	c-18.274,2.336-31.759,18.568-30.445,37.176c1.24,17.553,15.218,31.158,32.261,32.434c4.217,13.494,16.784,23.054,31.3,23.122
	c7.243,7.516,17.638,11.891,28.864,11.098c9.45-0.666,17.804-4.877,23.858-11.236c4.932,3.725,11.176,5.756,17.826,5.285
	c7.824-0.551,14.611-4.449,19.07-10.193c3.104,0.957,6.43,1.377,9.863,1.133c14.875-1.049,26.082-13.96,25.031-28.833
	c-0.352-4.984-2.041-9.551-4.682-13.389C333.231,329.44,336.765,321.851,336.183,313.597z"/>
<path fill="none" stroke="#CE6363" stroke-width="7" stroke-linecap="round" stroke-linejoin="round" stroke-miterlimit="10" d="
	M177.121,354.952c3.069-5.189,4.144-12.492,12.524-15.236c6.884-2.256,12.819-0.904,18.725,2.521"/>
<path fill="none" stroke="#CE6363" stroke-width="7" stroke-linecap="round" stroke-linejoin="round" stroke-miterlimit="10" d="
	M214.361,322.032c-1.22,9.453-8.064,17.318-6.701,27.674c0.996,7.559,7.47,11.967,13.389,14.51"/>
<path fill="none" stroke="#CE6363" stroke-width="7" stroke-linecap="round" stroke-linejoin="round" stroke-miterlimit="10" d="
	M300.364,299.763c-7.594,9.557-10.459,20.166-2.275,31.615c5.383,7.527,19.248,11.766,26.961,5.297"/>
<path fill="none" stroke="#CE6363" stroke-width="7" stroke-linecap="round" stroke-linejoin="round" stroke-miterlimit="10" d="
	M284.788,360.048c-0.52-7.375-1.734-13.109,2.652-19.234c3.141-4.385,7.01-5.541,11.523-7.164"/>
<path fill="none" stroke="#CE6363" stroke-width="7" stroke-linecap="round" stroke-linejoin="round" stroke-miterlimit="10" d="
	M175.3,289.901c0.053,4.363,3.342,6.008,6.125,8.578c3.444,3.18,6.477,4.795,11.145,5.297c3.803,0.408,7.465,0.291,11.238-0.543
	c4.593-1.018,6.959-3.086,10.618-5.818"/>
<path fill="none" stroke="#CE6363" stroke-width="7" stroke-linecap="round" stroke-linejoin="round" stroke-miterlimit="10" d="
	M233.861,338.397c8.223-2.797,16.113-3.582,21.603,4.238c1.614,2.301,3.027,5.006,3.307,7.787c0.375,3.756-1.266,5.447-2.661,8.457"
	/>
<path fill="none" stroke="#CE6363" stroke-width="7" stroke-linecap="round" stroke-linejoin="round" stroke-miterlimit="10" d="
	M266.54,279.448c-0.158,1.973-2.895,3.1-4.195,4.477c-1.719,1.818-2.725,3.486-4.929,4.746c-2.717,1.553-5.914,2.518-8.822,2.816
	c-4.473,0.459-13.376-0.09-15.153-5.189"/>
<path fill="none" stroke="#CE6363" stroke-width="7" stroke-linecap="round" stroke-linejoin="round" stroke-miterlimit="10" d="
	M268.687,313.382c-7.084,3.037-18.217,2.613-22.346-4.994c-2.157-3.975-4.358-10.461-0.812-14.172"/>
<g>
	<path fill="#BD7150" d="M140.344,180.214c0,0,0.396,0.003,1.137,0.009c0.743,0.01,1.817-0.029,3.247,0.164
		c0.71,0.072,1.504,0.142,2.33,0.326c0.833,0.164,1.75,0.305,2.69,0.577c1.913,0.457,4.004,1.161,6.257,1.937
		c2.244,0.777,4.648,1.643,7.194,2.307c2.547,0.629,5.259,0.953,7.99,0.641c2.728-0.301,5.478-1.175,8.05-2.62
		c1.28-0.624,2.686-1.497,4.042-2.261c1.416-0.779,2.835-1.568,4.334-2.266c2.978-1.396,6.204-2.601,9.608-3.055
		c0.841-0.135,1.698-0.138,2.544-0.207c0.423-0.018,0.849-0.068,1.269-0.059l1.255,0.074l1.251,0.078l0.623,0.041l0.156,0.01
		l0.078,0.006c-0.123-0.024,0.211,0.035,0.189,0.031l0.035,0.006l0.278,0.051l1.107,0.201c0.375,0.074,0.705,0.107,1.163,0.258
		c0.835,0.263,1.761,0.49,2.5,0.814c0.741,0.329,1.525,0.604,2.211,0.982c1.417,0.711,2.714,1.506,3.926,2.315
		c2.416,1.63,4.45,3.32,6.294,4.789c1.844,1.466,3.485,2.778,4.961,3.755c0.73,0.534,1.431,0.904,2.065,1.311
		c0.642,0.365,1.237,0.643,1.767,0.928c1.08,0.449,1.916,0.797,2.502,0.924c0.577,0.17,0.885,0.26,0.885,0.26l-1.912,7.102
		c0,0-0.442-0.158-1.273-0.453c-0.85-0.264-1.998-0.805-3.424-1.528c-0.669-0.404-1.436-0.833-2.211-1.344
		c-0.742-0.533-1.6-1.08-2.39-1.733c-1.662-1.264-3.327-2.782-5.099-4.382c-1.767-1.602-3.594-3.313-5.597-4.853
		c-1.002-0.764-2.046-1.496-3.143-2.137c-0.541-0.352-1.12-0.576-1.687-0.883c-0.578-0.302-1.089-0.429-1.644-0.677
		c-0.235-0.122-0.646-0.199-0.998-0.292l-1.092-0.27l-0.274-0.068l-0.034-0.009c-0.045-0.009,0.266,0.049,0.119,0.022l-0.063-0.008
		l-0.126-0.015l-0.507-0.062l-1.021-0.127l-1.03-0.134c-0.344-0.031-0.689-0.005-1.036-0.012c-0.692,0.019-1.395-0.038-2.095,0.032
		c-2.808,0.191-5.641,1.031-8.452,2.14c-1.409,0.549-2.799,1.21-4.188,1.864c-1.436,0.691-2.741,1.404-4.301,2.061
		c-2.951,1.418-6.216,2.256-9.389,2.397c-3.182,0.161-6.221-0.419-8.895-1.263c-2.668-0.879-5.044-1.912-7.23-2.824
		c-2.179-0.906-4.169-1.719-5.977-2.271c-0.895-0.323-1.755-0.508-2.546-0.717c-0.792-0.23-1.521-0.337-2.182-0.447
		c-1.304-0.27-2.41-0.305-3.147-0.359c-0.739-0.053-1.134-0.08-1.134-0.08L140.344,180.214z"/>
</g>
<g>
	<path fill="#BD7150" d="M234.946,195.927c0,0,0.221-0.24,0.633-0.69c0.207-0.226,0.461-0.504,0.761-0.83
		c0.149-0.163,0.311-0.338,0.481-0.525c0.161-0.184,0.355-0.387,0.615-0.621c0.976-0.896,2.131-2.062,3.585-3.07
		c0.358-0.266,0.728-0.539,1.108-0.82c0.409-0.248,0.83-0.502,1.262-0.762c0.435-0.256,0.87-0.533,1.335-0.781
		c0.479-0.225,0.97-0.455,1.47-0.689c0.984-0.507,2.085-0.83,3.193-1.227c0.554-0.21,1.139-0.309,1.719-0.468
		c0.584-0.134,1.174-0.319,1.775-0.398c2.409-0.47,4.915-0.636,7.458-0.726c5.068-0.094,10.251,0.27,15.372,0.242
		c0.624-0.007,1.319,0.013,1.885-0.018l1.95-0.071c0.655-0.019,1.23-0.097,1.85-0.142c0.608-0.045,1.217-0.1,1.821-0.203
		c2.439-0.295,4.76-0.916,6.957-1.717c2.21-0.77,4.237-1.865,6.161-2.905c1.874-1.089,3.559-2.307,5.207-3.413
		c1.633-1.103,3.185-2.081,4.642-2.828c1.457-0.747,2.811-1.273,3.977-1.553c1.169-0.274,2.12-0.344,2.766-0.334
		c0.645,0.033,0.989,0.051,0.989,0.051l-0.08,0.997c0,0-0.307,0.008-0.883,0.022c-0.573,0.035-1.414,0.162-2.446,0.486
		c-1.031,0.332-2.236,0.906-3.549,1.709c-1.314,0.804-2.727,1.848-4.247,3.051c-1.513,1.188-3.167,2.586-5.075,3.897
		c-1.924,1.237-3.979,2.558-6.32,3.581c-2.314,1.052-4.85,1.935-7.477,2.456c-0.651,0.162-1.319,0.274-1.993,0.378
		c-0.664,0.099-1.369,0.237-2.008,0.303l-1.938,0.219c-0.73,0.09-1.34,0.113-2.017,0.173c-5.291,0.423-10.538,0.459-15.229,0.905
		c-2.325,0.26-4.53,0.58-6.488,1.123c-1.955,0.549-3.71,1.213-5.188,2.063c-0.37,0.208-0.733,0.411-1.088,0.608
		c-0.343,0.221-0.659,0.467-0.978,0.686c-0.315,0.223-0.624,0.439-0.923,0.65c-0.278,0.244-0.549,0.481-0.811,0.711
		c-1.103,0.889-1.817,1.781-2.489,2.457c-0.082,0.088-0.163,0.173-0.241,0.256c-0.083,0.105-0.164,0.209-0.242,0.309
		c-0.157,0.199-0.305,0.387-0.441,0.561c-0.273,0.348-0.507,0.645-0.695,0.885c-0.378,0.48-0.579,0.736-0.579,0.736L234.946,195.927
		z"/>
</g>
<g>
	<path fill="#BD7150" d="M231.267,200.083c0,0,0.046-0.339,0.134-0.973c0.076-0.615,0.248-1.626,0.313-2.636
		c0.042-0.537,0.112-1.1,0.149-1.773c0.032-0.683,0.066-1.422,0.104-2.21c0.041-1.594,0.06-3.407,0.025-5.413
		c-0.055-4.008-0.317-8.779-0.424-13.982c-0.062-2.596-0.047-5.313,0.06-8.079c0.128-2.771,0.378-5.601,0.838-8.418
		c0.098-0.704,0.272-1.406,0.406-2.107l0.216-1.049l0.071-0.341l0.068-0.246l0.138-0.492c0.193-0.663,0.343-1.292,0.571-1.979
		c0.237-0.689,0.475-1.377,0.71-2.062c0.986-2.611,2.073-5.012,2.942-7.336c0.456-1.16,0.794-2.305,1.125-3.432
		c0.147-0.565,0.245-1.129,0.37-1.686c0.055-0.265,0.131-0.588,0.166-0.8c0.039-0.295,0.077-0.588,0.115-0.879
		c0.304-2.329,0.624-4.534,0.749-6.536c0.085-1.008,0.166-1.974,0.243-2.893c0.052-0.929,0.1-1.81,0.146-2.638
		c0.083-1.66,0.156-3.106,0.216-4.298c0.104-2.388,0.162-3.752,0.162-3.752h1c0,0,0.06,1.365,0.163,3.754
		c0.043,1.197,0.096,2.65,0.155,4.317c0.026,0.835,0.055,1.724,0.084,2.661c0.002,0.946,0.004,1.94,0.007,2.978
		c0.046,2.095-0.083,4.304-0.185,6.649c-0.013,0.293-0.025,0.588-0.039,0.886c-0.025,0.378-0.071,0.642-0.107,0.972
		c-0.083,0.628-0.142,1.275-0.252,1.913c-0.252,1.266-0.521,2.563-0.894,3.827c-0.71,2.543-1.594,5.057-2.294,7.548
		c-0.152,0.602-0.305,1.206-0.458,1.812c-0.15,0.61-0.258,1.317-0.39,1.974l-0.094,0.501l-0.048,0.251
		c-0.006,0.028,0.029-0.131,0.013-0.049l-0.003,0.03l-0.007,0.061l-0.014,0.121l-0.111,0.969c-0.065,0.648-0.172,1.285-0.204,1.939
		c-0.195,2.604-0.202,5.235-0.097,7.837c0.126,2.607,0.331,5.178,0.61,7.688c0.536,5.014,1.211,9.752,1.632,13.92
		c0.216,2.082,0.365,4.02,0.471,5.752c0.034,0.874,0.066,1.692,0.097,2.449c0.023,0.766,0.004,1.521,0.005,2.18
		c0.01,1.379-0.07,2.231-0.094,2.892c-0.032,0.64-0.05,0.98-0.05,0.98L231.267,200.083z"/>
</g>
<g>
	<path fill="#BD7150" d="M183.529,183.633c0,0-0.031,0.01-0.09,0.027c-0.084,0.018-0.087,0.046-0.329,0.079
		c-0.484,0.081-0.843,0.011-1.364-0.097c-0.987-0.24-2.193-0.792-3.558-1.568c-0.34-0.196-0.69-0.404-1.048-0.632l-0.27-0.174
		l-0.289-0.211c-0.17-0.128-0.344-0.257-0.52-0.388c-0.353-0.234-0.709-0.593-1.069-0.939c-0.383-0.332-0.667-0.738-0.986-1.131
		c-0.333-0.383-0.553-0.852-0.837-1.283c-0.242-0.453-0.458-0.927-0.669-1.402c-0.376-0.967-0.693-1.964-0.937-2.967l-0.186-0.751
		c-0.048-0.199-0.136-0.477-0.202-0.711c-0.142-0.488-0.284-0.974-0.424-1.457c-0.174-0.456-0.383-0.882-0.569-1.32
		c-0.166-0.447-0.418-0.846-0.672-1.237c-0.447-0.824-1.079-1.474-1.628-2.133c-0.647-0.564-1.212-1.158-1.848-1.575
		c-0.306-0.223-0.599-0.437-0.878-0.64c-0.293-0.185-0.571-0.36-0.833-0.524c-0.522-0.332-0.982-0.614-1.373-0.829
		c-0.773-0.442-1.216-0.695-1.216-0.695l0.141-0.264c0,0,0.453,0.237,1.246,0.652c0.4,0.2,0.874,0.468,1.415,0.783
		c0.271,0.157,0.56,0.324,0.863,0.5c0.292,0.197,0.601,0.404,0.921,0.621c0.665,0.401,1.277,0.993,1.97,1.557
		c0.601,0.664,1.29,1.327,1.796,2.176c0.283,0.403,0.565,0.816,0.764,1.291c0.217,0.46,0.46,0.926,0.659,1.399
		c0.159,0.477,0.318,0.958,0.479,1.44c0.081,0.252,0.159,0.458,0.243,0.75l0.209,0.728c0.275,0.972,0.615,1.911,1,2.803
		c0.213,0.434,0.428,0.861,0.664,1.268c0.275,0.377,0.483,0.798,0.797,1.125c0.298,0.337,0.568,0.699,0.898,0.957
		c0.315,0.281,0.595,0.564,0.985,0.805c0.18,0.125,0.358,0.248,0.534,0.369l0.229,0.156l0.26,0.154
		c0.347,0.203,0.689,0.389,1.02,0.563c1.32,0.69,2.479,1.151,3.24,1.302c0.184,0.031,0.356,0.066,0.477,0.062
		c0.058,0,0.13,0.006,0.164,0.004c0.019-0.008,0.035-0.008,0.051-0.004c0,0.03,0.162-0.045,0.198-0.052
		c0.058-0.021,0.088-0.03,0.088-0.03L183.529,183.633z"/>
</g>
<g>
	<path fill="#BD7150" d="M161.46,186.329c0,0-0.109,0.04-0.314,0.115c-0.219,0.072-0.453,0.201-0.994,0.302
		c-0.53,0.131-1.05,0.176-1.641,0.233c-0.281,0.021-0.581,0.043-0.896,0.068c-0.294,0.033-0.603,0.068-0.925,0.106
		c-0.609,0.114-1.246,0.263-1.822,0.598c-0.144,0.085-0.29,0.171-0.438,0.259c-0.026,0.013-0.1,0.062-0.088,0.045l-0.121,0.098
		l-0.243,0.197c-0.326,0.266-0.659,0.535-0.998,0.811c-0.677,0.553-1.377,1.125-2.088,1.707c-0.355,0.292-0.714,0.587-1.074,0.883
		c-0.188,0.15-0.34,0.29-0.56,0.451l-0.571,0.407c-0.825,0.563-1.637,1.026-2.465,1.48c-0.833,0.433-1.658,0.843-2.487,1.183
		c-1.647,0.693-3.262,1.191-4.713,1.402c-0.727,0.1-1.408,0.133-2.021,0.091c-0.609-0.061-1.153-0.138-1.578-0.324
		c-0.439-0.132-0.744-0.339-0.952-0.48c-0.208-0.137-0.319-0.21-0.319-0.21l0.624-0.781c0,0,0.087,0.051,0.25,0.145
		c0.158,0.099,0.386,0.25,0.74,0.338c0.326,0.137,0.782,0.18,1.294,0.213c0.522,0.018,1.121-0.033,1.774-0.148
		c1.307-0.236,2.812-0.758,4.354-1.477c0.775-0.352,1.55-0.774,2.328-1.215c0.763-0.454,1.551-0.947,2.246-1.46l0.55-0.423
		c0.151-0.121,0.34-0.299,0.507-0.444c0.345-0.306,0.689-0.611,1.03-0.913c0.686-0.605,1.361-1.199,2.014-1.775
		c0.329-0.287,0.651-0.57,0.967-0.847c0.184-0.146,0.257-0.259,0.527-0.428c0.2-0.13,0.398-0.259,0.593-0.386
		c0.795-0.493,1.649-0.729,2.401-0.895c0.369-0.057,0.723-0.111,1.06-0.162c0.318-0.037,0.619-0.07,0.902-0.104
		c0.538-0.069,1-0.139,1.26-0.214c0.269-0.026,0.61-0.199,0.802-0.272c0.202-0.082,0.309-0.127,0.309-0.127L161.46,186.329z"/>
</g>
<g>
	<path fill="#BD7150" d="M217.914,183.41c0,0-0.07-0.111-0.201-0.32c-0.13-0.218-0.324-0.524-0.573-0.812
		c-0.222-0.305-0.61-0.725-1.022-1.188c-0.436-0.476-0.928-1.012-1.464-1.598c-0.531-0.615-1.113-1.289-1.627-2.125
		c-0.125-0.212-0.251-0.427-0.379-0.645c-0.142-0.281-0.201-0.447-0.307-0.68c-0.201-0.413-0.365-0.921-0.529-1.431
		c-0.311-1.007-0.504-2.039-0.629-3.094c-0.138-1.054-0.193-2.113-0.263-3.166c-0.039-0.512-0.05-1.077-0.111-1.54
		c-0.064-0.52-0.127-1.038-0.19-1.552c-0.059-0.516-0.215-0.972-0.315-1.456l-0.171-0.71c-0.081-0.231-0.161-0.461-0.241-0.689
		c-0.286-0.924-0.692-1.773-1.056-2.588c-0.41-0.796-0.785-1.556-1.18-2.239c-0.763-1.375-1.433-2.514-1.863-3.331
		c-0.436-0.814-0.685-1.28-0.685-1.28l0.301-0.162c0,0,0.268,0.451,0.736,1.241c0.462,0.793,1.177,1.893,2.006,3.243
		c0.425,0.666,0.843,1.423,1.295,2.215c0.411,0.819,0.866,1.674,1.209,2.624c0.093,0.234,0.187,0.47,0.282,0.708
		c0.072,0.249,0.145,0.5,0.218,0.751c0.129,0.504,0.32,1.025,0.401,1.536c0.085,0.511,0.172,1.026,0.259,1.542
		c0.097,0.573,0.123,1.062,0.188,1.598c0.115,1.042,0.217,2.084,0.392,3.078c0.162,0.996,0.394,1.966,0.704,2.832
		c0.158,0.423,0.3,0.836,0.534,1.27c0.099,0.196,0.221,0.465,0.297,0.592c0.116,0.176,0.231,0.352,0.344,0.523
		c0.463,0.687,1.029,1.291,1.553,1.848c0.556,0.554,1.065,1.062,1.516,1.512c0.46,0.477,0.854,0.857,1.198,1.279
		c0.361,0.405,0.563,0.705,0.696,0.904c0.14,0.203,0.215,0.312,0.215,0.312L217.914,183.41z"/>
</g>
<g>
	<path fill="#BD7150" d="M260.933,184.085c0,0,0.096-0.11,0.274-0.315c0.186-0.207,0.425-0.504,0.79-0.894
		c0.381-0.38,0.839-0.891,1.373-1.37c0.528-0.506,1.141-1.041,1.809-1.623c1.337-1.15,2.922-2.416,4.498-3.855
		c0.773-0.729,1.563-1.493,2.272-2.335c0.356-0.419,0.713-0.846,1.018-1.306c0.339-0.442,0.609-0.923,0.883-1.405
		c0.299-0.471,0.464-1,0.706-1.497c0.18-0.518,0.345-1.044,0.484-1.571c0.083-0.533,0.222-1.081,0.263-1.594
		c0.035-0.557,0.096-1.117,0.109-1.649c-0.01-0.525-0.02-1.041-0.028-1.546c-0.063-0.506-0.126-1.002-0.187-1.484
		c-0.202-0.946-0.41-1.851-0.776-2.617c-0.08-0.197-0.159-0.39-0.237-0.578c-0.086-0.184-0.204-0.344-0.301-0.512
		c-0.203-0.331-0.396-0.644-0.577-0.939c-0.467-0.507-0.84-0.993-1.21-1.326c-0.786-0.622-1.236-0.977-1.236-0.977l0.119-0.194
		c0,0,0.483,0.337,1.329,0.926c0.402,0.321,0.819,0.797,1.339,1.303c0.208,0.296,0.43,0.611,0.663,0.944
		c0.112,0.169,0.247,0.333,0.349,0.521c0.094,0.192,0.189,0.389,0.286,0.589c0.434,0.789,0.712,1.721,0.983,2.709
		c0.095,0.504,0.191,1.021,0.29,1.551c0.042,0.542,0.085,1.096,0.129,1.659c0.019,0.556-0.008,1.102-0.01,1.665
		c-0.014,0.607-0.122,1.173-0.182,1.774c-0.117,0.584-0.263,1.173-0.429,1.756c-0.227,0.56-0.385,1.16-0.677,1.693
		c-0.267,0.547-0.536,1.096-0.872,1.596c-0.306,0.525-0.66,1.006-1.017,1.481c-0.71,0.952-1.492,1.806-2.257,2.618
		c-1.55,1.596-3.066,2.963-4.303,4.163c-0.611,0.602-1.17,1.153-1.635,1.655c-0.491,0.498-0.829,0.936-1.15,1.289
		c-0.31,0.371-0.554,0.711-0.72,0.92c-0.166,0.217-0.254,0.331-0.254,0.331L260.933,184.085z"/>
</g>
<g>
	<path fill="#BD7150" d="M292.498,181.578c0,0,0.016-0.085,0.045-0.245c-0.012-0.039-0.005-0.053-0.011-0.133
		c-0.015-0.094-0.018-0.195-0.054-0.331c-0.107-0.524-0.434-1.333-0.862-2.31c-0.212-0.492-0.451-1.027-0.669-1.637
		c-0.05-0.159-0.105-0.312-0.148-0.484l-0.066-0.273l-0.041-0.236c-0.054-0.318-0.109-0.642-0.166-0.972
		c-0.121-0.654-0.162-1.383-0.248-2.093c-0.006-0.719-0.084-1.443-0.024-2.174l0.069-1.091c0.035-0.393,0.11-0.711,0.163-1.067
		c0.123-0.689,0.308-1.398,0.472-2.038c0.175-0.648,0.326-1.271,0.468-1.862c0.119-0.592,0.236-1.154,0.283-1.676
		c0.024-0.521,0.098-1.004,0.025-1.423c-0.049-0.419-0.04-0.798-0.159-1.083c-0.173-0.584-0.272-0.919-0.272-0.919l0.242-0.107
		c0,0,0.119,0.345,0.329,0.948c0.137,0.296,0.147,0.688,0.218,1.128c0.095,0.442,0.043,0.942,0.04,1.49
		c-0.024,0.544-0.119,1.128-0.214,1.74c-0.117,0.607-0.242,1.248-0.387,1.898c-0.138,0.663-0.277,1.3-0.37,1.998
		c-0.035,0.34-0.102,0.718-0.112,1.034l-0.019,1.044c-0.027,0.695,0.081,1.395,0.116,2.079c0.115,0.68,0.175,1.334,0.327,1.99
		c0.071,0.327,0.141,0.648,0.209,0.963l0.052,0.234l0.056,0.185c0.038,0.131,0.096,0.269,0.144,0.4
		c0.218,0.537,0.475,1.051,0.708,1.531c0.473,0.962,0.866,1.795,1.047,2.488c0.052,0.166,0.075,0.342,0.101,0.486
		c0.022,0.161,0.018,0.355,0.015,0.482c-0.024,0.17-0.037,0.261-0.037,0.261L292.498,181.578z"/>
</g>
<g>
	<path fill="#BD7150" d="M232.506,153.709c0,0-0.099-0.104-0.284-0.297c-0.184-0.2-0.459-0.461-0.801-0.853
		c-0.331-0.407-0.776-0.89-1.185-1.468c-0.438-0.568-0.885-1.233-1.367-1.959c-0.469-0.733-0.962-1.531-1.463-2.382
		c-0.495-0.848-1.018-1.742-1.559-2.667c-0.545-0.915-1.107-1.859-1.727-2.779c-0.604-0.934-1.285-1.826-2.007-2.681
		c-0.735-0.84-1.527-1.632-2.404-2.287l-0.658-0.485c-0.186-0.128-0.469-0.273-0.696-0.401c-0.46-0.207-0.954-0.39-1.459-0.548
		c-2.027-0.594-4.014-0.946-5.666-1.451c-0.824-0.262-1.579-0.518-2.205-0.854c-0.638-0.31-1.135-0.692-1.508-1.042
		c-0.342-0.381-0.592-0.702-0.687-0.964c-0.118-0.248-0.181-0.379-0.181-0.379l0.142-0.052c0,0,0.065,0.124,0.188,0.354
		c0.098,0.244,0.35,0.54,0.687,0.886c0.37,0.318,0.855,0.664,1.485,0.938c0.615,0.3,1.366,0.521,2.183,0.745
		c1.647,0.432,3.623,0.698,5.732,1.223c0.523,0.142,1.061,0.311,1.614,0.54c0.258,0.132,0.477,0.227,0.76,0.399l0.714,0.482
		c0.954,0.654,1.82,1.452,2.623,2.298c0.788,0.859,1.532,1.759,2.189,2.688c0.675,0.92,1.284,1.854,1.872,2.757
		c0.577,0.902,1.136,1.774,1.665,2.601c0.529,0.821,1.043,1.582,1.526,2.274c0.495,0.681,0.949,1.303,1.385,1.821
		c0.418,0.544,0.819,0.936,1.13,1.295c0.329,0.349,0.635,0.62,0.82,0.806c0.193,0.186,0.297,0.285,0.297,0.285L232.506,153.709z"/>
</g>
<g>
	<path fill="#BD7150" d="M235.447,161.906c0,0,0.019-0.495,0.052-1.361c0.054-0.455,0.109-1.033,0.222-1.662
		c0.132-0.623,0.284-1.323,0.549-2.059c0.252-0.737,0.584-1.519,1.016-2.294c0.416-0.785,0.943-1.558,1.527-2.317
		c0.59-0.756,1.255-1.484,1.965-2.181c0.719-0.688,1.47-1.36,2.255-1.983c1.553-1.264,3.222-2.375,4.723-3.447
		c0.739-0.547,1.433-1.096,2.063-1.656c0.33-0.265,0.602-0.571,0.891-0.842c0.292-0.27,0.549-0.552,0.78-0.836
		c0.503-0.539,0.866-1.102,1.198-1.597c0.317-0.501,0.499-0.99,0.7-1.369c0.233-0.816,0.357-1.292,0.357-1.292l0.174,0.023
		c0.001,0-0.101,0.491-0.308,1.349c-0.186,0.396-0.354,0.913-0.656,1.444c-0.317,0.524-0.668,1.124-1.156,1.698
		c-0.226,0.303-0.476,0.605-0.761,0.894c-0.281,0.291-0.549,0.619-0.871,0.903c-0.616,0.6-1.305,1.198-2.034,1.79
		c-1.472,1.156-3.056,2.317-4.521,3.626c-0.739,0.644-1.436,1.327-2.096,2.019c-0.65,0.7-1.251,1.42-1.771,2.154
		c-0.514,0.737-0.97,1.475-1.317,2.212c-0.364,0.729-0.632,1.452-0.829,2.128c-0.209,0.675-0.316,1.313-0.41,1.877
		c-0.072,0.562-0.097,1.038-0.131,1.444c0.007,0.867,0.01,1.363,0.01,1.363L235.447,161.906z"/>
</g>
<g>
	<path fill="#BD7150" d="M280.936,186.122c0,0,0.418,0.019,1.15,0.051c0.361,0.008,0.901,0.15,1.459,0.254
		c0.582,0.109,1.105,0.338,1.746,0.531c1.215,0.459,2.58,1.074,3.989,1.738c0.712,0.326,1.438,0.664,2.183,0.949
		c0.729,0.297,1.517,0.527,2.328,0.771c0.791,0.204,1.58,0.424,2.377,0.561c0.396,0.086,0.79,0.154,1.183,0.191
		c0.379,0.035,0.804,0.125,1.134,0.113c0.813,0.027,1.481-0.063,2.157-0.223c0.679-0.159,1.311-0.384,1.896-0.596
		c1.161-0.449,2.15-0.834,2.854-1.061c0.716-0.201,1.128-0.305,1.128-0.305l0.076,0.316c0,0-0.392,0.13-1.076,0.357
		c-0.677,0.264-1.615,0.691-2.769,1.217c-0.583,0.25-1.22,0.52-1.933,0.73c-0.711,0.219-1.552,0.363-2.31,0.377
		c-0.455,0.034-0.822-0.034-1.247-0.047c-0.415-0.017-0.83-0.064-1.244-0.129c-0.836-0.096-1.674-0.275-2.516-0.442
		c-0.804-0.193-1.637-0.384-2.454-0.661c-0.811-0.256-1.576-0.562-2.31-0.848c-1.468-0.59-2.809-1.101-3.966-1.464
		c-0.57-0.134-1.126-0.333-1.555-0.378c-0.448-0.048-0.774-0.158-1.147-0.147c-0.732,0.011-1.15,0.017-1.15,0.017L280.936,186.122z"
		/>
</g>
<path fill="#668D3C" d="M130.087,187.001c4.57,1.731,6.868,6.839,5.135,11.406c-1.732,4.569-6.839,6.868-11.407,5.136
	c-4.568-1.73-12.195-14.084-12.195-14.084S125.519,185.27,130.087,187.001z"/>
<path fill="#668D3C" d="M143.927,168.456c3.049,3.82,2.42,9.384-1.398,12.431c-3.82,3.045-9.384,2.418-12.431-1.4
	c-3.047-3.818-3.308-18.334-3.308-18.334S140.882,164.637,143.927,168.456z"/>
<path fill="#668D3C" d="M137.92,199.492c2.602-4.14,8.062-5.382,12.199-2.782c4.136,2.605,5.376,8.063,2.777,12.201
	c-2.6,4.133-16.216,9.168-16.216,9.168S135.32,203.627,137.92,199.492z"/>
<path fill="#668D3C" d="M164.908,148.491c3.048,3.821,2.42,9.385-1.398,12.432c-3.821,3.045-9.385,2.418-12.431-1.4
	c-3.048-3.818-3.307-18.334-3.307-18.334S161.863,144.673,164.908,148.491z"/>
<path fill="#668D3C" d="M184.523,161.415c-0.204,4.884-4.325,8.675-9.205,8.472c-4.882-0.206-8.672-4.327-8.47-9.208
	c0.202-4.881,9.52-16.013,9.52-16.013S184.726,156.536,184.523,161.415z"/>
<path fill="#668D3C" d="M216.658,152.462c-0.204,4.884-4.325,8.675-9.205,8.472c-4.882-0.206-8.672-4.326-8.47-9.208
	c0.202-4.881,9.52-16.012,9.52-16.012S216.861,147.584,216.658,152.462z"/>
<path fill="#668D3C" d="M230.277,126.212c-0.431,4.87-4.727,8.462-9.593,8.029c-4.865-0.432-8.459-4.727-8.028-9.593
	c0.432-4.867,10.263-15.549,10.263-15.549S230.711,121.348,230.277,126.212z"/>
<path fill="#668D3C" d="M252.942,112.504c-2.237,4.346-7.571,6.051-11.915,3.814c-4.343-2.238-6.048-7.571-3.813-11.916
	c2.237-4.342,15.371-10.524,15.371-10.524S255.18,108.162,252.942,112.504z"/>
<path fill="#668D3C" d="M204.972,119.714c4.675,1.424,7.307,6.368,5.881,11.042c-1.426,4.671-6.369,7.304-11.042,5.878
	c-4.673-1.423-13.101-13.243-13.101-13.243S200.3,118.287,204.972,119.714z"/>
<path fill="#668D3C" d="M167.588,169.916c4.524,1.853,6.686,7.017,4.835,11.538c-1.854,4.521-7.019,6.684-11.541,4.834
	c-4.521-1.852-11.819-14.4-11.819-14.4S163.07,168.064,167.588,169.916z"/>
<path fill="#668D3C" d="M205.349,163.722c4.524,1.853,6.686,7.017,4.835,11.538c-1.854,4.521-7.019,6.684-11.541,4.833
	c-4.521-1.852-11.819-14.4-11.819-14.4S200.831,161.871,205.349,163.722z"/>
<path fill="#668D3C" d="M227.574,179.481c-3.536,3.376-9.133,3.244-12.507-0.287c-3.372-3.536-3.241-9.134,0.292-12.509
	c3.533-3.374,17.966-4.922,17.966-4.922S231.106,176.11,227.574,179.481z"/>
<path fill="#668D3C" d="M254.297,134.249c-4.563,1.753-9.678-0.523-11.432-5.083c-1.75-4.561,0.526-9.677,5.086-11.431
	c4.561-1.753,18.478,2.376,18.478,2.376S258.855,132.498,254.297,134.249z"/>
<path fill="#668D3C" d="M258.024,153.217c-3.654,3.248-9.242,2.918-12.489-0.732c-3.244-3.653-2.915-9.243,0.735-12.49
	c3.651-3.246,18.131-4.281,18.131-4.281S261.674,149.973,258.024,153.217z"/>
<path fill="#668D3C" d="M281.95,149.194c0.718,4.836-2.616,9.333-7.448,10.052c-4.831,0.716-9.33-2.619-10.05-7.451
	c-0.719-4.833,6.34-17.518,6.34-17.518S281.233,144.364,281.95,149.194z"/>
<path fill="#668D3C" d="M300.625,154.405c0.719,4.836-2.615,9.333-7.448,10.052c-4.832,0.716-9.33-2.619-10.049-7.451
	c-0.719-4.833,6.339-17.518,6.339-17.518S299.909,149.575,300.625,154.405z"/>
<path fill="#668D3C" d="M271.958,161.231c3.712,3.183,4.142,8.763,0.963,12.474c-3.179,3.707-8.762,4.138-12.473,0.959
	c-3.711-3.178-6.695-17.385-6.695-17.385S268.251,158.054,271.958,161.231z"/>
<path fill="#668D3C" d="M322.177,175.46c-3.946,2.886-9.478,2.027-12.363-1.916c-2.881-3.943-2.022-9.477,1.919-12.362
	c3.943-2.885,18.455-2.541,18.455-2.541S326.118,172.579,322.177,175.46z"/>
<path fill="#668D3C" d="M313.85,199.565c-4.857,0.561-9.242-2.918-9.803-7.771c-0.56-4.852,2.92-9.24,7.773-9.801
	c4.853-0.561,17.302,6.907,17.302,6.907S318.701,199.006,313.85,199.565z"/>
<path fill="#668D3C" d="M320.392,153.984c-2.539,4.178-7.977,5.503-12.153,2.967c-4.172-2.537-5.5-7.978-2.965-12.154
	c2.537-4.176,16.075-9.417,16.075-9.417S322.929,149.812,320.392,153.984z"/>
<path fill="#668D3C" d="M291.802,126.872c0.719,4.836-2.615,9.333-7.448,10.052c-4.83,0.716-9.33-2.619-10.05-7.451
	c-0.719-4.833,6.341-17.518,6.341-17.518S291.086,122.042,291.802,126.872z"/>
<path fill="#668D3C" d="M310.036,135.492c-2.64,4.116-8.109,5.311-12.223,2.674c-4.11-2.637-5.307-8.108-2.67-12.222
	c2.636-4.113,16.295-9.028,16.295-9.028S312.671,131.382,310.036,135.492z"/>
<path fill="#668D3C" d="M178.624,132.219c0.718,4.836-2.616,9.333-7.449,10.052c-4.831,0.716-9.33-2.619-10.049-7.451
	c-0.719-4.833,6.339-17.518,6.339-17.518S177.907,127.389,178.624,132.219z"/>
<path fill="#84C6D5" d="M146.713,99.037c0.204,1.371-0.741,2.645-2.111,2.849c-1.369,0.203-2.644-0.742-2.848-2.112
	c-0.204-1.37,1.797-4.965,1.797-4.965S146.51,97.668,146.713,99.037z"/>
<path fill="#84C6D5" d="M147.744,80.058c0.204,1.371-0.741,2.645-2.111,2.849c-1.369,0.203-2.644-0.742-2.848-2.112
	c-0.204-1.37,1.797-4.965,1.797-4.965S147.541,78.689,147.744,80.058z"/>
<path fill="#668D3C" d="M216.544,107.974c0.718,4.836-2.616,9.333-7.449,10.052c-4.831,0.716-9.33-2.619-10.049-7.451
	c-0.719-4.833,6.34-17.518,6.34-17.518S215.828,103.144,216.544,107.974z"/>
<path fill="#668D3C" d="M191.363,107.966c1.896,4.507-0.216,9.69-4.719,11.587c-4.501,1.894-9.688-0.219-11.585-4.721
	c-1.896-4.503,1.789-18.543,1.789-18.543S189.469,103.466,191.363,107.966z"/>
<path fill="#668D3C" d="M198.6,144.752c0.718,4.836-2.616,9.333-7.449,10.052c-4.831,0.716-9.33-2.619-10.049-7.451
	c-0.719-4.833,6.34-17.518,6.34-17.518S197.883,139.922,198.6,144.752z"/>
<path fill="#668D3C" d="M257.053,172.968c0.718,4.837-2.616,9.333-7.449,10.052c-4.831,0.716-9.33-2.619-10.049-7.451
	c-0.719-4.833,6.34-17.518,6.34-17.518S256.336,168.138,257.053,172.968z"/>
<path fill="#668D3C" d="M236.231,96.263c0.718,4.836-2.616,9.332-7.449,10.052c-4.83,0.716-9.33-2.619-10.049-7.451
	c-0.719-4.833,6.34-17.518,6.34-17.518S235.515,91.433,236.231,96.263z"/>
<path fill="#668D3C" d="M275.155,106.768c0.718,4.836-2.617,9.333-7.449,10.052c-4.831,0.716-9.33-2.619-10.05-7.451
	c-0.719-4.833,6.34-17.518,6.34-17.518S274.438,101.938,275.155,106.768z"/>
<path fill="#668D3C" d="M251.603,89.566c-1.76,4.562-6.876,6.831-11.436,5.075c-4.557-1.758-6.827-6.877-5.071-11.436
	c1.756-4.559,14.149-12.118,14.149-12.118S253.359,85.01,251.603,89.566z"/>
<path fill="#668D3C" d="M303.811,110.934c0.572,4.856-2.896,9.249-7.749,9.822c-4.851,0.568-9.245-2.901-9.819-7.753
	c-0.57-4.852,6.868-17.317,6.868-17.317S303.243,106.085,303.811,110.934z"/>
<path fill="#BD7150" d="M136.583,97.928l3.017-29.487L127.969,80.15l-23.789-3.294l14.177-20.071l-29.007-31.29l-7.136,4.514
	c-0.795-1.305-1.726-2.55-2.801-3.71C70.292,16.459,54.482,16.23,44.17,25.79c-9.086,8.423-10.913,21.674-4.979,31.438l-5.422,3.43
	l46.455,50.114l14.951-21.166l32.022-4.65L136.583,97.928z M48.929,30.923c7.481-6.936,18.854-6.875,25.351,0.134
	c0.779,0.841,1.447,1.747,2.017,2.697l-31.189,19.73C40.944,46.514,42.354,37.018,48.929,30.923z"/>
<defs>
	<filter id="Adobe_OpacityMaskFilter" filterUnits="userSpaceOnUse" x="83.149" y="25.458" width="35.275" height="37.739">
		<feColorMatrix  type="matrix" values="1 0 0 0 0  0 1 0 0 0  0 0 1 0 0  0 0 0 1 0"/>
	</filter>
</defs>
<mask maskUnits="userSpaceOnUse" x="83.149" y="25.458" width="35.275" height="37.739" id="SVGID_1_">
	<g filter="url(#Adobe_OpacityMaskFilter)">
		<path fill="#BD7150" d="M136.583,97.928l3.017-29.487L127.969,80.15l-23.789-3.294l14.177-20.071l-29.007-31.29l-7.136,4.514
			c-0.795-1.305-1.726-2.55-2.801-3.71C70.292,16.459,54.482,16.23,44.17,25.79c-9.086,8.423-10.913,21.674-4.979,31.438
			l-5.422,3.43l46.455,50.114l14.951-21.166l32.022-4.65L136.583,97.928z M48.929,30.923c7.481-6.936,18.854-6.875,25.351,0.134
			c0.779,0.841,1.447,1.747,2.017,2.697l-31.189,19.73C40.944,46.514,42.354,37.018,48.929,30.923z"/>
	</g>
</mask>
<rect x="76.371" y="42.91" transform="matrix(0.6798 0.7334 -0.7334 0.6798 64.7781 -59.7225)" mask="url(#SVGID_1_)" fill="#7F5647" width="48.833" height="2.833"/>
<defs>
	<filter id="Adobe_OpacityMaskFilter_1_" filterUnits="userSpaceOnUse" x="35.132" y="57.014" width="48.987" height="52.529">
		<feColorMatrix  type="matrix" values="1 0 0 0 0  0 1 0 0 0  0 0 1 0 0  0 0 0 1 0"/>
	</filter>
</defs>
<mask maskUnits="userSpaceOnUse" x="35.132" y="57.014" width="48.987" height="52.529" id="SVGID_2_">
	<g filter="url(#Adobe_OpacityMaskFilter_1_)">
		<path fill="#BD7150" d="M136.583,97.928l3.017-29.487L127.969,80.15l-23.789-3.294l14.177-20.071l-29.007-31.29l-7.136,4.514
			c-0.795-1.305-1.726-2.55-2.801-3.71C70.292,16.459,54.482,16.23,44.17,25.79c-9.086,8.423-10.913,21.674-4.979,31.438
			l-5.422,3.43l46.455,50.114l14.951-21.166l32.022-4.65L136.583,97.928z M48.929,30.923c7.481-6.936,18.854-6.875,25.351,0.134
			c0.779,0.841,1.447,1.747,2.017,2.697l-31.189,19.73C40.944,46.514,42.354,37.018,48.929,30.923z"/>
	</g>
</mask>
<rect x="25.126" y="81.862" transform="matrix(0.6798 0.7334 -0.7334 0.6798 80.164 -17.0647)" mask="url(#SVGID_2_)" fill="#7F5647" width="69" height="2.834"/>
<defs>
	<filter id="Adobe_OpacityMaskFilter_2_" filterUnits="userSpaceOnUse" x="126.205" y="79.304" width="1.996" height="6.543">
		<feColorMatrix  type="matrix" values="1 0 0 0 0  0 1 0 0 0  0 0 1 0 0  0 0 0 1 0"/>
	</filter>
</defs>
<mask maskUnits="userSpaceOnUse" x="126.205" y="79.304" width="1.996" height="6.543" id="SVGID_3_">
	<g filter="url(#Adobe_OpacityMaskFilter_2_)">
		<path fill="#BD7150" d="M136.583,97.928l3.017-29.487L127.969,80.15l-23.789-3.294l14.177-20.071l-29.007-31.29l-7.136,4.514
			c-0.795-1.305-1.726-2.55-2.801-3.71C70.292,16.459,54.482,16.23,44.17,25.79c-9.086,8.423-10.913,21.674-4.979,31.438
			l-5.422,3.43l46.455,50.114l14.951-21.166l32.022-4.65L136.583,97.928z M48.929,30.923c7.481-6.936,18.854-6.875,25.351,0.134
			c0.779,0.841,1.447,1.747,2.017,2.697l-31.189,19.73C40.944,46.514,42.354,37.018,48.929,30.923z"/>
	</g>
</mask>
<line mask="url(#SVGID_3_)" fill="none" stroke="#7F5647" stroke-miterlimit="10" x1="127.707" y1="79.382" x2="126.698" y2="85.769"/>
<path fill="#84C6D5" d="M151.715,89.211c0.204,1.371-0.741,2.645-2.111,2.849c-1.369,0.203-2.644-0.742-2.848-2.112
	c-0.204-1.37,1.797-4.965,1.797-4.965S151.512,87.842,151.715,89.211z"/>
<path fill="#84C6D5" d="M156.716,103.535c0.204,1.371-0.741,2.645-2.111,2.849c-1.369,0.203-2.644-0.742-2.848-2.112
	c-0.204-1.37,1.797-4.965,1.797-4.965S156.513,102.166,156.716,103.535z"/>
<path fill="#84C6D5" d="M148.712,113.327c0.204,1.371-0.741,2.645-2.111,2.849c-1.369,0.203-2.644-0.742-2.848-2.112
	c-0.204-1.37,1.797-4.965,1.797-4.965S148.509,111.958,148.712,113.327z"/>
<path fill="#84C6D5" d="M161.718,95.485c0.204,1.371-0.741,2.645-2.111,2.849c-1.369,0.203-2.644-0.742-2.848-2.112
	c-0.204-1.37,1.797-4.965,1.797-4.965S161.515,94.116,161.718,95.485z"/>
<path fill="#84C6D5" d="M159.217,83.954c0.204,1.371-0.741,2.645-2.111,2.849c-1.369,0.203-2.644-0.742-2.848-2.112
	c-0.204-1.37,1.797-4.965,1.797-4.965S159.014,82.585,159.217,83.954z"/>
<path fill="#84C6D5" d="M167.589,106.266c0.204,1.371-0.741,2.645-2.111,2.849c-1.369,0.203-2.644-0.742-2.848-2.112
	c-0.204-1.37,1.797-4.965,1.797-4.965S167.386,104.897,167.589,106.266z"/>
<path fill="#84C6D5" d="M159.217,115.246c0.204,1.371-0.741,2.645-2.111,2.849c-1.369,0.203-2.644-0.742-2.848-2.112
	c-0.204-1.37,1.797-4.965,1.797-4.965S159.014,113.877,159.217,115.246z"/>
</svg>
