<?xml version="1.0" encoding="utf-8"?>
<!-- Generator: Adobe Illustrator 16.0.0, SVG Export Plug-In . SVG Version: 6.00 Build 0)  -->
<!DOCTYPE svg PUBLIC "-//W3C//DTD SVG 1.1//EN" "http://www.w3.org/Graphics/SVG/1.1/DTD/svg11.dtd">
<svg version="1.1" id="Layer_1" xmlns="http://www.w3.org/2000/svg" xmlns:xlink="http://www.w3.org/1999/xlink" x="0px" y="0px"
	 width="222px" height="174px" viewBox="0 0 222 174" enable-background="new 0 0 222 174" xml:space="preserve">
<path fill="#F2C7C7" d="M121.75,127.345c3.329,6.117,7.51,11.499,9.013,18.507c1.249,5.82,1.467,11.576,1.774,17.454
	c2.606-0.472,5.497-0.556,8.212-0.962c2.103-0.314,4.924-1.699,6.964-1.038c0.291-5.129,1.108-10.72-0.275-15.656
	c-2.085-7.441-5.38-15.333-9.876-21.562c-1.273-1.764-2.494-4.417-4-5.993c-1.785-1.867-3.301-0.431-5.755,0.312
	c-1.866,0.565-3.848,1.372-4.869,3.119c-0.942,1.613-0.332,3.421-0.938,5.068"/>
<path fill="#CE6363" d="M191.396,120.689c0,16.845-15.67,30.5-35,30.5s-28-13.655-28-30.5s8.67-30.5,28-30.5
	S191.396,103.845,191.396,120.689z"/>
<path fill="#F3B8B8" d="M211.847,62.142c-0.964-13.653-12.813-23.938-26.466-22.975c-1.004,0.071-1.988,0.208-2.953,0.393
	c-4.106-10.524-14.695-17.628-26.557-16.791c-4.778,0.337-9.167,1.928-12.877,4.419c-5.294-9.96-16.096-16.408-28.073-15.562
	c-9.147,0.646-17.021,5.407-21.943,12.344c-5.202-3.266-11.446-4.974-18.041-4.508c-11.1,0.784-20.354,7.516-24.886,16.856
	c-18.274,2.336-31.759,18.567-30.445,37.175c1.24,17.552,15.218,31.159,32.261,32.434c4.217,13.495,16.784,23.054,31.3,23.123
	c7.243,7.516,17.638,11.892,28.864,11.099c9.45-0.667,17.804-4.877,23.859-11.238c4.931,3.725,11.176,5.756,17.825,5.287
	c7.825-0.552,14.612-4.45,19.07-10.195c3.103,0.958,6.429,1.377,9.863,1.134c14.875-1.05,26.082-13.96,25.031-28.835
	c-0.352-4.983-2.04-9.551-4.682-13.388C208.896,77.986,212.43,70.396,211.847,62.142z"/>
<path fill="none" stroke="#CE6363" stroke-width="7" stroke-linecap="round" stroke-linejoin="round" stroke-miterlimit="10" d="
	M52.785,103.499c3.069-5.189,4.144-12.493,12.524-15.238c6.884-2.255,12.819-0.904,18.725,2.521"/>
<path fill="none" stroke="#CE6363" stroke-width="7" stroke-linecap="round" stroke-linejoin="round" stroke-miterlimit="10" d="
	M90.025,70.578c-1.22,9.454-8.064,17.319-6.701,27.674c0.996,7.56,7.47,11.968,13.389,14.51"/>
<path fill="none" stroke="#CE6363" stroke-width="7" stroke-linecap="round" stroke-linejoin="round" stroke-miterlimit="10" d="
	M176.03,48.309c-7.595,9.557-10.46,20.166-2.275,31.615c5.382,7.527,19.248,11.765,26.96,5.296"/>
<path fill="none" stroke="#CE6363" stroke-width="7" stroke-linecap="round" stroke-linejoin="round" stroke-miterlimit="10" d="
	M160.454,108.594c-0.521-7.375-1.736-13.109,2.651-19.235c3.142-4.385,7.01-5.541,11.524-7.163"/>
<path fill="none" stroke="#CE6363" stroke-width="7" stroke-linecap="round" stroke-linejoin="round" stroke-miterlimit="10" d="
	M50.964,38.448c0.053,4.362,3.342,6.007,6.125,8.577c3.444,3.179,6.477,4.795,11.145,5.296c3.803,0.408,7.465,0.292,11.238-0.543
	c4.593-1.017,6.959-3.085,10.618-5.818"/>
<path fill="none" stroke="#CE6363" stroke-width="7" stroke-linecap="round" stroke-linejoin="round" stroke-miterlimit="10" d="
	M109.526,86.943c8.223-2.797,16.113-3.582,21.603,4.239c1.615,2.3,3.028,5.005,3.307,7.788c0.375,3.756-1.265,5.446-2.661,8.457"/>
<path fill="none" stroke="#CE6363" stroke-width="7" stroke-linecap="round" stroke-linejoin="round" stroke-miterlimit="10" d="
	M142.205,27.995c-0.158,1.971-2.894,3.098-4.196,4.476c-1.719,1.817-2.725,3.486-4.928,4.745c-2.718,1.553-5.914,2.519-8.823,2.817
	c-4.473,0.459-13.376-0.089-15.153-5.189"/>
<path fill="none" stroke="#CE6363" stroke-width="7" stroke-linecap="round" stroke-linejoin="round" stroke-miterlimit="10" d="
	M144.351,61.928c-7.083,3.038-18.217,2.613-22.346-4.994c-2.158-3.976-4.359-10.461-0.812-14.172"/>
</svg>
