<?xml version="1.0" encoding="utf-8"?>
<!-- Generator: Adobe Illustrator 16.0.0, SVG Export Plug-In . SVG Version: 6.00 Build 0)  -->
<!DOCTYPE svg PUBLIC "-//W3C//DTD SVG 1.1//EN" "http://www.w3.org/Graphics/SVG/1.1/DTD/svg11.dtd">
<svg version="1.1" id="Layer_1" xmlns="http://www.w3.org/2000/svg" xmlns:xlink="http://www.w3.org/1999/xlink" x="0px" y="0px"
	 width="172.512px" height="104.266px" viewBox="0 0 172.512 104.266" enable-background="new 0 0 172.512 104.266"
	 xml:space="preserve">
<g>
	<g>
		<path fill="#E9BBAD" d="M61.063,77.274c0,0-0.367,0.104-1.055,0.298c-0.344,0.098-0.769,0.217-1.267,0.358
			c-0.562,0.107-1.253,0.204-2.002,0.315c-0.188,0.026-0.382,0.054-0.58,0.081c-0.196,0.003-0.397,0.005-0.603,0.008
			c-0.411-0.001-0.84-0.001-1.288-0.001c-0.447,0.026-0.912-0.077-1.394-0.145c-0.478-0.09-0.987-0.116-1.484-0.273
			c-2.035-0.497-4.146-1.616-6.049-3.18c-1.911-1.567-3.607-3.572-5.147-5.785c-1.545-2.215-2.946-4.647-4.358-7.137
			c-0.71-1.258-1.39-2.481-2.213-3.597c-0.825-1.141-1.756-2.237-2.774-3.267c-2.038-2.053-4.412-3.867-7.03-5.155
			c-2.604-1.286-5.513-2.019-8.287-1.631c-2.771,0.347-5.287,1.862-7.055,3.928c-1.547,1.971-1.882,4.888-0.984,7.128
			c0.841,2.289,2.792,3.925,4.878,4.447c1.045,0.301,2.104,0.425,3.082,0.378c0.969-0.06,1.892-0.31,2.453-0.852
			c1.146-1.24,0.897-2.961,0.306-3.997c-0.299-0.521-0.719-0.897-1.085-0.986c-0.365-0.105-0.626,0.134-0.813,0.354
			c-0.183,0.24-0.278,0.474-0.333,0.639c-0.063,0.158-0.096,0.239-0.096,0.239l-0.575-0.166c0,0,0.035-0.097,0.103-0.284
			c0.06-0.188,0.159-0.469,0.402-0.81c0.105-0.17,0.31-0.344,0.537-0.49c0.134-0.052,0.276-0.122,0.429-0.149
			c0.155,0,0.33-0.016,0.489,0.018c0.657,0.152,1.17,0.656,1.556,1.269c0.384,0.621,0.643,1.406,0.659,2.291
			c0,0.438-0.058,0.901-0.22,1.396c-0.076,0.23-0.179,0.407-0.271,0.619c-0.155,0.267-0.292,0.471-0.493,0.662
			c-0.785,0.782-1.893,1.072-2.982,1.176c-1.103,0.083-2.254-0.023-3.416-0.321c-2.369-0.523-4.7-2.347-5.751-4.985
			c-1.077-2.598-0.912-5.905,1.028-8.526c1.873-2.318,4.693-4.162,7.901-4.654c3.203-0.533,6.492,0.226,9.369,1.548
			c2.899,1.33,5.49,3.205,7.741,5.348c1.124,1.075,2.16,2.228,3.095,3.446c0.96,1.231,1.727,2.538,2.458,3.749
			c1.477,2.445,2.907,4.771,4.422,6.817c1.508,2.046,3.106,3.808,4.773,5.097c1.666,1.285,3.372,2.118,4.97,2.462
			c0.391,0.118,0.796,0.113,1.17,0.177c0.379,0.041,0.738,0.125,1.099,0.085c0.356-0.01,0.699-0.02,1.025-0.029
			c0.163-0.005,0.322-0.009,0.477-0.014c0.148-0.027,0.293-0.054,0.435-0.079c0.567-0.099,1.073-0.186,1.513-0.262
			c0.495-0.155,0.916-0.286,1.257-0.393c0.683-0.214,1.047-0.327,1.047-0.327L61.063,77.274z"/>
	</g>
	<g>
		<path fill="#9D9D9D" d="M139.171,48.36c1.121-1.578,4.094-3.205,5.749-4.929c8.884-9.257,16.406-32.108-1.163-36.488
			c-7.938-1.979-16.066-0.525-21.088,6.222c-4.399,5.914-6.174,13.956-5.106,21.245c0.548,3.73,2.063,7.398,3.696,10.773"/>
		<path fill="#E9BBAD" d="M135.799,47.722c0.784-1.101,5.182-8.049,6.337-9.252c6.203-6.463,11.453-22.416-0.812-25.474
			c-5.542-1.381-11.217-0.367-14.723,4.344c-3.071,4.128-4.31,9.743-3.565,14.832c0.383,2.604,0.709,11.233,1.85,13.589"/>
	</g>
	<path fill="#C4C6C6" d="M31.102,76.495c0,25.267,32.333,22.25,69.75,22.25s65.75,3.017,65.75-22.25
		c0-25.268-30.333-45.75-67.75-45.75S31.102,51.228,31.102,76.495z"/>
	<g>
		<path fill="#9D9D9D" d="M134.955,40.215c-0.259-1.919,0.799-5.138,0.828-7.528c0.157-12.829-9.972-34.65-25.789-25.838
			c-7.148,3.981-12.088,10.599-11.141,18.956c0.832,7.324,5.034,14.407,10.795,18.998c2.949,2.349,6.562,3.99,10.062,5.337"/>
		<path fill="#E9BBAD" d="M132.058,42.055c-0.182-1.34-1.72-9.417-1.699-11.086c0.11-8.957-6.961-24.19-18.005-18.039
			c-4.989,2.78-8.438,7.4-7.776,13.234c0.58,5.113,3.514,10.058,7.536,13.263c2.058,1.64,8.195,7.714,10.638,8.654"/>
	</g>
	<path fill="#E9BBAD" d="M166.319,72.322l-7.55,1.007l6.666,5.5C165.435,78.829,166.772,74.906,166.319,72.322z"/>
	<circle cx="150.602" cy="61.995" r="1.667"/>
	<g>
		<line opacity="0.3" fill="none" stroke="#000000" stroke-miterlimit="10" x1="155.521" y1="72.322" x2="135.015" y2="66.495"/>
		<line opacity="0.3" fill="none" stroke="#000000" stroke-miterlimit="10" x1="155.685" y1="74.866" x2="134.852" y2="76.397"/>
		<line opacity="0.3" fill="none" stroke="#000000" stroke-miterlimit="10" x1="155.486" y1="77.438" x2="135.051" y2="83.825"/>
	</g>
	<path fill="#42803C" d="M49.241,83.425V62.704h0.04c0.423-10.21,10.383-18.383,22.641-18.383s22.219,8.173,22.641,18.383h0.04
		v21.318v1.262v8.635c0,2.478-1.892,4.483-4.226,4.483H53.41c-2.335,0-4.226-2.006-4.226-4.483v-9.896
		C49.184,83.817,49.216,83.622,49.241,83.425z"/>
	<path fill="#CCA22C" d="M94.602,85.329v8.59c0,2.478-1.892,4.483-4.226,4.483H53.41c-2.335,0-4.226-2.006-4.226-4.483v-8.59H94.602
		z"/>
	<g>
		<g>
			
				<line fill="none" stroke="#7F5F26" stroke-width="0.5" stroke-miterlimit="10" x1="93.894" y1="87.079" x2="92.394" y2="87.079"/>
			
				<line fill="none" stroke="#7F5F26" stroke-width="0.5" stroke-miterlimit="10" stroke-dasharray="3.109,3.109" x1="89.285" y1="87.079" x2="53.532" y2="87.079"/>
			
				<line fill="none" stroke="#7F5F26" stroke-width="0.5" stroke-miterlimit="10" x1="51.977" y1="87.079" x2="50.477" y2="87.079"/>
		</g>
	</g>
	<path fill="#3A6C34" d="M58.269,89.865c0,1.657,1.343,3,3,3h20.75c1.656,0,3-1.343,3-3V78.912c0-1.657-1.344-3-3-3h-20.75
		c-1.657,0-3,1.343-3,3V89.865z"/>
	<path fill="#CCA22C" d="M58.269,81.829v-2.917c0-1.657,1.343-3,3-3h20.75c1.656,0,3,1.343,3,3v2.917H58.269z"/>
	<path fill="#7F5F26" d="M77.769,75.912h2.542v10.333h-0.055c0.021,0.09,0.055,0.176,0.055,0.271c0,0.702-0.569,1.271-1.271,1.271
		c-0.701,0-1.271-0.569-1.271-1.271c0-0.096,0.034-0.182,0.055-0.271h-0.055V75.912z"/>
	<path fill="#7F5F26" d="M62.769,75.912h2.542v10.333h-0.055c0.021,0.09,0.055,0.176,0.055,0.271c0,0.702-0.569,1.271-1.271,1.271
		c-0.701,0-1.271-0.569-1.271-1.271c0-0.096,0.034-0.182,0.055-0.271h-0.055V75.912z"/>
	<g>
		<polygon fill="none" stroke="#254720" stroke-miterlimit="10" points="74.401,64.583 77.159,59.808 74.401,55.032 68.887,55.032 
			66.129,59.808 68.887,64.583 		"/>
		
			<line fill="none" stroke="#254720" stroke-linecap="round" stroke-linejoin="round" stroke-miterlimit="10" x1="71.727" y1="58.308" x2="71.727" y2="61.308"/>
		
			<line fill="none" stroke="#254720" stroke-linecap="round" stroke-linejoin="round" stroke-miterlimit="10" x1="69.727" y1="58.786" x2="69.727" y2="60.829"/>
		
			<line fill="none" stroke="#254720" stroke-linecap="round" stroke-linejoin="round" stroke-miterlimit="10" x1="73.727" y1="58.786" x2="73.727" y2="60.829"/>
	</g>
	<path fill="none" stroke="#7F5F26" stroke-width="2" stroke-linecap="round" stroke-linejoin="round" stroke-miterlimit="10" d="
		M77.935,47.363c0,0-5.768-19.71-13.082,0"/>
</g>
</svg>
