<?xml version="1.0" encoding="utf-8"?>
<!-- Generator: Adobe Illustrator 16.0.0, SVG Export Plug-In . SVG Version: 6.00 Build 0)  -->
<!DOCTYPE svg PUBLIC "-//W3C//DTD SVG 1.1//EN" "http://www.w3.org/Graphics/SVG/1.1/DTD/svg11.dtd">
<svg version="1.1" id="Layer_1" xmlns="http://www.w3.org/2000/svg" xmlns:xlink="http://www.w3.org/1999/xlink" x="0px" y="0px"
	 width="223.667px" height="179px" viewBox="0 0 223.667 179" enable-background="new 0 0 223.667 179" xml:space="preserve">
<path fill="#F2C7C7" d="M119.064,130.315c3.329,6.117,7.51,11.499,9.013,18.507c1.249,5.82,1.468,11.576,1.774,17.454
	c2.606-0.472,5.497-0.556,8.212-0.962c2.103-0.314,4.924-1.699,6.964-1.038c0.291-5.13,1.108-10.72-0.275-15.656
	c-2.084-7.441-5.379-15.333-9.876-21.562c-1.273-1.765-2.494-4.418-4-5.993c-1.784-1.866-3.302-0.431-5.755,0.312
	c-1.865,0.565-3.848,1.372-4.869,3.119c-0.941,1.613-0.332,3.421-0.938,5.068"/>
<path fill="#CE6363" d="M188.71,123.66c0,16.845-15.67,30.5-35,30.5s-28-13.655-28-30.5s8.67-30.5,28-30.5
	S188.71,106.815,188.71,123.66z"/>
<path fill="#F3B8B8" d="M209.161,65.112c-0.964-13.652-12.813-23.938-26.466-22.975c-1.004,0.072-1.988,0.208-2.953,0.393
	c-4.105-10.523-14.695-17.628-26.557-16.791c-4.779,0.338-9.167,1.929-12.878,4.42c-5.294-9.961-16.097-16.408-28.073-15.562
	c-9.146,0.646-17.021,5.406-21.942,12.344c-5.202-3.266-11.446-4.973-18.041-4.508c-11.1,0.784-20.354,7.517-24.886,16.857
	c-18.275,2.336-31.76,18.566-30.445,37.175c1.239,17.553,15.218,31.159,32.26,32.434c4.217,13.494,16.785,23.055,31.301,23.123
	c7.242,7.516,17.638,11.891,28.864,11.098c9.45-0.666,17.804-4.877,23.858-11.237c4.932,3.726,11.176,5.757,17.826,5.286
	c7.824-0.552,14.611-4.449,19.07-10.194c3.103,0.958,6.429,1.377,9.863,1.134c14.875-1.05,26.081-13.96,25.031-28.834
	c-0.353-4.983-2.041-9.552-4.682-13.388C206.21,80.956,209.744,73.366,209.161,65.112z"/>
<path fill="none" stroke="#CE6363" stroke-width="7" stroke-linecap="round" stroke-linejoin="round" stroke-miterlimit="10" d="
	M50.099,106.469c3.068-5.189,4.145-12.493,12.524-15.237c6.884-2.255,12.819-0.905,18.725,2.521"/>
<path fill="none" stroke="#CE6363" stroke-width="7" stroke-linecap="round" stroke-linejoin="round" stroke-miterlimit="10" d="
	M87.339,73.547c-1.22,9.454-8.064,17.32-6.701,27.675c0.996,7.559,7.471,11.968,13.389,14.51"/>
<path fill="none" stroke="#CE6363" stroke-width="7" stroke-linecap="round" stroke-linejoin="round" stroke-miterlimit="10" d="
	M173.343,51.28c-7.595,9.557-10.46,20.165-2.275,31.615c5.383,7.526,19.248,11.765,26.961,5.295"/>
<path fill="none" stroke="#CE6363" stroke-width="7" stroke-linecap="round" stroke-linejoin="round" stroke-miterlimit="10" d="
	M157.767,111.564c-0.521-7.375-1.735-13.109,2.652-19.234c3.141-4.386,7.01-5.542,11.523-7.163"/>
<path fill="none" stroke="#CE6363" stroke-width="7" stroke-linecap="round" stroke-linejoin="round" stroke-miterlimit="10" d="
	M48.279,41.418c0.053,4.362,3.342,6.008,6.125,8.577c3.444,3.179,6.477,4.795,11.145,5.296c3.803,0.408,7.465,0.293,11.238-0.543
	c4.593-1.017,6.959-3.085,10.618-5.818"/>
<path fill="none" stroke="#CE6363" stroke-width="7" stroke-linecap="round" stroke-linejoin="round" stroke-miterlimit="10" d="
	M106.839,89.914c8.224-2.797,16.113-3.581,21.604,4.238c1.614,2.301,3.027,5.006,3.307,7.788c0.375,3.756-1.266,5.446-2.661,8.457"
	/>
<path fill="none" stroke="#CE6363" stroke-width="7" stroke-linecap="round" stroke-linejoin="round" stroke-miterlimit="10" d="
	M139.519,30.965c-0.158,1.971-2.895,3.098-4.196,4.477c-1.719,1.816-2.725,3.485-4.929,4.744c-2.717,1.553-5.914,2.52-8.822,2.817
	c-4.473,0.459-13.377-0.089-15.152-5.189"/>
<path fill="none" stroke="#CE6363" stroke-width="7" stroke-linecap="round" stroke-linejoin="round" stroke-miterlimit="10" d="
	M141.665,64.899c-7.083,3.037-18.217,2.613-22.346-4.994c-2.157-3.977-4.358-10.461-0.812-14.173"/>
<g>
	<path fill="#BE8555" d="M47.67,58.329c-1.287,4.658,1.446,9.477,6.104,10.764l41.982,11.6c4.658,1.287,9.478-1.445,10.765-6.104
		l0,0c1.287-4.658-1.446-9.477-6.104-10.764l-41.982-11.6C53.777,50.938,48.958,53.671,47.67,58.329L47.67,58.329z"/>
	
		<rect x="67.533" y="57.709" transform="matrix(-0.9639 -0.2663 0.2663 -0.9639 133.7057 151.0521)" fill="#C89878" width="19.125" height="17.5"/>
	<circle fill="#7F5436" cx="84.718" cy="62.429" r="1.114"/>
	<circle fill="#7F5436" cx="79.898" cy="61.098" r="1.114"/>
	<circle fill="#7F5436" cx="75.079" cy="59.766" r="1.113"/>
	<circle fill="#7F5436" cx="80.761" cy="65.486" r="1.113"/>
	<circle fill="#7F5436" cx="75.941" cy="64.154" r="1.114"/>
	<circle fill="#7F5436" cx="71.122" cy="62.823" r="1.114"/>
	<circle fill="#7F5436" cx="82.587" cy="70.14" r="1.113"/>
	<circle fill="#7F5436" cx="77.768" cy="68.809" r="1.113"/>
	<circle fill="#7F5436" cx="72.948" cy="67.477" r="1.113"/>
	<circle fill="#7F5436" cx="78.63" cy="73.197" r="1.113"/>
	<circle fill="#7F5436" cx="73.811" cy="71.865" r="1.113"/>
	<circle fill="#7F5436" cx="68.991" cy="70.533" r="1.113"/>
</g>
<g>
	<path fill="#BE8555" d="M85.225,37.034c-4.658-1.287-9.477,1.446-10.764,6.104l-11.6,41.982c-1.287,4.658,1.445,9.478,6.104,10.765
		l0,0c4.658,1.287,9.477-1.446,10.764-6.104l11.6-41.982C92.616,43.14,89.883,38.321,85.225,37.034L85.225,37.034z"/>
	
		<rect x="67.532" y="57.709" transform="matrix(0.2663 -0.9639 0.9639 0.2663 -7.4972 123.0682)" fill="#C89878" width="19.125" height="17.5"/>
	<circle fill="#7F5436" cx="81.125" cy="74.081" r="1.114"/>
	<circle fill="#7F5436" cx="82.457" cy="69.261" r="1.114"/>
	<circle fill="#7F5436" cx="83.788" cy="64.442" r="1.113"/>
	<circle fill="#7F5436" cx="78.068" cy="70.124" r="1.113"/>
	<circle fill="#7F5436" cx="79.4" cy="65.304" r="1.114"/>
	<circle fill="#7F5436" cx="80.732" cy="60.485" r="1.114"/>
	<circle fill="#7F5436" cx="73.414" cy="71.95" r="1.113"/>
	<circle fill="#7F5436" cx="74.745" cy="67.131" r="1.113"/>
	<circle fill="#7F5436" cx="76.077" cy="62.312" r="1.113"/>
	<circle fill="#7F5436" cx="70.357" cy="67.993" r="1.113"/>
	<circle fill="#7F5436" cx="71.689" cy="63.174" r="1.113"/>
	<circle fill="#7F5436" cx="73.021" cy="58.354" r="1.113"/>
</g>
</svg>
