<?xml version="1.0" encoding="utf-8"?>
<!-- Generator: Adobe Illustrator 16.0.0, SVG Export Plug-In . SVG Version: 6.00 Build 0)  -->
<!DOCTYPE svg PUBLIC "-//W3C//DTD SVG 1.1//EN" "http://www.w3.org/Graphics/SVG/1.1/DTD/svg11.dtd">
<svg version="1.1" id="Layer_1" xmlns="http://www.w3.org/2000/svg" xmlns:xlink="http://www.w3.org/1999/xlink" x="0px" y="0px"
	 width="279px" height="205px" viewBox="0 0 279 205" enable-background="new 0 0 279 205" xml:space="preserve">
<path fill="none" stroke="#7B3B1B" stroke-width="8" stroke-linecap="round" stroke-linejoin="round" stroke-miterlimit="10" d="
	M168.288,149.33c29.521,10.607,58.189,24.906,86.147,38.6c5.159,2.528,5.854,5.132,10.001,1.719
	c2.011-1.657,4.775-9.037,3.34-11.573c-5.273-9.315-11.48,4.545-12.255,8.765"/>
<path fill="none" stroke="#7B3B1B" stroke-width="8" stroke-linecap="round" stroke-linejoin="round" stroke-miterlimit="10" d="
	M128.174,149.33c-29.522,10.607-58.19,24.906-86.148,38.6c-5.16,2.528-5.854,5.132-10,1.719c-2.011-1.657-4.776-9.037-3.341-11.573
	c5.274-9.315,11.48,4.545,12.255,8.765"/>
<path fill="#F2C7C7" d="M162.864,157.411c3.329,6.117,7.51,11.499,9.013,18.507c1.249,5.82,1.468,11.576,1.774,17.454
	c2.606-0.472,5.497-0.556,8.212-0.962c2.103-0.314,4.924-1.699,6.964-1.038c0.291-5.13,1.108-10.72-0.275-15.656
	c-2.084-7.441-5.379-15.333-9.876-21.562c-1.273-1.765-2.494-4.418-4-5.993c-1.784-1.866-3.302-0.431-5.755,0.312
	c-1.865,0.565-3.848,1.372-4.869,3.119c-0.941,1.613-0.332,3.421-0.938,5.068"/>
<path fill="#CE6363" d="M232.51,150.756c0,16.845-15.67,30.5-35,30.5s-28-13.655-28-30.5s8.67-30.5,28-30.5
	S232.51,133.911,232.51,150.756z"/>
<path fill="#F3B8B8" d="M252.96,92.208c-0.964-13.653-12.813-23.938-26.466-22.975c-1.004,0.071-1.988,0.208-2.953,0.393
	c-4.105-10.524-14.695-17.628-26.557-16.791c-4.779,0.337-9.167,1.928-12.878,4.419c-5.294-9.96-16.097-16.408-28.073-15.562
	c-9.147,0.646-17.021,5.407-21.943,12.344c-5.202-3.266-11.446-4.974-18.041-4.508c-11.1,0.784-20.354,7.516-24.886,16.856
	c-18.274,2.336-31.759,18.567-30.445,37.175c1.24,17.553,15.218,31.159,32.261,32.434c4.217,13.494,16.784,23.055,31.3,23.123
	c7.243,7.516,17.638,11.891,28.864,11.098c9.45-0.666,17.804-4.877,23.858-11.237c4.932,3.726,11.176,5.757,17.826,5.286
	c7.824-0.552,14.611-4.449,19.07-10.194c3.103,0.958,6.429,1.377,9.863,1.134c14.875-1.05,26.081-13.96,25.031-28.834
	c-0.353-4.983-2.041-9.551-4.682-13.388C250.01,108.052,253.543,100.462,252.96,92.208z"/>
<path fill="none" stroke="#CE6363" stroke-width="7" stroke-linecap="round" stroke-linejoin="round" stroke-miterlimit="10" d="
	M93.899,133.565c3.069-5.189,4.144-12.493,12.524-15.237c6.884-2.255,12.819-0.905,18.725,2.521"/>
<path fill="none" stroke="#CE6363" stroke-width="7" stroke-linecap="round" stroke-linejoin="round" stroke-miterlimit="10" d="
	M131.139,100.644c-1.22,9.454-8.064,17.319-6.701,27.674c0.996,7.559,7.47,11.968,13.389,14.51"/>
<path fill="none" stroke="#CE6363" stroke-width="7" stroke-linecap="round" stroke-linejoin="round" stroke-miterlimit="10" d="
	M217.143,78.375c-7.595,9.557-10.46,20.166-2.275,31.615c5.383,7.527,19.248,11.765,26.961,5.296"/>
<path fill="none" stroke="#CE6363" stroke-width="7" stroke-linecap="round" stroke-linejoin="round" stroke-miterlimit="10" d="
	M201.567,138.66c-0.521-7.375-1.735-13.109,2.652-19.234c3.141-4.385,7.01-5.542,11.523-7.164"/>
<path fill="none" stroke="#CE6363" stroke-width="7" stroke-linecap="round" stroke-linejoin="round" stroke-miterlimit="10" d="
	M92.078,68.515c0.053,4.362,3.342,6.007,6.125,8.577c3.444,3.179,6.477,4.795,11.145,5.296c3.803,0.408,7.465,0.292,11.238-0.543
	c4.593-1.017,6.959-3.085,10.618-5.818"/>
<path fill="none" stroke="#CE6363" stroke-width="7" stroke-linecap="round" stroke-linejoin="round" stroke-miterlimit="10" d="
	M150.64,117.01c8.223-2.797,16.113-3.582,21.603,4.238c1.614,2.301,3.027,5.006,3.307,7.788c0.375,3.756-1.266,5.446-2.661,8.457"/>
<path fill="none" stroke="#CE6363" stroke-width="7" stroke-linecap="round" stroke-linejoin="round" stroke-miterlimit="10" d="
	M183.319,58.062c-0.158,1.971-2.895,3.098-4.196,4.476c-1.719,1.817-2.725,3.486-4.929,4.745c-2.717,1.553-5.914,2.519-8.822,2.817
	c-4.473,0.459-13.376-0.089-15.153-5.189"/>
<path fill="none" stroke="#CE6363" stroke-width="7" stroke-linecap="round" stroke-linejoin="round" stroke-miterlimit="10" d="
	M185.464,91.995c-7.083,3.038-18.217,2.613-22.346-4.994c-2.157-3.976-4.358-10.461-0.812-14.172"/>
<path fill="none" stroke="#7B3B1B" stroke-width="8" stroke-linecap="round" stroke-linejoin="round" stroke-miterlimit="10" d="
	M88.074,118.464c-0.534,16.634,2.518,32.772,3.865,48.954c0.581,6.983,0.81,10.302-0.868,16.91
	c-1.621,6.382-0.193,9.535,6.86,11.269c3.062-6.746,2.543-11.911-3.138-16.958"/>
<path fill="none" stroke="#7B3B1B" stroke-width="8" stroke-linecap="round" stroke-linejoin="round" stroke-miterlimit="10" d="
	M215.805,118.464c-0.533,16.634,2.519,32.772,3.865,48.954c0.582,6.983,0.811,10.302-0.867,16.91
	c-1.621,6.382-0.193,9.535,6.859,11.269c3.062-6.746,2.543-11.911-3.138-16.958"/>
<path fill="none" stroke="#36180E" stroke-width="8" stroke-linecap="round" stroke-linejoin="round" stroke-miterlimit="10" d="
	M104.864,88.566c5.47,1.8,10.511,6.558,15.563,9.5c3.426,1.996,6.926,3.94,9.937,6.5"/>
<path fill="none" stroke="#36180E" stroke-width="8" stroke-linecap="round" stroke-linejoin="round" stroke-miterlimit="10" d="
	M105.614,108.316c2.638-1.492,5.13-4.637,7.737-6.486c1.479-1.049,3.25-3.32,4.962-3.726c0.09,0.537,0.003-0.622,0,0
	c2.826-1.244,6.273-2.854,7.994-5.288c1.761-2.489,4.266-5.958,5.057-8.75"/>
<path fill="none" stroke="#36180E" stroke-width="8" stroke-linecap="round" stroke-linejoin="round" stroke-miterlimit="10" d="
	M190.609,105c-5.282-2.294-9.866-7.494-14.626-10.886c-3.229-2.302-6.537-4.56-9.3-7.384"/>
<path fill="none" stroke="#36180E" stroke-width="8" stroke-linecap="round" stroke-linejoin="round" stroke-miterlimit="10" d="
	M191.672,85.265c-2.764,1.243-5.533,4.146-8.3,5.75c-1.569,0.909-3.541,3.008-5.281,3.255c-0.041-0.542,0.437,1.672,0,0
	c-2.93,0.98-6.51,2.268-8.445,4.532c-1.982,2.318-4.795,5.542-5.838,8.25"/>
<path fill="none" stroke="#36180E" stroke-width="8" stroke-linecap="round" stroke-linejoin="round" stroke-miterlimit="10" d="
	M125.864,142.566c4.936-4.928,10.672-10.119,17.952-12.75c6.5-2.35,12.447-3.564,19.366-3.5c10.313,0.096,18.055,5.633,25.438,12.05
	c0.238-0.087,0.319-0.271,0.243-0.55"/>
<path fill="#CE2D45" stroke="#36180E" stroke-width="8" stroke-linecap="round" stroke-linejoin="round" stroke-miterlimit="10" d="
	M157.781,128.066c0,4.898,0.844,9.971,2.037,14.662c0.508,1.997,2.121,5.974,4.287,6.681c2.839,0.926,7.567,0.148,9.338-2.176
	c2.407-3.161,2.354-8.325,1.843-12.126c-0.215-1.595-0.416-3.747-1-5.207c-0.894-2.234-3.703-1.949-6-2.176
	c-1.491-0.148-10.473-2.354-11.005-0.491"/>
<polygon fill="none" stroke="#36180E" stroke-width="8" stroke-linecap="round" stroke-linejoin="round" stroke-miterlimit="10" points="
	72.213,37.848 74.935,43.363 81.021,44.248 76.617,48.541 77.657,54.603 72.213,51.741 66.769,54.603 67.809,48.541 63.405,44.248 
	69.491,43.363 "/>
<polygon fill="none" stroke="#36180E" stroke-width="8" stroke-linecap="round" stroke-linejoin="round" stroke-miterlimit="10" points="
	241.828,74.915 244.549,80.43 250.635,81.315 246.232,85.608 247.272,91.669 241.828,88.808 236.383,91.669 237.423,85.608 
	233.02,81.315 239.106,80.43 "/>
<polygon fill="none" stroke="#36180E" stroke-width="8" stroke-linecap="round" stroke-linejoin="round" stroke-miterlimit="10" points="
	201.01,24.864 203.732,30.379 209.819,31.264 205.415,35.557 206.454,41.618 201.01,38.756 195.567,41.618 196.606,35.557 
	192.202,31.264 198.289,30.379 "/>
<polygon fill="none" stroke="#36180E" stroke-width="8" stroke-linecap="round" stroke-linejoin="round" stroke-miterlimit="10" points="
	129.213,46.848 131.935,52.363 138.021,53.248 133.617,57.541 134.657,63.603 129.213,60.741 123.769,63.603 124.809,57.541 
	120.405,53.248 126.491,52.363 "/>
</svg>
