<?xml version="1.0" encoding="utf-8"?>
<!-- Generator: Adobe Illustrator 16.0.0, SVG Export Plug-In . SVG Version: 6.00 Build 0)  -->
<!DOCTYPE svg PUBLIC "-//W3C//DTD SVG 1.1//EN" "http://www.w3.org/Graphics/SVG/1.1/DTD/svg11.dtd">
<svg version="1.1" id="Layer_1" xmlns="http://www.w3.org/2000/svg" xmlns:xlink="http://www.w3.org/1999/xlink" x="0px" y="0px"
	 width="348.093px" height="246.093px" viewBox="0 0 348.093 246.093" enable-background="new 0 0 348.093 246.093"
	 xml:space="preserve">
<path fill="none" stroke="#7B3B1B" stroke-width="8" stroke-linecap="round" stroke-linejoin="round" stroke-miterlimit="10" d="
	M183.929,75.977c-1.825,5.612-6.549,10.548-9.481,15.666c-5.06,8.832-10.713,17.229-15.643,26.141
	c-6.266,11.326-10.212,23.591-15.434,35.4c-7.912,17.896-18.662,38.473-21.222,58.039c-1.641,12.541,7.874,16.273,18.066,18.783
	c13.786,3.395,0.042-10.049-5.142-12.688c-2.815-1.434-10.594-3.275-10.856-6.137"/>
<path fill="none" stroke="#7B3B1B" stroke-width="8" stroke-linecap="round" stroke-linejoin="round" stroke-miterlimit="10" d="
	M194.944,70.331c-0.444,5.885-3.864,11.799-5.502,17.466c-2.823,9.777-6.33,19.276-9.008,29.1
	c-3.406,12.488-4.338,25.338-6.613,38.051c-3.449,19.261-9.022,41.796-6.877,61.412c1.375,12.574,11.504,13.947,22,13.973
	c14.197,0.034-2.338-9.773-8-11.109c-3.073-0.726-11.067-0.674-12-3.391"/>
<path fill="none" stroke="#7B3B1B" stroke-width="8" stroke-linecap="round" stroke-linejoin="round" stroke-miterlimit="10" d="
	M257.211,70.966c3.393,1.455,10.075,1.502,14.114,2.519c6.704,1.687,10.923,3.947,16.057-0.491
	c7.604-6.573,13.136-16.761,20.347-24.078c3.469-3.519,8.887-7.417,10.135-12.201c1.229-4.71-1.711-9.812,1.349-14.415
	c2.558-3.848,7.749-5.386,10.683-2.016c7.185,8.255-6.299,13.069-10.683,16.682"/>
<path fill="none" stroke="#7B3B1B" stroke-width="8" stroke-linecap="round" stroke-linejoin="round" stroke-miterlimit="10" d="
	M91.963,70.966c-3.393,1.455-10.074,1.502-14.113,2.519c-6.704,1.687-10.924,3.947-16.058-0.491
	c-7.604-6.573-13.135-16.761-20.347-24.078c-3.468-3.519-8.886-7.417-10.134-12.201c-1.229-4.71,1.711-9.812-1.349-14.415
	c-2.558-3.848-7.749-5.386-10.683-2.016c-7.184,8.255,6.299,13.069,10.683,16.682"/>
<path fill="#F2C7C7" d="M175.961,126.218c3.329,6.117,7.51,11.499,9.013,18.507c1.249,5.82,1.468,11.576,1.774,17.454
	c2.606-0.472,5.497-0.556,8.212-0.962c2.103-0.314,4.924-1.699,6.964-1.038c0.291-5.13,1.108-10.72-0.275-15.656
	c-2.084-7.441-5.379-15.333-9.876-21.562c-1.273-1.765-2.494-4.418-4-5.993c-1.784-1.866-3.302-0.431-5.755,0.312
	c-1.865,0.565-3.848,1.372-4.869,3.119c-0.941,1.613-0.332,3.421-0.938,5.068"/>
<path fill="#CE6363" d="M245.608,119.562c0,16.845-15.67,30.5-35,30.5s-28-13.655-28-30.5s8.67-30.5,28-30.5
	S245.608,102.718,245.608,119.562z"/>
<path fill="#F3B8B8" d="M266.058,61.015c-0.964-13.653-12.813-23.938-26.466-22.975c-1.004,0.071-1.988,0.208-2.953,0.393
	c-4.105-10.524-14.695-17.628-26.557-16.791c-4.779,0.337-9.167,1.928-12.878,4.419c-5.294-9.96-16.097-16.408-28.073-15.562
	c-9.147,0.646-17.021,5.407-21.943,12.344c-5.202-3.266-11.446-4.974-18.041-4.508c-11.1,0.784-20.354,7.516-24.886,16.856
	c-18.274,2.336-31.759,18.567-30.445,37.175c1.24,17.553,15.218,31.159,32.261,32.434c4.217,13.494,16.784,23.055,31.3,23.123
	c7.243,7.516,17.638,11.891,28.864,11.098c9.45-0.666,17.804-4.877,23.858-11.237c4.932,3.726,11.176,5.757,17.826,5.286
	c7.824-0.552,14.611-4.449,19.07-10.194c3.103,0.958,6.429,1.377,9.863,1.134c14.875-1.05,26.081-13.96,25.031-28.834
	c-0.353-4.983-2.041-9.551-4.682-13.388C263.108,76.859,266.641,69.269,266.058,61.015z"/>
<path fill="none" stroke="#CE6363" stroke-width="7" stroke-linecap="round" stroke-linejoin="round" stroke-miterlimit="10" d="
	M106.997,102.372c3.069-5.189,4.144-12.493,12.524-15.237c6.884-2.255,12.819-0.905,18.725,2.521"/>
<path fill="none" stroke="#CE6363" stroke-width="7" stroke-linecap="round" stroke-linejoin="round" stroke-miterlimit="10" d="
	M144.237,69.451c-1.22,9.454-8.064,17.319-6.701,27.674c0.996,7.559,7.47,11.968,13.389,14.51"/>
<path fill="none" stroke="#CE6363" stroke-width="7" stroke-linecap="round" stroke-linejoin="round" stroke-miterlimit="10" d="
	M230.241,47.182c-7.595,9.557-10.46,20.166-2.275,31.615c5.383,7.527,19.248,11.765,26.961,5.296"/>
<path fill="none" stroke="#CE6363" stroke-width="7" stroke-linecap="round" stroke-linejoin="round" stroke-miterlimit="10" d="
	M214.665,107.467c-0.521-7.375-1.735-13.109,2.652-19.234c3.141-4.385,7.01-5.542,11.523-7.164"/>
<path fill="none" stroke="#CE6363" stroke-width="7" stroke-linecap="round" stroke-linejoin="round" stroke-miterlimit="10" d="
	M105.176,37.321c0.053,4.362,3.342,6.007,6.125,8.577c3.444,3.179,6.477,4.795,11.145,5.296c3.803,0.408,7.465,0.292,11.238-0.543
	c4.593-1.017,6.959-3.085,10.618-5.818"/>
<path fill="none" stroke="#CE6363" stroke-width="7" stroke-linecap="round" stroke-linejoin="round" stroke-miterlimit="10" d="
	M163.737,85.816c8.223-2.797,16.113-3.582,21.603,4.238c1.614,2.301,3.027,5.006,3.307,7.788c0.375,3.756-1.266,5.446-2.661,8.457"
	/>
<path fill="none" stroke="#CE6363" stroke-width="7" stroke-linecap="round" stroke-linejoin="round" stroke-miterlimit="10" d="
	M198.562,60.801c-7.083,3.038-18.217,2.613-22.346-4.994c-2.157-3.976-4.358-10.461-0.812-14.172"/>
<path fill="none" stroke="#CE6363" stroke-width="7" stroke-linecap="round" stroke-linejoin="round" stroke-miterlimit="10" d="
	M196.417,26.868c-0.158,1.971-2.895,3.098-4.196,4.476c-1.719,1.817-2.725,3.486-4.929,4.745c-2.717,1.553-5.914,2.519-8.822,2.817
	c-4.473,0.459-13.376-0.089-15.153-5.189"/>
<defs>
	<filter id="Adobe_OpacityMaskFilter" filterUnits="userSpaceOnUse" x="72.544" y="32.952" width="198" height="27.587">
		<feColorMatrix  type="matrix" values="1 0 0 0 0  0 1 0 0 0  0 0 1 0 0  0 0 0 1 0"/>
	</filter>
</defs>
<mask maskUnits="userSpaceOnUse" x="72.544" y="32.952" width="198" height="27.587" id="SVGID_1_">
	<g filter="url(#Adobe_OpacityMaskFilter)">
		<path fill="#FFFFFF" d="M266.058,61.015c-0.964-13.653-12.813-23.938-26.466-22.975c-1.004,0.071-1.988,0.208-2.953,0.393
			c-4.105-10.524-14.695-17.628-26.557-16.791c-4.779,0.337-9.167,1.928-12.878,4.419c-5.294-9.96-16.097-16.408-28.073-15.562
			c-9.147,0.646-17.021,5.407-21.943,12.344c-5.202-3.266-11.446-4.974-18.041-4.508c-11.1,0.784-20.354,7.516-24.886,16.856
			c-18.274,2.336-31.759,18.567-30.445,37.175c1.24,17.553,15.218,31.159,32.261,32.434c4.217,13.494,16.784,23.055,31.3,23.123
			c7.243,7.516,17.638,11.891,28.864,11.098c9.45-0.666,17.804-4.877,23.858-11.237c4.932,3.726,11.176,5.757,17.826,5.286
			c7.824-0.552,14.611-4.449,19.07-10.194c3.103,0.958,6.429,1.377,9.863,1.134c14.875-1.05,26.081-13.96,25.031-28.834
			c-0.353-4.983-2.041-9.551-4.682-13.388C263.108,76.859,266.641,69.269,266.058,61.015z"/>
	</g>
</mask>
<rect x="72.544" y="32.952" mask="url(#SVGID_1_)" fill="#FFFFFF" width="198" height="27.587"/>
<circle fill="#BC2026" cx="169.924" cy="46.746" r="12.613"/>
<path fill="none" stroke="#F3B8B8" stroke-miterlimit="10" d="M104.936,33.885c-0.235,0.43-0.46,0.865-0.674,1.307
	c-18.274,2.336-31.759,18.567-30.445,37.175c1.24,17.553,15.218,31.159,32.261,32.434c4.217,13.494,16.784,23.055,31.3,23.123
	c7.243,7.516,17.638,11.891,28.864,11.098c9.45-0.666,17.804-4.877,23.858-11.237c4.932,3.726,11.176,5.757,17.826,5.286
	c7.824-0.552,14.611-4.449,19.07-10.194c3.103,0.958,6.429,1.377,9.863,1.134c14.875-1.05,26.081-13.96,25.031-28.834
	c-0.353-4.983-2.041-9.551-4.682-13.388c5.898-4.929,9.432-12.519,8.849-20.772c-0.964-13.653-12.813-23.938-26.466-22.975
	c-1.004,0.071-1.988,0.208-2.953,0.393c-0.834-2.139-1.937-4.136-3.263-5.955"/>
<circle cx="144.711" cy="80.623" r="10"/>
<path fill="none" stroke="#000000" stroke-width="7" stroke-linecap="round" stroke-linejoin="round" stroke-miterlimit="10" d="
	M136.461,66.123c4.963,2.404,9.142,5.921,13.556,9.25c2.461,1.857,5.558,3.665,7.694,5.75"/>
<circle cx="199.711" cy="80.623" r="10"/>
<path fill="none" stroke="#000000" stroke-width="7" stroke-linecap="round" stroke-linejoin="round" stroke-miterlimit="10" d="
	M207.961,66.123c-4.963,2.404-9.143,5.921-13.556,9.25c-2.462,1.857-5.558,3.665-7.694,5.75"/>
<path d="M158.64,113.246c0-7.673,6.22-13.893,13.893-13.893c7.672,0,13.893,6.22,13.893,13.893"/>
</svg>
