<?xml version="1.0" encoding="utf-8"?>
<!-- Generator: Adobe Illustrator 16.0.0, SVG Export Plug-In . SVG Version: 6.00 Build 0)  -->
<!DOCTYPE svg PUBLIC "-//W3C//DTD SVG 1.1//EN" "http://www.w3.org/Graphics/SVG/1.1/DTD/svg11.dtd">
<svg version="1.1" id="Layer_1" xmlns="http://www.w3.org/2000/svg" xmlns:xlink="http://www.w3.org/1999/xlink" x="0px" y="0px"
	 width="715px" height="216.465px" viewBox="0 0 715 216.465" enable-background="new 0 0 715 216.465" xml:space="preserve">
<g>
	<polygon fill="#0D7AA0" points="91.848,97.27 3.848,97.27 30.848,62.27 3.848,27.27 91.848,27.27 	"/>
</g>
<g>
	<polygon fill="#0D7AA0" points="619.848,97.27 707.848,97.27 680.848,62.27 707.848,27.27 619.848,27.27 	"/>
</g>
<g>
	<polygon fill="#1D98CE" points="91.848,93.27 3.848,93.27 30.848,58.27 3.848,23.27 91.848,23.27 	"/>
</g>
<g>
	<polygon fill="#1D98CE" points="619.848,93.27 707.848,93.27 680.848,58.27 707.848,23.27 619.848,23.27 	"/>
</g>
<g>
	<rect x="56.848" y="8.27" fill="#0D7AA0" width="594" height="70"/>
</g>
<g>
	<rect x="61.848" y="3.27" fill="#1D98CE" width="589" height="70"/>
</g>
<g>
	<g>
		<rect x="61.848" y="17.77" fill="#FFFFFF" width="6" height="1"/>
	</g>
	<g>
		<path fill="#FFFFFF" d="M633.071,18.77h-11.775v-1h11.775V18.77z M609.521,18.77h-11.775v-1h11.775V18.77z M585.97,18.77h-11.775
			v-1h11.775V18.77z M562.419,18.77h-11.775v-1h11.775V18.77z M538.868,18.77h-11.776v-1h11.776V18.77z M515.316,18.77h-11.775v-1
			h11.775V18.77z M491.766,18.77H479.99v-1h11.775V18.77z M468.215,18.77h-11.775v-1h11.775V18.77z M444.664,18.77h-11.775v-1
			h11.775V18.77z M421.113,18.77h-11.776v-1h11.776V18.77z M397.562,18.77h-11.775v-1h11.775V18.77z M374.011,18.77h-11.775v-1
			h11.775V18.77z M350.46,18.77h-11.776v-1h11.776V18.77z M326.909,18.77h-11.775v-1h11.775V18.77z M303.358,18.77h-11.776v-1
			h11.776V18.77z M279.807,18.77h-11.775v-1h11.775V18.77z M256.256,18.77H244.48v-1h11.776V18.77z M232.705,18.77h-11.775v-1
			h11.775V18.77z M209.154,18.77h-11.776v-1h11.776V18.77z M185.603,18.77h-11.775v-1h11.775V18.77z M162.052,18.77h-11.776v-1
			h11.776V18.77z M138.5,18.77h-11.775v-1H138.5V18.77z M114.95,18.77h-11.776v-1h11.776V18.77z M91.398,18.77H79.623v-1h11.775
			V18.77z"/>
	</g>
	<g>
		<rect x="644.848" y="17.77" fill="#FFFFFF" width="6" height="1"/>
	</g>
</g>
<g>
	<g>
		<rect x="61.848" y="57.77" fill="#FFFFFF" width="6" height="1"/>
	</g>
	<g>
		<path fill="#FFFFFF" d="M633.071,58.77h-11.775v-1h11.775V58.77z M609.521,58.77h-11.775v-1h11.775V58.77z M585.97,58.77h-11.775
			v-1h11.775V58.77z M562.419,58.77h-11.775v-1h11.775V58.77z M538.868,58.77h-11.776v-1h11.776V58.77z M515.316,58.77h-11.775v-1
			h11.775V58.77z M491.766,58.77H479.99v-1h11.775V58.77z M468.215,58.77h-11.775v-1h11.775V58.77z M444.664,58.77h-11.775v-1
			h11.775V58.77z M421.113,58.77h-11.776v-1h11.776V58.77z M397.562,58.77h-11.775v-1h11.775V58.77z M374.011,58.77h-11.775v-1
			h11.775V58.77z M350.46,58.77h-11.776v-1h11.776V58.77z M326.909,58.77h-11.775v-1h11.775V58.77z M303.358,58.77h-11.776v-1
			h11.776V58.77z M279.807,58.77h-11.775v-1h11.775V58.77z M256.256,58.77H244.48v-1h11.776V58.77z M232.705,58.77h-11.775v-1
			h11.775V58.77z M209.154,58.77h-11.776v-1h11.776V58.77z M185.603,58.77h-11.775v-1h11.775V58.77z M162.052,58.77h-11.776v-1
			h11.776V58.77z M138.5,58.77h-11.775v-1H138.5V58.77z M114.95,58.77h-11.776v-1h11.776V58.77z M91.398,58.77H79.623v-1h11.775
			V58.77z"/>
	</g>
	<g>
		<rect x="644.848" y="57.77" fill="#FFFFFF" width="6" height="1"/>
	</g>
</g>
<g>
	<path fill="#FFFFFF" d="M106.571,46.045l-1.275,3.224h-4.574l7.548-17.496h4.574l7.373,17.496h-4.749l-1.25-3.224H106.571z
		 M110.42,36.198l-2.549,6.473h5.049L110.42,36.198z"/>
	<path fill="#FFFFFF" d="M134.12,31.774c5.499,0,9.297,3.549,9.297,8.748c0,5.174-3.849,8.748-9.473,8.748h-7.348V31.774H134.12z
		 M131.046,45.72h3.174c2.725,0,4.674-2.099,4.674-5.173c0-3.1-2.049-5.224-4.874-5.224h-2.974V45.72z"/>
	<path fill="#FFFFFF" d="M167.968,40.497c0,5.099-4.049,8.973-9.473,8.973c-5.398,0-9.447-3.849-9.447-8.973
		c0-5.099,4.049-8.873,9.447-8.873C163.919,31.624,167.968,35.423,167.968,40.497z M153.597,40.521c0,2.949,2.274,5.224,4.949,5.224
		c2.699,0,4.849-2.275,4.849-5.224s-2.149-5.173-4.849-5.173C155.846,35.348,153.597,37.572,153.597,40.521z"/>
	<path fill="#FFFFFF" d="M186.944,45.545v3.724h-11.872V31.774h4.449v13.771H186.944z"/>
	<path fill="#FFFFFF" d="M198.271,35.273v3.474h8.348v3.499h-8.348v3.524h9.523v3.499h-13.972V31.774h13.697v3.499H198.271z"/>
	<path fill="#FFFFFF" d="M229.043,33.523l-1.674,3.474c-1.85-1.075-4.174-1.825-5.599-1.825c-1.15,0-1.925,0.425-1.925,1.275
		c0,3.024,9.248,1.3,9.248,7.623c0,3.499-3.1,5.349-6.999,5.349c-2.924,0-5.923-1.1-7.998-2.799l1.725-3.424
		c1.8,1.575,4.499,2.625,6.324,2.625c1.399,0,2.274-0.525,2.274-1.524c0-3.1-9.248-1.25-9.248-7.448
		c0-3.224,2.774-5.274,6.974-5.274C224.67,31.574,227.244,32.349,229.043,33.523z"/>
	<path fill="#FFFFFF" d="M251.519,34.573l-2.575,3.049c-1.149-1.4-2.849-2.274-4.399-2.274c-2.774,0-4.874,2.199-4.874,5.074
		c0,2.924,2.099,5.148,4.874,5.148c1.475,0,3.174-0.8,4.399-2.049l2.6,2.75c-1.875,1.924-4.649,3.199-7.223,3.199
		c-5.274,0-9.198-3.875-9.198-8.998c0-5.049,4.024-8.848,9.348-8.848C247.069,31.624,249.769,32.773,251.519,34.573z"/>
	<path fill="#FFFFFF" d="M262.771,35.273v3.474h8.348v3.499h-8.348v3.524h9.522v3.499h-13.972V31.774h13.697v3.499H262.771z"/>
	<path fill="#FFFFFF" d="M292.144,49.27l-8.048-10.772V49.27h-4.174V31.774h3.924l8.073,10.797V31.774h4.149V49.27H292.144z"/>
	<path fill="#FFFFFF" d="M312.419,35.348V49.27h-4.449V35.348h-5.224v-3.599h14.946v3.599H312.419z"/>
	<path fill="#FFFFFF" d="M343.169,31.774c3.924,0,6.423,1.7,6.423,4.374c0,1.849-1.148,3.324-2.999,3.849
		c2.2,0.425,3.599,2.15,3.599,4.424c0,2.974-2.6,4.849-6.724,4.849h-8.573V31.774H343.169z M339.32,38.772h3.599
		c1.3,0,2.125-0.7,2.125-1.824c0-1.125-0.825-1.775-2.125-1.775h-3.599V38.772z M339.32,45.845h3.599
		c1.65,0,2.674-0.725,2.674-1.974c0-1.175-1.024-1.9-2.674-1.9h-3.599V45.845z"/>
	<path fill="#FFFFFF" d="M357.521,49.27V31.774h4.448V49.27H357.521z"/>
	<path fill="#FFFFFF" d="M382.442,49.27l-8.048-10.772V49.27h-4.174V31.774h3.924l8.073,10.797V31.774h4.149V49.27H382.442z"/>
	<path fill="#FFFFFF" d="M410.092,40.372v6.823c-1.874,1.325-4.824,2.275-7.273,2.275c-5.323,0-9.348-3.849-9.348-8.948
		c0-5.074,4.124-8.897,9.647-8.897c2.6,0,5.349,1,7.148,2.599l-2.499,3.024c-1.274-1.175-3.05-1.899-4.674-1.899
		c-2.874,0-5.074,2.249-5.074,5.173c0,2.975,2.225,5.224,5.124,5.224c0.899,0,2.05-0.325,3.1-0.85v-4.524H410.092z"/>
	<path fill="#FFFFFF" d="M422.395,35.273v3.474h8.349v3.499h-8.349v3.524h9.522v3.499h-13.971V31.774h13.696v3.499H422.395z"/>
	<path fill="#FFFFFF" d="M457.618,31.774c5.499,0,9.298,3.549,9.298,8.748c0,5.174-3.849,8.748-9.473,8.748h-7.348V31.774H457.618z
		 M454.544,45.72h3.175c2.724,0,4.674-2.099,4.674-5.173c0-3.1-2.05-5.224-4.874-5.224h-2.975V45.72z"/>
	<path fill="#FFFFFF" d="M481.968,44.346h-0.125h-3.374v4.924h-4.448V31.774h7.822c4.624,0,7.273,2.199,7.273,6.098
		c0,2.675-1.125,4.599-3.174,5.624l3.674,5.773h-5.049L481.968,44.346z M481.843,40.847c1.925,0,3.05-0.975,3.05-2.824
		c0-1.825-1.125-2.75-3.05-2.75h-3.374v5.574H481.843z"/>
	<path fill="#FFFFFF" d="M496.871,49.27V31.774h4.448V49.27H496.871z"/>
	<path fill="#FFFFFF" d="M521.792,49.27l-8.048-10.772V49.27h-4.174V31.774h3.924l8.073,10.797V31.774h4.148V49.27H521.792z"/>
	<path fill="#FFFFFF" d="M540.743,42.396l-2.324,2.575v4.299h-4.448V31.774h4.448v7.573l6.698-7.573h5.149l-6.499,7.248
		l6.924,10.248h-5.324L540.743,42.396z"/>
	<path fill="#FFFFFF" d="M557.396,49.27V31.774h4.448V49.27H557.396z"/>
	<path fill="#FFFFFF" d="M582.316,49.27l-8.048-10.772V49.27h-4.174V31.774h3.924l8.073,10.797V31.774h4.148V49.27H582.316z"/>
	<path fill="#FFFFFF" d="M609.966,40.372v6.823c-1.874,1.325-4.823,2.275-7.273,2.275c-5.323,0-9.348-3.849-9.348-8.948
		c0-5.074,4.124-8.897,9.647-8.897c2.6,0,5.35,1,7.148,2.599l-2.499,3.024c-1.274-1.175-3.05-1.899-4.674-1.899
		c-2.874,0-5.074,2.249-5.074,5.173c0,2.975,2.225,5.224,5.124,5.224c0.899,0,2.05-0.325,3.1-0.85v-4.524H609.966z"/>
</g>
<g>
	<path fill="#FFFFFF" d="M107.152,104.811V92.912h3.026v11.898H107.152z"/>
	<path fill="#FFFFFF" d="M115.618,97.553v-4.641h2.209v4.641H115.618z"/>
	<path fill="#FFFFFF" d="M126.684,104.811l-4.624-11.898h3.23l3.042,8.754l3.042-8.754h3.111l-4.674,11.898H126.684z"/>
	<path fill="#FFFFFF" d="M141.916,95.291v2.363h5.678v2.38h-5.678v2.396h6.477v2.38h-9.502V92.912h9.315v2.379H141.916z"/>
	<path fill="#FFFFFF" d="M171.274,98.759v4.641c-1.275,0.901-3.281,1.547-4.947,1.547c-3.621,0-6.357-2.617-6.357-6.085
		c0-3.451,2.805-6.052,6.561-6.052c1.768,0,3.638,0.68,4.862,1.768l-1.7,2.058c-0.867-0.799-2.074-1.292-3.179-1.292
		c-1.955,0-3.451,1.529-3.451,3.519c0,2.022,1.513,3.553,3.485,3.553c0.612,0,1.394-0.222,2.108-0.578v-3.077H171.274z"/>
	<path fill="#FFFFFF" d="M188.699,98.844c0,3.468-2.754,6.103-6.442,6.103c-3.672,0-6.426-2.617-6.426-6.103
		c0-3.467,2.754-6.034,6.426-6.034C185.945,92.81,188.699,95.394,188.699,98.844z M178.925,98.861c0,2.006,1.547,3.553,3.366,3.553
		c1.836,0,3.298-1.547,3.298-3.553s-1.462-3.519-3.298-3.519C180.455,95.343,178.925,96.855,178.925,98.861z"/>
	<path fill="#FFFFFF" d="M198.645,95.343v9.468h-3.025v-9.468h-3.553v-2.448h10.165v2.448H198.645z"/>
	<path fill="#FFFFFF" d="M213.486,103.943l1.156-2.107c0.68,0.493,1.581,0.765,2.499,0.765c1.904,0,2.822-1.207,2.788-3.161
		c-0.561,0.799-1.513,1.274-2.839,1.274c-2.346,0-3.842-1.529-3.842-3.842c0-2.516,1.768-4.113,4.454-4.113
		c3.196,0,5.134,2.261,5.134,5.915c0,3.791-2.159,6.256-5.508,6.256C216.002,104.93,214.489,104.556,213.486,103.943z
		 M219.605,96.838c0-0.884-0.561-1.665-1.785-1.665c-1.088,0-1.768,0.611-1.768,1.717c0,1.02,0.629,1.614,1.717,1.614
		C218.943,98.504,219.605,97.808,219.605,96.838z"/>
	<path fill="#FFFFFF" d="M227.46,103.943l1.156-2.107c0.68,0.493,1.581,0.765,2.499,0.765c1.904,0,2.822-1.207,2.788-3.161
		c-0.561,0.799-1.513,1.274-2.839,1.274c-2.346,0-3.842-1.529-3.842-3.842c0-2.516,1.768-4.113,4.454-4.113
		c3.196,0,5.134,2.261,5.134,5.915c0,3.791-2.159,6.256-5.508,6.256C229.976,104.93,228.463,104.556,227.46,103.943z
		 M233.579,96.838c0-0.884-0.561-1.665-1.785-1.665c-1.088,0-1.768,0.611-1.768,1.717c0,1.02,0.629,1.614,1.717,1.614
		C232.917,98.504,233.579,97.808,233.579,96.838z"/>
	<path fill="#FFFFFF" d="M254.234,92.912c3.042,0,4.793,1.495,4.793,4.147c0,2.787-1.751,4.402-4.793,4.402h-2.159v3.349h-3.025
		V92.912H254.234z M252.075,99.082h2.006c1.326,0,2.091-0.663,2.091-1.921c0-1.24-0.765-1.87-2.091-1.87h-2.006V99.082z"/>
	<path fill="#FFFFFF" d="M269.245,101.462h-0.085h-2.294v3.349h-3.026V92.912h5.32c3.145,0,4.947,1.495,4.947,4.147
		c0,1.818-0.765,3.128-2.159,3.824l2.499,3.927h-3.434L269.245,101.462z M269.16,99.082c1.309,0,2.074-0.663,2.074-1.921
		c0-1.24-0.765-1.87-2.074-1.87h-2.294v3.791H269.16z"/>
	<path fill="#FFFFFF" d="M291.463,98.844c0,3.468-2.754,6.103-6.442,6.103c-3.672,0-6.425-2.617-6.425-6.103
		c0-3.467,2.753-6.034,6.425-6.034C288.709,92.81,291.463,95.394,291.463,98.844z M281.689,98.861c0,2.006,1.547,3.553,3.366,3.553
		c1.836,0,3.298-1.547,3.298-3.553s-1.462-3.519-3.298-3.519S281.689,96.855,281.689,98.861z"/>
	<path fill="#FFFFFF" d="M301.919,92.912c2.668,0,4.369,1.155,4.369,2.975c0,1.258-0.782,2.261-2.04,2.617
		c1.496,0.289,2.448,1.462,2.448,3.009c0,2.023-1.768,3.298-4.572,3.298h-5.831V92.912H301.919z M299.301,97.671h2.448
		c0.884,0,1.445-0.476,1.445-1.24c0-0.766-0.561-1.207-1.445-1.207h-2.448V97.671z M299.301,102.481h2.448
		c1.122,0,1.819-0.492,1.819-1.343c0-0.799-0.697-1.292-1.819-1.292h-2.448V102.481z"/>
	<path fill="#FFFFFF" d="M319.751,102.277v2.533h-8.074V92.912h3.026v9.365H319.751z"/>
	<path fill="#FFFFFF" d="M327.453,95.291v2.363h5.677v2.38h-5.677v2.396h6.476v2.38h-9.502V92.912h9.315v2.379H327.453z"/>
	<path fill="#FFFFFF" d="M349.518,104.811l-0.017-7.734l-2.855,6.545h-1.972l-2.856-6.545v7.734h-2.703V92.895h3.314l3.23,7.089
		l3.229-7.089h3.298v11.916H349.518z"/>
	<path fill="#FFFFFF" d="M367.079,94.102l-1.14,2.363c-1.258-0.731-2.838-1.241-3.808-1.241c-0.781,0-1.309,0.289-1.309,0.867
		c0,2.057,6.289,0.884,6.289,5.185c0,2.379-2.107,3.637-4.759,3.637c-1.989,0-4.029-0.747-5.439-1.903l1.173-2.329
		c1.224,1.071,3.06,1.785,4.3,1.785c0.952,0,1.547-0.357,1.547-1.037c0-2.107-6.289-0.85-6.289-5.065
		c0-2.192,1.887-3.587,4.742-3.587C364.104,92.775,365.854,93.303,367.079,94.102z"/>
	<path fill="#FFFFFF" d="M381.869,102.618l-0.866,2.192h-3.111l5.134-11.898h3.11l5.015,11.898h-3.229l-0.85-2.192H381.869z
		 M384.487,95.921l-1.734,4.402h3.434L384.487,95.921z"/>
	<path fill="#FFFFFF" d="M403.799,104.811l-5.474-7.326v7.326h-2.839V92.912h2.669l5.49,7.343v-7.343h2.822v11.898H403.799z"/>
	<path fill="#FFFFFF" d="M417.194,92.912c3.74,0,6.324,2.413,6.324,5.949c0,3.519-2.618,5.949-6.442,5.949h-4.998V92.912H417.194z
		 M415.104,102.396h2.158c1.853,0,3.179-1.428,3.179-3.519c0-2.107-1.394-3.553-3.314-3.553h-2.022V102.396z"/>
	<path fill="#FFFFFF" d="M438.224,102.618l-0.866,2.192h-3.111l5.134-11.898h3.11l5.015,11.898h-3.229l-0.85-2.192H438.224z
		 M440.842,95.921l-1.734,4.402h3.434L440.842,95.921z"/>
	<path fill="#FFFFFF" d="M459.915,102.277v2.533h-8.074V92.912h3.026v9.365H459.915z"/>
	<path fill="#FFFFFF" d="M474.96,94.815l-1.751,2.074c-0.782-0.952-1.938-1.547-2.991-1.547c-1.887,0-3.315,1.495-3.315,3.45
		c0,1.989,1.429,3.502,3.315,3.502c1.003,0,2.158-0.544,2.991-1.394l1.768,1.869c-1.274,1.31-3.161,2.176-4.912,2.176
		c-3.587,0-6.255-2.635-6.255-6.119c0-3.434,2.736-6.018,6.356-6.018C471.935,92.81,473.771,93.592,474.96,94.815z"/>
	<path fill="#FFFFFF" d="M491.467,98.844c0,3.468-2.754,6.103-6.442,6.103c-3.672,0-6.426-2.617-6.426-6.103
		c0-3.467,2.754-6.034,6.426-6.034C488.713,92.81,491.467,95.394,491.467,98.844z M481.692,98.861c0,2.006,1.547,3.553,3.365,3.553
		c1.836,0,3.298-1.547,3.298-3.553s-1.462-3.519-3.298-3.519C483.223,95.343,481.692,96.855,481.692,98.861z"/>
	<path fill="#FFFFFF" d="M504.251,104.811v-4.623h-4.93v4.623h-3.025V92.912h3.025v4.896h4.93v-4.896h3.025v11.898H504.251z"/>
	<path fill="#FFFFFF" d="M524.974,98.844c0,3.468-2.754,6.103-6.442,6.103c-3.672,0-6.426-2.617-6.426-6.103
		c0-3.467,2.754-6.034,6.426-6.034C522.22,92.81,524.974,95.394,524.974,98.844z M515.199,98.861c0,2.006,1.547,3.553,3.365,3.553
		c1.836,0,3.298-1.547,3.298-3.553s-1.462-3.519-3.298-3.519C516.729,95.343,515.199,96.855,515.199,98.861z"/>
	<path fill="#FFFFFF" d="M537.877,102.277v2.533h-8.074V92.912h3.025v9.365H537.877z"/>
	<path fill="#FFFFFF" d="M556.661,100.952c0,2.532-1.58,3.994-4.113,3.994c-1.683,0-3.043-0.696-4.097-1.903l1.395-2.023
		c0.85,0.885,1.802,1.326,2.498,1.326c0.799,0,1.275-0.493,1.275-1.462v-5.541h-4.08v-2.448h7.122V100.952z"/>
	<path fill="#FFFFFF" d="M572.777,99.813c0,3.145-2.091,5.133-5.423,5.133c-3.349,0-5.49-1.988-5.49-5.133v-6.901h3.025v6.901
		c0,1.614,1.037,2.601,2.481,2.601c1.429,0,2.397-0.986,2.397-2.601v-6.901h3.009V99.813z"/>
	<path fill="#FFFFFF" d="M587.448,94.102l-1.139,2.363c-1.258-0.731-2.839-1.241-3.808-1.241c-0.782,0-1.309,0.289-1.309,0.867
		c0,2.057,6.289,0.884,6.289,5.185c0,2.379-2.107,3.637-4.76,3.637c-1.988,0-4.028-0.747-5.439-1.903l1.173-2.329
		c1.224,1.071,3.06,1.785,4.301,1.785c0.952,0,1.547-0.357,1.547-1.037c0-2.107-6.289-0.85-6.289-5.065
		c0-2.192,1.887-3.587,4.742-3.587C584.474,92.775,586.225,93.303,587.448,94.102z"/>
	<path fill="#FFFFFF" d="M597.869,95.343v9.468h-3.025v-9.468h-3.553v-2.448h10.165v2.448H597.869z"/>
	<path fill="#FFFFFF" d="M223.618,128.618l-0.867,2.192h-3.111l5.133-11.898h3.111l5.015,11.898h-3.23l-0.85-2.192H223.618z
		 M226.235,121.921l-1.734,4.402h3.434L226.235,121.921z"/>
	<path fill="#FFFFFF" d="M242.351,118.912c3.74,0,6.324,2.413,6.324,5.949c0,3.519-2.618,5.949-6.442,5.949h-4.998v-11.898H242.351z
		 M240.261,128.396h2.159c1.853,0,3.179-1.428,3.179-3.519c0-2.107-1.394-3.553-3.315-3.553h-2.022V128.396z"/>
	<path fill="#FFFFFF" d="M258.62,118.912c3.74,0,6.324,2.413,6.324,5.949c0,3.519-2.618,5.949-6.442,5.949h-4.998v-11.898H258.62z
		 M256.529,128.396h2.159c1.853,0,3.179-1.428,3.179-3.519c0-2.107-1.394-3.553-3.315-3.553h-2.023V128.396z"/>
	<path fill="#FFFFFF" d="M272.799,121.291v2.363h5.677v2.38h-5.677v2.396h6.476v2.38h-9.502v-11.898h9.315v2.379H272.799z"/>
	<path fill="#FFFFFF" d="M289.577,118.912c3.74,0,6.324,2.413,6.324,5.949c0,3.519-2.618,5.949-6.442,5.949h-4.998v-11.898H289.577z
		 M287.486,128.396h2.159c1.853,0,3.179-1.428,3.179-3.519c0-2.107-1.394-3.553-3.315-3.553h-2.023V128.396z"/>
	<path fill="#FFFFFF" d="M310.606,128.618l-0.867,2.192h-3.111l5.133-11.898h3.111l5.015,11.898h-3.23l-0.85-2.192H310.606z
		 M313.224,121.921l-1.734,4.402h3.434L313.224,121.921z"/>
	<path fill="#FFFFFF" d="M341.8,130.811l-0.017-7.734l-2.855,6.545h-1.972l-2.856-6.545v7.734h-2.703v-11.916h3.314l3.23,7.089
		l3.229-7.089h3.298v11.916H341.8z"/>
	<path fill="#FFFFFF" d="M350.097,130.811v-11.898h3.026v11.898H350.097z"/>
	<path fill="#FFFFFF" d="M366.807,128.277v2.533h-8.074v-11.898h3.026v9.365H366.807z"/>
	<path fill="#FFFFFF" d="M379.557,128.277v2.533h-8.074v-11.898h3.026v9.365H379.557z"/>
	<path fill="#FFFFFF" d="M384.232,130.811v-11.898h3.026v11.898H384.232z"/>
	<path fill="#FFFFFF" d="M404.954,124.844c0,3.468-2.754,6.103-6.442,6.103c-3.672,0-6.425-2.617-6.425-6.103
		c0-3.467,2.753-6.034,6.425-6.034C402.2,118.81,404.954,121.394,404.954,124.844z M395.18,124.861c0,2.006,1.547,3.553,3.366,3.553
		c1.836,0,3.298-1.547,3.298-3.553s-1.462-3.519-3.298-3.519S395.18,122.855,395.18,124.861z"/>
	<path fill="#FFFFFF" d="M418.096,130.811l-5.474-7.326v7.326h-2.839v-11.898h2.669l5.49,7.343v-7.343h2.822v11.898H418.096z"/>
	<path fill="#FFFFFF" d="M443.952,130.811l-0.018-7.734l-2.855,6.545h-1.972l-2.855-6.545v7.734h-2.703v-11.916h3.314l3.23,7.089
		l3.229-7.089h3.298v11.916H443.952z"/>
	<path fill="#FFFFFF" d="M464.335,124.844c0,3.468-2.754,6.103-6.442,6.103c-3.672,0-6.425-2.617-6.425-6.103
		c0-3.467,2.753-6.034,6.425-6.034C461.581,118.81,464.335,121.394,464.335,124.844z M454.561,124.861
		c0,2.006,1.547,3.553,3.366,3.553c1.836,0,3.298-1.547,3.298-3.553s-1.462-3.519-3.298-3.519S454.561,122.855,454.561,124.861z"/>
	<path fill="#FFFFFF" d="M474.569,127.462h-0.085h-2.295v3.349h-3.025v-11.898h5.32c3.145,0,4.946,1.495,4.946,4.147
		c0,1.818-0.765,3.128-2.159,3.824l2.499,3.927h-3.434L474.569,127.462z M474.484,125.082c1.309,0,2.073-0.663,2.073-1.921
		c0-1.24-0.765-1.87-2.073-1.87h-2.295v3.791H474.484z"/>
	<path fill="#FFFFFF" d="M487.728,121.291v2.363h5.678v2.38h-5.678v2.396h6.477v2.38h-9.502v-11.898h9.314v2.379H487.728z"/>
</g>
<g>
	<g>
		<g>
			<path fill="#FFFFFF" d="M353.168,216.465c3.855,0.035,7.01-3.062,7.043-6.918c0.035-3.854-6.594-42.938-6.594-42.938
				s-7.332,38.957-7.367,42.812C346.216,213.277,349.312,216.431,353.168,216.465z"/>
		</g>
	</g>
	<g>
		<g>
			<path fill="#FFFFFF" d="M328.54,210.134c3.518,1.577,7.649,0.004,9.226-3.515c1.577-3.518,11.171-41.979,11.171-41.979
				s-22.333,32.75-23.911,36.268C323.449,204.426,325.022,208.557,328.54,210.134z"/>
		</g>
	</g>
	<g>
		<g>
			<path fill="#FFFFFF" d="M376.137,211.719c3.629-1.303,5.512-5.302,4.209-8.93c-1.305-3.628-21.072-37.989-21.072-37.989
				s6.629,39.082,7.932,42.711C368.51,211.139,372.508,213.024,376.137,211.719z"/>
		</g>
	</g>
	<g>
		<g>
			<path fill="#FFFFFF" d="M397.967,198.231c2.777-2.676,2.859-7.096,0.184-9.87c-2.676-2.776-34.781-26.029-34.781-26.029
				s22.053,32.94,24.729,35.717C390.773,200.824,395.193,200.906,397.967,198.231z"/>
		</g>
	</g>
	<g>
		<g>
			<path fill="#FFFFFF" d="M413.021,175.845c1.35-3.612-0.484-7.635-4.096-8.981c-3.612-1.349-42.612-8.457-42.612-8.457
				s34.115,20.188,37.729,21.536C407.653,181.29,411.676,179.456,413.021,175.845z"/>
		</g>
	</g>
	<g>
		<g>
			<path fill="#FFFFFF" d="M296.613,177.485c1.556,3.528,5.678,5.127,9.204,3.568c3.526-1.558,36.407-23.703,36.407-23.703
				s-38.517,9.373-42.044,10.931C296.653,169.839,295.055,173.961,296.613,177.485z"/>
		</g>
	</g>
	<g>
		<g>
			<path fill="#FFFFFF" d="M309.677,196.951c2.75,2.703,7.17,2.665,9.872-0.085c2.703-2.749,25.081-35.47,25.081-35.47
				s-32.333,22.935-35.036,25.684C306.892,189.829,306.928,194.251,309.677,196.951z"/>
		</g>
	</g>
</g>
<g>
	<rect x="244.514" y="146.103" fill="#FFFFFF" width="225.333" height="3"/>
</g>
<g>
	<circle fill="#FFFFFF" cx="354.142" cy="157.143" r="4.206"/>
</g>
</svg>
