<?xml version="1.0" encoding="utf-8"?>
<!-- Generator: Adobe Illustrator 16.0.0, SVG Export Plug-In . SVG Version: 6.00 Build 0)  -->
<!DOCTYPE svg PUBLIC "-//W3C//DTD SVG 1.1//EN" "http://www.w3.org/Graphics/SVG/1.1/DTD/svg11.dtd">
<svg version="1.1" id="Layer_1" xmlns="http://www.w3.org/2000/svg" xmlns:xlink="http://www.w3.org/1999/xlink" x="0px" y="0px"
	 width="283px" height="227px" viewBox="0 0 283 227" enable-background="new 0 0 283 227" xml:space="preserve">
<g>
	<path fill="#FFFFFF" d="M16.187,159.104c-0.872-0.642-1.375-1.194-1.184-1.5c2.489-3.963,1.615-5.881,8.922-2.474
		c2.732,1.291,27.875,13.3,25.769,16.653c-0.851,1.355-1.248,2.664-2.618,2.89c-2.762-1.167-7.869-4.091-10.774-5.632
		c-0.489,0.779-0.97,1.469-1.152,1.685c-0.715,1.062-1.591,2.308-2.441,3.663c1.417,1.504,2.458,2.629,2.881,3.084
		c2.902,3.05,5.918,6.22,6.066,6.737c0.012,0.055-1.191,3.928-2.985,2.046c-2.01-2.065-6.628-7.421-7.75-8.645
		c-0.055,0.013-0.342,1.296-1.093,1.439c-0.331,0.076-0.453-0.332-1.207-0.71c-0.305-0.191-0.398,0.033,1.184-2.185
		c-4.048-4.384-10.061-10.379-14.439-15.065C15.03,160.644,15.995,159.408,16.187,159.104z M33.401,170.952
		c0.672-0.995,1.276-2.032,1.617-2.574c-3.672-1.975-7.276-3.908-10.39-4.966c-0.606-0.239-2.538-1.074-4.507-2.074
		c3.25,3.174,8.14,8.323,11.558,11.981C32.278,172.514,32.844,171.688,33.401,170.952z"/>
	<path fill="#FFFFFF" d="M52.201,153.82c4.904,7.479,4.249,12.097-0.898,12.094c-3.636,0.039-10.586-6.885-11.033-11.161
		c-0.315-3.294,1.888-5.884,3.806-6.853c0.05-0.062,0.106-0.068,0.132-0.099c-2.125-1.826-4.876-4.211-7.286-6.32
		c-2.727-2.417-6.877-4.855-3.821-8.814c1.827-2.38,5.422-2.812,8.441-0.312c3.957,3.312,5.692,8.221,8.155,12.741
		c2.449,1.934,5.015,3.913,7.003,5.525c1.765,1.379,4.35,3.527,5.25,3.433c0.844-0.088-0.404-3.057-1.215-5.105
		c-0.498-1.228-1.009-2.312-1.169-2.75c-0.515-1.396,0.592-1.683,1.061-0.736c0.296,0.651,0.72,1.716,1.13,2.924
		c0.342,1.102,1.097,3.156,1.384,5.088c0.365,2.407-0.667,4.506-2.475,4.894c-2.666,0.62-7.023-3.532-8.373-4.472L52.201,153.82z
		 M40.009,132.913c-1.386-1.021-5.412-2.534-2.605,0.926c2.708,3.329,8.442,8.133,9.747,9.191
		C46.66,141.603,43.54,135.417,40.009,132.913z M44.132,149.8c-0.449,3.602,4.395,8.868,7.48,10.906
		c1.468,0.984,2.79,2.211,2.558,0.529c-0.266-2.276-2.522-5.908-4.076-7.992C49.524,152.422,44.515,146.661,44.132,149.8z"/>
	<path fill="#FFFFFF" d="M69.394,129.372c-0.733,1.658-1.969,2.912-2.54,3.299c4.296,3.913,7.64,10.924,3.169,14.646
		c-4.932,4.281-10.502,0.433-13.765-4.483c-1.603-2.458-3.529-5.938-2.808-8.7c0.152-0.705,5.14-3.146,5.311,0.478
		c0.137,2.096,1.438,3.954,2.626,5.812c7.984,12.428,14.641,2.629,4.544-6.691c-6.227,3.921-10.039-3.917-4.636-3.918
		c1.386-0.007,3.043,0.782,4.637,2.023c1.341-0.743,2.125-2.061,2.4-3.386c-0.864-0.833-5.734-6.085-9.571-10.388
		c-2.392-2.696-6.222-5.612-2.716-9.179c2.098-2.146,5.719-2.147,8.419,0.695c3.535,3.76,4.396,8.498,6.273,13.307
		c2.201,2.212,4.82,4.798,6.631,6.608c1.56,1.608,2.874,2.619,3.807,2.605c0.849,0.013,0.931-1.683,0.341-3.786
		c-0.32-1.25-0.67-2.415-0.805-2.841c-0.346-1.448,0.761-1.629,1.141-0.605c0.216,0.683,0.51,1.79,0.774,3.039
		c0.499,2.525,0.048,4.244-0.394,5.34c-0.561,1.547-2.902,2.926-4.201,2.792c-2.711-0.324-4.258-2.725-5.457-3.846
		C71.375,131.128,70.314,130.206,69.394,129.372z M62.903,109.922c-1.284-1.151-5.072-3.162-2.697,0.609
		c2.263,3.656,7.329,9.052,8.499,10.258C67.958,117.893,66.055,112.828,62.903,109.922z M64.784,132.95
		c-0.923-0.665-2.3-1.28-3.315-1.522c-1.804-0.424-1.088,0.888-0.392,1.55C62.221,134.042,64.784,132.95,64.784,132.95z"/>
	<path fill="#FFFFFF" d="M93.935,118.168c-0.126-0.668-0.271-1.423-0.441-2.466c-0.24-1.449,0.909-1.551,1.161-0.471
		c0.22,0.849,0.34,1.574,0.416,2.179c0.614,4.79-0.827,9.64-7.102,11.087c-6.131,1.435-11.085-5.821-11.252-12.099
		c-0.049-3.192,3.11-7.626,6.616-6.901c5.118,1.072,6.43,12.226,2.948,14.406l-0.025-0.031c1.27,1.134,2.702,1.832,4.251,1.716
		C94.041,125.264,94.383,121.091,93.935,118.168z M84.866,111.6c-0.92-1.21-1.545-1.222-2.138-1.258
		c-1.131-0.066-1.777,1.684-1.424,3.657c0.542,2.848,1.886,6.693,4.188,9.05C86.28,123.903,89.117,117.214,84.866,111.6z"/>
	<path fill="#FFFFFF" d="M105.856,106.995c-0.3-1.456,1.179-1.724,1.255,0.039c0.185,4.878-0.546,13.158-7.208,11.667
		c-1.688-0.37-0.722-2.875,0.258-2.05c1.993,1.625,2.391-0.918,2.201-1.323c-1.048-2.298-6.629-4.755-8.521-5.618
		c0.397,2.074,0.669,4.042,0.922,6.12c0.138,1.228-1.178,1.38-1.255-0.039c-0.255-3.943-0.695-5.595-1.149-6.99
		c-1.272-0.959-3.81-2.59-5.177-5.888c-1.261-3.08,0.819-7.95,3.874-7.523c1.204,0.174,2.272,1.328,2.734,3.7
		c0.258,1.535,0.238,2.679,0.148,4.413c2.901,3.729,8.857,4.298,11.365,10.37C106.283,111.799,106.179,108.828,105.856,106.995z
		 M92.703,102.319c-0.019-0.232-0.037-0.465-0.032-0.665c-0.471-6.934-2.704-5.588-2.2-3.295
		C90.929,100.587,92.703,102.319,92.703,102.319z"/>
	<path fill="#FFFFFF" d="M119.56,100.862c-0.052-0.678-0.112-1.445-0.167-2.5c-0.079-1.467,1.097-1.408,1.206-0.34
		c0.125,0.869,0.165,1.602,0.173,2.212c0.083,4.83-1.885,9.492-8.283,10.239c-6.254,0.75-10.378-7.01-9.852-13.269
		c0.328-3.811,5.557-8.934,9.35-4.755c1.3,1.449-0.318,2.856-1.191,1.184c-1.501-2.885-3.549-1.11-3.333,1.691
		c0.35,4.802,3.09,12.398,7.871,12.537C118.882,107.928,119.683,103.817,119.56,100.862z"/>
	<path fill="#FFFFFF" d="M133.421,92.981c-0.017-0.679-0.039-1.448-0.04-2.505c-0.004-1.468,1.147-1.384,1.222-0.278
		c0.081,0.874,0.083,1.607,0.06,2.218c-0.164,4.826-2.365,9.38-8.791,9.8c-6.282,0.431-10.004-7.526-9.16-13.749
		c0.464-3.158,4.295-7.026,7.638-5.748c4.878,1.88,4.381,13.099,0.594,14.69l-0.02-0.035c1.071,1.324,2.372,2.242,3.919,2.377
		C132.385,100.001,133.394,95.938,133.421,92.981z M125.527,85.042c-0.714-1.342-1.328-1.454-1.908-1.585
		c-1.105-0.248-2.024,1.376-1.993,3.38c0.078,2.897,0.785,6.909,2.679,9.605C124.945,97.411,128.82,91.266,125.527,85.042z"/>
	<path fill="#FFFFFF" d="M132.713,78.177c0.482,0.163,0.624,0.896,0.979,1.613c-0.018-0.036-0.036-0.072-0.036-0.072l1.495,3.01
		c0.036,0.072,0.013-4.651,1.736-7.026c1.526-2.053,4.373-2.708,6.12-0.717c1.266,1.47,3.398,7.022,4.411,9.333
		c0.907,2.006,2.134,4.567,2.671,4.748c0.965,0.325,1.602-3.699,1.644-6.042c0.02-0.769,0.058-1.413,0.077-1.735
		c0.075-1.467,1.184-1.303,1.235-0.211c0.017,0.483-0.021,1.217-0.095,2.057c-0.3,5.062-1.627,6.346-2.471,7.436
		c-1.023,1.267-3.117,1.637-4.332,1.079c-2.52-1.116-3.35-4.947-4.169-6.416c-0.249-0.412-0.499-0.824-0.748-1.237
		c-1.246-2.597-3.122-9.973-4.441-5.075c-0.668,2.431-0.642,5.812,0.123,7.442c0.782,1.666,1.654,3.511,2.455,5.034
		c1.139,2.114,1.442,2.455,0.886,3.133c-0.79,0.928-2.938,1.638-3.992,0.776c-1.785-1.525-2.725-4.319-3.419-5.537
		c-1.727-3.028-3.222-5.858-4.646-8.725C127.681,80.006,131.444,77.691,132.713,78.177z"/>
	<path fill="#FFFFFF" d="M148.68,74.982c-0.329-0.642-1.823-4.005-3.194-7.292c-0.488,0.479-1.833,1.295-2.856,1.355
		c-0.682,0.041-0.958-0.975-0.3-1.267c0.585-0.26,1.54-0.771,2.641-1.348c-1.116-2.612-2.013-4.928-1.997-5.285
		c0.008-0.967,1.771-2.318,4.062-2.679c0.938-0.154,2.111,1.995,3.374,4.936c0.935-0.459,1.723-0.853,2.319-0.986
		c1.162-0.341,1.153,1.02,0.532,1.296c-0.622,0.276-1.462,0.649-2.303,1.022c1.944,4.871,3.953,11.069,5.333,12.995
		c0.658,0.89,2.74,6.268,3.743,6.654c1.267,0.488,1.46-6.076,1.606-7.323c0.139-1.462,1.292-1.23,1.243-0.158
		c-0.009,2.149-1.042,8.298-2.196,9.642c-1.077,1.222-3.221,1.518-4.411,0.908c-2.433-1.24-3.873-5.371-4.612-6.837
		C150.461,78.306,149.418,76.449,148.68,74.982z"/>
	<path fill="#FFFFFF" d="M176.397,78.674c-2.651-5.638-5.496-16.219-8.166-20.958c-0.646-1.213-5.198-12.29-3.841-12.774
		c3.165-1.13,4.152-2.885,5.915-0.329c1.458-3.41,5.971-4.81,8.245-4.39c3.899,0.688,7.845,8.88,5.055,13.913
		c-0.5,0.858-2.357,2.201-4.047,3.06c11.466-5.243,18.613,20.114,1.298,19.927c-0.143,0.433-0.376,0.729-0.715,0.85
		C178.633,78.513,177.498,79.258,176.397,78.674z M173.505,51.669c0.641,1.556,4.331,10.221,5.887,16.717
		c0.557,2.392,3.37,10.266,5.767,5.204c2.096-4.36-2.189-16.593-6.427-15.376c-1.006,0.274-1.453-1.095-0.452-1.623
		c3.644-1.812,0.594-10.11-2.243-12.581C172.064,40.502,171.303,46.339,173.505,51.669z"/>
	<path fill="#FFFFFF" d="M190.86,46.214c0.293-1.874,2.319-2.79,3.613-1.331c0.605,0.658,0.537,2.01,0.985,3.712
		C196.244,51.615,190.036,51.737,190.86,46.214z M205.888,49.547c0.445,0.247,0.452,0.994,0.674,1.763
		c-0.011-0.039-0.022-0.077-0.033-0.116l0.94,3.268c0.011,0.038,0.849-4.573,2.971-6.599c1.859-1.784,4.787-1.877,6.148,0.395
		c0.981,1.674,2.081,7.517,2.662,9.972c0.532,2.136,1.279,4.876,1.773,5.15c0.88,0.454,2.241-3.351,2.703-5.648
		c0.196-0.764,0.311-1.379,0.387-1.693c0.327-1.467,1.438-1.08,1.253,0.014c-0.07,0.478-0.239,1.193-0.463,2.006
		c-1.205,4.925-2.741,5.95-3.777,6.831c-1.223,1.101-3.349,1.088-4.444,0.322c-2.277-1.551-2.417-5.506-2.947-7.06
		c-0.171-0.45-0.342-0.9-0.475-1.361c-0.796-2.768-1.317-10.359-3.495-5.778c-1.105,2.232-1.676,5.602-1.228,7.304
		c0.481,1.818,1.007,3.789,1.521,5.431c0.741,2.284,0.978,2.674,0.309,3.241c-0.943,0.771-3.185,1.083-4.065,0.046
		c-1.096-1.349-1.611-3.282-1.993-4.754c-0.427,3.578-1.125,9.106-2.112,10.014c-1.234,1.063-3.399,1.062-4.494,0.294
		c-2.239-1.562-3.31-7.163-3.841-8.717c-1.607-4.574-3.02-7.455-2.732-9.203c0.168-1.006,0.289-1.457,2.518-2.098
		c5.189-1.494,2.193,3.572,5.193,9.077c0.529,0.972,2.064,7.896,3.043,8.406c0.792,0.438,1.191-9.167,1.507-10.381
		c-0.022-0.077,0.005-0.126,0.033-0.176c-0.912-2.734-1.741-5.326-2.493-7.939C200.609,50.442,204.727,48.841,205.888,49.547z"/>
	<path fill="#FFFFFF" d="M242.958,52.235c-0.127,0.521-0.016,0.291-0.182,0.821c-1.051,3.113-2.29,4.874-3.632,6.535
		c0.285,1.781,1.032,3.251,1.295,5.119c0.187,1.353,0.636,3.137,0.751,4.177c0.378,3.442-2.407,4.9-4.585,4.702
		c-2.587-0.187-5.245-2.656-3.979-6.803c0.672-2.082,1.673-3.625,2.806-4.95c-0.623-2.36-1.36-4.325-1.801-5.537
		c-0.203-0.528-0.37-0.9-0.463-1.125c-0.027-0.117-0.062-0.273-0.089-0.39c0.496,4.852-2.959,9.294-7.01,6.119
		c-2.733-2.082-4.386-13.603-2.222-17.052c1.722-2.692,4.898-3.337,6.879-2.929c2.059,0.39,2.847,2.22,3.166,3.255
		c0.515,1.893-2.12,1.675-2.154,0.985c-0.069-3.349-1.298-3.519-2.07-2.767c-2.474,2.454-1.401,11.44-0.313,14.76
		c0.531,1.602,0.837,3.296,1.63,1.924c1.485-2.474,0.999-7.286,0.842-8.686c-0.188-2.255,5.26-3.01,5.183-1.556
		c-0.017,0.825,0.614,3.757,0.998,5.434c0.12,0.342,0.253,0.926,0.423,1.667c0.152,0.663,0.175,0.944,0.333,1.811
		c1.531-1.376,2.41-3.629,2.953-5.559C242.142,50.821,243.142,51.249,242.958,52.235z M235.842,63.629
		c-0.529,0.737-1.049,1.512-1.563,2.492c-2.947,5.229,3.445,8.238,3.104,4.418C237.259,69.459,236.339,65.977,235.842,63.629z"/>
	<path fill="#FFFFFF" d="M256.707,51.642c0.202-0.649,0.428-1.385,0.766-2.386c0.467-1.392,1.53-0.944,1.247,0.128
		c-0.204,0.854-0.437,1.55-0.654,2.121c-1.702,4.52-5.248,8.13-11.471,6.468c-6.09-1.605-7.066-10.338-4.272-15.963
		c1.453-2.843,6.322-5.28,9.08-2.997c4.02,3.345-0.048,13.815-4.146,14.109l-0.008-0.039c0.59,1.598,1.529,2.884,2.951,3.509
		C253.475,57.961,255.733,54.434,256.707,51.642z M251.772,41.589c-0.246-1.501-0.792-1.804-1.3-2.114
		c-0.968-0.589-2.359,0.654-2.972,2.563c-0.855,2.77-1.471,6.797-0.541,9.958C247.256,53.122,252.897,48.542,251.772,41.589z"/>
</g>
<g>
	<path fill="#FFFFFF" d="M16.187,159.104c-0.872-0.642-1.375-1.194-1.184-1.5c2.489-3.963,1.615-5.881,8.922-2.474
		c2.732,1.291,27.875,13.3,25.769,16.653c-0.851,1.355-1.248,2.664-2.618,2.89c-2.762-1.167-7.869-4.091-10.774-5.632
		c-0.489,0.779-0.97,1.469-1.152,1.685c-0.715,1.062-1.591,2.308-2.441,3.663c1.417,1.504,2.458,2.629,2.881,3.084
		c2.902,3.05,5.918,6.22,6.066,6.737c0.012,0.055-1.191,3.928-2.985,2.046c-2.01-2.065-6.628-7.421-7.75-8.645
		c-0.055,0.013-0.342,1.296-1.093,1.439c-0.331,0.076-0.453-0.332-1.207-0.71c-0.305-0.191-0.398,0.033,1.184-2.185
		c-4.048-4.384-10.061-10.379-14.439-15.065C15.03,160.644,15.995,159.408,16.187,159.104z M33.401,170.952
		c0.672-0.995,1.276-2.032,1.617-2.574c-3.672-1.975-7.276-3.908-10.39-4.966c-0.606-0.239-2.538-1.074-4.507-2.074
		c3.25,3.174,8.14,8.323,11.558,11.981C32.278,172.514,32.844,171.688,33.401,170.952z"/>
	<path fill="#FFFFFF" d="M52.201,153.82c4.904,7.479,4.249,12.097-0.898,12.094c-3.636,0.039-10.586-6.885-11.033-11.161
		c-0.315-3.294,1.888-5.884,3.806-6.853c0.05-0.062,0.106-0.068,0.132-0.099c-2.125-1.826-4.876-4.211-7.286-6.32
		c-2.727-2.417-6.877-4.855-3.821-8.814c1.827-2.38,5.422-2.812,8.441-0.312c3.957,3.312,5.692,8.221,8.155,12.741
		c2.449,1.934,5.015,3.913,7.003,5.525c1.765,1.379,4.35,3.527,5.25,3.433c0.844-0.088-0.404-3.057-1.215-5.105
		c-0.498-1.228-1.009-2.312-1.169-2.75c-0.515-1.396,0.592-1.683,1.061-0.736c0.296,0.651,0.72,1.716,1.13,2.924
		c0.342,1.102,1.097,3.156,1.384,5.088c0.365,2.407-0.667,4.506-2.475,4.894c-2.666,0.62-7.023-3.532-8.373-4.472L52.201,153.82z
		 M40.009,132.913c-1.386-1.021-5.412-2.534-2.605,0.926c2.708,3.329,8.442,8.133,9.747,9.191
		C46.66,141.603,43.54,135.417,40.009,132.913z M44.132,149.8c-0.449,3.602,4.395,8.868,7.48,10.906
		c1.468,0.984,2.79,2.211,2.558,0.529c-0.266-2.276-2.522-5.908-4.076-7.992C49.524,152.422,44.515,146.661,44.132,149.8z"/>
	<path fill="#FFFFFF" d="M69.394,129.372c-0.733,1.658-1.969,2.912-2.54,3.299c4.296,3.913,7.64,10.924,3.169,14.646
		c-4.932,4.281-10.502,0.433-13.765-4.483c-1.603-2.458-3.529-5.938-2.808-8.7c0.152-0.705,5.14-3.146,5.311,0.478
		c0.137,2.096,1.438,3.954,2.626,5.812c7.984,12.428,14.641,2.629,4.544-6.691c-6.227,3.921-10.039-3.917-4.636-3.918
		c1.386-0.007,3.043,0.782,4.637,2.023c1.341-0.743,2.125-2.061,2.4-3.386c-0.864-0.833-5.734-6.085-9.571-10.388
		c-2.392-2.696-6.222-5.612-2.716-9.179c2.098-2.146,5.719-2.147,8.419,0.695c3.535,3.76,4.396,8.498,6.273,13.307
		c2.201,2.212,4.82,4.798,6.631,6.608c1.56,1.608,2.874,2.619,3.807,2.605c0.849,0.013,0.931-1.683,0.341-3.786
		c-0.32-1.25-0.67-2.415-0.805-2.841c-0.346-1.448,0.761-1.629,1.141-0.605c0.216,0.683,0.51,1.79,0.774,3.039
		c0.499,2.525,0.048,4.244-0.394,5.34c-0.561,1.547-2.902,2.926-4.201,2.792c-2.711-0.324-4.258-2.725-5.457-3.846
		C71.375,131.128,70.314,130.206,69.394,129.372z M62.903,109.922c-1.284-1.151-5.072-3.162-2.697,0.609
		c2.263,3.656,7.329,9.052,8.499,10.258C67.958,117.893,66.055,112.828,62.903,109.922z M64.784,132.95
		c-0.923-0.665-2.3-1.28-3.315-1.522c-1.804-0.424-1.088,0.888-0.392,1.55C62.221,134.042,64.784,132.95,64.784,132.95z"/>
	<path fill="#FFFFFF" d="M93.935,118.168c-0.126-0.668-0.271-1.423-0.441-2.466c-0.24-1.449,0.909-1.551,1.161-0.471
		c0.22,0.849,0.34,1.574,0.416,2.179c0.614,4.79-0.827,9.64-7.102,11.087c-6.131,1.435-11.085-5.821-11.252-12.099
		c-0.049-3.192,3.11-7.626,6.616-6.901c5.118,1.072,6.43,12.226,2.948,14.406l-0.025-0.031c1.27,1.134,2.702,1.832,4.251,1.716
		C94.041,125.264,94.383,121.091,93.935,118.168z M84.866,111.6c-0.92-1.21-1.545-1.222-2.138-1.258
		c-1.131-0.066-1.777,1.684-1.424,3.657c0.542,2.848,1.886,6.693,4.188,9.05C86.28,123.903,89.117,117.214,84.866,111.6z"/>
	<path fill="#FFFFFF" d="M105.856,106.995c-0.3-1.456,1.179-1.724,1.255,0.039c0.185,4.878-0.546,13.158-7.208,11.667
		c-1.688-0.37-0.722-2.875,0.258-2.05c1.993,1.625,2.391-0.918,2.201-1.323c-1.048-2.298-6.629-4.755-8.521-5.618
		c0.397,2.074,0.669,4.042,0.922,6.12c0.138,1.228-1.178,1.38-1.255-0.039c-0.255-3.943-0.695-5.595-1.149-6.99
		c-1.272-0.959-3.81-2.59-5.177-5.888c-1.261-3.08,0.819-7.95,3.874-7.523c1.204,0.174,2.272,1.328,2.734,3.7
		c0.258,1.535,0.238,2.679,0.148,4.413c2.901,3.729,8.857,4.298,11.365,10.37C106.283,111.799,106.179,108.828,105.856,106.995z
		 M92.703,102.319c-0.019-0.232-0.037-0.465-0.032-0.665c-0.471-6.934-2.704-5.588-2.2-3.295
		C90.929,100.587,92.703,102.319,92.703,102.319z"/>
	<path fill="#FFFFFF" d="M119.56,100.862c-0.052-0.678-0.112-1.445-0.167-2.5c-0.079-1.467,1.097-1.408,1.206-0.34
		c0.125,0.869,0.165,1.602,0.173,2.212c0.083,4.83-1.885,9.492-8.283,10.239c-6.254,0.75-10.378-7.01-9.852-13.269
		c0.328-3.811,5.557-8.934,9.35-4.755c1.3,1.449-0.318,2.856-1.191,1.184c-1.501-2.885-3.549-1.11-3.333,1.691
		c0.35,4.802,3.09,12.398,7.871,12.537C118.882,107.928,119.683,103.817,119.56,100.862z"/>
	<path fill="#FFFFFF" d="M133.421,92.981c-0.017-0.679-0.039-1.448-0.04-2.505c-0.004-1.468,1.147-1.384,1.222-0.278
		c0.081,0.874,0.083,1.607,0.06,2.218c-0.164,4.826-2.365,9.38-8.791,9.8c-6.282,0.431-10.004-7.526-9.16-13.749
		c0.464-3.158,4.295-7.026,7.638-5.748c4.878,1.88,4.381,13.099,0.594,14.69l-0.02-0.035c1.071,1.324,2.372,2.242,3.919,2.377
		C132.385,100.001,133.394,95.938,133.421,92.981z M125.527,85.042c-0.714-1.342-1.328-1.454-1.908-1.585
		c-1.105-0.248-2.024,1.376-1.993,3.38c0.078,2.897,0.785,6.909,2.679,9.605C124.945,97.411,128.82,91.266,125.527,85.042z"/>
	<path fill="#FFFFFF" d="M132.713,78.177c0.482,0.163,0.624,0.896,0.979,1.613c-0.018-0.036-0.036-0.072-0.036-0.072l1.495,3.01
		c0.036,0.072,0.013-4.651,1.736-7.026c1.526-2.053,4.373-2.708,6.12-0.717c1.266,1.47,3.398,7.022,4.411,9.333
		c0.907,2.006,2.134,4.567,2.671,4.748c0.965,0.325,1.602-3.699,1.644-6.042c0.02-0.769,0.058-1.413,0.077-1.735
		c0.075-1.467,1.184-1.303,1.235-0.211c0.017,0.483-0.021,1.217-0.095,2.057c-0.3,5.062-1.627,6.346-2.471,7.436
		c-1.023,1.267-3.117,1.637-4.332,1.079c-2.52-1.116-3.35-4.947-4.169-6.416c-0.249-0.412-0.499-0.824-0.748-1.237
		c-1.246-2.597-3.122-9.973-4.441-5.075c-0.668,2.431-0.642,5.812,0.123,7.442c0.782,1.666,1.654,3.511,2.455,5.034
		c1.139,2.114,1.442,2.455,0.886,3.133c-0.79,0.928-2.938,1.638-3.992,0.776c-1.785-1.525-2.725-4.319-3.419-5.537
		c-1.727-3.028-3.222-5.858-4.646-8.725C127.681,80.006,131.444,77.691,132.713,78.177z"/>
	<path fill="#FFFFFF" d="M148.68,74.982c-0.329-0.642-1.823-4.005-3.194-7.292c-0.488,0.479-1.833,1.295-2.856,1.355
		c-0.682,0.041-0.958-0.975-0.3-1.267c0.585-0.26,1.54-0.771,2.641-1.348c-1.116-2.612-2.013-4.928-1.997-5.285
		c0.008-0.967,1.771-2.318,4.062-2.679c0.938-0.154,2.111,1.995,3.374,4.936c0.935-0.459,1.723-0.853,2.319-0.986
		c1.162-0.341,1.153,1.02,0.532,1.296c-0.622,0.276-1.462,0.649-2.303,1.022c1.944,4.871,3.953,11.069,5.333,12.995
		c0.658,0.89,2.74,6.268,3.743,6.654c1.267,0.488,1.46-6.076,1.606-7.323c0.139-1.462,1.292-1.23,1.243-0.158
		c-0.009,2.149-1.042,8.298-2.196,9.642c-1.077,1.222-3.221,1.518-4.411,0.908c-2.433-1.24-3.873-5.371-4.612-6.837
		C150.461,78.306,149.418,76.449,148.68,74.982z"/>
	<path fill="#FFFFFF" d="M176.397,78.674c-2.651-5.638-5.496-16.219-8.166-20.958c-0.646-1.213-5.198-12.29-3.841-12.774
		c3.165-1.13,4.152-2.885,5.915-0.329c1.458-3.41,5.971-4.81,8.245-4.39c3.899,0.688,7.845,8.88,5.055,13.913
		c-0.5,0.858-2.357,2.201-4.047,3.06c11.466-5.243,18.613,20.114,1.298,19.927c-0.143,0.433-0.376,0.729-0.715,0.85
		C178.633,78.513,177.498,79.258,176.397,78.674z M173.505,51.669c0.641,1.556,4.331,10.221,5.887,16.717
		c0.557,2.392,3.37,10.266,5.767,5.204c2.096-4.36-2.189-16.593-6.427-15.376c-1.006,0.274-1.453-1.095-0.452-1.623
		c3.644-1.812,0.594-10.11-2.243-12.581C172.064,40.502,171.303,46.339,173.505,51.669z"/>
	<path fill="#FFFFFF" d="M190.86,46.214c0.293-1.874,2.319-2.79,3.613-1.331c0.605,0.658,0.537,2.01,0.985,3.712
		C196.244,51.615,190.036,51.737,190.86,46.214z M205.888,49.547c0.445,0.247,0.452,0.994,0.674,1.763
		c-0.011-0.039-0.022-0.077-0.033-0.116l0.94,3.268c0.011,0.038,0.849-4.573,2.971-6.599c1.859-1.784,4.787-1.877,6.148,0.395
		c0.981,1.674,2.081,7.517,2.662,9.972c0.532,2.136,1.279,4.876,1.773,5.15c0.88,0.454,2.241-3.351,2.703-5.648
		c0.196-0.764,0.311-1.379,0.387-1.693c0.327-1.467,1.438-1.08,1.253,0.014c-0.07,0.478-0.239,1.193-0.463,2.006
		c-1.205,4.925-2.741,5.95-3.777,6.831c-1.223,1.101-3.349,1.088-4.444,0.322c-2.277-1.551-2.417-5.506-2.947-7.06
		c-0.171-0.45-0.342-0.9-0.475-1.361c-0.796-2.768-1.317-10.359-3.495-5.778c-1.105,2.232-1.676,5.602-1.228,7.304
		c0.481,1.818,1.007,3.789,1.521,5.431c0.741,2.284,0.978,2.674,0.309,3.241c-0.943,0.771-3.185,1.083-4.065,0.046
		c-1.096-1.349-1.611-3.282-1.993-4.754c-0.427,3.578-1.125,9.106-2.112,10.014c-1.234,1.063-3.399,1.062-4.494,0.294
		c-2.239-1.562-3.31-7.163-3.841-8.717c-1.607-4.574-3.02-7.455-2.732-9.203c0.168-1.006,0.289-1.457,2.518-2.098
		c5.189-1.494,2.193,3.572,5.193,9.077c0.529,0.972,2.064,7.896,3.043,8.406c0.792,0.438,1.191-9.167,1.507-10.381
		c-0.022-0.077,0.005-0.126,0.033-0.176c-0.912-2.734-1.741-5.326-2.493-7.939C200.609,50.442,204.727,48.841,205.888,49.547z"/>
	<path fill="#FFFFFF" d="M242.958,52.235c-0.127,0.521-0.016,0.291-0.182,0.821c-1.051,3.113-2.29,4.874-3.632,6.535
		c0.285,1.781,1.032,3.251,1.295,5.119c0.187,1.353,0.636,3.137,0.751,4.177c0.378,3.442-2.407,4.9-4.585,4.702
		c-2.587-0.187-5.245-2.656-3.979-6.803c0.672-2.082,1.673-3.625,2.806-4.95c-0.623-2.36-1.36-4.325-1.801-5.537
		c-0.203-0.528-0.37-0.9-0.463-1.125c-0.027-0.117-0.062-0.273-0.089-0.39c0.496,4.852-2.959,9.294-7.01,6.119
		c-2.733-2.082-4.386-13.603-2.222-17.052c1.722-2.692,4.898-3.337,6.879-2.929c2.059,0.39,2.847,2.22,3.166,3.255
		c0.515,1.893-2.12,1.675-2.154,0.985c-0.069-3.349-1.298-3.519-2.07-2.767c-2.474,2.454-1.401,11.44-0.313,14.76
		c0.531,1.602,0.837,3.296,1.63,1.924c1.485-2.474,0.999-7.286,0.842-8.686c-0.188-2.255,5.26-3.01,5.183-1.556
		c-0.017,0.825,0.614,3.757,0.998,5.434c0.12,0.342,0.253,0.926,0.423,1.667c0.152,0.663,0.175,0.944,0.333,1.811
		c1.531-1.376,2.41-3.629,2.953-5.559C242.142,50.821,243.142,51.249,242.958,52.235z M235.842,63.629
		c-0.529,0.737-1.049,1.512-1.563,2.492c-2.947,5.229,3.445,8.238,3.104,4.418C237.259,69.459,236.339,65.977,235.842,63.629z"/>
	<path fill="#FFFFFF" d="M256.707,51.642c0.202-0.649,0.428-1.385,0.766-2.386c0.467-1.392,1.53-0.944,1.247,0.128
		c-0.204,0.854-0.437,1.55-0.654,2.121c-1.702,4.52-5.248,8.13-11.471,6.468c-6.09-1.605-7.066-10.338-4.272-15.963
		c1.453-2.843,6.322-5.28,9.08-2.997c4.02,3.345-0.048,13.815-4.146,14.109l-0.008-0.039c0.59,1.598,1.529,2.884,2.951,3.509
		C253.475,57.961,255.733,54.434,256.707,51.642z M251.772,41.589c-0.246-1.501-0.792-1.804-1.3-2.114
		c-0.968-0.589-2.359,0.654-2.972,2.563c-0.855,2.77-1.471,6.797-0.541,9.958C247.256,53.122,252.897,48.542,251.772,41.589z"/>
</g>
<g>
	<path fill="#FFFFFF" d="M92.701,187.166c-1.099,1.163-1.743,2.369-3.047,2.293c-5.412-4.288-13.15-12.81-18.113-16.234
		c-1.213-0.871-8.428-6.918-7.439-7.965c1.703-1.802,2.887-3.929,4.042-4.103c0.394-0.068,1.398,1.431,1.915,1.7
		c-1.395-2.309-0.461-5.277,2.714-7.064c7.403-4.284,26.323,17.444,26.402,22.251c0.042,3.507-2.79,7.378-6.861,6.447
		C92.999,185.687,93.195,186.643,92.701,187.166z M75.01,166.875c3.653,3.122,15.535,16.109,18.535,16.137
		c2.009,0.028,2.628-1.093,0.699-4.292c-3.446-5.787-15.562-18.06-20.36-19.678C69.742,157.66,70.921,163.341,75.01,166.875z"/>
	<path fill="#FFFFFF" d="M88.046,155.823c-1.153-1.009-7.856-7.791-6.775-8.741c2.554-2.244,3.148-3.991,5.382-2.6
		c-0.236-1.603,1.301-3.912,4.191-5.652c7.109-4.33,16.675,11.223,15.411,14.995c-0.557,1.607-1.919,3.39-3.527,4.589
		c4.684,1.635,9.968,2.741,13.782,3.81c0.474,0.116-0.029,2.208-1.308,2.693c-1.191,0.461-5.837-0.887-13.727-4.656
		c4.748,5.464,8.523,10.186,7.021,11.506c-1.202,1.056-1.985,2.224-3.273,1.971C100.15,168.933,92.697,159.723,88.046,155.823z
		 M101.688,155.23c-0.663-4.208-7.798-12.208-11.186-12.852c-2.518-0.503-3.018,1.534-1.723,3.856
		c0.988,0.942,5.201,6.344,8.567,9.509C99.137,157.418,102.34,159.609,101.688,155.23z"/>
	<path fill="#FFFFFF" d="M105.476,140.76c-1.083-1.084-7.32-8.297-6.178-9.173c3.682-2.823,3.714-5.016,8.738,1.01
		c1.904,2.22,19.925,23.026,16.783,25.436c-1.27,0.974-2.13,2.086-3.397,1.748C116.68,154.647,109.856,144.961,105.476,140.76z"/>
	<path fill="#FFFFFF" d="M109.502,123.679c0.919-1.289,4.876-3.215,6.175-2.785c2.124,2.67,5.383,7.614,7.463,10.794
		c-1.526-3.792-4.21-9.89-3.917-13.408c0.283-3.318,6.645-7.623,10.693-1.716c0.511,0.765,1.134,1.696,1.891,2.826
		c2.236,3.414,7.498,11.349,9.654,13.709c1.045,1.13,6.883,8.92,5.686,9.721c-3.856,2.581-3.975,4.778-8.724-1.672
		c-0.868-1.152-4.771-6.483-8.253-11.903c-16.118-24.017-4.404,7.231,0.554,12.77c1.012,1.152,5.982,7.79,4.752,8.613
		c-3.856,2.581-3.975,4.778-8.724-1.672C124.986,146.531,108.196,125.467,109.502,123.679z"/>
	<path fill="#FFFFFF" d="M151.809,139.614c-3.441,1.959-15.612-22.732-16.953-25.329c-3.566-6.991-1.568-6.149,2.464-8.445
		c1.286-0.732,5.51,7.817,6.053,9.257c0.355,0.948,2.325,4.568,2.854,5.739c-0.882-3.732-2.332-12.665-3.319-16.015
		c-1.13-3.683,2.852-2.913,3.055-2.153c1.395,5.926,1.981,14.797,1.911,18.474c4.728,3.614,11.951,6.681,16.631,9.08
		c0.441,0.209-0.475,2.157-1.824,2.374c-1.419,0.256-6.664-2.65-15.256-9.495c2.804,5.491,5.125,9.325,7.315,14.062
		C154.524,138.482,153.199,138.823,151.809,139.614z"/>
	<path fill="#FFFFFF" d="M154.941,108.667c-0.869-1.263-5.693-9.489-4.41-10.143c4.133-2.108,4.563-4.258,8.41,2.58
		c1.469,2.528,15.415,26.261,11.888,28.06c-1.425,0.727-2.473,1.666-3.658,1.103C163.438,124.358,158.487,113.594,154.941,108.667z"
		/>
	<path fill="#FFFFFF" d="M161.638,92.801c1.121-1.116,5.345-2.352,6.553-1.709c1.646,2.988,4.03,8.406,5.548,11.89
		c-0.87-3.993-2.494-10.454-1.615-13.872c0.835-3.223,7.826-6.4,10.827,0.101c0.376,0.839,0.834,1.861,1.391,3.103
		c1.632,3.739,5.488,12.442,7.219,15.129c0.84,1.289,5.29,9.945,3.976,10.534c-4.234,1.897-4.719,4.043-8.318-3.109
		c-0.662-1.281-3.616-7.189-6.141-13.115c-11.863-26.372-5.552,6.389-1.593,12.68c0.804,1.305,4.592,8.681,3.241,9.286
		c-4.234,1.897-4.719,4.043-8.319-3.109C173.071,117.92,160.051,94.345,161.638,92.801z"/>
	<path fill="#FFFFFF" d="M201.771,82.425c-0.084-3.048-7.371-6.364-7.013,0.344c0.373,7.087,5.85,25.29,9.883,28.938
		c2.93,2.655,4.959-5.769,0.831-13.061c-0.245-0.42-0.489-0.841-0.771-1.248c-0.348-0.467-1.502-2.725-1.886-4.419
		c-0.636,0.241-1.31,0.496-2.021,0.765c-1.16,0.439-1.834-1.231-0.801-1.665c1.048-0.396,2.021-0.765,2.89-1.179
		c0.51-0.236,2.74-1.123,4.401-1.708c0.837-0.274,1.736,1.311,0.703,1.744c-0.136,0.094-0.285,0.151-0.435,0.208
		c0.222,0.472,0.485,1.057,0.872,1.852c0.707,1.529,7.451,15.958,3.747,17.359c-1.497,0.566-0.813,0.564-1.773,0.287
		c-0.396-0.706-0.768-1.463-1.103-2.235c-0.409,2.422-1.672,5.979-5.052,6.317c-9.848,0.99-17.151-28.027-14.642-32.698
		c2.417-4.465,11.218-7.882,14.333,0.35C204.231,83.162,201.776,84.134,201.771,82.425z"/>
</g>
<g>
	<g>
		<path fill="#FFFFFF" d="M66.603,29.143c3.059,4.149,26.512,51.684,26.512,51.684S54.637,44.371,51.577,40.222
			c-3.06-4.149-2.176-9.993,1.973-13.053C57.699,24.11,63.543,24.993,66.603,29.143z"/>
	</g>
	<g>
		<path fill="#FFFFFF" d="M96.13,21.196c1.139,5.028,3.57,57.977,3.57,57.977s-20.637-48.822-21.777-53.85
			c-1.14-5.028,2.012-10.027,7.04-11.167C89.991,13.016,94.991,16.168,96.13,21.196z"/>
	</g>
	<g>
		<path fill="#FFFFFF" d="M45.736,48.018c4.308,2.832,42.785,39.287,42.785,39.287S39.791,66.45,35.483,63.619
			c-4.309-2.831-5.506-8.619-2.675-12.927C35.639,46.383,41.427,45.187,45.736,48.018z"/>
	</g>
</g>
<g>
	<circle fill="#FFFFFF" cx="63.253" cy="195.413" r="11.415"/>
</g>
<g>
	<circle fill="#FFFFFF" cx="229.586" cy="87.305" r="11.415"/>
</g>
</svg>
