<?xml version="1.0" encoding="utf-8"?>
<!-- Generator: Adobe Illustrator 16.0.0, SVG Export Plug-In . SVG Version: 6.00 Build 0)  -->
<!DOCTYPE svg PUBLIC "-//W3C//DTD SVG 1.1//EN" "http://www.w3.org/Graphics/SVG/1.1/DTD/svg11.dtd">
<svg version="1.1" id="Layer_1" xmlns="http://www.w3.org/2000/svg" xmlns:xlink="http://www.w3.org/1999/xlink" x="0px" y="0px"
	 width="792px" height="242.988px" viewBox="0 0 792 242.988" enable-background="new 0 0 792 242.988" xml:space="preserve">
<g>
	<polygon fill="#0D7AA0" points="141,111.904 53,111.904 80,76.904 53,41.904 141,41.904 	"/>
</g>
<g>
	<polygon fill="#0D7AA0" points="669,111.904 757,111.904 730,76.904 757,41.904 669,41.904 	"/>
</g>
<g>
	<polygon fill="#1D98CE" points="141,107.904 53,107.904 80,72.904 53,37.904 141,37.904 	"/>
</g>
<g>
	<polygon fill="#1D98CE" points="669,107.904 757,107.904 730,72.904 757,37.904 669,37.904 	"/>
</g>
<g>
	<rect x="106" y="22.904" fill="#0D7AA0" width="594" height="70"/>
</g>
<g>
	<rect x="111" y="17.904" fill="#1D98CE" width="589" height="70"/>
</g>
<g>
	<g>
		<rect x="111" y="32.404" fill="#FFFFFF" width="6" height="1"/>
	</g>
	<g>
		<path fill="#FFFFFF" d="M682.224,33.404h-11.775v-1h11.775V33.404z M658.673,33.404h-11.775v-1h11.775V33.404z M635.122,33.404
			h-11.775v-1h11.775V33.404z M611.571,33.404h-11.775v-1h11.775V33.404z M588.021,33.404h-11.776v-1h11.776V33.404z
			 M564.469,33.404h-11.775v-1h11.775V33.404z M540.918,33.404h-11.775v-1h11.775V33.404z M517.367,33.404h-11.775v-1h11.775V33.404
			z M493.816,33.404h-11.775v-1h11.775V33.404z M470.266,33.404h-11.776v-1h11.776V33.404z M446.714,33.404h-11.775v-1h11.775
			V33.404z M423.163,33.404h-11.775v-1h11.775V33.404z M399.612,33.404h-11.776v-1h11.776V33.404z M376.061,33.404h-11.775v-1
			h11.775V33.404z M352.51,33.404h-11.776v-1h11.776V33.404z M328.959,33.404h-11.775v-1h11.775V33.404z M305.408,33.404h-11.776v-1
			h11.776V33.404z M281.857,33.404h-11.775v-1h11.775V33.404z M258.306,33.404H246.53v-1h11.776V33.404z M234.755,33.404h-11.775v-1
			h11.775V33.404z M211.204,33.404h-11.776v-1h11.776V33.404z M187.653,33.404h-11.775v-1h11.775V33.404z M164.102,33.404h-11.776
			v-1h11.776V33.404z M140.551,33.404h-11.775v-1h11.775V33.404z"/>
	</g>
	<g>
		<rect x="694" y="32.404" fill="#FFFFFF" width="6" height="1"/>
	</g>
</g>
<g>
	<g>
		<rect x="111" y="72.404" fill="#FFFFFF" width="6" height="1"/>
	</g>
	<g>
		<path fill="#FFFFFF" d="M682.224,73.404h-11.775v-1h11.775V73.404z M658.673,73.404h-11.775v-1h11.775V73.404z M635.122,73.404
			h-11.775v-1h11.775V73.404z M611.571,73.404h-11.775v-1h11.775V73.404z M588.021,73.404h-11.776v-1h11.776V73.404z
			 M564.469,73.404h-11.775v-1h11.775V73.404z M540.918,73.404h-11.775v-1h11.775V73.404z M517.367,73.404h-11.775v-1h11.775V73.404
			z M493.816,73.404h-11.775v-1h11.775V73.404z M470.266,73.404h-11.776v-1h11.776V73.404z M446.714,73.404h-11.775v-1h11.775
			V73.404z M423.163,73.404h-11.775v-1h11.775V73.404z M399.612,73.404h-11.776v-1h11.776V73.404z M376.061,73.404h-11.775v-1
			h11.775V73.404z M352.51,73.404h-11.776v-1h11.776V73.404z M328.959,73.404h-11.775v-1h11.775V73.404z M305.408,73.404h-11.776v-1
			h11.776V73.404z M281.857,73.404h-11.775v-1h11.775V73.404z M258.306,73.404H246.53v-1h11.776V73.404z M234.755,73.404h-11.775v-1
			h11.775V73.404z M211.204,73.404h-11.776v-1h11.776V73.404z M187.653,73.404h-11.775v-1h11.775V73.404z M164.102,73.404h-11.776
			v-1h11.776V73.404z M140.551,73.404h-11.775v-1h11.775V73.404z"/>
	</g>
	<g>
		<rect x="694" y="72.404" fill="#FFFFFF" width="6" height="1"/>
	</g>
</g>
<g>
	<path fill="#FFFFFF" d="M155.724,60.68l-1.275,3.224h-4.574l7.548-17.496h4.574l7.373,17.496h-4.749l-1.25-3.224H155.724z
		 M159.573,50.833l-2.549,6.473h5.049L159.573,50.833z"/>
	<path fill="#FFFFFF" d="M183.272,46.409c5.499,0,9.297,3.549,9.297,8.748c0,5.174-3.849,8.748-9.473,8.748h-7.348V46.409H183.272z
		 M180.198,60.355h3.174c2.725,0,4.674-2.099,4.674-5.173c0-3.1-2.049-5.224-4.874-5.224h-2.974V60.355z"/>
	<path fill="#FFFFFF" d="M217.12,55.131c0,5.099-4.049,8.973-9.473,8.973c-5.398,0-9.447-3.849-9.447-8.973
		c0-5.099,4.049-8.873,9.447-8.873C213.071,46.259,217.12,50.058,217.12,55.131z M202.749,55.156c0,2.949,2.274,5.224,4.949,5.224
		c2.699,0,4.849-2.275,4.849-5.224s-2.149-5.173-4.849-5.173C204.998,49.983,202.749,52.207,202.749,55.156z"/>
	<path fill="#FFFFFF" d="M236.097,60.18v3.724h-11.872V46.409h4.449V60.18H236.097z"/>
	<path fill="#FFFFFF" d="M247.423,49.908v3.474h8.348v3.499h-8.348v3.524h9.523v3.499h-13.972V46.409h13.697v3.499H247.423z"/>
	<path fill="#FFFFFF" d="M278.196,48.158l-1.674,3.474c-1.85-1.075-4.174-1.825-5.599-1.825c-1.15,0-1.925,0.425-1.925,1.275
		c0,3.024,9.248,1.3,9.248,7.623c0,3.499-3.1,5.349-6.999,5.349c-2.924,0-5.923-1.1-7.998-2.799l1.725-3.424
		c1.8,1.575,4.499,2.625,6.324,2.625c1.399,0,2.274-0.525,2.274-1.524c0-3.1-9.248-1.25-9.248-7.448
		c0-3.224,2.774-5.274,6.974-5.274C273.822,46.208,276.396,46.983,278.196,48.158z"/>
	<path fill="#FFFFFF" d="M300.671,49.208l-2.575,3.049c-1.149-1.4-2.849-2.274-4.399-2.274c-2.774,0-4.874,2.199-4.874,5.074
		c0,2.924,2.099,5.148,4.874,5.148c1.475,0,3.174-0.8,4.399-2.049l2.6,2.75c-1.875,1.924-4.649,3.199-7.223,3.199
		c-5.274,0-9.198-3.875-9.198-8.998c0-5.049,4.024-8.848,9.348-8.848C296.222,46.259,298.921,47.408,300.671,49.208z"/>
	<path fill="#FFFFFF" d="M311.923,49.908v3.474h8.348v3.499h-8.348v3.524h9.522v3.499h-13.972V46.409h13.697v3.499H311.923z"/>
	<path fill="#FFFFFF" d="M341.296,63.904l-8.048-10.772v10.772h-4.174V46.409h3.924l8.073,10.797V46.409h4.149v17.496H341.296z"/>
	<path fill="#FFFFFF" d="M361.572,49.983v13.921h-4.449V49.983h-5.224v-3.599h14.946v3.599H361.572z"/>
	<path fill="#FFFFFF" d="M392.321,46.409c3.924,0,6.423,1.7,6.423,4.374c0,1.849-1.148,3.324-2.999,3.849
		c2.2,0.425,3.599,2.15,3.599,4.424c0,2.974-2.6,4.849-6.724,4.849h-8.573V46.409H392.321z M388.472,53.407h3.599
		c1.3,0,2.125-0.7,2.125-1.824c0-1.125-0.825-1.775-2.125-1.775h-3.599V53.407z M388.472,60.48h3.599
		c1.65,0,2.674-0.725,2.674-1.974c0-1.175-1.024-1.9-2.674-1.9h-3.599V60.48z"/>
	<path fill="#FFFFFF" d="M406.674,63.904V46.409h4.448v17.496H406.674z"/>
	<path fill="#FFFFFF" d="M431.595,63.904l-8.048-10.772v10.772h-4.174V46.409h3.924l8.073,10.797V46.409h4.149v17.496H431.595z"/>
	<path fill="#FFFFFF" d="M459.244,55.006v6.823c-1.874,1.325-4.824,2.275-7.273,2.275c-5.323,0-9.348-3.849-9.348-8.948
		c0-5.074,4.124-8.897,9.647-8.897c2.6,0,5.349,1,7.148,2.599l-2.499,3.024c-1.274-1.175-3.05-1.899-4.674-1.899
		c-2.874,0-5.074,2.249-5.074,5.173c0,2.975,2.225,5.224,5.124,5.224c0.899,0,2.05-0.325,3.1-0.85v-4.524H459.244z"/>
	<path fill="#FFFFFF" d="M471.547,49.908v3.474h8.349v3.499h-8.349v3.524h9.522v3.499h-13.971V46.409h13.696v3.499H471.547z"/>
	<path fill="#FFFFFF" d="M506.771,46.409c5.499,0,9.298,3.549,9.298,8.748c0,5.174-3.849,8.748-9.473,8.748h-7.348V46.409H506.771z
		 M503.696,60.355h3.175c2.724,0,4.674-2.099,4.674-5.173c0-3.1-2.05-5.224-4.874-5.224h-2.975V60.355z"/>
	<path fill="#FFFFFF" d="M531.12,58.98h-0.125h-3.374v4.924h-4.448V46.409h7.822c4.624,0,7.273,2.199,7.273,6.098
		c0,2.675-1.125,4.599-3.174,5.624l3.674,5.773h-5.049L531.12,58.98z M530.995,55.481c1.925,0,3.05-0.975,3.05-2.824
		c0-1.825-1.125-2.75-3.05-2.75h-3.374v5.574H530.995z"/>
	<path fill="#FFFFFF" d="M546.023,63.904V46.409h4.448v17.496H546.023z"/>
	<path fill="#FFFFFF" d="M570.944,63.904l-8.048-10.772v10.772h-4.174V46.409h3.924l8.073,10.797V46.409h4.148v17.496H570.944z"/>
	<path fill="#FFFFFF" d="M589.896,57.031l-2.324,2.575v4.299h-4.448V46.409h4.448v7.573l6.698-7.573h5.149l-6.499,7.248
		l6.924,10.248h-5.324L589.896,57.031z"/>
	<path fill="#FFFFFF" d="M606.548,63.904V46.409h4.448v17.496H606.548z"/>
	<path fill="#FFFFFF" d="M631.469,63.904l-8.048-10.772v10.772h-4.174V46.409h3.924l8.073,10.797V46.409h4.148v17.496H631.469z"/>
	<path fill="#FFFFFF" d="M659.118,55.006v6.823c-1.874,1.325-4.823,2.275-7.273,2.275c-5.323,0-9.348-3.849-9.348-8.948
		c0-5.074,4.124-8.897,9.647-8.897c2.6,0,5.35,1,7.148,2.599l-2.499,3.024c-1.274-1.175-3.05-1.899-4.674-1.899
		c-2.874,0-5.074,2.249-5.074,5.173c0,2.975,2.225,5.224,5.124,5.224c0.899,0,2.05-0.325,3.1-0.85v-4.524H659.118z"/>
</g>
<g>
	<path fill="#FFFFFF" d="M156.304,119.445v-11.898h3.026v11.898H156.304z"/>
	<path fill="#FFFFFF" d="M164.77,112.188v-4.641h2.209v4.641H164.77z"/>
	<path fill="#FFFFFF" d="M175.836,119.445l-4.624-11.898h3.23l3.042,8.754l3.042-8.754h3.111l-4.674,11.898H175.836z"/>
	<path fill="#FFFFFF" d="M191.068,109.926v2.363h5.678v2.38h-5.678v2.396h6.477v2.38h-9.502v-11.898h9.315v2.379H191.068z"/>
	<path fill="#FFFFFF" d="M220.427,113.394v4.641c-1.275,0.901-3.281,1.547-4.947,1.547c-3.621,0-6.357-2.617-6.357-6.085
		c0-3.451,2.805-6.052,6.561-6.052c1.768,0,3.638,0.68,4.862,1.768l-1.7,2.058c-0.867-0.799-2.074-1.292-3.179-1.292
		c-1.955,0-3.451,1.529-3.451,3.519c0,2.022,1.513,3.553,3.485,3.553c0.612,0,1.394-0.222,2.108-0.578v-3.077H220.427z"/>
	<path fill="#FFFFFF" d="M237.852,113.479c0,3.468-2.754,6.103-6.442,6.103c-3.672,0-6.426-2.617-6.426-6.103
		c0-3.467,2.754-6.034,6.426-6.034C235.098,107.444,237.852,110.028,237.852,113.479z M228.077,113.496
		c0,2.006,1.547,3.553,3.366,3.553c1.836,0,3.298-1.547,3.298-3.553s-1.462-3.519-3.298-3.519
		C229.607,109.978,228.077,111.49,228.077,113.496z"/>
	<path fill="#FFFFFF" d="M247.797,109.978v9.468h-3.025v-9.468h-3.553v-2.448h10.165v2.448H247.797z"/>
	<path fill="#FFFFFF" d="M262.639,118.578l1.156-2.107c0.68,0.493,1.581,0.765,2.499,0.765c1.904,0,2.822-1.207,2.788-3.161
		c-0.561,0.799-1.513,1.274-2.839,1.274c-2.346,0-3.842-1.529-3.842-3.842c0-2.516,1.768-4.113,4.454-4.113
		c3.196,0,5.134,2.261,5.134,5.915c0,3.791-2.159,6.256-5.508,6.256C265.154,119.564,263.642,119.19,262.639,118.578z
		 M268.758,111.473c0-0.884-0.561-1.665-1.785-1.665c-1.088,0-1.768,0.611-1.768,1.717c0,1.02,0.629,1.614,1.717,1.614
		C268.095,113.139,268.758,112.442,268.758,111.473z"/>
	<path fill="#FFFFFF" d="M276.612,118.578l1.156-2.107c0.68,0.493,1.581,0.765,2.499,0.765c1.904,0,2.822-1.207,2.788-3.161
		c-0.561,0.799-1.513,1.274-2.839,1.274c-2.346,0-3.842-1.529-3.842-3.842c0-2.516,1.768-4.113,4.454-4.113
		c3.196,0,5.134,2.261,5.134,5.915c0,3.791-2.159,6.256-5.508,6.256C279.128,119.564,277.615,119.19,276.612,118.578z
		 M282.731,111.473c0-0.884-0.561-1.665-1.785-1.665c-1.088,0-1.768,0.611-1.768,1.717c0,1.02,0.629,1.614,1.717,1.614
		C282.069,113.139,282.731,112.442,282.731,111.473z"/>
	<path fill="#FFFFFF" d="M303.387,107.547c3.042,0,4.793,1.495,4.793,4.147c0,2.787-1.751,4.402-4.793,4.402h-2.159v3.349h-3.025
		v-11.898H303.387z M301.228,113.717h2.006c1.326,0,2.091-0.663,2.091-1.921c0-1.24-0.765-1.87-2.091-1.87h-2.006V113.717z"/>
	<path fill="#FFFFFF" d="M318.397,116.097h-0.085h-2.294v3.349h-3.026v-11.898h5.32c3.145,0,4.947,1.495,4.947,4.147
		c0,1.818-0.765,3.128-2.159,3.824l2.499,3.927h-3.434L318.397,116.097z M318.312,113.717c1.309,0,2.074-0.663,2.074-1.921
		c0-1.24-0.765-1.87-2.074-1.87h-2.294v3.791H318.312z"/>
	<path fill="#FFFFFF" d="M340.616,113.479c0,3.468-2.754,6.103-6.442,6.103c-3.672,0-6.425-2.617-6.425-6.103
		c0-3.467,2.753-6.034,6.425-6.034C337.862,107.444,340.616,110.028,340.616,113.479z M330.841,113.496
		c0,2.006,1.547,3.553,3.366,3.553c1.836,0,3.298-1.547,3.298-3.553s-1.462-3.519-3.298-3.519S330.841,111.49,330.841,113.496z"/>
	<path fill="#FFFFFF" d="M351.071,107.547c2.668,0,4.369,1.155,4.369,2.975c0,1.258-0.782,2.261-2.04,2.617
		c1.496,0.289,2.448,1.462,2.448,3.009c0,2.023-1.768,3.298-4.572,3.298h-5.831v-11.898H351.071z M348.454,112.306h2.448
		c0.884,0,1.445-0.476,1.445-1.24c0-0.766-0.561-1.207-1.445-1.207h-2.448V112.306z M348.454,117.116h2.448
		c1.122,0,1.819-0.492,1.819-1.343c0-0.799-0.697-1.292-1.819-1.292h-2.448V117.116z"/>
	<path fill="#FFFFFF" d="M368.904,116.912v2.533h-8.074v-11.898h3.026v9.365H368.904z"/>
	<path fill="#FFFFFF" d="M376.605,109.926v2.363h5.677v2.38h-5.677v2.396h6.476v2.38h-9.502v-11.898h9.315v2.379H376.605z"/>
	<path fill="#FFFFFF" d="M398.67,119.445l-0.017-7.734l-2.855,6.545h-1.972l-2.856-6.545v7.734h-2.703v-11.916h3.314l3.23,7.089
		l3.229-7.089h3.298v11.916H398.67z"/>
	<path fill="#FFFFFF" d="M416.231,108.736l-1.14,2.363c-1.258-0.731-2.838-1.241-3.808-1.241c-0.781,0-1.309,0.289-1.309,0.867
		c0,2.057,6.289,0.884,6.289,5.185c0,2.379-2.107,3.637-4.759,3.637c-1.989,0-4.029-0.747-5.439-1.903l1.173-2.329
		c1.224,1.071,3.06,1.785,4.3,1.785c0.952,0,1.547-0.357,1.547-1.037c0-2.107-6.289-0.85-6.289-5.065
		c0-2.192,1.887-3.587,4.742-3.587C413.257,107.41,415.007,107.938,416.231,108.736z"/>
	<path fill="#FFFFFF" d="M431.021,117.253l-0.866,2.192h-3.111l5.134-11.898h3.11l5.015,11.898h-3.229l-0.85-2.192H431.021z
		 M433.64,110.556l-1.734,4.402h3.434L433.64,110.556z"/>
	<path fill="#FFFFFF" d="M452.951,119.445l-5.474-7.326v7.326h-2.839v-11.898h2.669l5.49,7.343v-7.343h2.822v11.898H452.951z"/>
	<path fill="#FFFFFF" d="M466.347,107.547c3.74,0,6.324,2.413,6.324,5.949c0,3.519-2.618,5.949-6.442,5.949h-4.998v-11.898H466.347z
		 M464.257,117.031h2.158c1.853,0,3.179-1.428,3.179-3.519c0-2.107-1.394-3.553-3.314-3.553h-2.022V117.031z"/>
	<path fill="#FFFFFF" d="M487.376,117.253l-0.866,2.192h-3.111l5.134-11.898h3.11l5.015,11.898h-3.229l-0.85-2.192H487.376z
		 M489.994,110.556l-1.734,4.402h3.434L489.994,110.556z"/>
	<path fill="#FFFFFF" d="M509.067,116.912v2.533h-8.074v-11.898h3.026v9.365H509.067z"/>
	<path fill="#FFFFFF" d="M524.112,109.45l-1.751,2.074c-0.782-0.952-1.938-1.547-2.991-1.547c-1.887,0-3.315,1.495-3.315,3.45
		c0,1.989,1.429,3.502,3.315,3.502c1.003,0,2.158-0.544,2.991-1.394l1.768,1.869c-1.274,1.31-3.161,2.176-4.912,2.176
		c-3.587,0-6.255-2.635-6.255-6.119c0-3.434,2.736-6.018,6.356-6.018C521.087,107.444,522.923,108.227,524.112,109.45z"/>
	<path fill="#FFFFFF" d="M540.619,113.479c0,3.468-2.754,6.103-6.442,6.103c-3.672,0-6.426-2.617-6.426-6.103
		c0-3.467,2.754-6.034,6.426-6.034C537.865,107.444,540.619,110.028,540.619,113.479z M530.845,113.496
		c0,2.006,1.547,3.553,3.365,3.553c1.836,0,3.298-1.547,3.298-3.553s-1.462-3.519-3.298-3.519
		C532.375,109.978,530.845,111.49,530.845,113.496z"/>
	<path fill="#FFFFFF" d="M553.403,119.445v-4.623h-4.93v4.623h-3.025v-11.898h3.025v4.896h4.93v-4.896h3.025v11.898H553.403z"/>
	<path fill="#FFFFFF" d="M574.126,113.479c0,3.468-2.754,6.103-6.442,6.103c-3.672,0-6.426-2.617-6.426-6.103
		c0-3.467,2.754-6.034,6.426-6.034C571.372,107.444,574.126,110.028,574.126,113.479z M564.352,113.496
		c0,2.006,1.547,3.553,3.365,3.553c1.836,0,3.298-1.547,3.298-3.553s-1.462-3.519-3.298-3.519
		C565.882,109.978,564.352,111.49,564.352,113.496z"/>
	<path fill="#FFFFFF" d="M587.029,116.912v2.533h-8.074v-11.898h3.025v9.365H587.029z"/>
	<path fill="#FFFFFF" d="M605.813,115.587c0,2.532-1.58,3.994-4.113,3.994c-1.683,0-3.043-0.696-4.097-1.903l1.395-2.023
		c0.85,0.885,1.802,1.326,2.498,1.326c0.799,0,1.275-0.493,1.275-1.462v-5.541h-4.08v-2.448h7.122V115.587z"/>
	<path fill="#FFFFFF" d="M621.93,114.448c0,3.145-2.091,5.133-5.423,5.133c-3.349,0-5.49-1.988-5.49-5.133v-6.901h3.025v6.901
		c0,1.614,1.037,2.601,2.481,2.601c1.429,0,2.397-0.986,2.397-2.601v-6.901h3.009V114.448z"/>
	<path fill="#FFFFFF" d="M636.601,108.736l-1.139,2.363c-1.258-0.731-2.839-1.241-3.808-1.241c-0.782,0-1.309,0.289-1.309,0.867
		c0,2.057,6.289,0.884,6.289,5.185c0,2.379-2.107,3.637-4.76,3.637c-1.988,0-4.028-0.747-5.439-1.903l1.173-2.329
		c1.224,1.071,3.06,1.785,4.301,1.785c0.952,0,1.547-0.357,1.547-1.037c0-2.107-6.289-0.85-6.289-5.065
		c0-2.192,1.887-3.587,4.742-3.587C633.626,107.41,635.377,107.938,636.601,108.736z"/>
	<path fill="#FFFFFF" d="M647.021,109.978v9.468h-3.025v-9.468h-3.553v-2.448h10.165v2.448H647.021z"/>
	<path fill="#FFFFFF" d="M272.77,143.253l-0.867,2.192h-3.111l5.133-11.898h3.111l5.015,11.898h-3.23l-0.85-2.192H272.77z
		 M275.388,136.556l-1.734,4.402h3.434L275.388,136.556z"/>
	<path fill="#FFFFFF" d="M291.503,133.547c3.74,0,6.324,2.413,6.324,5.949c0,3.519-2.618,5.949-6.442,5.949h-4.998v-11.898H291.503z
		 M289.413,143.031h2.159c1.853,0,3.179-1.428,3.179-3.519c0-2.107-1.394-3.553-3.315-3.553h-2.022V143.031z"/>
	<path fill="#FFFFFF" d="M307.772,133.547c3.74,0,6.324,2.413,6.324,5.949c0,3.519-2.618,5.949-6.442,5.949h-4.998v-11.898H307.772z
		 M305.682,143.031h2.159c1.853,0,3.179-1.428,3.179-3.519c0-2.107-1.394-3.553-3.315-3.553h-2.023V143.031z"/>
	<path fill="#FFFFFF" d="M321.951,135.926v2.363h5.677v2.38h-5.677v2.396h6.476v2.38h-9.502v-11.898h9.315v2.379H321.951z"/>
	<path fill="#FFFFFF" d="M338.729,133.547c3.74,0,6.324,2.413,6.324,5.949c0,3.519-2.618,5.949-6.442,5.949h-4.998v-11.898H338.729z
		 M336.639,143.031h2.159c1.853,0,3.179-1.428,3.179-3.519c0-2.107-1.394-3.553-3.315-3.553h-2.023V143.031z"/>
	<path fill="#FFFFFF" d="M359.759,143.253l-0.867,2.192h-3.111l5.133-11.898h3.111l5.015,11.898h-3.23l-0.85-2.192H359.759z
		 M362.376,136.556l-1.734,4.402h3.434L362.376,136.556z"/>
	<path fill="#FFFFFF" d="M390.953,145.445l-0.017-7.734l-2.855,6.545h-1.972l-2.856-6.545v7.734h-2.703v-11.916h3.314l3.23,7.089
		l3.229-7.089h3.298v11.916H390.953z"/>
	<path fill="#FFFFFF" d="M399.249,145.445v-11.898h3.026v11.898H399.249z"/>
	<path fill="#FFFFFF" d="M415.959,142.912v2.533h-8.074v-11.898h3.026v9.365H415.959z"/>
	<path fill="#FFFFFF" d="M428.709,142.912v2.533h-8.074v-11.898h3.026v9.365H428.709z"/>
	<path fill="#FFFFFF" d="M433.385,145.445v-11.898h3.026v11.898H433.385z"/>
	<path fill="#FFFFFF" d="M454.106,139.479c0,3.468-2.754,6.103-6.442,6.103c-3.672,0-6.425-2.617-6.425-6.103
		c0-3.467,2.753-6.034,6.425-6.034C451.353,133.444,454.106,136.028,454.106,139.479z M444.332,139.496
		c0,2.006,1.547,3.553,3.366,3.553c1.836,0,3.298-1.547,3.298-3.553s-1.462-3.519-3.298-3.519S444.332,137.49,444.332,139.496z"/>
	<path fill="#FFFFFF" d="M467.248,145.445l-5.474-7.326v7.326h-2.839v-11.898h2.669l5.49,7.343v-7.343h2.822v11.898H467.248z"/>
	<path fill="#FFFFFF" d="M493.104,145.445l-0.018-7.734l-2.855,6.545h-1.972l-2.855-6.545v7.734h-2.703v-11.916h3.314l3.23,7.089
		l3.229-7.089h3.298v11.916H493.104z"/>
	<path fill="#FFFFFF" d="M513.487,139.479c0,3.468-2.754,6.103-6.442,6.103c-3.672,0-6.425-2.617-6.425-6.103
		c0-3.467,2.753-6.034,6.425-6.034C510.733,133.444,513.487,136.028,513.487,139.479z M503.713,139.496
		c0,2.006,1.547,3.553,3.366,3.553c1.836,0,3.298-1.547,3.298-3.553s-1.462-3.519-3.298-3.519S503.713,137.49,503.713,139.496z"/>
	<path fill="#FFFFFF" d="M523.722,142.097h-0.085h-2.295v3.349h-3.025v-11.898h5.32c3.145,0,4.946,1.495,4.946,4.147
		c0,1.818-0.765,3.128-2.159,3.824l2.499,3.927h-3.434L523.722,142.097z M523.637,139.717c1.309,0,2.073-0.663,2.073-1.921
		c0-1.24-0.765-1.87-2.073-1.87h-2.295v3.791H523.637z"/>
	<path fill="#FFFFFF" d="M536.88,135.926v2.363h5.678v2.38h-5.678v2.396h6.477v2.38h-9.502v-11.898h9.314v2.379H536.88z"/>
</g>
<g>
	<g>
		<g>
			<path fill="#FFFFFF" d="M402.32,231.1c3.855,0.035,7.01-3.062,7.043-6.918c0.035-3.854-6.594-42.938-6.594-42.938
				s-7.332,38.957-7.367,42.812C395.368,227.912,398.465,231.065,402.32,231.1z"/>
		</g>
	</g>
	<g>
		<g>
			<path fill="#FFFFFF" d="M377.692,224.769c3.518,1.577,7.649,0.004,9.226-3.515c1.577-3.518,11.171-41.979,11.171-41.979
				s-22.333,32.75-23.911,36.268C372.602,219.061,374.174,223.191,377.692,224.769z"/>
		</g>
	</g>
	<g>
		<g>
			<path fill="#FFFFFF" d="M425.289,226.354c3.629-1.303,5.512-5.302,4.209-8.93c-1.305-3.628-21.072-37.989-21.072-37.989
				s6.629,39.082,7.932,42.711C417.662,225.773,421.66,227.659,425.289,226.354z"/>
		</g>
	</g>
	<g>
		<g>
			<path fill="#FFFFFF" d="M447.119,212.866c2.777-2.676,2.859-7.096,0.184-9.87c-2.676-2.776-34.781-26.029-34.781-26.029
				s22.053,32.94,24.729,35.717C439.926,215.459,444.346,215.541,447.119,212.866z"/>
		</g>
	</g>
	<g>
		<g>
			<path fill="#FFFFFF" d="M462.174,190.479c1.35-3.612-0.484-7.635-4.096-8.981c-3.612-1.349-42.612-8.457-42.612-8.457
				s34.115,20.188,37.729,21.536C456.806,195.925,460.828,194.091,462.174,190.479z"/>
		</g>
	</g>
	<g>
		<g>
			<path fill="#FFFFFF" d="M345.766,192.12c1.556,3.528,5.678,5.127,9.204,3.568c3.526-1.558,36.407-23.703,36.407-23.703
				s-38.517,9.373-42.044,10.931C345.805,184.474,344.207,188.596,345.766,192.12z"/>
		</g>
	</g>
	<g>
		<g>
			<path fill="#FFFFFF" d="M358.83,211.586c2.75,2.703,7.17,2.665,9.872-0.085c2.703-2.749,25.081-35.47,25.081-35.47
				s-32.333,22.935-35.036,25.684C356.044,204.464,356.081,208.886,358.83,211.586z"/>
		</g>
	</g>
</g>
<g>
	<rect x="293.667" y="160.737" fill="#FFFFFF" width="225.333" height="3"/>
</g>
<g>
	<circle fill="#FFFFFF" cx="403.294" cy="171.777" r="4.206"/>
</g>
</svg>
