<?xml version="1.0" encoding="utf-8"?>
<!-- Generator: Adobe Illustrator 16.0.0, SVG Export Plug-In . SVG Version: 6.00 Build 0)  -->
<!DOCTYPE svg PUBLIC "-//W3C//DTD SVG 1.1//EN" "http://www.w3.org/Graphics/SVG/1.1/DTD/svg11.dtd">
<svg version="1.1" id="Layer_1" xmlns="http://www.w3.org/2000/svg" xmlns:xlink="http://www.w3.org/1999/xlink" x="0px" y="0px"
	 width="477px" height="410.896px" viewBox="0 0 477 410.896" enable-background="new 0 0 477 410.896" xml:space="preserve">
<rect y="49.896" fill="#E5E5E5" width="477" height="361"/>
<line fill="none" stroke="#FFFFFF" stroke-miterlimit="10" x1="52.333" y1="74.229" x2="295" y2="74.229"/>
<line fill="none" stroke="#FFFFFF" stroke-miterlimit="10" x1="362.334" y1="74.229" x2="461.002" y2="74.229"/>
<line fill="none" stroke="#FFFFFF" stroke-miterlimit="10" x1="362.334" y1="125.229" x2="461.002" y2="125.229"/>
<line fill="none" stroke="#FFFFFF" stroke-miterlimit="10" x1="362.334" y1="175.229" x2="461.002" y2="175.229"/>
<line fill="none" stroke="#FFFFFF" stroke-miterlimit="10" x1="362.334" y1="226.229" x2="461.002" y2="226.229"/>
<line fill="none" stroke="#FFFFFF" stroke-miterlimit="10" x1="362.334" y1="277.229" x2="461.002" y2="277.229"/>
<line fill="none" stroke="#FFFFFF" stroke-miterlimit="10" x1="52.333" y1="106.229" x2="295" y2="106.229"/>
<line fill="none" stroke="#FFFFFF" stroke-miterlimit="10" x1="52.333" y1="138.229" x2="295" y2="138.229"/>
<line fill="none" stroke="#FFFFFF" stroke-miterlimit="10" x1="52.333" y1="170.229" x2="295" y2="170.229"/>
<line fill="none" stroke="#FFFFFF" stroke-miterlimit="10" x1="52.333" y1="202.229" x2="295" y2="202.229"/>
<line fill="none" stroke="#FFFFFF" stroke-miterlimit="10" x1="52.333" y1="232.229" x2="295" y2="232.229"/>
<line fill="none" stroke="#FFFFFF" stroke-miterlimit="10" x1="52.333" y1="265.229" x2="295" y2="265.229"/>
<line fill="none" stroke="#FFFFFF" stroke-miterlimit="10" x1="52.333" y1="297.229" x2="295" y2="297.229"/>
<rect x="67.333" y="301.563" fill="#ED5F5F" width="21.667" height="26.666"/>
<rect x="105.333" y="269.563" fill="#ED5F5F" width="21.667" height="58.666"/>
<rect x="377.334" y="268.231" fill="#19478A" width="21.666" height="59.998"/>
<rect x="144.333" y="211.23" fill="#ED5F5F" width="21.667" height="116.999"/>
<rect x="182.333" y="171.563" fill="#ED5F5F" width="21.667" height="156.666"/>
<rect x="220.333" y="128.896" fill="#ED5F5F" width="21.667" height="199.333"/>
<rect x="259.334" y="114.896" fill="#ED5F5F" width="21.666" height="213.333"/>
<rect x="422.334" y="94.23" fill="#19478A" width="21.666" height="233.999"/>
<line fill="none" stroke="#4F4F4F" stroke-miterlimit="10" x1="52.333" y1="328.229" x2="295" y2="328.229"/>
<line fill="none" stroke="#4F4F4F" stroke-miterlimit="10" x1="363.67" y1="328.229" x2="460" y2="328.229"/>
<text transform="matrix(1 0 0 1 41.333 332.5649)" fill="#3A3A3A" font-family="'Montserrat-Bold'" font-size="11">0</text>
<text transform="matrix(1 0 0 1 37.333 300.5649)" fill="#3A3A3A" font-family="'Montserrat-Bold'" font-size="11">10</text>
<text transform="matrix(1 0 0 1 35.333 269.5649)" fill="#3A3A3A" font-family="'Montserrat-Bold'" font-size="11">20</text>
<text transform="matrix(1 0 0 1 35.333 236.5649)" fill="#3A3A3A" font-family="'Montserrat-Bold'" font-size="11">30</text>
<text transform="matrix(1 0 0 1 352.333 332.5649)" fill="#3A3A3A" font-family="'Montserrat-Bold'" font-size="11">0</text>
<text transform="matrix(1 0 0 1 345.333 229.5649)" fill="#3A3A3A" font-family="'Montserrat-Bold'" font-size="11">20</text>
<text transform="matrix(1 0 0 1 345.333 179.5649)" fill="#3A3A3A" font-family="'Montserrat-Bold'" font-size="11">30</text>
<text transform="matrix(1 0 0 1 345.333 129.5649)" fill="#3A3A3A" font-family="'Montserrat-Bold'" font-size="11">40</text>
<text transform="matrix(1 0 0 1 345.333 78.5649)" fill="#3A3A3A" font-family="'Montserrat-Bold'" font-size="11">50</text>
<text transform="matrix(1 0 0 1 347.333 281.5649)" fill="#3A3A3A" font-family="'Montserrat-Bold'" font-size="11">10</text>
<text transform="matrix(1 0 0 1 35.333 205.5649)" fill="#3A3A3A" font-family="'Montserrat-Bold'" font-size="11">40</text>
<text transform="matrix(1 0 0 1 35.333 173.5649)" fill="#3A3A3A" font-family="'Montserrat-Bold'" font-size="11">50</text>
<text transform="matrix(1 0 0 1 35.333 142.5649)" fill="#3A3A3A" font-family="'Montserrat-Bold'" font-size="11">60</text>
<text transform="matrix(1 0 0 1 35.333 110.5649)" fill="#3A3A3A" font-family="'Montserrat-Bold'" font-size="11">70</text>
<text transform="matrix(1 0 0 1 35.333 78.5649)" fill="#3A3A3A" font-family="'Montserrat-Bold'" font-size="11">80</text>
<text transform="matrix(0 -1 1 0 27.3438 265.23)" font-family="'Montserrat-Regular'" font-size="11">Estimated percent</text>
<text transform="matrix(0 -1 1 0 338.3438 265.23)" font-family="'Montserrat-Regular'" font-size="11">Estimated percent</text>
<text transform="matrix(1 0 0 1 63.603 340.8989)"><tspan x="0" y="0" font-family="'Montserrat-Regular'" font-size="8">Grade</tspan><tspan x="12.284" y="9.6" font-family="'Montserrat-Regular'" font-size="8">7</tspan></text>
<text transform="matrix(1 0 0 1 102.603 340.8989)"><tspan x="0" y="0" font-family="'Montserrat-Regular'" font-size="8">Grade</tspan><tspan x="12.06" y="9.6" font-family="'Montserrat-Regular'" font-size="8">8</tspan></text>
<text transform="matrix(1 0 0 1 141.603 340.8989)"><tspan x="0" y="0" font-family="'Montserrat-Regular'" font-size="8">Grade</tspan><tspan x="12.104" y="9.6" font-family="'Montserrat-Regular'" font-size="8">9</tspan></text>
<text transform="matrix(1 0 0 1 178.603 340.8989)"><tspan x="0" y="0" font-family="'Montserrat-Regular'" font-size="8">Grade</tspan><tspan x="10.252" y="9.6" font-family="'Montserrat-Regular'" font-size="8">10</tspan></text>
<text transform="matrix(1 0 0 1 217.603 340.8989)"><tspan x="0" y="0" font-family="'Montserrat-Regular'" font-size="8">Grade</tspan><tspan x="11.468" y="9.6" font-family="'Montserrat-Regular'" font-size="8">11</tspan></text>
<text transform="matrix(1 0 0 1 255.6035 340.8989)"><tspan x="0" y="0" font-family="'Montserrat-Regular'" font-size="8">Grade</tspan><tspan x="10.664" y="9.6" font-family="'Montserrat-Regular'" font-size="8">12</tspan></text>
<text transform="matrix(1 0 0 1 373.6035 340.8989)"><tspan x="0" y="0" font-family="'Montserrat-Regular'" font-size="8">Grade</tspan><tspan x="8.352" y="9.6" font-family="'Montserrat-Regular'" font-size="8">7-9</tspan></text>
<text transform="matrix(1 0 0 1 418.6035 340.8989)"><tspan x="0" y="0" font-family="'Montserrat-Regular'" font-size="8">Grade</tspan><tspan x="4.879" y="9.6" font-family="'Montserrat-Regular'" font-size="8">10-12</tspan></text>
<rect x="18.5" y="363.396" fill="#C7CAC2" width="276.5" height="29.5"/>
<rect x="330.5" y="363.396" fill="#C7CAC2" width="128.5" height="29.5"/>
<text transform="matrix(1 0 0 1 155.167 382.396)" font-family="'Montserrat-Bold'" font-size="12">A</text>
<text transform="matrix(1 0 0 1 397.167 382.396)" font-family="'Montserrat-Bold'" font-size="12">B</text>
<rect fill="#333032" width="477" height="51.896"/>
<text transform="matrix(1 0 0 1 16.5 22.896)"><tspan x="0" y="0" fill="#DFE1DC" font-family="'Montserrat-Light'" font-size="13">What Percent age of students A) Drank Alcohol</tspan><tspan x="0" y="15.6" fill="#DFE1DC" font-family="'Montserrat-Light'" font-size="13">or B) undertook binge drinking in 2012-2013?</tspan></text>
</svg>
