<?xml version="1.0" encoding="utf-8"?>
<!-- Generator: Adobe Illustrator 16.0.0, SVG Export Plug-In . SVG Version: 6.00 Build 0)  -->
<!DOCTYPE svg PUBLIC "-//W3C//DTD SVG 1.1//EN" "http://www.w3.org/Graphics/SVG/1.1/DTD/svg11.dtd">
<svg version="1.1" id="Layer_1" xmlns="http://www.w3.org/2000/svg" xmlns:xlink="http://www.w3.org/1999/xlink" x="0px" y="0px"
	 width="369px" height="295px" viewBox="0 0 369 295" enable-background="new 0 0 369 295" xml:space="preserve">
<path fill="none" stroke="#7A3A19" stroke-width="8" stroke-linecap="round" stroke-linejoin="round" stroke-miterlimit="10" d="
	M200.718,119.104c-1.826,5.612-6.549,10.548-9.481,15.666c-5.06,8.831-10.714,17.229-15.643,26.14
	c-6.266,11.326-10.212,23.591-15.434,35.401c-7.912,17.896-18.662,38.472-21.222,58.038c-1.641,12.542,7.874,16.274,18.066,18.784
	c13.786,3.395,0.042-10.049-5.142-12.688c-2.815-1.433-10.594-3.275-10.856-6.136"/>
<path fill="none" stroke="#7A3A19" stroke-width="8" stroke-linecap="round" stroke-linejoin="round" stroke-miterlimit="10" d="
	M211.733,113.458c-0.445,5.885-3.865,11.799-5.502,17.466c-2.824,9.777-6.33,19.276-9.009,29.1
	c-3.406,12.488-4.337,25.338-6.612,38.05c-3.45,19.261-9.023,41.796-6.877,61.412c1.375,12.574,11.504,13.947,22,13.973
	c14.197,0.034-2.338-9.773-8-11.109c-3.074-0.726-11.068-0.674-12-3.391"/>
<path fill="#F2C7C7" d="M184.409,165.802c-3.329,6.117-7.51,11.499-9.013,18.507c-1.249,5.82-1.468,11.576-1.774,17.454
	c-2.606-0.472-5.497-0.556-8.212-0.962c-2.103-0.314-4.924-1.699-6.964-1.038c-0.291-5.13-1.108-10.72,0.275-15.656
	c2.084-7.441,5.379-15.333,9.876-21.562c1.273-1.765,2.494-4.418,4-5.993c1.784-1.866,3.302-0.431,5.755,0.312
	c1.865,0.565,3.848,1.372,4.869,3.119c0.941,1.613,0.332,3.421,0.938,5.068"/>
<path fill="#CE6363" d="M114.763,159.147c0,16.845,15.67,30.5,35,30.5s28-13.655,28-30.5s-8.67-30.5-28-30.5
	S114.763,142.302,114.763,159.147z"/>
<path fill="#F3B8B8" d="M94.312,100.599c0.964-13.652,12.813-23.938,26.466-22.975c1.004,0.072,1.988,0.208,2.953,0.393
	c4.105-10.523,14.695-17.628,26.557-16.791c4.779,0.338,9.167,1.929,12.878,4.42c5.294-9.961,16.097-16.408,28.073-15.562
	c9.146,0.646,17.021,5.406,21.942,12.344c5.202-3.266,11.446-4.973,18.041-4.508c11.1,0.784,20.354,7.517,24.886,16.857
	c18.275,2.336,31.76,18.566,30.445,37.175c-1.239,17.553-15.218,31.159-32.26,32.434c-4.217,13.494-16.785,23.055-31.301,23.123
	c-7.242,7.516-17.638,11.891-28.864,11.098c-9.45-0.666-17.804-4.877-23.858-11.237c-4.932,3.726-11.176,5.757-17.826,5.286
	c-7.824-0.552-14.611-4.449-19.07-10.194c-3.103,0.958-6.429,1.377-9.863,1.134c-14.875-1.05-26.081-13.96-25.031-28.834
	c0.353-4.983,2.041-9.552,4.682-13.388C97.263,116.443,93.729,108.853,94.312,100.599z"/>
<path fill="none" stroke="#CE6363" stroke-width="7" stroke-linecap="round" stroke-linejoin="round" stroke-miterlimit="10" d="
	M253.374,141.957c-3.068-5.189-4.145-12.493-12.524-15.237c-6.884-2.255-12.819-0.905-18.725,2.521"/>
<path fill="none" stroke="#CE6363" stroke-width="7" stroke-linecap="round" stroke-linejoin="round" stroke-miterlimit="10" d="
	M216.134,109.035c1.22,9.454,8.064,17.32,6.701,27.675c-0.996,7.559-7.471,11.968-13.389,14.51"/>
<path fill="none" stroke="#CE6363" stroke-width="7" stroke-linecap="round" stroke-linejoin="round" stroke-miterlimit="10" d="
	M130.13,86.767c7.595,9.557,10.46,20.165,2.275,31.615c-5.383,7.526-19.248,11.765-26.961,5.295"/>
<path fill="none" stroke="#CE6363" stroke-width="7" stroke-linecap="round" stroke-linejoin="round" stroke-miterlimit="10" d="
	M145.706,147.051c0.521-7.375,1.735-13.109-2.652-19.234c-3.141-4.386-7.01-5.542-11.523-7.163"/>
<path fill="none" stroke="#CE6363" stroke-width="7" stroke-linecap="round" stroke-linejoin="round" stroke-miterlimit="10" d="
	M255.194,76.906c-0.053,4.362-3.342,6.008-6.125,8.577c-3.444,3.179-6.477,4.795-11.145,5.296
	c-3.803,0.408-7.465,0.293-11.238-0.543c-4.593-1.017-6.959-3.085-10.618-5.818"/>
<path fill="none" stroke="#CE6363" stroke-width="7" stroke-linecap="round" stroke-linejoin="round" stroke-miterlimit="10" d="
	M196.634,125.401c-8.224-2.797-16.113-3.581-21.604,4.238c-1.614,2.301-3.027,5.006-3.307,7.788
	c-0.375,3.756,1.266,5.446,2.661,8.457"/>
<path fill="none" stroke="#CE6363" stroke-width="7" stroke-linecap="round" stroke-linejoin="round" stroke-miterlimit="10" d="
	M163.954,66.453c0.158,1.971,2.895,3.098,4.196,4.477c1.719,1.816,2.725,3.485,4.929,4.744c2.717,1.553,5.914,2.52,8.822,2.817
	c4.473,0.459,13.377-0.089,15.152-5.189"/>
<path fill="none" stroke="#CE6363" stroke-width="7" stroke-linecap="round" stroke-linejoin="round" stroke-miterlimit="10" d="
	M161.809,100.386c7.083,3.037,18.217,2.613,22.346-4.994c2.157-3.977,4.358-10.461,0.812-14.173"/>
<path fill="none" stroke="#7A3A19" stroke-width="8" stroke-linecap="round" stroke-linejoin="round" stroke-miterlimit="10" d="
	M274,114.093c3.393,1.455,10.075,1.502,14.114,2.519c6.704,1.687,10.923,3.947,16.057-0.491
	c7.604-6.573,13.135-16.761,20.347-24.078c3.468-3.519,8.886-7.417,10.134-12.201c1.229-4.71-1.711-9.812,1.349-14.415
	c2.558-3.848,7.749-5.386,10.683-2.016c7.184,8.255-6.299,13.069-10.683,16.682"/>
<path fill="none" stroke="#7A3A19" stroke-width="8" stroke-linecap="round" stroke-linejoin="round" stroke-miterlimit="10" d="
	M108.752,114.093c-3.393,1.455-10.074,1.502-14.113,2.519c-6.704,1.687-10.924,3.947-16.058-0.491
	c-7.604-6.573-13.135-16.761-20.347-24.078c-3.468-3.519-8.886-7.417-10.134-12.201c-1.229-4.71,1.711-9.812-1.349-14.415
	c-2.558-3.848-7.749-5.386-10.683-2.016c-7.184,8.255,6.299,13.069,10.683,16.682"/>
<g>
	<path fill="#E9F6F6" d="M53.229,91.035c-5.581,0.286-11.12-5.621-11.12-5.621l-0.031-28.512l28.593-28.594H10.796L39.39,56.902
		v28.512c0,0-5.54,5.907-11.12,5.621H53.229z"/>
	<g opacity="0.4">
		<path fill="#D3E0E0" d="M28.27,91.035c0.237,0.011,0.474,0.01,0.709,0H28.27z"/>
		<path fill="#D3E0E0" d="M40.764,28.308H10.796L39.39,56.902v28.512c0,0-5.079,5.411-10.41,5.621h11.784V28.308z"/>
	</g>
	<polygon fill="#B6D29A" points="41.763,53.152 63.667,31.25 17.801,31.25 39.704,53.152 	"/>
	<polygon fill="#F4F0DF" points="42.575,47.873 39.748,51.39 42.348,47.701 63.483,19.497 63.711,19.667 	"/>
	<g>
		
			<ellipse transform="matrix(0.7731 -0.6343 0.6343 0.7731 -15.8626 39.155)" fill="#9AA958" cx="46.799" cy="41.75" rx="2.769" ry="3.829"/>
		
			<ellipse transform="matrix(0.7732 -0.6341 0.6341 0.7732 -16.7819 40.4878)" fill="#C53E3C" cx="48.22" cy="43.709" rx="0.876" ry="0.676"/>
	</g>
</g>
<g>
	<path fill="#E9F6F6" d="M53.229,91.035c-5.581,0.286-11.12-5.621-11.12-5.621l-0.031-28.512l28.593-28.594H10.796L39.39,56.902
		v28.512c0,0-5.54,5.907-11.12,5.621H53.229z"/>
	<g opacity="0.4">
		<path fill="#D3E0E0" d="M28.27,91.035c0.237,0.011,0.474,0.01,0.709,0H28.27z"/>
		<path fill="#D3E0E0" d="M40.764,28.308H10.796L39.39,56.902v28.512c0,0-5.079,5.411-10.41,5.621h11.784V28.308z"/>
	</g>
	<polygon fill="#B6D29A" points="41.763,53.152 63.667,31.25 17.801,31.25 39.704,53.152 	"/>
	<polygon fill="#F4F0DF" points="42.575,47.873 39.748,51.39 42.348,47.701 63.483,19.497 63.711,19.667 	"/>
	<g>
		
			<ellipse transform="matrix(0.7731 -0.6343 0.6343 0.7731 -15.8626 39.155)" fill="#9AA958" cx="46.799" cy="41.75" rx="2.769" ry="3.829"/>
		
			<ellipse transform="matrix(0.7732 -0.6341 0.6341 0.7732 -16.7819 40.4878)" fill="#C53E3C" cx="48.22" cy="43.709" rx="0.876" ry="0.676"/>
	</g>
</g>
<path d="M141.44,90.108c-0.702,2.041-1.102,4.221-1.102,6.5v6.991c0,11.046,8.954,20,20,20h6.991c11.046,0,20-8.954,20-20v-6.991
	c0-2.279-0.399-4.459-1.102-6.5H141.44z"/>
<path d="M197.943,90.108c-0.702,2.041-1.102,4.221-1.102,6.5v6.991c0,11.046,8.954,20,20,20h6.991c11.046,0,20-8.954,20-20v-6.991
	c0-2.279-0.399-4.459-1.102-6.5H197.943z"/>
<path d="M249.73,88.608c0,1.933-1.646,3.5-3.677,3.5H139.016c-2.031,0-3.677-1.567-3.677-3.5l0,0c0-1.933,1.646-3.5,3.677-3.5
	h107.038C248.084,85.108,249.73,86.675,249.73,88.608L249.73,88.608z"/>
<line fill="none" stroke="#000000" stroke-width="5" stroke-miterlimit="10" x1="183.255" y1="100.426" x2="202.667" y2="100.426"/>
</svg>
