<?xml version="1.0" encoding="utf-8"?>
<!-- Generator: Adobe Illustrator 16.0.0, SVG Export Plug-In . SVG Version: 6.00 Build 0)  -->
<!DOCTYPE svg PUBLIC "-//W3C//DTD SVG 1.1//EN" "http://www.w3.org/Graphics/SVG/1.1/DTD/svg11.dtd">
<svg version="1.1" id="Layer_1" xmlns="http://www.w3.org/2000/svg" xmlns:xlink="http://www.w3.org/1999/xlink" x="0px" y="0px"
	 width="792px" height="98px" viewBox="0 0 792 98" enable-background="new 0 0 792 98" xml:space="preserve">
<path fill="#0D1E32" d="M766.874,24.256l-23.267-13.433c-1.357-0.784-3.031-0.784-4.389,0c-1.358,0.784-2.195,2.233-2.195,3.802
	v6.848H19.585c-3.637,0-6.585,2.948-6.585,6.585c0,3.636,2.948,6.584,6.585,6.584h717.438v6.848c0,1.568,0.837,3.018,2.195,3.801
	c0.679,0.393,1.437,0.588,2.195,0.588c0.757,0,1.515-0.196,2.193-0.588l23.267-13.433c1.358-0.784,2.195-2.233,2.195-3.801
	S768.232,25.041,766.874,24.256z"/>
<path fill="#0D1E32" d="M766.874,69.85l-23.267-13.433c-1.357-0.784-3.031-0.784-4.389,0c-1.358,0.784-2.195,2.233-2.195,3.802
	v6.848H19.585c-3.637,0-6.585,2.948-6.585,6.585s2.948,6.585,6.585,6.585h717.438v6.848c0,1.568,0.837,3.018,2.195,3.802
	c0.679,0.392,1.437,0.588,2.195,0.588c0.757,0,1.515-0.196,2.193-0.588l23.267-13.433c1.358-0.784,2.195-2.233,2.195-3.802
	S768.232,70.634,766.874,69.85z"/>
<g>
	<path fill="#FFFFFF" d="M342.459,32.009l-3.533-4.729v4.729h-1.832v-7.68h1.723l3.544,4.74v-4.74h1.821v7.68H342.459z"/>
	<path fill="#FFFFFF" d="M347.673,25.864v1.525h3.665v1.536h-3.665v1.547h4.18v1.536h-6.133v-7.68h6.013v1.536H347.673z"/>
	<path fill="#FFFFFF" d="M360.029,28.783c0,2.03-1.351,3.314-3.5,3.314c-2.162,0-3.545-1.284-3.545-3.314v-4.454h1.954v4.454
		c0,1.042,0.669,1.679,1.602,1.679c0.922,0,1.547-0.637,1.547-1.679v-4.454h1.942V28.783z"/>
	<path fill="#FFFFFF" d="M364.925,29.847h-0.056h-1.48v2.162h-1.954v-7.68h3.435c2.03,0,3.193,0.965,3.193,2.677
		c0,1.174-0.494,2.019-1.394,2.469l1.613,2.535h-2.217L364.925,29.847z M364.869,28.311c0.846,0,1.339-0.428,1.339-1.24
		c0-0.801-0.493-1.207-1.339-1.207h-1.48v2.447H364.869z"/>
	<path fill="#FFFFFF" d="M377.182,28.158c0,2.238-1.777,3.939-4.158,3.939c-2.37,0-4.146-1.69-4.146-3.939
		c0-2.239,1.776-3.895,4.146-3.895C375.404,24.263,377.182,25.93,377.182,28.158z M370.873,28.168c0,1.294,0.999,2.293,2.173,2.293
		c1.185,0,2.129-0.999,2.129-2.293s-0.944-2.271-2.129-2.271C371.86,25.897,370.873,26.874,370.873,28.168z"/>
	<path fill="#FFFFFF" d="M384.864,28.103v2.996c-0.823,0.582-2.117,0.999-3.192,0.999c-2.337,0-4.104-1.69-4.104-3.928
		c0-2.227,1.811-3.906,4.235-3.906c1.141,0,2.348,0.438,3.137,1.141l-1.097,1.328c-0.56-0.516-1.338-0.834-2.051-0.834
		c-1.263,0-2.228,0.987-2.228,2.271c0,1.306,0.977,2.293,2.248,2.293c0.396,0,0.9-0.143,1.361-0.373v-1.986H384.864z"/>
	<path fill="#FFFFFF" d="M388.18,25.864v1.525h3.665v1.536h-3.665v1.547h4.181v1.536h-6.133v-7.68h6.012v1.536H388.18z"/>
	<path fill="#FFFFFF" d="M398.989,32.009l-3.533-4.729v4.729h-1.832v-7.68h1.723l3.544,4.74v-4.74h1.821v7.68H398.989z"/>
	<path fill="#FFFFFF" d="M404.203,25.864v1.525h3.665v1.536h-3.665v1.547h4.18v1.536h-6.133v-7.68h6.013v1.536H404.203z"/>
	<path fill="#FFFFFF" d="M415.626,25.097l-0.734,1.525c-0.812-0.472-1.833-0.801-2.457-0.801c-0.505,0-0.846,0.187-0.846,0.56
		c0,1.327,4.06,0.57,4.06,3.346c0,1.536-1.36,2.348-3.072,2.348c-1.283,0-2.601-0.482-3.511-1.229l0.757-1.503
		c0.79,0.691,1.975,1.152,2.776,1.152c0.614,0,0.998-0.23,0.998-0.669c0-1.361-4.06-0.549-4.06-3.27
		c0-1.416,1.219-2.315,3.062-2.315C413.706,24.24,414.836,24.581,415.626,25.097z"/>
	<path fill="#FFFFFF" d="M416.715,32.009v-7.68h1.953v7.68H416.715z"/>
	<path fill="#FFFFFF" d="M426.185,25.097l-0.735,1.525c-0.812-0.472-1.832-0.801-2.458-0.801c-0.505,0-0.845,0.187-0.845,0.56
		c0,1.327,4.06,0.57,4.06,3.346c0,1.536-1.36,2.348-3.072,2.348c-1.283,0-2.6-0.482-3.511-1.229l0.757-1.503
		c0.79,0.691,1.976,1.152,2.776,1.152c0.614,0,0.998-0.23,0.998-0.669c0-1.361-4.06-0.549-4.06-3.27
		c0-1.416,1.218-2.315,3.062-2.315C424.264,24.24,425.395,24.581,426.185,25.097z"/>
</g>
<g>
	<path fill="#FFFFFF" d="M335.875,77.841l-3.533-4.729v4.729h-1.832V70.16h1.722l3.545,4.741V70.16h1.821v7.681H335.875z"/>
	<path fill="#FFFFFF" d="M341.088,71.696v1.525h3.665v1.536h-3.665v1.547h4.182v1.536h-6.134V70.16h6.013v1.537H341.088z"/>
	<path fill="#FFFFFF" d="M353.445,74.615c0,2.03-1.35,3.314-3.501,3.314c-2.161,0-3.544-1.284-3.544-3.314V70.16h1.953v4.455
		c0,1.042,0.67,1.679,1.602,1.679c0.922,0,1.547-0.636,1.547-1.679V70.16h1.943V74.615z"/>
	<path fill="#FFFFFF" d="M358.341,75.679h-0.056h-1.481v2.162h-1.952V70.16h3.434c2.03,0,3.193,0.966,3.193,2.678
		c0,1.173-0.494,2.018-1.394,2.468l1.612,2.535h-2.216L358.341,75.679z M358.285,74.143c0.845,0,1.339-0.428,1.339-1.24
		c0-0.801-0.494-1.207-1.339-1.207h-1.481v2.447H358.285z"/>
	<path fill="#FFFFFF" d="M370.598,73.99c0,2.238-1.777,3.939-4.158,3.939c-2.37,0-4.147-1.69-4.147-3.939
		c0-2.238,1.777-3.896,4.147-3.896C368.82,70.094,370.598,71.762,370.598,73.99z M364.289,74c0,1.295,0.998,2.293,2.172,2.293
		c1.185,0,2.129-0.998,2.129-2.293c0-1.294-0.944-2.271-2.129-2.271S364.289,72.706,364.289,74z"/>
	<path fill="#FFFFFF" d="M374.978,70.16c1.964,0,3.094,0.966,3.094,2.678c0,1.799-1.13,2.841-3.094,2.841h-1.394v2.162h-1.953V70.16
		H374.978z M373.584,74.143h1.295c0.856,0,1.35-0.428,1.35-1.24c0-0.801-0.493-1.207-1.35-1.207h-1.295V74.143z"/>
	<path fill="#FFFFFF" d="M384.307,76.206v1.635h-5.213V70.16h1.953v6.046H384.307z"/>
	<path fill="#FFFFFF" d="M387.018,76.425l-0.56,1.416h-2.009l3.313-7.681h2.008l3.237,7.681h-2.084l-0.55-1.416H387.018z
		 M388.706,72.103l-1.118,2.842h2.216L388.706,72.103z"/>
	<path fill="#FFFFFF" d="M399.67,70.928l-0.735,1.525c-0.812-0.472-1.832-0.801-2.458-0.801c-0.504,0-0.845,0.187-0.845,0.56
		c0,1.328,4.06,0.571,4.06,3.347c0,1.536-1.36,2.348-3.072,2.348c-1.283,0-2.6-0.482-3.511-1.229l0.757-1.503
		c0.79,0.691,1.976,1.152,2.776,1.152c0.614,0,0.998-0.23,0.998-0.669c0-1.36-4.06-0.549-4.06-3.27c0-1.416,1.218-2.315,3.062-2.315
		C397.75,70.072,398.88,70.412,399.67,70.928z"/>
	<path fill="#FFFFFF" d="M404.312,71.729v6.112h-1.953v-6.112h-2.293v-1.58h6.562v1.58H404.312z"/>
	<path fill="#FFFFFF" d="M407.463,77.841V70.16h1.953v7.681H407.463z"/>
	<path fill="#FFFFFF" d="M417.646,71.389l-1.131,1.338c-0.505-0.614-1.25-0.999-1.931-0.999c-1.218,0-2.14,0.966-2.14,2.228
		c0,1.284,0.922,2.261,2.14,2.261c0.647,0,1.394-0.351,1.931-0.9l1.142,1.207c-0.823,0.845-2.041,1.405-3.171,1.405
		c-2.315,0-4.038-1.701-4.038-3.95c0-2.216,1.767-3.884,4.104-3.884C415.693,70.094,416.878,70.599,417.646,71.389z"/>
	<path fill="#FFFFFF" d="M418.547,77.841V70.16h1.953v7.681H418.547z"/>
	<path fill="#FFFFFF" d="M425.592,71.729v6.112h-1.953v-6.112h-2.293v-1.58h6.562v1.58H425.592z"/>
	<path fill="#FFFFFF" d="M432.703,77.841h-1.941v-2.425l-2.842-5.256h1.953l1.854,3.347l1.812-3.347h1.952l-2.787,5.201V77.841z"/>
</g>
</svg>
