<?xml version="1.0" encoding="utf-8"?>
<!-- Generator: Adobe Illustrator 16.0.0, SVG Export Plug-In . SVG Version: 6.00 Build 0)  -->
<!DOCTYPE svg PUBLIC "-//W3C//DTD SVG 1.1//EN" "http://www.w3.org/Graphics/SVG/1.1/DTD/svg11.dtd">
<svg version="1.1" id="Layer_1" xmlns="http://www.w3.org/2000/svg" xmlns:xlink="http://www.w3.org/1999/xlink" x="0px" y="0px"
	 width="897px" height="85px" viewBox="0 0 897 85" enable-background="new 0 0 897 85" xml:space="preserve">
<g>
	<path fill="#4D5C29" d="M342.473,36.028v3.24h6.281v2.801h-6.281v5.161h-3.561V33.227h10.382v2.801H342.473z"/>
	<path fill="#4D5C29" d="M365.215,40.208c0,4.081-3.241,7.182-7.582,7.182c-4.321,0-7.562-3.081-7.562-7.182
		c0-4.081,3.241-7.102,7.562-7.102C361.974,33.107,365.215,36.148,365.215,40.208z M353.712,40.228c0,2.361,1.82,4.182,3.96,4.182
		c2.161,0,3.881-1.82,3.881-4.182c0-2.36-1.72-4.141-3.881-4.141C355.513,36.087,353.712,37.868,353.712,40.228z"/>
	<path fill="#4D5C29" d="M373.453,43.29h-0.1h-2.701v3.94h-3.561V33.227h6.261c3.701,0,5.821,1.761,5.821,4.881
		c0,2.141-0.9,3.681-2.541,4.501l2.94,4.621h-4.041L373.453,43.29z M373.353,40.489c1.541,0,2.44-0.78,2.44-2.261
		c0-1.46-0.9-2.2-2.44-2.2h-2.701v4.461H373.353z"/>
	<path fill="#4D5C29" d="M392.693,36.087V47.23h-3.561V36.087h-4.181v-2.881h11.962v2.881H392.693z"/>
	<path fill="#4D5C29" d="M407.793,47.23v-5.441h-5.801v5.441h-3.561V33.227h3.561v5.761h5.801v-5.761h3.562V47.23H407.793z"/>
	<path fill="#4D5C29" d="M417.712,36.028v2.78h6.682v2.801h-6.682v2.82h7.622v2.801h-11.183V33.227h10.962v2.801H417.712z"/>
	<path fill="#4D5C29" d="M441.672,36.087V47.23h-3.561V36.087h-4.181v-2.881h11.962v2.881H441.672z"/>
	<path fill="#4D5C29" d="M453.432,33.227c4.401,0,7.441,2.841,7.441,7.001c0,4.142-3.08,7.002-7.581,7.002h-5.882V33.227H453.432z
		 M450.971,44.389h2.541c2.181,0,3.74-1.68,3.74-4.141c0-2.48-1.64-4.181-3.9-4.181h-2.381V44.389z"/>
	<path fill="#4D5C29" d="M473.652,34.627l-1.34,2.78c-1.48-0.86-3.341-1.46-4.48-1.46c-0.921,0-1.541,0.34-1.541,1.021
		c0,2.42,7.402,1.04,7.402,6.101c0,2.801-2.48,4.281-5.602,4.281c-2.341,0-4.741-0.88-6.402-2.24l1.381-2.741
		c1.44,1.261,3.602,2.101,5.061,2.101c1.121,0,1.821-0.42,1.821-1.22c0-2.48-7.401-1.001-7.401-5.962c0-2.58,2.221-4.221,5.58-4.221
		C470.152,33.067,472.213,33.687,473.652,34.627z"/>
	<path fill="#4D5C29" d="M482.252,33.227c3.141,0,5.141,1.36,5.141,3.501c0,1.48-0.92,2.66-2.4,3.08
		c1.761,0.341,2.881,1.721,2.881,3.541c0,2.381-2.08,3.881-5.381,3.881h-6.861V33.227H482.252z M479.172,38.829h2.881
		c1.039,0,1.699-0.561,1.699-1.461s-0.66-1.42-1.699-1.42h-2.881V38.829z M479.172,44.49h2.881c1.32,0,2.14-0.58,2.14-1.581
		c0-0.939-0.819-1.52-2.14-1.52h-2.881V44.49z"/>
	<path fill="#4D5C29" d="M500.932,43.29h-0.1h-2.701v3.94h-3.561V33.227h6.262c3.7,0,5.82,1.761,5.82,4.881
		c0,2.141-0.899,3.681-2.54,4.501l2.94,4.621h-4.041L500.932,43.29z M500.832,40.489c1.54,0,2.44-0.78,2.44-2.261
		c0-1.46-0.9-2.2-2.44-2.2h-2.701v4.461H500.832z"/>
	<path fill="#4D5C29" d="M512.611,36.028v2.78h6.682v2.801h-6.682v2.82h7.622v2.801h-11.183V33.227h10.962v2.801H512.611z"/>
	<path fill="#4D5C29" d="M534.913,40.109v5.461c-1.501,1.06-3.861,1.82-5.821,1.82c-4.261,0-7.481-3.081-7.481-7.162
		c0-4.061,3.301-7.121,7.722-7.121c2.08,0,4.28,0.8,5.721,2.08l-2,2.421c-1.021-0.94-2.44-1.521-3.741-1.521
		c-2.301,0-4.061,1.801-4.061,4.141c0,2.381,1.78,4.182,4.101,4.182c0.721,0,1.641-0.261,2.48-0.681v-3.62H534.913z"/>
	<path fill="#4D5C29" d="M540.571,44.65l-1.021,2.58h-3.66l6.041-14.003h3.66l5.901,14.003h-3.801l-1-2.58H540.571z M543.652,36.768
		l-2.041,5.181h4.041L543.652,36.768z"/>
	<path fill="#4D5C29" d="M559.151,43.29h-0.1h-2.701v3.94h-3.561V33.227h6.262c3.7,0,5.82,1.761,5.82,4.881
		c0,2.141-0.899,3.681-2.54,4.501l2.94,4.621h-4.041L559.151,43.29z M559.052,40.489c1.54,0,2.44-0.78,2.44-2.261
		c0-1.46-0.9-2.2-2.44-2.2h-2.701v4.461H559.052z"/>
	<path fill="#4D5C29" d="M573.291,33.227c4.4,0,7.441,2.841,7.441,7.001c0,4.142-3.081,7.002-7.582,7.002h-5.881V33.227H573.291z
		 M570.83,44.389h2.541c2.18,0,3.74-1.68,3.74-4.141c0-2.48-1.641-4.181-3.9-4.181h-2.381V44.389z"/>
	<path fill="#4D5C29" d="M582.61,47.23V33.227h3.561V47.23H582.61z"/>
	<path fill="#4D5C29" d="M598.752,47.23l-6.441-8.622v8.622h-3.341V33.227h3.141l6.461,8.642v-8.642h3.321V47.23H598.752z"/>
	<path fill="#4D5C29" d="M617.072,40.109v5.461c-1.501,1.06-3.861,1.82-5.821,1.82c-4.261,0-7.481-3.081-7.481-7.162
		c0-4.061,3.301-7.121,7.722-7.121c2.08,0,4.28,0.8,5.721,2.08l-2,2.421c-1.021-0.94-2.44-1.521-3.741-1.521
		c-2.301,0-4.061,1.801-4.061,4.141c0,2.381,1.78,4.182,4.101,4.182c0.721,0,1.641-0.261,2.48-0.681v-3.62H617.072z"/>
	<path fill="#4D5C29" d="M633.472,44.63l-1.021,2.58h-3.66l6.041-14.003h3.66l5.902,14.003h-3.801l-1.001-2.58H633.472z
		 M636.553,36.748l-2.041,5.181h4.041L636.553,36.748z"/>
	<path fill="#4D5C29" d="M655.193,44.229v2.98h-9.502V33.207h3.561v11.022H655.193z"/>
	<path fill="#4D5C29" d="M669.094,35.447l-2.061,2.44c-0.921-1.12-2.281-1.82-3.521-1.82c-2.221,0-3.9,1.761-3.9,4.062
		c0,2.34,1.68,4.12,3.9,4.12c1.181,0,2.541-0.64,3.521-1.64l2.08,2.2c-1.5,1.54-3.721,2.561-5.781,2.561
		c-4.221,0-7.361-3.101-7.361-7.201c0-4.041,3.221-7.082,7.481-7.082C665.532,33.087,667.693,34.007,669.094,35.447z"/>
	<path fill="#4D5C29" d="M684.714,40.188c0,4.081-3.241,7.182-7.582,7.182c-4.321,0-7.562-3.081-7.562-7.182
		c0-4.081,3.24-7.102,7.562-7.102C681.473,33.087,684.714,36.128,684.714,40.188z M673.211,40.208c0,2.361,1.82,4.182,3.961,4.182
		c2.16,0,3.881-1.82,3.881-4.182c0-2.36-1.721-4.141-3.881-4.141S673.211,37.848,673.211,40.208z"/>
	<path fill="#4D5C29" d="M695.952,47.21v-5.441h-5.802v5.441h-3.561V33.207h3.561v5.761h5.802v-5.761h3.562V47.21H695.952z"/>
	<path fill="#4D5C29" d="M716.533,40.188c0,4.081-3.24,7.182-7.582,7.182c-4.32,0-7.561-3.081-7.561-7.182
		c0-4.081,3.24-7.102,7.561-7.102C713.293,33.087,716.533,36.128,716.533,40.188z M705.031,40.208c0,2.361,1.82,4.182,3.961,4.182
		c2.16,0,3.881-1.82,3.881-4.182c0-2.36-1.721-4.141-3.881-4.141S705.031,37.848,705.031,40.208z"/>
	<path fill="#4D5C29" d="M727.912,44.229v2.98h-9.502V33.207h3.561v11.022H727.912z"/>
	<path fill="#4D5C29" d="M737.431,44.63l-1.021,2.58h-3.66l6.041-14.003h3.66l5.902,14.003h-3.801l-1.001-2.58H737.431z
		 M740.512,36.748l-2.041,5.181h4.041L740.512,36.748z"/>
	<path fill="#4D5C29" d="M760.652,47.21l-2.6-9.682l-2.641,9.682h-3.682l-4.58-14.003h3.801l2.74,10.302l2.681-10.302h3.48
		l2.741,10.302l2.7-10.302h3.641l-4.621,14.003H760.652z"/>
	<path fill="#4D5C29" d="M772.291,44.63l-1.021,2.58h-3.661l6.042-14.003h3.661l5.9,14.003h-3.801l-1-2.58H772.291z M775.371,36.748
		l-2.04,5.181h4.041L775.371,36.748z"/>
	<path fill="#4D5C29" d="M790.871,43.27h-0.1h-2.701v3.94h-3.561V33.207h6.262c3.701,0,5.821,1.761,5.821,4.881
		c0,2.141-0.9,3.681-2.541,4.501l2.941,4.621h-4.041L790.871,43.27z M790.771,40.469c1.54,0,2.44-0.78,2.44-2.261
		c0-1.46-0.9-2.2-2.44-2.2h-2.701v4.461H790.771z"/>
	<path fill="#4D5C29" d="M802.551,36.008v2.78h6.682v2.801h-6.682v2.82h7.622v2.801H798.99V33.207h10.962v2.801H802.551z"/>
	<path fill="#4D5C29" d="M822.252,47.21l-6.441-8.622v8.622h-3.341V33.207h3.141l6.461,8.642v-8.642h3.321V47.21H822.252z"/>
	<path fill="#4D5C29" d="M831.75,36.008v2.78h6.682v2.801h-6.682v2.82h7.622v2.801h-11.183V33.207h10.962v2.801H831.75z"/>
	<path fill="#4D5C29" d="M852.572,34.607l-1.341,2.78c-1.479-0.86-3.34-1.46-4.48-1.46c-0.92,0-1.54,0.34-1.54,1.021
		c0,2.42,7.401,1.04,7.401,6.101c0,2.801-2.48,4.281-5.602,4.281c-2.34,0-4.741-0.88-6.401-2.24l1.381-2.741
		c1.44,1.261,3.601,2.101,5.061,2.101c1.12,0,1.82-0.42,1.82-1.22c0-2.48-7.401-1.001-7.401-5.962c0-2.58,2.221-4.221,5.581-4.221
		C849.071,33.047,851.132,33.667,852.572,34.607z"/>
	<path fill="#4D5C29" d="M865.452,34.607l-1.341,2.78c-1.479-0.86-3.34-1.46-4.48-1.46c-0.92,0-1.54,0.34-1.54,1.021
		c0,2.42,7.401,1.04,7.401,6.101c0,2.801-2.48,4.281-5.602,4.281c-2.34,0-4.741-0.88-6.401-2.24l1.381-2.741
		c1.44,1.261,3.601,2.101,5.061,2.101c1.12,0,1.82-0.42,1.82-1.22c0-2.48-7.401-1.001-7.401-5.962c0-2.58,2.221-4.221,5.581-4.221
		C861.951,33.047,864.012,33.667,865.452,34.607z"/>
</g>
<g>
	<path fill="#4D5C29" d="M43.251,19.598c1,4.8-0.35,11.75-2.95,14.401c-0.85,0.9-1.7,1.8-3.5,2.2
		c8.751,1.15,7.901,16.601,4.201,20.451c-1.2,1.25-3.9,2.15-6.75,2.3C24.4,59.45,23.5,52.35,23.5,47c0-5.05,3.4-10.051,7.401-10.651
		c-4.851-0.8-6.601-7.101-6.601-11.75c0-4.9,2.2-10.001,7.05-10.851c1.7-0.3,2.55-0.15,3.95-0.1
		C40.751,13.847,42.602,16.397,43.251,19.598z M35.151,34.298c2.35-4.1,4.8-17.051-0.3-18.601c-0.85-0.25-2.55-0.55-3.351,1.05
		c-0.5,0.95-3.55,14.251,0.85,17.851C33.001,35.148,34.751,34.999,35.151,34.298z M35.151,57c2.35-4.1,4.8-17.251-0.3-18.851
		c-0.85-0.25-2.55-0.5-3.351,1.05c-0.5,0.95-3.55,14.501,0.85,18.101C33.001,57.9,34.751,57.75,35.151,57z"/>
	<path fill="#4D5C29" d="M74.2,45.099c1.1,3.15,1.85,7.05-0.5,10.601c-1.85,2.75-6.25,3.9-9.551,3.7c-2.8-0.15-3.9-0.6-5.8-2.65
		c-0.95-1.05-1.9-2.6-2.2-4.05c-0.4-1.6-0.25-3.45,0.45-5.55c0.45-1.3,4.4-0.1,4,1.2c-0.55,1.5-0.6,2.85-0.75,3.95
		c-0.55,4,3.351,6.25,5.65,5.25c3.75-1.6,2.35-9-0.1-12.15c-6.05-7.75-12.851-13.701-7.9-26.802c0.5-1.35,1.5-2.45,2.55-3.3
		c3.3-2.8,9.25-3.5,12.401-0.35c2.15,2.1,3.2,5.55,2.35,10.151c-0.3,1.5-4.45,1.1-3.85-1.6c2.5-10.801-6.801-12.701-7.351,0.15
		C63.149,32.648,71.15,36.049,74.2,45.099z"/>
	<path fill="#4D5C29" d="M78.449,40.399c-0.05-0.9-0.05-5.5,0.05-9.951c-0.8,0.3-2.75,0.55-3.95,0.1c-0.8-0.3-0.6-1.6,0.3-1.6
		c0.8,0,2.15-0.1,3.7-0.2c0.05-3.55,0.2-6.65,0.4-7.05c0.5-1.1,3.2-1.75,6-1c1.15,0.3,1.4,3.35,1.35,7.351
		c1.3-0.05,2.4-0.1,3.15,0.05c1.5,0.2,0.8,1.75-0.05,1.75s-2,0-3.15,0c-0.25,6.55-1.1,14.651-0.5,17.551c0.3,1.35-0.05,8.55,0.9,9.5
		c1.2,1.2,4.75-6.2,5.55-7.55c0.9-1.6,2.1-0.75,1.5,0.45c-1.1,2.45-5.4,8.951-7.401,9.901c-1.85,0.85-4.45,0.1-5.5-1.2
		c-2.15-2.65-1.7-8.101-1.8-10.15C78.799,45.099,78.549,42.449,78.449,40.399z"/>
	<path fill="#4D5C29" d="M110.75,52.1c0.399-0.75,0.85-1.6,1.5-2.75c0.899-1.6,2.1-0.8,1.5,0.45c-0.45,1-0.9,1.8-1.301,2.45
		c-3.15,5.15-8.35,8.75-15.601,5.25c-7.1-3.4-6.25-14.351-1.5-20.601c2.45-3.15,9-5,11.851-1.55c4.15,5.05-3.3,16.951-8.4,16.351
		v-0.05c0.35,2.1,1.2,3.9,2.8,5C105.299,59.1,108.899,55.3,110.75,52.1z M107.049,38.599c0.05-1.9-0.55-2.4-1.1-2.9
		c-1.05-0.95-3.05,0.25-4.25,2.45c-1.7,3.2-3.4,8-3,12.101C98.799,51.7,106.799,47.399,107.049,38.599z"/>
	<path fill="#4D5C29" d="M127.498,35.898c0.95,0.8,1.9,3.8,2.351,5.4c2.9,0.9,5.75-0.5,7.101-2.4c0.699-1,1.949,0.6,1.3,1.35
		c-2.7,3-7.65,2.9-8.2,2.6c0.899,5.25-0.301,10.75-2.95,13.351c-2.95,2.95-5.351,3-8.401,1.95c0,1.7-0.05,3.4-0.05,5
		c-0.1,4.7,0.5,9.5,0,10.301c-0.8,1.3-5.05,0.95-5.75-0.8c-0.45-1.15-0.4-10-0.75-14.851c-0.2-2.65-0.05-8.35-0.05-10.851
		c0-2.4,0-8.95-0.351-10.551c-0.5-2.35,6.7-3.1,7.101,0.6l-0.05,0.5l-0.45,10.951c-0.35,5.25-0.5,9.301,2.101,8.801
		c4.399-0.85,4.05-10.151,3.5-15.401c-0.4-0.15-3-0.55-3.95-1.6C117.748,37.849,121.397,30.499,127.498,35.898z M121.048,37.449
		c-1.05,1.4,2.351,2.45,2.351,2.45C123.048,37.749,121.647,36.649,121.048,37.449z"/>
	<path fill="#4D5C29" d="M143.847,27.198c-0.25-1.9-0.949-13.801,0.851-13.801c4.25,0,6.25-1.15,7.2,2
		c1.101-1.7,4.45-2.6,8.601-1.85c10.251,1.8,6.4,24.301,2.101,26.802c-2.501,1.45-6.801,2-9.801,0.85c0,9.601-0.3,17.851-2.9,17.851
		c-2,0-3.7,0.45-4.7-0.85C144.397,49.5,144.997,34.699,143.847,27.198z M157.147,37.899c2.851-4.5,2.751-17.901,0.101-21.301
		c-1.95-2.55-4.101-1.05-4.801,2.2C152.748,21.848,150.798,47.75,157.147,37.899z"/>
	<path fill="#4D5C29" d="M179.947,46.649c0.05-3.5,0.5-6.8-0.1-6.8c-0.7,1.9-3.2,2.5-4.9,2.1c-1.351,3.35-1.9,4.4-4.2,8.65
		c-0.75,1.35-2.2,0.5-1.25-1c3.3-5.25,2.7-5,3.899-8.301c-4.1-2.35-6-10.9-2.6-13.901c2.1-1.85,7.15-1.9,7.851,2
		c0.149,0.85-0.4,2.45-0.65,3.45c-0.45,1.8-0.2,1.55-1.2,4.6c2.45,1.75,2.65-0.05,3.4-1.5c0.65-1.25,2.25-1.2,3.5-1.2
		c3.101,0,3.65,1.05,3.501,2.95c-0.051,0.6-0.4,4.45-0.551,8.601c-0.3,6.351-0.25,13.351,1.75,10.201c1.301-2.05,3.7-6.25,4.2-7.15
		c0.95-1.65,2.001-0.7,1.45,0.5c-1.25,2.7-4.75,8.601-7.25,9.8c-1.851,0.85-4.45,0.1-5.5-1.2c-0.601-0.75-0.9-1.7-1.001-2.8
		C180.197,55.05,179.897,50.7,179.947,46.649z M174.947,36.499c0.8-2.45,0.649-2.05,1-3.65c0.2-1.05,1.05-5.5-1.25-5.15
		C171.797,28.148,173.197,35.148,174.947,36.499z"/>
	<path fill="#4D5C29" d="M201.847,38.149c-1.75,1.95-2.15,4.75-2.7,7.5c-3.65,18.051,10.801,15.051,9.851-2.05
		c-8.95-1.9-5.55-12.251-0.7-7.55c1.25,1.15,2.051,3.3,2.351,5.85c2.75,0.7,5.45-0.7,6.75-2.5c0.7-1,1.95,0.6,1.3,1.35
		c-2.449,2.7-6.65,2.9-7.9,2.7c0.4,7.2-2.7,16.401-9.95,15.901c-8.15-0.45-9.801-8.75-8.4-16.051c0.649-3.601,2-8.401,5-10.251
		C198.246,32.599,204.797,34.699,201.847,38.149z M208.647,41.849c-0.2-1.4-0.95-3.15-1.65-4.25c-1.25-1.95-1.75-0.1-1.7,1.05
		C205.396,40.649,208.647,41.849,208.647,41.849z"/>
	<path fill="#4D5C29" d="M231.697,35.898c0.95,0.8,1.9,3.8,2.351,5.4c2.9,0.9,5.75-0.5,7.101-2.4c0.699-1,1.949,0.6,1.3,1.35
		c-2.7,3-7.65,2.9-8.2,2.6c0.899,5.25-0.301,10.75-2.95,13.351c-2.95,2.95-5.351,3-8.401,1.95c0,1.7-0.05,3.4-0.05,5
		c-0.1,4.7,0.5,9.5,0,10.301c-0.8,1.3-5.05,0.95-5.75-0.8c-0.45-1.15-0.4-10-0.75-14.851c-0.2-2.65-0.05-8.35-0.05-10.851
		c0-2.4,0-8.95-0.351-10.551c-0.5-2.35,6.7-3.1,7.101,0.6l-0.05,0.5l-0.45,10.951c-0.35,5.25-0.5,9.301,2.101,8.801
		c4.399-0.85,4.05-10.151,3.5-15.401c-0.4-0.15-3-0.55-3.95-1.6C221.947,37.849,225.597,30.499,231.697,35.898z M225.247,37.449
		c-1.05,1.4,2.351,2.45,2.351,2.45C227.247,37.749,225.847,36.649,225.247,37.449z"/>
	<path fill="#4D5C29" d="M249.496,38.299c-1.75,2-2.15,4.8-2.7,7.5c-3.65,18.101,10.801,15.101,9.851-2.05
		c-8.95-1.85-5.55-12.201-0.7-7.55c1.25,1.2,2.051,3.35,2.351,5.9c2.25,0.55,4.4-0.25,5.851-1.55c-0.65-2-1.601-5.1-0.7-8.851
		c0.899-4.05,6.6-7.5,9.4-4.85c1.05,1.05,1.35,3,0.05,5.75c-0.8,1.75-1.7,2.9-3,4.6c0.25,5.9,5.9,10.801,4,18.801
		c2.5-1.4,4.601-4.5,5.551-6.601c0.8-1.7,2.5-0.9,1.25,0.95c-3.301,5.1-10.101,13-15.801,6.65c-1.4-1.6,1.399-3.45,1.8-1.9
		c0.85,3.101,3.05,0.8,3.2,0.25c0.55-3.1-3.351-9.65-4.601-11.9l-0.5-1.2c-2.4,1.45-5.351,1.55-6.351,1.35
		c0.4,7.25-2.7,16.451-9.95,15.951c-8.15-0.5-9.801-8.801-8.4-16.051c0.649-3.6,2-8.4,5-10.25
		C245.896,32.798,252.446,34.898,249.496,38.299z M256.297,42.049c-0.2-1.4-0.95-3.15-1.65-4.25c-1.25-1.95-1.75-0.1-1.7,1.05
		C253.046,40.799,256.347,42.049,256.297,42.049z M269.897,34.398c4.601-7.4,1.3-7.65,0.2-4.95c-1.15,2.6-0.601,5.65-0.601,5.65
		L269.897,34.398z"/>
	<path fill="#4D5C29" d="M280.496,56.85c-2.9-3.5-1.65-16.351,2.149-20.102c2.95-2.95,7.2-2.85,9.65-1.75
		c2.501,1.1,3.001,3.65,3.101,5.101c0.1,2.55-3.25,1.5-3.05,0.65c0.899-4.351-0.65-4.95-1.851-4.2c-3.851,2.4-5.15,11.9-4.7,16.451
		c0.2,2.25,0.05,4.451,1.5,2.95c2.601-2.75,3.4-9.05,3.65-10.9c0.4-2.9,7.601-2.3,7.101-0.45c-0.351,1.25-0.351,6.4-0.4,8.25
		c0,2.05,0.5,3.45,2.351,2.1c1.649-1.15,3.1-4.7,3.6-5.6c0.95-1.6,2.101-0.8,1.551,0.45c-1.25,2.7-4.15,6.551-6.701,7.701
		c-1.85,0.9-4.399,0.1-5.45-1.15c-1.399-1.7-1.7-3.601-1.75-5.3C290.446,57.4,284.746,62.1,280.496,56.85z"/>
	<path fill="#4D5C29" d="M303.095,41.249c-0.05-1.45,0.15-10.451,0.45-17.651c0.2-4.5-0.7-10.45,5.551-10.601
		c3.75-0.1,7,3.05,6.95,7.951c-0.101,6.45-3.45,14.801-5.95,20.751c0.05,3.9,0.149,5.15,0.199,8.35c0,2.8,0.301,4.851,1.15,5.65
		c0.7,0.75,2.25-0.7,3.601-3.1c0.8-1.4,1.5-2.75,1.75-3.25c0.95-1.6,2.1-0.8,1.55,0.45c-0.399,0.8-1.1,2.05-1.95,3.4
		c-1.8,2.75-3.65,3.85-5,4.45c-1.851,0.9-5.15,0.15-6.2-1.15c-2.15-2.65-1.45-6.101-1.601-8.201
		C303.445,45.549,303.245,43.199,303.095,41.249z M314.346,19.897c-0.15-2.15-1.851-7.25-3-1.8c-1.101,5.25-1.25,17.401-1.25,19.501
		C311.096,33.099,314.646,25.248,314.346,19.897z"/>
</g>
</svg>
