<?xml version="1.0" encoding="utf-8"?>
<!-- Generator: Adobe Illustrator 16.0.0, SVG Export Plug-In . SVG Version: 6.00 Build 0)  -->
<!DOCTYPE svg PUBLIC "-//W3C//DTD SVG 1.1//EN" "http://www.w3.org/Graphics/SVG/1.1/DTD/svg11.dtd">
<svg version="1.1" id="Layer_1" xmlns="http://www.w3.org/2000/svg" xmlns:xlink="http://www.w3.org/1999/xlink" x="0px" y="0px"
	 width="342.5px" height="133.25px" viewBox="0 0 342.5 133.25" enable-background="new 0 0 342.5 133.25" xml:space="preserve">
<g>
	<path fill="#EAF6F6" d="M81.828,111.332c-8.683,0.444-17.304-8.748-17.304-8.748l-0.049-44.371l44.497-44.499h-93.18l44.499,44.499
		v44.371c0,0-8.621,9.192-17.305,8.748H81.828z"/>
	<g opacity="0.4">
		<path fill="#D3E0E0" d="M42.987,111.332c0.369,0.018,0.737,0.015,1.105,0H42.987z"/>
		<path fill="#D3E0E0" d="M62.43,13.713H15.792l44.499,44.499v44.371c0,0-7.905,8.421-16.2,8.748H62.43V13.713z"/>
	</g>
	<polygon fill="#B6D29A" points="63.985,52.376 98.072,18.291 26.695,18.291 60.781,52.376 	"/>
	<polygon fill="#F4F0DF" points="65.248,44.159 60.849,49.633 64.894,43.894 97.787,0 98.142,0.266 	"/>
	<g>
		
			<ellipse transform="matrix(-0.6343 -0.7731 0.7731 -0.6343 90.6056 112.1222)" fill="#9BA957" cx="71.823" cy="34.631" rx="5.959" ry="4.309"/>
		
			<ellipse transform="matrix(-0.6347 -0.7728 0.7728 -0.6347 91.9129 118.8094)" fill="#C5403D" cx="74.039" cy="37.68" rx="1.052" ry="1.363"/>
	</g>
</g>
<g>
	<path fill="#FFFFFF" d="M202.649,42.72l-2.997-12.947l-3.09,12.947h-7.385l-7.014-21.66h7.663l3.275,14.213l3.213-14.183
		l6.983-0.031l3.275,14.213l3.213-14.213h7.323l-7.076,21.66H202.649z"/>
	<path fill="#FFFFFF" d="M232.367,42.72v-7.817h-6.705v7.817h-7.168V21.06h7.168v8.404h6.705V21.06h7.169v21.66H232.367z"/>
	<path fill="#FFFFFF" d="M249.233,39.661l-1.112,3.059h-7.354l9.146-21.66h7.354l8.807,21.66h-7.632l-1.082-3.059H249.233z
		 M253.374,28.198l-2.287,6.334h4.511L253.374,28.198z"/>
	<path fill="#FFFFFF" d="M276.76,26.714V42.72h-7.169V26.714h-6.149V21.06h19.498v5.654H276.76z"/>
</g>
<g>
	<path fill="#FFFFFF" d="M119.413,11.764c3.598-1.361,14.197,0.097,16.24,2.723c0.681,8.266,0.583,22.658,0.486,31.896
		c2.042-9.724,4.862-25.672,10.211-32.382c5.057-6.321,23.728-6.418,23.922,10.989c0,2.237,0,4.959,0,8.266
		c-0.097,9.919-0.194,33.063,0.973,40.746c0.583,3.695,1.848,27.326-1.653,27.326c-11.28,0-14.489,4.279-15.364-15.17
		c-0.195-3.5-0.875-19.546-0.583-35.202c-0.098-70.308-18.671,8.655-16.143,26.547c0.486,3.695,1.556,23.825-2.042,23.825
		c-11.28,0-14.489,4.279-15.364-15.17C119.802,78.863,114.356,13.612,119.413,11.764z"/>
	<path fill="#FFFFFF" d="M197.5,59.803c-3.404,3.792-4.182,9.238-5.251,14.586c-7.099,35.105,21.005,29.271,19.157-3.987
		c-17.407-3.695-10.794-23.825-1.361-14.684c2.431,2.237,3.987,6.418,4.57,11.378c5.349,1.361,10.6-1.361,13.128-4.862
		c1.362-1.945,3.792,1.167,2.528,2.625c-4.765,5.251-12.933,5.64-15.364,5.251c0.778,14.003-5.251,31.896-19.352,30.923
		c-15.851-0.875-19.06-17.018-16.337-31.215c1.264-7.001,3.89-16.337,9.725-19.935C190.498,49.009,203.237,53.093,197.5,59.803z
		 M210.725,66.999c-0.389-2.723-1.848-6.126-3.209-8.266c-2.431-3.792-3.404-0.194-3.306,2.042
		C204.404,64.665,210.725,66.999,210.725,66.999z"/>
	<path fill="#FFFFFF" d="M279.67,71.764c-0.583,10.016-2.431,22.366-8.363,27.812c-4.182,3.89-14.101,2.431-17.407-1.653
		c-2.723-3.209-3.307-7.001-3.501-10.308c-1.556,12.447-12.544,21.491-20.81,11.28c-4.279-5.154-3.307-15.754-3.598-19.741
		c-0.681-11.767-2.042-19.449-0.097-23.436c1.069-2.139,1.653-3.209,7.196-3.209c13.226,0,2.82,9.919,6.126,24.797
		c0.389,1.75,0.194,9.044,0.681,14.198c0.389,4.279,0.097,8.655,2.917,5.64c5.057-5.349,6.613-17.601,7.099-21.199
		c0.973-8.168-1.264-13.809,0.292-17.018c1.069-2.14,3.89-2.82,9.53-2.82c2.334,0,6.224,0.486,5.057,4.959
		c-2.236,8.655-1.07,19.546-1.458,25.575c-0.486,5.64-1.458,14.587,3.792,11.767c6.807-3.598,7.974-18.574,7.974-26.548
		c-5.154-0.486-10.405-13.419-0.875-17.309c7.099-2.917,6.029,10.21,5.543,14.392c5.349,1.264,10.405-1.459,13.031-4.959
		c1.361-1.848,3.792,1.167,2.431,2.625c-4.862,5.543-13.711,5.737-15.656,5.154H279.67z M272.572,59.414
		c-1.361,2.917,0.292,7.293,2.528,8.655c0.097,0.097,0.292-4.959-0.097-8.071C274.808,57.664,273.35,57.664,272.572,59.414z"/>
	<path fill="#FFFFFF" d="M307.967,78.474c-2.917,0-2.722-0.097-4.181-1.945c-0.485-8.168-3.209-15.17,1.944-21.783
		c5.155-6.516,9.627-13.906,9.141-23.436c-1.068-24.505-11.377-19.254-12.641-4.667c-0.098,1.361-6.904,1.848-7.293-0.973
		c-1.848-14.101,14.878-18.574,25.284-10.016c8.654,7.099,7.779,24.797,2.041,35.883c-2.334,4.473-5.057,7.779-7.877,10.891
		C310.885,66.221,311.662,78.474,307.967,78.474z M307.676,83.433c6.029-0.292,3.5,11.669,3.307,12.934
		c-0.486,2.917-2.141,2.625-7.489,2.625C299.605,98.895,300.48,83.822,307.676,83.433z"/>
</g>
</svg>
