<?xml version="1.0" encoding="utf-8"?>
<!-- Generator: Adobe Illustrator 16.0.0, SVG Export Plug-In . SVG Version: 6.00 Build 0)  -->
<!DOCTYPE svg PUBLIC "-//W3C//DTD SVG 1.1//EN" "http://www.w3.org/Graphics/SVG/1.1/DTD/svg11.dtd">
<svg version="1.1" id="Layer_1" xmlns="http://www.w3.org/2000/svg" xmlns:xlink="http://www.w3.org/1999/xlink" x="0px" y="0px"
	 width="342.5px" height="133.25px" viewBox="0 0 342.5 133.25" enable-background="new 0 0 342.5 133.25" xml:space="preserve">
<g>
	<path fill="#FFFFFF" d="M119.58,13.13c3.598-1.361,14.197,0.097,16.24,2.723c0.681,8.266,0.583,22.658,0.486,31.896
		c2.042-9.724,4.862-25.672,10.211-32.382c5.057-6.321,23.728-6.418,23.922,10.989c0,2.237,0,4.959,0,8.266
		c-0.097,9.919-0.194,33.063,0.973,40.745c0.583,3.695,1.847,27.326-1.653,27.326c-11.28,0-14.489,4.279-15.364-15.17
		c-0.195-3.5-0.875-19.547-0.583-35.203c-0.098-70.308-18.671,8.655-16.143,26.548c0.486,3.695,1.556,23.824-2.042,23.824
		c-11.28,0-14.489,4.279-15.364-15.17C119.968,80.229,114.522,14.978,119.58,13.13z"/>
	<path fill="#FFFFFF" d="M197.666,61.168c-3.404,3.792-4.182,9.238-5.252,14.585c-7.098,35.104,21.006,29.271,19.158-3.985
		c-17.407-3.695-10.795-23.825-1.361-14.684c2.432,2.236,3.986,6.418,4.57,11.376c5.348,1.36,10.6-1.361,13.127-4.861
		c1.361-1.945,3.793,1.166,2.529,2.625c-4.767,5.252-12.935,5.641-15.365,5.252c0.777,14.002-5.252,31.896-19.352,30.924
		c-15.852-0.875-19.061-17.019-16.338-31.217c1.266-7,3.891-16.335,9.725-19.935C190.664,50.375,203.402,54.458,197.666,61.168z
		 M210.891,68.365c-0.389-2.725-1.848-6.126-3.209-8.267c-2.431-3.792-3.402-0.193-3.306,2.043
		C204.57,66.031,210.891,68.365,210.891,68.365z"/>
	<path fill="#FFFFFF" d="M279.837,73.129c-0.583,10.016-2.431,22.367-8.362,27.812c-4.182,3.889-14.102,2.432-17.406-1.654
		c-2.725-3.209-3.307-7-3.502-10.307c-1.555,12.446-12.545,21.49-20.811,11.278c-4.277-5.153-3.307-15.754-3.598-19.739
		c-0.682-11.767-2.042-19.45-0.098-23.436c1.069-2.14,1.652-3.209,7.195-3.209c13.227,0,2.82,9.918,6.126,24.796
		c0.39,1.75,0.195,9.045,0.683,14.197c0.389,4.278,0.097,8.655,2.916,5.641c5.058-5.348,6.612-17.602,7.1-21.198
		c0.973-8.168-1.264-13.809,0.292-17.018c1.069-2.14,3.89-2.82,9.53-2.82c2.334,0,6.223,0.486,5.057,4.959
		c-2.236,8.656-1.07,19.546-1.459,25.576c-0.486,5.641-1.459,14.586,3.793,11.766c6.807-3.598,7.975-18.571,7.975-26.547
		c-5.154-0.485-10.406-13.418-0.877-17.309c7.101-2.917,6.029,10.209,5.543,14.391c5.351,1.267,10.406-1.459,13.031-4.958
		c1.361-1.847,3.793,1.168,2.432,2.625c-4.862,5.543-13.711,5.738-15.655,5.154H279.837L279.837,73.129z M272.738,60.78
		c-1.361,2.917,0.291,7.292,2.527,8.653c0.098,0.099,0.293-4.958-0.097-8.071C274.975,59.03,273.516,59.03,272.738,60.78z"/>
	<path fill="#FFFFFF" d="M308.134,79.84c-2.917,0-2.723-0.098-4.182-1.945c-0.485-8.168-3.209-15.169,1.944-21.783
		c5.153-6.516,9.627-13.906,9.142-23.436c-1.069-24.505-11.378-19.254-12.642-4.667c-0.099,1.361-6.904,1.848-7.293-0.973
		c-1.849-14.101,14.877-18.574,25.282-10.016c8.654,7.099,7.779,24.797,2.042,35.883c-2.334,4.473-5.057,7.779-7.877,10.891
		C311.051,67.586,311.829,79.84,308.134,79.84z M307.842,84.799c6.029-0.293,3.501,11.67,3.307,12.934
		c-0.485,2.916-2.14,2.625-7.487,2.625C299.771,100.26,300.646,85.188,307.842,84.799z"/>
</g>
<g>
	<path fill="#FFFFFF" d="M222.814,44.086l-2.996-12.947l-3.09,12.947h-7.386l-7.014-21.66h7.662l3.274,14.213l3.213-14.183
		l6.984-0.031l3.275,14.213l3.213-14.213h7.322l-7.076,21.66L222.814,44.086L222.814,44.086z"/>
	<path fill="#FFFFFF" d="M252.533,44.086v-7.817h-6.705v7.817h-7.168v-21.66h7.168v8.404h6.705v-8.404h7.169v21.66H252.533z"/>
	<path fill="#FFFFFF" d="M285.498,33.24c0,6.427-5.006,11.155-11.896,11.155c-6.89,0-11.896-4.697-11.896-11.155
		c0-6.427,5.006-11.031,11.896-11.031C280.492,22.209,285.498,26.844,285.498,33.24z M269.061,33.271c0,2.966,2.162,5.16,4.635,5.16
		c2.472,0,4.449-2.194,4.449-5.16s-1.979-5.099-4.449-5.099C271.191,28.173,269.061,30.305,269.061,33.271z"/>
</g>
<g>
	<circle fill="#738F3C" cx="89.254" cy="21.235" r="14.235"/>
</g>
<g>
	<circle fill="#FFFFFF" cx="89.254" cy="21.235" r="13.275"/>
</g>
<g>
	<circle fill="#C3D02E" cx="89.254" cy="21.235" r="12.402"/>
</g>
<g>
	<rect x="88.904" y="8.615" fill="#FFFFFF" width="0.699" height="25.589"/>
</g>
<g>
	<rect x="76.46" y="21.061" fill="#FFFFFF" width="25.588" height="0.698"/>
</g>
<g>
	
		<rect x="88.902" y="8.62" transform="matrix(-0.7075 -0.7068 0.7068 -0.7075 137.2587 99.6443)" fill="#FFFFFF" width="0.699" height="25.591"/>
</g>
<g>
	
		<rect x="76.455" y="21.06" transform="matrix(-0.7071 -0.7071 0.7071 -0.7071 137.221 99.657)" fill="#FFFFFF" width="25.589" height="0.7"/>
</g>
<g>
	<g>
		<polygon fill="#E9F5F5" points="88.817,21.41 82.394,105.773 39.872,105.773 33.447,21.41 		"/>
	</g>
	<g>
		<polygon fill="#EAB956" points="37.133,42.72 42.688,100.184 79.576,100.184 85.261,42.72 		"/>
	</g>
	<g>
		<path fill="#FFFFFF" d="M62.71,45.594c0.561,0.663,0.478,1.654-0.185,2.215l-8.359,7.069c-0.664,0.561-1.654,0.479-2.214-0.184
			l-7.07-8.361c-0.561-0.662-0.479-1.653,0.185-2.213l8.358-7.07c0.663-0.561,1.655-0.478,2.214,0.184L62.71,45.594z"/>
	</g>
	<g>
		<path fill="#FFFFFF" d="M76.663,53.838c-0.354,0.791-1.283,1.146-2.075,0.791l-9.994-4.472c-0.793-0.354-1.146-1.282-0.793-2.075
			l4.475-9.994c0.354-0.792,1.283-1.146,2.074-0.792l9.994,4.474c0.793,0.354,1.148,1.282,0.793,2.075L76.663,53.838z"/>
	</g>
	<g opacity="0.5">
		<polygon fill="#EAB956" points="37.133,42.72 42.688,100.184 79.576,100.184 85.261,42.72 		"/>
	</g>
	<g opacity="0.7">
		<polygon fill="#E9F5F5" points="87.747,35.47 88.817,21.41 33.447,21.41 34.518,35.47 		"/>
	</g>
</g>
</svg>
