<?xml version="1.0" encoding="utf-8"?>
<!-- Generator: Adobe Illustrator 16.0.0, SVG Export Plug-In . SVG Version: 6.00 Build 0)  -->
<!DOCTYPE svg PUBLIC "-//W3C//DTD SVG 1.1//EN" "http://www.w3.org/Graphics/SVG/1.1/DTD/svg11.dtd">
<svg version="1.1" id="Layer_1" xmlns="http://www.w3.org/2000/svg" xmlns:xlink="http://www.w3.org/1999/xlink" x="0px" y="0px"
	 width="342.5px" height="133.25px" viewBox="0 0 342.5 133.25" enable-background="new 0 0 342.5 133.25" xml:space="preserve">
<g>
	<path fill="#FFFFFF" d="M119.486,93.355c1.007,1.374,2.015,1.19,3.205-0.091c5.402-6.134,7.416-27.374,7.507-35.706
		c0.183-16.571-1.099-43.945,1.648-43.945c10.62,0,13.641-3.937,14.465,14.374c0.092,3.296,0.824,24.994,0.549,39.733
		c0,16.755,1.374,24.262,3.296,26.002c4.303,3.753,16.571-23.255,13.641-77.637c-0.183-3.387,8.057-3.753,7.874,0.549
		c-2.105,63.995-15.564,82.672-24.536,81.482c-1.465-0.184-2.838-0.642-4.12-1.282c-5.585-2.747-9.979-9.339-11.353-18.585
		c-2.747,10.62-7.141,20.874-14.648,19.867c-1.465-0.184-2.838-0.642-4.211-1.282c-6.775-3.296-11.719-19.226-11.719-31.769
		c0.091-9.339,0.091-18.494-1.007-25.727c-0.458-3.479-1.739-25.727,1.557-25.727c10.62,0,13.733-3.937,14.465,14.374
		c0.183,3.296,0.916,18.402,0.549,33.051C116.648,76.51,117.839,90.884,119.486,93.355z"/>
	<path fill="#FFFFFF" d="M177.25,65.066c-0.092-2.655,0.274-19.135,0.824-32.318c0.365-8.24-1.282-19.135,10.162-19.409
		c6.866-0.183,12.817,5.585,12.726,14.557c-0.183,11.811-6.317,27.1-10.895,37.995c0,0.183,4.761-9.522,10.712-12.635
		c5.218-2.655,11.719-1.099,13.274,4.761c1.099,4.303-0.183,24.078-0.458,29.847c-0.183,5.035-0.183,9.887,0.642,10.803
		c1.647,1.648,7.05-10.528,9.612-15.289c0.824-1.557,1.465-2.838,1.832-3.479c1.647-2.93,3.845-1.465,2.838,0.824
		c-0.55,1.007-1.373,2.472-2.289,4.12c-3.296,5.401-9.888,17.578-12.726,18.951c-3.388,1.557-8.057,0.184-9.979-2.197
		c-4.028-4.853-1.831-19.775-2.014-23.621c-0.092-1.098-0.092-2.197-0.184-3.295c0-6.592,3.754-23.621-4.028-14.924
		c-3.845,4.303-7.232,11.353-7.324,15.381c-0.092,4.212-0.092,8.881,0,12.817c0.092,5.493,0.458,6.592-1.465,7.324
		c-2.563,1.099-7.69,0.366-8.881-2.472c-2.105-4.943-1.281-11.627-1.465-14.832C177.891,72.939,177.524,68.637,177.25,65.066z
		 M197.85,25.973c-0.275-3.937-3.388-13.275-5.494-3.296c-2.014,9.613-2.288,31.86-2.288,35.706
		C191.898,50.143,198.398,35.77,197.85,25.973z"/>
	<path fill="#FFFFFF" d="M227.601,93.631c-5.31-6.409-3.021-29.938,3.937-36.805c5.402-5.401,13.184-5.218,17.762-3.204
		c4.486,2.014,5.401,6.684,5.584,9.339c0.275,4.669-5.859,2.746-5.584,1.189c1.647-7.965-1.19-9.063-3.388-7.69
		c-7.05,4.395-9.43,21.79-8.606,30.121c0.367,4.12,0.184,8.148,2.747,5.401c4.853-5.035,6.317-16.57,6.684-19.958
		c0.732-5.311,13.916-4.212,13-0.824c-0.641,2.289-0.641,8.606-0.641,11.993c-0.274,14.557,8.881-34.79,9.979-37.811
		c-1.557,0.458-4.944,0.916-7.142,0c-1.373-0.549-1.099-2.93,0.55-2.838c1.557,0,3.937-0.183,6.774-0.458
		c0.184-6.5,0.366-12.085,0.732-12.817c1.007-2.014,5.951-3.296,10.986-1.922c2.106,0.641,2.655,6.226,2.472,13.55
		c2.381-0.184,4.395-0.184,5.769,0c2.838,0.458,1.556,3.296-0.092,3.296c-1.557,0-3.57,0-5.768,0
		c-0.458,11.993-2.015,26.825-0.824,32.043c0.55,2.563-0.183,15.747,1.647,17.487c2.106,2.197,8.698-11.354,10.071-13.825
		c1.739-2.93,3.845-1.465,2.838,0.824c-2.105,4.486-9.979,16.388-13.642,18.128c-3.387,1.556-8.147,0.183-10.07-2.197
		c-3.937-4.853-3.021-14.924-3.296-18.678c-0.274-5.859-0.824-10.711-1.007-14.465c0-0.732,0-2.655,0-5.219
		c-0.184,0.916-0.366,1.831-0.458,2.838c-1.739,8.972-4.303,19.592-6.317,25.543c-1.831,5.401-8.423,6.958-10.254,5.859
		c-2.472-1.465-4.395-4.669-4.761-9.521C245.819,94.638,235.383,103.244,227.601,93.631z"/>
	<path fill="#FFFFFF" d="M310.268,76.968c-2.747,0-2.564-0.091-3.938-1.831c-0.457-7.69-3.021-14.282,1.831-20.508
		c4.853-6.134,9.063-13.092,8.606-22.064c-1.008-23.071-10.712-18.127-11.902-4.395c-0.092,1.282-6.5,1.74-6.866-0.916
		c-1.739-13.275,14.008-17.486,23.804-9.43c8.148,6.683,7.324,23.346,1.923,33.783c-2.197,4.211-4.761,7.324-7.416,10.254
		C313.014,65.433,313.746,76.968,310.268,76.968z M309.992,81.637c5.677-0.274,3.296,10.986,3.113,12.177
		c-0.458,2.747-2.015,2.472-7.05,2.472C302.394,96.194,303.218,82.004,309.992,81.637z"/>
</g>
<path fill="#E9F6F6" d="M64.152,95.921l-0.046-42.76c12.702-1.312,22.699-15.184,22.699-32.119c0-4.783-0.803-9.316-2.234-13.398
	H39.701c-1.43,4.082-2.234,8.616-2.234,13.398c0,16.851,9.898,30.671,22.511,32.099v42.78c0,0-7.795,8.305-15.975,8.625h36.121
	C71.946,104.226,64.152,95.921,64.152,95.921z"/>
<path opacity="0.4" fill="#D3E0E0" enable-background="new    " d="M44.006,104.546h18.13V7.644H39.701
	c-1.43,4.082-2.234,8.616-2.234,13.398c0,16.851,9.898,30.671,22.511,32.099v42.78C59.979,95.921,52.183,104.226,44.006,104.546z"/>
<path fill="#78133C" d="M40.692,24.075c0.597,14.797,9.969,26.557,21.444,26.557c11.476,0,20.846-11.758,21.444-26.557H40.692z"/>
<g>
	<g>
		<path fill="#813458" d="M43.497,28.043c1.934,8.621,5.987,17.146,14.872,20.2c1.973,0.678,2.812-2.438,0.858-3.109
			c-7.749-2.664-10.96-10.546-12.62-17.948C46.15,25.158,43.042,26.019,43.497,28.043L43.497,28.043z"/>
	</g>
</g>
<g>
	<path fill="#FFFFFF" d="M234.693,16.971l-3.052,6.394c-2.58-1.417-6.54-2.979-8.756-2.979c-0.944,0-1.562,0.291-1.562,1.054
		c0,3.197,13.188,1.199,13.188,10.427c0,5.668-4.978,8.175-10.718,8.175c-4.433,0-9.373-1.49-12.752-4.069l3.124-6.321
		c2.616,2.18,7.121,3.96,9.7,3.96c1.235,0,2.035-0.4,2.035-1.308c0-3.306-13.188-1.126-13.188-10.063
		c0-5.086,4.287-8.284,10.899-8.284C227.645,13.956,231.823,15.155,234.693,16.971z"/>
	<path fill="#FFFFFF" d="M263.398,27.035c0,7.557-5.885,13.116-13.987,13.116c-8.102,0-13.987-5.522-13.987-13.116
		c0-7.557,5.886-12.97,13.987-12.97C257.514,14.064,263.398,19.514,263.398,27.035z M244.07,27.071c0,3.488,2.544,6.067,5.45,6.067
		s5.231-2.58,5.231-6.067s-2.325-5.995-5.231-5.995C246.577,21.077,244.07,23.583,244.07,27.071z"/>
</g>
</svg>
