<?xml version="1.0" encoding="utf-8"?>
<!-- Generator: Adobe Illustrator 16.0.0, SVG Export Plug-In . SVG Version: 6.00 Build 0)  -->
<!DOCTYPE svg PUBLIC "-//W3C//DTD SVG 1.1//EN" "http://www.w3.org/Graphics/SVG/1.1/DTD/svg11.dtd">
<svg version="1.1" id="Layer_1" xmlns="http://www.w3.org/2000/svg" xmlns:xlink="http://www.w3.org/1999/xlink" x="0px" y="0px"
	 width="406px" height="133.25px" viewBox="-41.25 0 406 133.25" enable-background="new -41.25 0 406 133.25" xml:space="preserve"
	>
<path fill="#E9F6F6" d="M64.152,95.921l-0.046-42.76c12.702-1.312,22.699-15.184,22.699-32.119c0-4.783-0.803-9.316-2.234-13.398
	H39.701c-1.43,4.082-2.234,8.616-2.234,13.398c0,16.851,9.898,30.671,22.511,32.099v42.78c0,0-7.795,8.305-15.975,8.625h36.121
	C71.946,104.226,64.152,95.921,64.152,95.921z"/>
<path opacity="0.4" fill="#D3E0E0" enable-background="new    " d="M44.006,104.546h18.13V7.644H39.701
	c-1.43,4.082-2.234,8.616-2.234,13.398c0,16.851,9.898,30.671,22.511,32.099v42.78C59.979,95.921,52.183,104.226,44.006,104.546z"/>
<path fill="#78133C" d="M40.692,24.075c0.597,14.797,9.969,26.557,21.444,26.557c11.476,0,20.846-11.758,21.444-26.557H40.692z"/>
<g>
	<g>
		<path fill="#813458" d="M43.497,28.043c1.934,8.621,5.987,17.146,14.872,20.2c1.973,0.678,2.812-2.438,0.858-3.109
			c-7.749-2.664-10.96-10.546-12.62-17.948C46.15,25.158,43.042,26.019,43.497,28.043L43.497,28.043z"/>
	</g>
</g>
<g>
	<path fill="#FFFFFF" d="M95.777,21.751c-2.186,0-1.405-4.215,0.469-4.215c5.464,0,10.539-0.078,15.144-0.234
		c2.654-0.078,14.364-1.015,22.717-0.078c0.937,0.156,0.156,4.45,0.156,4.45c-2.342,0.078-5.387,0.156-9.134,0.156
		c-0.858,0-2.498,0-4.605,0c3.825,12.256,1.483,50.507,1.327,55.191c-0.703,15.301-3.279,11.944-12.334,11.944
		c-2.888,0-1.795-18.502-1.327-21.39c1.639-11.007,0.937-32.084,1.873-45.746C105.691,21.751,100.773,21.751,95.777,21.751z"/>
	<path fill="#FFFFFF" d="M130.516,61.018c-0.078-2.264,0.234-16.315,0.703-27.557c0.312-7.026-1.093-16.315,8.665-16.55
		c5.855-0.156,10.929,4.762,10.851,12.413c-0.156,10.07-5.387,23.107-9.29,32.396c0,0.156,4.06-8.119,9.134-10.773
		c4.45-2.264,9.992-0.937,11.319,4.06c0.937,3.669-0.156,20.53-0.391,25.448c-0.156,4.294-0.156,8.432,0.547,9.212
		c1.405,1.405,6.011-8.978,8.196-13.037c0.703-1.327,1.249-2.42,1.562-2.966c1.405-2.498,3.278-1.249,2.42,0.702
		c-0.469,0.859-1.171,2.108-1.952,3.513c-2.81,4.606-8.431,14.988-10.851,16.16c-2.888,1.326-6.87,0.155-8.509-1.874
		c-3.435-4.138-1.562-16.862-1.717-20.141c-0.078-0.937-0.078-1.873-0.156-2.811c0-5.62,3.201-20.14-3.435-12.724
		c-3.278,3.669-6.167,9.68-6.245,13.115c-0.078,3.591-0.078,7.572,0,10.929c0.078,4.685,0.391,5.621-1.249,6.245
		c-2.186,0.938-6.557,0.312-7.572-2.107c-1.795-4.216-1.093-9.914-1.249-12.646C131.062,67.731,130.75,64.062,130.516,61.018z
		 M148.08,27.684c-0.234-3.356-2.889-11.319-4.684-2.81c-1.717,8.197-1.952,27.166-1.952,30.445
		C143.006,48.293,148.548,36.037,148.08,27.684z"/>
	<path fill="#FFFFFF" d="M186.332,56.178c-2.732,3.044-3.357,7.416-4.216,11.709c-5.698,28.182,16.862,23.498,15.379-3.2
		c-13.974-2.966-8.665-19.125-1.093-11.788c1.951,1.795,3.2,5.152,3.669,9.133c4.293,1.093,8.509-1.093,10.538-3.903
		c1.093-1.561,3.045,0.937,2.03,2.108c-3.825,4.215-10.383,4.528-12.335,4.215c0.625,11.241-4.215,25.605-15.534,24.824
		c-12.725-0.702-15.301-13.661-13.115-25.058c1.016-5.621,3.123-13.115,7.807-16.003C180.711,47.513,190.938,50.791,186.332,56.178z
		 M196.948,61.954c-0.312-2.186-1.483-4.918-2.576-6.635c-1.951-3.044-2.732-0.156-2.654,1.639
		C191.874,60.081,196.948,61.954,196.948,61.954z"/>
	<path fill="#FFFFFF" d="M212.094,85.373c-3.435-4.137-2.654-12.646-2.889-15.925c-0.546-9.445-1.639-15.613-0.078-18.735
		c0.859-1.717,1.327-2.576,5.777-2.576c10.616,0,2.264,7.963,4.918,19.828c0.312,1.405,0.156,7.338,0.546,11.397
		c0.312,3.513,0.078,6.948,2.342,4.606c4.06-4.294,5.309-14.13,5.699-17.019c0.78-6.557-1.015-11.085,0.234-13.661
		c0.858-1.717,3.122-2.264,7.65-2.264c1.873,0,4.996,0.39,4.059,3.903c-1.795,6.947-0.858,15.769-1.171,20.608
		c-0.39,4.45-0.546,9.681,3.357,6.87c2.498-1.796,4.84-7.338,5.62-8.743c1.483-2.498,3.278-1.249,2.42,0.702
		c-1.951,4.216-6.558,10.227-10.46,12.022c-2.889,1.404-6.87,0.156-8.51-1.796c-2.186-2.654-2.654-5.62-2.81-8.274
		C227.551,86.232,218.729,93.57,212.094,85.373z"/>
	<path fill="#FFFFFF" d="M285.63,74.21c-0.468,0.938-0.156,0.547-0.702,1.483c-3.356,5.465-6.479,8.275-9.758,10.852
		c-0.234,3.513,0.546,6.635,0.234,10.304c-0.234,2.654-0.156,6.245-0.391,8.275c-0.781,6.713-6.714,8.274-10.773,6.947
		c-4.84-1.483-8.82-7.338-4.605-14.676c2.186-3.669,4.762-6.167,7.494-8.197c-0.156-4.762-0.702-8.821-1.015-11.319
		c-0.156-1.093-0.312-1.873-0.391-2.342c0-0.234,0-0.546,0-0.78c-1.171,9.445-9.68,16.394-16.003,8.587
		c-4.293-5.152-2.42-27.791,3.201-33.411c4.449-4.372,10.772-4.216,14.363-2.576c3.747,1.639,4.449,5.464,4.605,7.572
		c0.156,3.825-4.762,2.264-4.527,0.937c1.327-6.401-0.937-7.26-2.732-6.167c-5.776,3.591-7.65,21.155-7.025,27.947
		c0.312,3.278,0.156,6.635,2.264,4.371c3.903-4.06,5.074-13.427,5.387-16.159c0.624-4.372,11.319-3.435,10.538-0.703
		c-0.39,1.562-0.468,7.417-0.468,10.773c0.078,0.702,0.078,1.873,0.078,3.356c0,1.327-0.078,1.874-0.156,3.591
		c3.513-1.951,6.167-5.854,8.04-9.289C284.693,71.166,286.411,72.415,285.63,74.21z M267.129,92.789
		c-1.327,1.172-2.654,2.421-4.06,4.06c-7.884,8.665,2.967,17.175,3.981,9.758C267.285,104.499,267.051,97.474,267.129,92.789z"/>
	<path fill="#FFFFFF" d="M282.43,61.018c-0.078-2.264,0.234-16.315,0.702-27.557c0.312-7.026-1.093-16.315,8.665-16.55
		c5.855-0.156,10.93,4.762,10.852,12.413c-0.156,10.07-5.387,23.107-9.29,32.396c0,0.156,4.06-8.119,9.134-10.773
		c4.449-2.264,9.992-0.937,11.319,4.06c0.937,3.669-0.156,20.53-0.391,25.448c-0.156,4.294-0.156,8.432,0.547,9.212
		c1.405,1.405,6.011-8.978,8.196-13.037c0.703-1.327,1.249-2.42,1.562-2.966c1.405-2.498,3.278-1.249,2.42,0.702
		c-0.469,0.859-1.171,2.108-1.952,3.513c-2.81,4.606-8.431,14.988-10.851,16.16c-2.888,1.326-6.869,0.155-8.509-1.874
		c-3.435-4.138-1.562-16.862-1.718-20.141c-0.078-0.937-0.078-1.873-0.155-2.811c0-5.62,3.2-20.14-3.436-12.724
		c-3.278,3.669-6.167,9.68-6.245,13.115c-0.078,3.591-0.078,7.572,0,10.929c0.078,4.685,0.391,5.621-1.249,6.245
		c-2.186,0.938-6.557,0.312-7.572-2.107c-1.795-4.216-1.093-9.914-1.249-12.646C282.977,67.731,282.664,64.062,282.43,61.018z
		 M299.994,27.684c-0.234-3.356-2.889-11.319-4.684-2.81c-1.718,8.197-1.952,27.166-1.952,30.445
		C294.92,48.293,300.463,36.037,299.994,27.684z"/>
	<path fill="#FFFFFF" d="M337.387,71.166c-2.342,0-2.186-0.078-3.356-1.562c-0.391-6.557-2.576-12.178,1.562-17.486
		c4.137-5.23,7.729-11.163,7.338-18.813c-0.858-19.672-9.134-15.457-10.148-3.747c-0.078,1.093-5.543,1.483-5.854-0.78
		c-1.483-11.319,11.943-14.911,20.296-8.041c6.948,5.699,6.246,19.906,1.64,28.806c-1.873,3.591-4.06,6.245-6.323,8.743
		C339.729,61.33,340.354,71.166,337.387,71.166z M337.153,75.147c4.84-0.234,2.81,9.367,2.653,10.382
		c-0.39,2.342-1.717,2.108-6.011,2.108C330.674,87.56,331.376,75.459,337.153,75.147z"/>
</g>
<g>
	<path fill="#FFFFFF" d="M192.865,38.15l-4.004-17.294l-4.128,17.294h-9.864L165.5,9.217h10.237l4.375,18.986l4.292-18.945
		l9.328-0.041l4.376,18.986l4.292-18.986h9.782l-9.452,28.934H192.865z"/>
	<path fill="#FFFFFF" d="M232.571,38.15V27.708h-8.957V38.15h-9.576V9.217h9.576v11.227h8.957V9.217h9.575V38.15H232.571z"/>
	<path fill="#FFFFFF" d="M263.938,38.15h-9.576v-8.792L243.796,9.217h9.535l5.819,11.144l5.613-11.144h9.535l-10.36,19.936V38.15z"
		/>
</g>
<g>
	<path fill="#460A37" d="M27.751,58.01c0-7.84-0.766-14.609-7.676-17.254l-1.184-27.431c0.349-0.275,0.571-0.667,0.571-1.104
		c0-0.38-0.17-0.722-0.442-0.988c0.271-0.381,0.442-0.875,0.442-1.421c0-1.198-0.792-2.17-1.77-2.17H9.405
		c-0.979,0-1.771,0.972-1.771,2.17c0,0.546,0.17,1.04,0.442,1.421c-0.271,0.266-0.442,0.608-0.442,0.988
		c0,0.459,0.247,0.865,0.626,1.142L7.164,40.666c-7.031,2.585-8.421,9.412-8.421,17.339v49.469c0,0,0,0.424,0,0.647
		c0,1.502,4.607,2.647,14.763,2.647s14.245-1.14,14.245-2.642c0-0.223,0-0.648,0-0.648L27.751,58.01L27.751,58.01z"/>
	<path fill="#EAE3D6" d="M27.751,64.413c0,0-4.089,2.435-14.245,2.435c-10.156,0-14.764-2.441-14.764-2.441v25.9
		c0,0,0,0.424,0,0.647c0,1.502,4.607,2.647,14.763,2.647s14.245-1.141,14.245-2.642c0-0.224,0-0.647,0-0.647L27.751,64.413
		L27.751,64.413z"/>
	<g opacity="0.3">
		<path fill="#7D4274" d="M9.571,43.087c-6.981,3.756-7.372,11.38-7.375,18.472c0,1.67,2.59,1.669,2.59,0
			c0.002-6.122-0.009-12.952,6.092-16.236C12.349,44.532,11.042,42.297,9.571,43.087L9.571,43.087z"/>
	</g>
	<g opacity="0.3">
		<path fill="#F4F4F4" d="M4.57,89.66c0-6.907,0-13.813,0-20.721c0-1.67-2.59-1.67-2.59,0c0,6.907,0,13.814,0,20.721
			C1.98,91.331,4.57,91.331,4.57,89.66L4.57,89.66z"/>
	</g>
	<g opacity="0.3">
		<path fill="#7D4274" d="M1.462,96.135c0.455,3.793,0.158,7.59,0.13,11.396c-0.012,1.671,2.578,1.67,2.59,0
			c0.028-3.806,0.325-7.603-0.129-11.396C3.856,94.498,1.264,94.479,1.462,96.135L1.462,96.135z"/>
	</g>
	<g opacity="0.3">
		<path fill="#7D4274" d="M12.857,36.953c-0.051-6.985,1.353-13.87,1.425-20.849c0.017-1.671-2.573-1.669-2.59,0
			c-0.073,6.979-1.476,13.864-1.424,20.849C10.28,38.623,12.871,38.624,12.857,36.953L12.857,36.953z"/>
	</g>
</g>
</svg>
