<?xml version="1.0" encoding="utf-8"?>
<!-- Generator: Adobe Illustrator 16.0.0, SVG Export Plug-In . SVG Version: 6.00 Build 0)  -->
<!DOCTYPE svg PUBLIC "-//W3C//DTD SVG 1.1//EN" "http://www.w3.org/Graphics/SVG/1.1/DTD/svg11.dtd">
<svg version="1.1" id="Layer_1" xmlns="http://www.w3.org/2000/svg" xmlns:xlink="http://www.w3.org/1999/xlink" x="0px" y="0px"
	 width="347.5px" height="99.5px" viewBox="0 0 347.5 99.5" enable-background="new 0 0 347.5 99.5" xml:space="preserve">
<g>
	<path fill="#FFFFFF" d="M61.114,34.341c1.86,12.06,1.2,30.059-3.12,36.838c-3,4.8-9.3,7.44-18.119,4.86
		c-14.22-4.2-9.06-47.998-3-53.218c2.52-2.22,7.14-3.66,11.58-3.42C57.754,19.821,59.854,26.301,61.114,34.341z M47.974,22.341
		c-1.38-0.6-3.06,0.24-4.32,4.26c-3.24,10.14-3.66,38.579,0.06,45.838c1.14,2.28,5.1,1.56,6.18-3.06
		c1.86-7.919,1.8-23.399,1.32-33.898C51.094,32.661,51.754,24.082,47.974,22.341z"/>
	<path fill="#FFFFFF" d="M70.174,72.379c-2.64-3.18-2.04-9.72-2.22-12.24c-0.42-7.259-1.26-12-0.06-14.399
		c0.66-1.32,1.02-1.98,4.439-1.98c8.16,0,1.74,6.12,3.78,15.24c0.24,1.08,0.12,5.64,0.42,8.759c0.24,2.7,0.06,5.34,1.8,3.54
		c3.12-3.3,4.08-10.859,4.38-13.08c0.6-5.04-0.78-8.52,0.18-10.5c0.66-1.32,2.4-1.74,5.88-1.74c1.44,0,3.84,0.3,3.12,3
		c-1.38,5.339-0.66,12.119-0.9,15.839c-0.3,3.42-0.42,7.439,2.58,5.28c1.92-1.38,3.72-5.64,4.32-6.72c1.14-1.92,2.52-0.96,1.86,0.54
		c-1.5,3.24-5.04,7.86-8.04,9.24c-2.22,1.08-5.28,0.12-6.54-1.38c-1.68-2.04-2.04-4.32-2.16-6.36
		C82.054,73.04,75.274,78.679,70.174,72.379z"/>
	<path fill="#FFFFFF" d="M110.254,60.14c0.06-4.2,0.6-8.16-0.12-8.16c-0.84,2.28-3.84,3-5.88,2.52c-1.62,4.02-2.28,5.28-5.04,10.379
		c-0.9,1.62-2.64,0.6-1.5-1.2c3.96-6.3,3.24-6,4.68-9.959c-4.92-2.82-7.2-13.08-3.12-16.68c2.52-2.22,8.58-2.28,9.419,2.4
		c0.18,1.02-0.48,2.939-0.78,4.14c-0.54,2.16-0.24,1.86-1.44,5.52c2.94,2.1,3.18-0.06,4.08-1.8c0.78-1.5,2.7-1.44,4.2-1.44
		c3.72,0,4.38,1.26,4.2,3.54c-0.06,0.72-0.48,5.34-0.66,10.319c-0.36,7.62-0.3,16.02,2.1,12.24c1.56-2.46,4.44-7.5,5.04-8.58
		c1.14-1.98,2.4-0.84,1.74,0.6c-1.5,3.24-5.7,10.32-8.7,11.76c-2.22,1.02-5.34,0.12-6.6-1.44c-0.72-0.9-1.08-2.04-1.2-3.36
		C110.554,70.219,110.194,65,110.254,60.14z M104.254,47.96c0.96-2.94,0.78-2.46,1.2-4.38c0.24-1.26,1.26-6.6-1.5-6.18
		C100.474,37.941,102.154,46.34,104.254,47.96z"/>
	<path fill="#FFFFFF" d="M134.793,36.801c-0.3-2.28-1.14-16.559,1.02-16.559c5.1,0,7.5-1.38,8.64,2.399
		c1.32-2.04,5.34-3.12,10.32-2.22c12.299,2.16,7.68,29.159,2.52,32.159c-3,1.74-8.16,2.4-11.759,1.02
		c0,11.52-0.36,21.419-3.48,21.419c-2.4,0-4.44,0.54-5.64-1.02C135.454,63.56,136.173,45.8,134.793,36.801z M150.753,49.64
		c3.42-5.399,3.3-21.479,0.12-25.559c-2.34-3.06-4.92-1.26-5.76,2.64C145.473,30.381,143.133,61.46,150.753,49.64z"/>
	<path fill="#FFFFFF" d="M168.033,72.379c-2.64-3.18-2.04-9.72-2.22-12.24c-0.42-7.259-1.26-12-0.06-14.399
		c0.66-1.32,1.02-1.98,4.439-1.98c8.16,0,1.74,6.12,3.78,15.24c0.24,1.08,0.12,5.64,0.42,8.759c0.24,2.7,0.06,5.34,1.8,3.54
		c3.12-3.3,4.08-10.859,4.38-13.08c0.6-5.04-0.78-8.52,0.18-10.5c0.66-1.32,2.4-1.74,5.88-1.74c1.44,0,3.84,0.3,3.12,3
		c-1.38,5.339-0.66,12.119-0.9,15.839c-0.3,3.42-0.42,7.439,2.58,5.28c1.92-1.38,3.72-5.64,4.32-6.72c1.14-1.92,2.52-0.96,1.86,0.54
		c-1.5,3.24-5.04,7.86-8.04,9.24c-2.22,1.08-5.28,0.12-6.54-1.38c-1.68-2.04-2.04-4.32-2.16-6.36
		C179.913,73.04,173.133,78.679,168.033,72.379z"/>
	<path fill="#FFFFFF" d="M208.113,60.14c0.06-4.2,0.6-8.16-0.12-8.16c-0.84,2.28-3.84,3-5.88,2.52c-1.62,4.02-2.28,5.28-5.04,10.379
		c-0.9,1.62-2.64,0.6-1.5-1.2c3.96-6.3,3.24-6,4.68-9.959c-4.919-2.82-7.2-13.08-3.12-16.68c2.52-2.22,8.58-2.28,9.419,2.4
		c0.18,1.02-0.48,2.939-0.78,4.14c-0.54,2.16-0.24,1.86-1.44,5.52c2.94,2.1,3.18-0.06,4.08-1.8c0.78-1.5,2.7-1.44,4.2-1.44
		c3.72,0,4.379,1.26,4.2,3.54c-0.06,0.72-0.48,5.34-0.66,10.319c-0.36,7.62-0.3,16.02,2.1,12.24c1.56-2.46,4.439-7.5,5.04-8.58
		c1.14-1.98,2.4-0.84,1.74,0.6c-1.5,3.24-5.7,10.32-8.7,11.76c-2.22,1.02-5.34,0.12-6.6-1.44c-0.72-0.9-1.08-2.04-1.2-3.36
		C208.413,70.219,208.053,65,208.113,60.14z M202.113,47.96c0.96-2.94,0.78-2.46,1.2-4.38c0.24-1.26,1.26-6.6-1.5-6.18
		C198.333,37.941,200.013,46.34,202.113,47.96z"/>
	<path fill="#FFFFFF" d="M241.532,47.24c1.141,0.96,2.28,4.56,2.82,6.48c3.479,1.08,6.899-0.6,8.52-2.88
		c0.84-1.2,2.34,0.72,1.56,1.62c-3.239,3.6-9.18,3.48-9.839,3.12c1.079,6.3-0.36,12.899-3.54,16.019c-3.54,3.54-6.42,3.6-10.08,2.34
		c0,2.04-0.06,4.08-0.06,6c-0.12,5.64,0.6,11.399,0,12.359c-0.96,1.56-6.06,1.14-6.9-0.96c-0.54-1.38-0.48-12-0.9-17.819
		c-0.24-3.18-0.06-10.02-0.06-13.019c0-2.88,0-10.74-0.42-12.66c-0.6-2.82,8.04-3.72,8.52,0.72l-0.06,0.6l-0.54,13.14
		c-0.42,6.3-0.6,11.16,2.52,10.56c5.28-1.02,4.86-12.18,4.2-18.479c-0.48-0.18-3.6-0.66-4.74-1.92
		C229.833,49.58,234.212,40.761,241.532,47.24z M233.792,49.1c-1.26,1.68,2.82,2.94,2.82,2.94
		C236.192,49.46,234.512,48.14,233.792,49.1z"/>
	<path fill="#FFFFFF" d="M262.892,50.12c-2.1,2.4-2.58,5.76-3.239,9c-4.38,21.719,12.959,18.12,11.819-2.459
		c-10.74-2.22-6.66-14.64-0.84-9.06c1.5,1.44,2.46,4.02,2.819,7.08c2.7,0.66,5.28-0.3,7.02-1.86c-0.779-2.4-1.92-6.12-0.84-10.62
		c1.08-4.86,7.92-9,11.28-5.82c1.26,1.26,1.619,3.6,0.06,6.9c-0.96,2.1-2.04,3.479-3.6,5.52c0.3,7.08,7.079,12.959,4.8,22.559
		c3-1.68,5.52-5.4,6.659-7.919c0.96-2.04,3-1.08,1.5,1.14c-3.96,6.12-12.119,15.6-18.959,7.979c-1.68-1.92,1.68-4.14,2.16-2.28
		c1.02,3.72,3.659,0.96,3.84,0.3c0.659-3.72-4.021-11.58-5.521-14.28l-0.6-1.44c-2.88,1.74-6.42,1.86-7.619,1.62
		c0.479,8.7-3.24,19.739-11.94,19.139c-9.779-0.6-11.759-10.56-10.079-19.259c0.78-4.32,2.399-10.08,6-12.299
		C258.573,43.521,266.432,46.041,262.892,50.12z M271.052,54.62c-0.24-1.68-1.141-3.78-1.98-5.1c-1.5-2.34-2.1-0.12-2.04,1.26
		C267.152,53.12,271.112,54.62,271.052,54.62z M287.372,45.44c5.52-8.879,1.56-9.18,0.239-5.94c-1.38,3.12-0.72,6.78-0.72,6.78
		L287.372,45.44z"/>
	<path fill="#FFFFFF" d="M321.09,66.68c0.48-0.9,1.021-1.92,1.801-3.3c1.08-1.92,2.52-0.96,1.799,0.54
		c-0.539,1.2-1.078,2.16-1.559,2.94c-3.781,6.18-10.02,10.5-18.719,6.3c-8.521-4.08-7.5-17.219-1.801-24.719
		c2.94-3.78,10.799-6,14.219-1.86c4.98,6.06-3.959,20.339-10.079,19.619v-0.06c0.42,2.52,1.44,4.68,3.36,6
		C314.551,75.079,318.871,70.52,321.09,66.68z M316.65,50.48c0.061-2.28-0.66-2.88-1.32-3.479c-1.26-1.14-3.66,0.3-5.1,2.94
		c-2.039,3.84-4.08,9.6-3.599,14.519C306.751,66.2,316.352,61.04,316.65,50.48z"/>
</g>
</svg>
