<?xml version="1.0" encoding="utf-8"?>
<!-- Generator: Adobe Illustrator 16.0.0, SVG Export Plug-In . SVG Version: 6.00 Build 0)  -->
<!DOCTYPE svg PUBLIC "-//W3C//DTD SVG 1.1//EN" "http://www.w3.org/Graphics/SVG/1.1/DTD/svg11.dtd">
<svg version="1.1" id="Layer_1" xmlns="http://www.w3.org/2000/svg" xmlns:xlink="http://www.w3.org/1999/xlink" x="0px" y="0px"
	 width="235.599px" height="178.597px" viewBox="0 0 235.599 178.597" enable-background="new 0 0 235.599 178.597"
	 xml:space="preserve">
<path fill="#F2C7C7" d="M122.168,132.098c3.329,6.117,7.51,11.499,9.013,18.507c1.249,5.82,1.468,11.576,1.774,17.454
	c2.606-0.472,5.497-0.556,8.212-0.962c2.103-0.314,4.924-1.699,6.964-1.038c0.291-5.13,1.108-10.72-0.275-15.656
	c-2.084-7.441-5.379-15.333-9.876-21.562c-1.273-1.765-2.494-4.418-4-5.993c-1.784-1.866-3.302-0.431-5.755,0.312
	c-1.865,0.565-3.848,1.372-4.869,3.119c-0.941,1.613-0.332,3.421-0.938,5.068"/>
<path fill="#CE6363" d="M191.815,125.443c0,16.845-15.67,30.5-35,30.5s-28-13.655-28-30.5s8.67-30.5,28-30.5
	S191.815,108.598,191.815,125.443z"/>
<path fill="#F3B8B8" d="M212.265,66.896c-0.964-13.653-12.813-23.938-26.466-22.975c-1.004,0.071-1.988,0.208-2.953,0.393
	c-4.105-10.524-14.695-17.628-26.557-16.791c-4.779,0.337-9.167,1.928-12.878,4.419c-5.294-9.96-16.097-16.408-28.073-15.562
	c-9.147,0.646-17.021,5.407-21.943,12.344c-5.202-3.266-11.446-4.974-18.041-4.508C64.255,25,55.001,31.732,50.469,41.072
	C32.194,43.408,18.709,59.64,20.023,78.248c1.24,17.553,15.218,31.159,32.261,32.434c4.217,13.494,16.784,23.055,31.3,23.123
	c7.243,7.516,17.638,11.891,28.864,11.098c9.45-0.666,17.804-4.877,23.858-11.237c4.932,3.726,11.176,5.757,17.826,5.286
	c7.824-0.552,14.611-4.449,19.07-10.194c3.103,0.958,6.429,1.377,9.863,1.134c14.875-1.05,26.081-13.96,25.031-28.834
	c-0.353-4.983-2.041-9.551-4.682-13.388C209.315,82.739,212.848,75.149,212.265,66.896z"/>
<path fill="none" stroke="#CE6363" stroke-width="7" stroke-linecap="round" stroke-linejoin="round" stroke-miterlimit="10" d="
	M53.204,108.252c3.069-5.189,4.144-12.493,12.524-15.237c6.884-2.255,12.819-0.905,18.725,2.521"/>
<path fill="none" stroke="#CE6363" stroke-width="7" stroke-linecap="round" stroke-linejoin="round" stroke-miterlimit="10" d="
	M90.444,75.331c-1.22,9.454-8.064,17.319-6.701,27.674c0.996,7.559,7.47,11.968,13.389,14.51"/>
<path fill="none" stroke="#CE6363" stroke-width="7" stroke-linecap="round" stroke-linejoin="round" stroke-miterlimit="10" d="
	M176.448,53.062c-7.595,9.557-10.46,20.166-2.275,31.615c5.383,7.527,19.248,11.765,26.961,5.296"/>
<path fill="none" stroke="#CE6363" stroke-width="7" stroke-linecap="round" stroke-linejoin="round" stroke-miterlimit="10" d="
	M160.872,113.347c-0.521-7.375-1.735-13.109,2.652-19.234c3.141-4.385,7.01-5.542,11.523-7.164"/>
<path fill="none" stroke="#CE6363" stroke-width="7" stroke-linecap="round" stroke-linejoin="round" stroke-miterlimit="10" d="
	M51.383,43.202c0.053,4.362,3.342,6.007,6.125,8.577c3.444,3.179,6.477,4.795,11.145,5.296c3.803,0.408,7.465,0.292,11.238-0.543
	c4.593-1.017,6.959-3.085,10.618-5.818"/>
<path fill="none" stroke="#CE6363" stroke-width="7" stroke-linecap="round" stroke-linejoin="round" stroke-miterlimit="10" d="
	M109.944,91.697c8.223-2.797,16.113-3.582,21.603,4.238c1.614,2.301,3.027,5.006,3.307,7.788c0.375,3.756-1.266,5.446-2.661,8.457"
	/>
<path fill="none" stroke="#CE6363" stroke-width="7" stroke-linecap="round" stroke-linejoin="round" stroke-miterlimit="10" d="
	M142.624,32.749c-0.158,1.971-2.895,3.098-4.196,4.476c-1.719,1.817-2.725,3.486-4.929,4.745c-2.717,1.553-5.914,2.519-8.822,2.817
	c-4.473,0.459-13.376-0.089-15.153-5.189"/>
<path fill="none" stroke="#CE6363" stroke-width="7" stroke-linecap="round" stroke-linejoin="round" stroke-miterlimit="10" d="
	M144.769,66.682c-7.083,3.038-18.217,2.613-22.346-4.994c-2.157-3.976-4.358-10.461-0.812-14.172"/>
<path fill="#28120D" d="M186.01,54.403c0-1.933-1.646-3.5-3.676-3.5H75.296c-2.031,0-3.677,1.567-3.677,3.5
	c0,1.544,1.057,2.839,2.514,3.304c-0.329,1.553-0.515,3.123-0.515,4.696v6.992c0,12.682,10.318,23,23,23h6.991
	c12.682,0,23-10.318,23-23v-0.674h3.512v0.674c0,12.682,10.317,23,23,23h6.99c12.683,0,23-10.318,23-23v-6.992
	c0-1.519-0.172-3.032-0.479-4.529C184.522,57.727,186.01,56.239,186.01,54.403z M120.61,69.396c0,9.374-7.626,17-17,17h-6.991
	c-9.374,0-17-7.626-17-17v-6.992c0-1.168,0.125-2.339,0.375-3.5h40.242c0.249,1.159,0.375,2.33,0.375,3.5V69.396z M126.61,63.722
	v-1.318c0-1.508-0.172-3.012-0.473-4.5h4.457c-0.303,1.489-0.473,2.993-0.473,4.5v1.318H126.61z M177.112,69.396
	c0,9.374-7.625,17-17,17h-6.99c-9.375,0-17-7.626-17-17v-6.992c0-1.169,0.125-2.34,0.375-3.5h40.242
	c0.248,1.158,0.373,2.329,0.373,3.5V69.396z"/>
<g>
	<polygon fill="#E2DDB7" points="109.971,88.679 112.471,85.512 153.295,92.801 182.805,76.847 187.138,78.679 153.295,96.679 	"/>
	<polygon fill="#14709A" points="108.637,87.513 153.684,92.847 188.637,76.847 188.637,133.847 153.684,147.513 108.637,141.18 	
		"/>
	<polyline fill="#022835" points="149.804,93.18 149.804,146.967 153.684,147.513 156.786,146.3 156.786,91.427 153.684,92.847 
		149.804,92.388 	"/>
</g>
<path fill="none" stroke="#28120D" stroke-width="7" stroke-miterlimit="10" d="M36.751,88.421
	c0.145,3.191-4.301,7.094-5.017,10.656c-0.908,4.511,0.17,6.122,4.601,7.436c11.208,3.321,23.04,3.36,34.397,5.482
	c8.031,1.501,15.215,2.102,23.368,2.093c5.646-0.006,10.628,1.633,16.317,1.667c1.134,0.007,2.18-0.013,3.267,0.209
	c2.104-3.513,11.253-6.22,12.074-0.209c0.922,6.751-8.697,4.21-11.008,1"/>
<path fill="none" stroke="#28120D" stroke-width="7" stroke-miterlimit="10" d="M208.418,80.754
	c3.233,1.394,7.997,5.093,9.592,8.333c2.824,5.739-6.943,9.847-10.926,12.415c-7.793,5.026-15.814,6.6-23.908,9.877
	c-2.024-2.722-10.793-3.985-9.424,1.375c1.21,4.737,6.636,1.316,8.999-0.334"/>
</svg>
