<?xml version="1.0" encoding="utf-8"?>
<!-- Generator: Adobe Illustrator 16.0.0, SVG Export Plug-In . SVG Version: 6.00 Build 0)  -->
<!DOCTYPE svg PUBLIC "-//W3C//DTD SVG 1.1//EN" "http://www.w3.org/Graphics/SVG/1.1/DTD/svg11.dtd">
<svg version="1.1" id="Layer_1" xmlns="http://www.w3.org/2000/svg" xmlns:xlink="http://www.w3.org/1999/xlink" x="0px" y="0px"
	 width="417px" height="97px" viewBox="0 0 417 97" enable-background="new 0 0 417 97" xml:space="preserve">
<g>
	<path fill="#FFFFFF" d="M136.321,19.512v3.441h6.669v2.974h-6.669v5.48h-3.781V16.538h11.024v2.974H136.321z"/>
	<path fill="#FFFFFF" d="M160.472,23.951c0,4.333-3.441,7.625-8.05,7.625c-4.588,0-8.029-3.271-8.029-7.625
		c0-4.333,3.441-7.541,8.029-7.541C157.031,16.411,160.472,19.639,160.472,23.951z M148.259,23.972c0,2.506,1.933,4.439,4.206,4.439
		c2.294,0,4.121-1.933,4.121-4.439s-1.827-4.397-4.121-4.397S148.259,21.466,148.259,23.972z"/>
	<path fill="#FFFFFF" d="M169.225,27.222h-0.106h-2.867v4.185h-3.781V16.538h6.648c3.93,0,6.181,1.869,6.181,5.183
		c0,2.272-0.956,3.908-2.698,4.779l3.123,4.906h-4.291L169.225,27.222z M169.119,24.248c1.636,0,2.592-0.828,2.592-2.4
		c0-1.55-0.956-2.336-2.592-2.336h-2.867v4.736H169.119z"/>
	<path fill="#FFFFFF" d="M189.66,19.575v11.831h-3.781V19.575h-4.439v-3.059h12.702v3.059H189.66z"/>
	<path fill="#FFFFFF" d="M205.698,31.406v-5.777h-6.16v5.777h-3.781V16.538h3.781v6.117h6.16v-6.117h3.781v14.868H205.698z"/>
	<path fill="#FFFFFF" d="M216.235,19.512v2.952h7.094v2.974h-7.094v2.995h8.093v2.974h-11.874V16.538h11.64v2.974H216.235z"/>
</g>
<g>
	<path fill="#FFFFFF" d="M131.102,42.098c-1.4,0-0.9-2.7,0.3-2.7c3.5,0,6.75-0.05,9.701-0.15c1.7-0.05,9.201-0.65,14.551-0.05
		c0.6,0.1,0.1,2.85,0.1,2.85c-1.5,0.05-3.45,0.1-5.851,0.1c-0.55,0-1.6,0-2.95,0c2.45,7.851,0.95,32.352,0.85,35.352
		c-0.45,9.801-2.1,7.65-7.9,7.65c-1.85,0-1.15-11.851-0.85-13.701c1.05-7.05,0.6-20.551,1.2-29.302
		C137.452,42.098,134.302,42.098,131.102,42.098z"/>
	<path fill="#FFFFFF" d="M159.152,84.65c-2,0-3.65,0.45-4.701-0.8c-0.75-8.601,0.35-22.952-0.8-30.402
		c-0.25-1.85-0.95-13.601,0.85-13.601c3.1,0,6.05-0.75,7.2,0.15c0.4,0.3-0.1,2.5,0.1,3.2c0.9-3.25,4.4-4.95,8.75-3.6
		c10.25,3.05,6.75,38.902,2.45,43.103c-3.15,3.05-9.101,3.8-11.75-0.7C160.752,83.65,160.052,84.65,159.152,84.65z M162.402,51.148
		c0.3,6-1.3,27.952,1.25,30.702c1.7,1.85,3.25,1.45,4.5-3.05c2.3-8.101,3.05-29.652,0.4-35.402
		C166.252,38.447,162.102,44.397,162.402,51.148z"/>
	<path fill="#FFFFFF" d="M199.653,71.099c1.1,3.15,1.85,7.05-0.5,10.601c-1.85,2.75-6.25,3.9-9.551,3.7c-2.8-0.15-3.9-0.6-5.8-2.65
		c-0.95-1.05-1.9-2.6-2.2-4.05c-0.4-1.6-0.25-3.45,0.45-5.55c0.45-1.3,4.4-0.1,4,1.2c-0.55,1.5-0.6,2.85-0.75,3.95
		c-0.55,4,3.351,6.25,5.65,5.25c3.75-1.6,2.35-9-0.1-12.15c-6.05-7.75-12.851-13.701-7.9-26.802c0.5-1.35,1.5-2.45,2.55-3.3
		c3.3-2.8,9.25-3.5,12.401-0.35c2.15,2.1,3.2,5.55,2.35,10.151c-0.3,1.5-4.45,1.1-3.85-1.6c2.5-10.801-6.801-12.701-7.351,0.15
		C188.602,58.648,196.603,62.049,199.653,71.099z"/>
	<path fill="#FFFFFF" d="M204.852,84.25c-0.75-7.75,0.35-21.401-0.8-28.102c-0.25-1.7-0.95-16.651,0.85-16.651
		c4.2,0,6.1-1.65,7.1,2.101c3.15-3.4,9.051-3.15,11.551-1.7c4.3,2.45,5.5,13.75,0.1,18.501c-0.95,0.8-3.7,1.6-6.05,1.9
		c15.701-1.35,13.451,31.502-6.851,24.001c-0.35,0.45-0.75,0.7-1.2,0.7C207.552,85,205.902,85.4,204.852,84.25z M212.802,51.248
		c0.1,2.1,0.8,13.851-0.1,22.151c-0.35,3.05-0.35,13.501,4.6,8.55c4.3-4.25,4.4-20.451-1.1-20.801c-1.3-0.1-1.25-1.9,0.15-2.1
		c5.05-0.6,4.95-11.65,2.65-15.751C215.802,37.497,212.452,44.047,212.802,51.248z"/>
</g>
<g>
	<path fill="#F2C7C7" d="M74.795,72.161c1.8,3.309,4.062,6.219,4.874,10.009c0.676,3.147,0.793,6.26,0.96,9.439
		c1.409-0.255,2.973-0.301,4.441-0.521c1.137-0.17,2.663-0.919,3.766-0.561c0.157-2.774,0.6-5.797-0.149-8.467
		c-1.127-4.024-2.909-8.292-5.341-11.661c-0.689-0.954-1.349-2.389-2.164-3.241c-0.965-1.009-1.785-0.233-3.112,0.169
		c-1.009,0.306-2.081,0.742-2.633,1.687c-0.509,0.873-0.18,1.85-0.507,2.741"/>
	<path fill="#CE6363" d="M112.46,68.562c0,9.11-8.474,16.495-18.928,16.495c-10.454,0-15.143-7.385-15.143-16.495
		s4.689-16.495,15.143-16.495C103.986,52.067,112.46,59.452,112.46,68.562z"/>
	<path fill="#F3B8B8" d="M123.521,36.899c-0.521-7.384-6.93-12.946-14.313-12.425c-0.543,0.039-1.075,0.112-1.597,0.212
		c-2.221-5.691-7.947-9.534-14.362-9.081c-2.584,0.183-4.957,1.043-6.964,2.39c-2.863-5.386-8.705-8.873-15.182-8.416
		c-4.947,0.35-9.205,2.924-11.867,6.676c-2.813-1.766-6.19-2.689-9.756-2.438c-6.003,0.424-11.008,4.064-13.459,9.116
		c-9.883,1.264-17.175,10.042-16.465,20.105c0.67,9.492,8.23,16.851,17.447,17.54c2.28,7.298,9.077,12.468,16.927,12.505
		c3.917,4.065,9.539,6.431,15.61,6.002c5.111-0.36,9.628-2.637,12.903-6.077c2.667,2.015,6.044,3.113,9.64,2.859
		c4.231-0.298,7.902-2.406,10.313-5.513c1.678,0.519,3.477,0.745,5.334,0.613c8.045-0.568,14.105-7.55,13.538-15.594
		c-0.191-2.695-1.104-5.165-2.532-7.24C121.925,45.468,123.836,41.363,123.521,36.899z"/>
	<path fill="none" stroke="#CE6363" stroke-width="7" stroke-linecap="round" stroke-linejoin="round" stroke-miterlimit="10" d="
		M37.499,59.265c1.66-2.806,2.241-6.756,6.773-8.241c3.723-1.219,6.933-0.489,10.126,1.364"/>
	<path fill="none" stroke="#CE6363" stroke-width="7" stroke-linecap="round" stroke-linejoin="round" stroke-miterlimit="10" d="
		M57.639,41.461c-0.66,5.112-4.361,9.366-3.624,14.966c0.539,4.088,4.04,6.473,7.241,7.847"/>
	<path fill="none" stroke="#CE6363" stroke-width="7" stroke-linecap="round" stroke-linejoin="round" stroke-miterlimit="10" d="
		M104.15,29.418c-4.107,5.169-5.657,10.906-1.23,17.098c2.911,4.07,10.409,6.362,14.58,2.864"/>
	<path fill="none" stroke="#CE6363" stroke-width="7" stroke-linecap="round" stroke-linejoin="round" stroke-miterlimit="10" d="
		M95.727,62.021c-0.282-3.988-0.938-7.089,1.434-10.402c1.699-2.371,3.791-2.997,6.232-3.874"/>
	<path fill="none" stroke="#CE6363" stroke-width="7" stroke-linecap="round" stroke-linejoin="round" stroke-miterlimit="10" d="
		M36.514,24.085c0.029,2.359,1.807,3.249,3.312,4.639c1.863,1.719,3.503,2.593,6.027,2.864c2.056,0.221,4.037,0.158,6.078-0.294
		c2.484-0.55,3.764-1.668,5.742-3.146"/>
	<path fill="none" stroke="#CE6363" stroke-width="7" stroke-linecap="round" stroke-linejoin="round" stroke-miterlimit="10" d="
		M68.185,50.312c4.447-1.513,8.714-1.937,11.683,2.292c0.874,1.244,1.638,2.707,1.789,4.211c0.203,2.031-0.684,2.945-1.439,4.574"/>
	<path fill="none" stroke="#CE6363" stroke-width="7" stroke-linecap="round" stroke-linejoin="round" stroke-miterlimit="10" d="
		M85.857,18.432c-0.085,1.066-1.565,1.676-2.269,2.421c-0.93,0.983-1.474,1.885-2.666,2.566c-1.47,0.84-3.198,1.362-4.771,1.523
		c-2.419,0.249-7.234-0.048-8.195-2.806"/>
	<path fill="none" stroke="#CE6363" stroke-width="7" stroke-linecap="round" stroke-linejoin="round" stroke-miterlimit="10" d="
		M87.018,36.784c-3.831,1.643-9.852,1.413-12.085-2.701c-1.167-2.15-2.357-5.657-0.439-7.665"/>
</g>
<g>
	<path fill="#E9F6F6" d="M283.177,82.779c-5.748,0.294-11.455-5.791-11.455-5.791l-0.032-29.371l29.455-29.456h-61.679
		l29.456,29.456v29.371c0,0-5.707,6.085-11.455,5.791H283.177z"/>
	<g opacity="0.4">
		<path fill="#D3E0E0" d="M257.467,82.779c0.244,0.012,0.488,0.01,0.731,0H257.467z"/>
		<path fill="#D3E0E0" d="M270.337,18.163h-30.871l29.456,29.456v29.371c0,0-5.233,5.575-10.723,5.791h12.139V18.163z"/>
	</g>
	<polygon fill="#B6D29A" points="271.366,43.755 293.929,21.193 246.683,21.193 269.246,43.755 	"/>
	<polygon fill="#F4F0DF" points="272.203,38.316 269.291,41.939 271.968,38.14 293.741,9.085 293.976,9.261 	"/>
	<g>
		
			<ellipse transform="matrix(0.7731 -0.6342 0.6342 0.7731 42.4363 182.6604)" fill="#9AA958" cx="276.554" cy="32.01" rx="2.852" ry="3.944"/>
		
			<ellipse transform="matrix(0.7729 -0.6345 0.6345 0.7729 41.5504 184.1445)" fill="#C53E3C" cx="278.018" cy="34.028" rx="0.902" ry="0.696"/>
	</g>
</g>
<g>
	<path fill="#E9F6F6" d="M283.177,82.779c-5.748,0.294-11.455-5.791-11.455-5.791l-0.032-29.371l29.455-29.456h-61.679
		l29.456,29.456v29.371c0,0-5.707,6.085-11.455,5.791H283.177z"/>
	<g opacity="0.4">
		<path fill="#D3E0E0" d="M257.467,82.779c0.244,0.012,0.488,0.01,0.731,0H257.467z"/>
		<path fill="#D3E0E0" d="M270.337,18.163h-30.871l29.456,29.456v29.371c0,0-5.233,5.575-10.723,5.791h12.139V18.163z"/>
	</g>
	<polygon fill="#B6D29A" points="271.366,43.755 293.929,21.193 246.683,21.193 269.246,43.755 	"/>
	<polygon fill="#F4F0DF" points="272.203,38.316 269.291,41.939 271.968,38.14 293.741,9.085 293.976,9.261 	"/>
	<g>
		
			<ellipse transform="matrix(0.7731 -0.6342 0.6342 0.7731 42.4363 182.6604)" fill="#9AA958" cx="276.554" cy="32.01" rx="2.852" ry="3.944"/>
		
			<ellipse transform="matrix(0.7729 -0.6345 0.6345 0.7729 41.5504 184.1445)" fill="#C53E3C" cx="278.018" cy="34.028" rx="0.902" ry="0.696"/>
	</g>
</g>
<g>
	<polygon fill="#E9F6F6" points="395.676,22.067 391.161,81.371 361.27,81.371 356.753,22.067 	"/>
</g>
<g>
	<polygon fill="#ECBB57" points="359.344,37.046 363.249,77.442 389.18,77.442 393.176,37.046 	"/>
</g>
<g>
	<path fill="#FFFFFF" d="M377.324,39.067c0.394,0.466,0.336,1.162-0.13,1.557l-5.876,4.97c-0.466,0.394-1.163,0.335-1.557-0.13
		l-4.97-5.877c-0.394-0.465-0.336-1.162,0.129-1.555l5.877-4.97c0.465-0.395,1.163-0.336,1.555,0.13L377.324,39.067z"/>
</g>
<g>
	<path fill="#FFFFFF" d="M387.132,44.863c-0.249,0.556-0.901,0.806-1.458,0.556l-7.025-3.144c-0.558-0.25-0.806-0.902-0.558-1.459
		l3.145-7.025c0.25-0.557,0.902-0.806,1.459-0.557l7.025,3.145c0.557,0.249,0.806,0.901,0.557,1.458L387.132,44.863z"/>
</g>
<g opacity="0.5">
	<polygon fill="#ECBB57" points="359.344,37.046 363.249,77.442 389.18,77.442 393.176,37.046 	"/>
</g>
<g>
	<circle fill="#73903C" cx="395.982" cy="21.944" r="10.007"/>
</g>
<g>
	<circle fill="#FFFFFF" cx="395.982" cy="21.944" r="9.332"/>
</g>
<g>
	<circle fill="#C4D22E" cx="395.982" cy="21.944" r="8.718"/>
</g>
<g>
	<rect x="395.737" y="13.073" fill="#FFFFFF" width="0.492" height="17.988"/>
</g>
<g>
	<rect x="386.989" y="21.821" fill="#FFFFFF" width="17.988" height="0.491"/>
</g>
<g>
	
		<rect x="395.733" y="13.073" transform="matrix(-0.7071 -0.7071 0.7071 -0.7071 660.3738 317.67)" fill="#FFFFFF" width="0.492" height="17.987"/>
</g>
<g>
	
		<rect x="386.987" y="21.821" transform="matrix(-0.7071 -0.7071 0.7071 -0.7071 660.3665 317.6799)" fill="#FFFFFF" width="17.988" height="0.491"/>
</g>
<g opacity="0.7">
	<polygon fill="#E9F6F6" points="394.922,31.951 395.676,22.067 356.753,22.067 357.506,31.951 	"/>
</g>
<path fill="#E9F6F6" d="M323.899,77.207l-0.031-28.709c8.529-0.881,15.24-10.195,15.24-21.564c0-3.211-0.54-6.255-1.5-8.996h-30.125
	c-0.96,2.741-1.5,5.785-1.5,8.996c0,11.313,6.646,20.592,15.114,21.552v28.722c0,0-5.234,5.576-10.725,5.791h24.25
	C329.133,82.782,323.899,77.207,323.899,77.207z"/>
<path opacity="0.4" fill="#D3E0E0" enable-background="new    " d="M310.374,82.997h12.173v-65.06h-15.062
	c-0.96,2.741-1.5,5.785-1.5,8.996c0,11.312,6.646,20.592,15.114,21.552v28.722C321.098,77.207,315.864,82.782,310.374,82.997z"/>
<path fill="#78133C" d="M308.149,28.969c0.401,9.935,6.693,17.83,14.397,17.83c7.704,0,13.996-7.895,14.397-17.83H308.149z"/>
<g>
	<g>
		<path fill="#813458" d="M310.032,31.634c1.298,5.788,4.02,11.511,9.985,13.562c1.324,0.455,1.888-1.637,0.576-2.087
			c-5.202-1.789-7.358-7.081-8.472-12.05C311.814,29.696,309.727,30.274,310.032,31.634L310.032,31.634z"/>
	</g>
</g>
</svg>
